<?xml version="1.0" encoding="UTF-8" standalone="no"?><svg xmlns="http://www.w3.org/2000/svg" xmlns:xlink="http://www.w3.org/1999/xlink" contentScriptType="application/ecmascript" contentStyleType="text/css" height="256px" preserveAspectRatio="none" style="width:134px;height:256px;" version="1.1" viewBox="0 0 134 256" width="134px" zoomAndPan="magnify"><defs><filter height="300%" id="f10cjdg0hzjc3b" width="300%" x="-1" y="-1"><feGaussianBlur result="blurOut" stdDeviation="2.0"/><feColorMatrix in="blurOut" result="blurOut2" type="matrix" values="0 0 0 0 0 0 0 0 0 0 0 0 0 0 0 0 0 0 .4 0"/><feOffset dx="4.0" dy="4.0" in="blurOut2" result="blurOut3"/><feBlend in="SourceGraphic" in2="blurOut3" mode="normal"/></filter></defs><g><!--class switch1--><rect fill="#FEFECE" filter="url(#f10cjdg0hzjc3b)" height="73.6094" id="switch1" style="stroke: #A80036; stroke-width: 1.5;" width="117" x="6" y="8"/><ellipse cx="41.25" cy="24" fill="#ADD1B2" rx="11" ry="11" style="stroke: #A80036; stroke-width: 1.0;"/><path d="M44.2188,29.6406 Q43.6406,29.9375 43,30.0859 Q42.3594,30.2344 41.6563,30.2344 Q39.1563,30.2344 37.8359,28.5859 Q36.5156,26.9375 36.5156,23.8125 Q36.5156,20.6875 37.8359,19.0313 Q39.1563,17.375 41.6563,17.375 Q42.3594,17.375 43.0078,17.5313 Q43.6563,17.6875 44.2188,17.9844 L44.2188,20.7031 Q43.5938,20.125 43,19.8516 Q42.4063,19.5781 41.7813,19.5781 Q40.4375,19.5781 39.75,20.6484 Q39.0625,21.7188 39.0625,23.8125 Q39.0625,25.9063 39.75,26.9766 Q40.4375,28.0469 41.7813,28.0469 Q42.4063,28.0469 43,27.7734 Q43.5938,27.5 44.2188,26.9219 L44.2188,29.6406 Z "/><text fill="#000000" font-family="sans-serif" font-size="12" lengthAdjust="spacingAndGlyphs" textLength="40" x="59.75" y="28.1543">Switch</text><line style="stroke: #A80036; stroke-width: 1.5;" x1="7" x2="122" y1="40" y2="40"/><text fill="#000000" font-family="sans-serif" font-size="11" lengthAdjust="spacingAndGlyphs" textLength="105" x="12" y="54.2104">state: State = OFF</text><line style="stroke: #A80036; stroke-width: 1.5;" x1="7" x2="122" y1="60.8047" y2="60.8047"/><text fill="#000000" font-family="sans-serif" font-size="11" lengthAdjust="spacingAndGlyphs" textLength="41" x="12" y="75.0151">press()</text><!--class lamp1--><rect fill="#FEFECE" filter="url(#f10cjdg0hzjc3b)" height="86.4141" id="lamp1" style="stroke: #A80036; stroke-width: 1.5;" width="117" x="6" y="159"/><ellipse cx="44.4" cy="175" fill="#ADD1B2" rx="11" ry="11" style="stroke: #A80036; stroke-width: 1.0;"/><path d="M47.3688,180.6406 Q46.7906,180.9375 46.15,181.0859 Q45.5094,181.2344 44.8063,181.2344 Q42.3063,181.2344 40.9859,179.5859 Q39.6656,177.9375 39.6656,174.8125 Q39.6656,171.6875 40.9859,170.0313 Q42.3063,168.375 44.8063,168.375 Q45.5094,168.375 46.1578,168.5313 Q46.8063,168.6875 47.3688,168.9844 L47.3688,171.7031 Q46.7438,171.125 46.15,170.8516 Q45.5563,170.5781 44.9313,170.5781 Q43.5875,170.5781 42.9,171.6484 Q42.2125,172.7188 42.2125,174.8125 Q42.2125,176.9063 42.9,177.9766 Q43.5875,179.0469 44.9313,179.0469 Q45.5563,179.0469 46.15,178.7734 Q46.7438,178.5 47.3688,177.9219 L47.3688,180.6406 Z "/><text fill="#000000" font-family="sans-serif" font-size="12" lengthAdjust="spacingAndGlyphs" textLength="33" x="63.6" y="179.1543">Lamp</text><line style="stroke: #A80036; stroke-width: 1.5;" x1="7" x2="122" y1="191" y2="191"/><text fill="#000000" font-family="sans-serif" font-size="11" lengthAdjust="spacingAndGlyphs" textLength="105" x="12" y="205.2104">state: State = OFF</text><line style="stroke: #A80036; stroke-width: 1.5;" x1="7" x2="122" y1="211.8047" y2="211.8047"/><text fill="#000000" font-family="sans-serif" font-size="11" lengthAdjust="spacingAndGlyphs" textLength="47" x="12" y="226.0151">turnOn()</text><text fill="#000000" font-family="sans-serif" font-size="11" lengthAdjust="spacingAndGlyphs" textLength="48" x="12" y="238.8198">turnOff()</text><!--link switch1 to lamp1--><path d="M64.5,82.2068 C64.5,103.6195 64.5,130.7626 64.5,153.7954 " fill="none" id="switch1-lamp1" style="stroke: #A80036; stroke-width: 1.0;"/><polygon fill="#A80036" points="64.5,158.9466,68.5,149.9466,64.5,153.9466,60.5,149.9466,64.5,158.9466" style="stroke: #A80036; stroke-width: 1.0;"/><text fill="#000000" font-family="sans-serif" font-size="13" lengthAdjust="spacingAndGlyphs" textLength="51" x="65.5" y="125.0669">controls</text><text fill="#000000" font-family="sans-serif" font-size="13" lengthAdjust="spacingAndGlyphs" textLength="8" x="47.175" y="101.7216">1</text><text fill="#000000" font-family="sans-serif" font-size="13" lengthAdjust="spacingAndGlyphs" textLength="7" x="56.9422" y="147.9341">*</text><!--
@startuml
class "Switch" as switch1 {
  state: State = OFF
  press()
}

class "Lamp" as lamp1 {
  state: State = OFF
  turnOn()
  turnOff()
}

switch1 "1  " - -> "*" lamp1 : controls
@enduml

PlantUML version 1.2018.01(Sun Jan 28 19:08:22 CET 2018)
(APACHE source distribution)
Java Runtime: Java(TM) SE Runtime Environment
JVM: Java HotSpot(TM) 64-Bit Server VM
Java Version: 10.0.1+10
Operating System: Linux
OS Version: 4.18.1-arch1-1-ARCH
Default Encoding: UTF-8
Language: de
Country: DE
--></g></svg>