<?xml version="1.0" encoding="UTF-8" standalone="no"?><svg xmlns="http://www.w3.org/2000/svg" xmlns:xlink="http://www.w3.org/1999/xlink" contentScriptType="application/ecmascript" contentStyleType="text/css" height="322px" preserveAspectRatio="none" style="width:570px;height:322px;" version="1.1" viewBox="0 0 570 322" width="570px" zoomAndPan="magnify"><defs><filter height="300%" id="fvjgwz43e3tm" width="300%" x="-1" y="-1"><feGaussianBlur result="blurOut" stdDeviation="2.0"/><feColorMatrix in="blurOut" result="blurOut2" type="matrix" values="0 0 0 0 0 0 0 0 0 0 0 0 0 0 0 0 0 0 .4 0"/><feOffset dx="4.0" dy="4.0" in="blurOut2" result="blurOut3"/><feBlend in="SourceGraphic" in2="blurOut3" mode="normal"/></filter></defs><g><rect fill="#FFFFFF" filter="url(#fvjgwz43e3tm)" height="100.3984" style="stroke: #A80036; stroke-width: 1.0;" width="10" x="216.5" y="117.2969"/><rect fill="#FFFFFF" filter="url(#fvjgwz43e3tm)" height="14.1328" style="stroke: #A80036; stroke-width: 1.0;" width="10" x="362" y="146.4297"/><rect fill="#FFFFFF" filter="url(#fvjgwz43e3tm)" height="14.1328" style="stroke: #A80036; stroke-width: 1.0;" width="10" x="496" y="189.5625"/><line style="stroke: #A80036; stroke-width: 1.0; stroke-dasharray: 5.0,5.0;" x1="43" x2="43" y1="86.2969" y2="235.6953"/><line style="stroke: #A80036; stroke-width: 1.0; stroke-dasharray: 5.0,5.0;" x1="113" x2="113" y1="86.2969" y2="235.6953"/><line style="stroke: #A80036; stroke-width: 1.0; stroke-dasharray: 5.0,5.0;" x1="221" x2="221" y1="86.2969" y2="235.6953"/><line style="stroke: #A80036; stroke-width: 1.0; stroke-dasharray: 5.0,5.0;" x1="367" x2="367" y1="86.2969" y2="235.6953"/><line style="stroke: #A80036; stroke-width: 1.0; stroke-dasharray: 5.0,5.0;" x1="501" x2="501" y1="86.2969" y2="235.6953"/><text fill="#000000" font-family="sans-serif" font-size="14" lengthAdjust="spacingAndGlyphs" textLength="64" x="8" y="82.9951">Benutzer</text><ellipse cx="43" cy="13" fill="#FEFECE" filter="url(#fvjgwz43e3tm)" rx="8" ry="8" style="stroke: #A80036; stroke-width: 2.0;"/><path d="M43,21 L43,48 M30,29 L56,29 M43,48 L30,63 M43,48 L56,63 " fill="none" filter="url(#fvjgwz43e3tm)" style="stroke: #A80036; stroke-width: 2.0;"/><text fill="#000000" font-family="sans-serif" font-size="14" lengthAdjust="spacingAndGlyphs" textLength="64" x="8" y="247.6904">Benutzer</text><ellipse cx="43" cy="260.9922" fill="#FEFECE" filter="url(#fvjgwz43e3tm)" rx="8" ry="8" style="stroke: #A80036; stroke-width: 2.0;"/><path d="M43,268.9922 L43,295.9922 M30,276.9922 L56,276.9922 M43,295.9922 L30,310.9922 M43,295.9922 L56,310.9922 " fill="none" filter="url(#fvjgwz43e3tm)" style="stroke: #A80036; stroke-width: 2.0;"/><rect fill="#FEFECE" filter="url(#fvjgwz43e3tm)" height="30.2969" style="stroke: #A80036; stroke-width: 1.5;" width="46" x="88" y="51"/><text fill="#000000" font-family="sans-serif" font-size="14" lengthAdjust="spacingAndGlyphs" textLength="32" x="95" y="70.9951">Cem</text><rect fill="#FEFECE" filter="url(#fvjgwz43e3tm)" height="30.2969" style="stroke: #A80036; stroke-width: 1.5;" width="46" x="88" y="234.6953"/><text fill="#000000" font-family="sans-serif" font-size="14" lengthAdjust="spacingAndGlyphs" textLength="32" x="95" y="254.6904">Cem</text><rect fill="#FEFECE" filter="url(#fvjgwz43e3tm)" height="30.2969" style="stroke: #A80036; stroke-width: 1.5;" width="143" x="148" y="51"/><text fill="#000000" font-family="sans-serif" font-size="14" lengthAdjust="spacingAndGlyphs" text-decoration="underline" textLength="129" x="155" y="70.9951">schalter1: Schalter</text><line style="stroke: #000000; stroke-width: 1.0;" x1="155" x2="284" y1="72.9951" y2="72.9951"/><rect fill="#FEFECE" filter="url(#fvjgwz43e3tm)" height="30.2969" style="stroke: #A80036; stroke-width: 1.5;" width="143" x="148" y="234.6953"/><text fill="#000000" font-family="sans-serif" font-size="14" lengthAdjust="spacingAndGlyphs" text-decoration="underline" textLength="129" x="155" y="254.6904">schalter1: Schalter</text><line style="stroke: #000000; stroke-width: 1.0;" x1="155" x2="284" y1="256.6904" y2="256.6904"/><rect fill="#FEFECE" filter="url(#fvjgwz43e3tm)" height="30.2969" style="stroke: #A80036; stroke-width: 1.5;" width="120" x="305" y="51"/><text fill="#000000" font-family="sans-serif" font-size="14" lengthAdjust="spacingAndGlyphs" text-decoration="underline" textLength="106" x="312" y="70.9951">lampe1: Lampe</text><line style="stroke: #000000; stroke-width: 1.0;" x1="312" x2="418" y1="72.9951" y2="72.9951"/><rect fill="#FEFECE" filter="url(#fvjgwz43e3tm)" height="30.2969" style="stroke: #A80036; stroke-width: 1.5;" width="120" x="305" y="234.6953"/><text fill="#000000" font-family="sans-serif" font-size="14" lengthAdjust="spacingAndGlyphs" text-decoration="underline" textLength="106" x="312" y="254.6904">lampe1: Lampe</text><line style="stroke: #000000; stroke-width: 1.0;" x1="312" x2="418" y1="256.6904" y2="256.6904"/><rect fill="#FEFECE" filter="url(#fvjgwz43e3tm)" height="30.2969" style="stroke: #A80036; stroke-width: 1.5;" width="120" x="439" y="51"/><text fill="#000000" font-family="sans-serif" font-size="14" lengthAdjust="spacingAndGlyphs" text-decoration="underline" textLength="106" x="446" y="70.9951">lampe2: Lampe</text><line style="stroke: #000000; stroke-width: 1.0;" x1="446" x2="552" y1="72.9951" y2="72.9951"/><rect fill="#FEFECE" filter="url(#fvjgwz43e3tm)" height="30.2969" style="stroke: #A80036; stroke-width: 1.5;" width="120" x="439" y="234.6953"/><text fill="#000000" font-family="sans-serif" font-size="14" lengthAdjust="spacingAndGlyphs" text-decoration="underline" textLength="106" x="446" y="254.6904">lampe2: Lampe</text><line style="stroke: #000000; stroke-width: 1.0;" x1="446" x2="552" y1="256.6904" y2="256.6904"/><rect fill="#FFFFFF" filter="url(#fvjgwz43e3tm)" height="100.3984" style="stroke: #A80036; stroke-width: 1.0;" width="10" x="216.5" y="117.2969"/><rect fill="#FFFFFF" filter="url(#fvjgwz43e3tm)" height="14.1328" style="stroke: #A80036; stroke-width: 1.0;" width="10" x="362" y="146.4297"/><rect fill="#FFFFFF" filter="url(#fvjgwz43e3tm)" height="14.1328" style="stroke: #A80036; stroke-width: 1.0;" width="10" x="496" y="189.5625"/><polygon fill="#A80036" points="204.5,113.2969,214.5,117.2969,204.5,121.2969,208.5,117.2969" style="stroke: #A80036; stroke-width: 1.0;"/><line style="stroke: #A80036; stroke-width: 1.0;" x1="113" x2="210.5" y1="117.2969" y2="117.2969"/><text fill="#000000" font-family="sans-serif" font-size="13" lengthAdjust="spacingAndGlyphs" textLength="61" x="120" y="112.3638">drücken()</text><polygon fill="#A80036" points="350,142.4297,360,146.4297,350,150.4297,354,146.4297" style="stroke: #A80036; stroke-width: 1.0;"/><line style="stroke: #A80036; stroke-width: 1.0;" x1="226.5" x2="356" y1="146.4297" y2="146.4297"/><text fill="#000000" font-family="sans-serif" font-size="13" lengthAdjust="spacingAndGlyphs" textLength="87" x="233.5" y="141.4966">ausschalten()</text><line style="stroke: #A80036; stroke-width: 1.0;" x1="226.5" x2="236.5" y1="160.5625" y2="156.5625"/><line style="stroke: #A80036; stroke-width: 1.0;" x1="226.5" x2="236.5" y1="160.5625" y2="164.5625"/><line style="stroke: #A80036; stroke-width: 1.0; stroke-dasharray: 2.0,2.0;" x1="226.5" x2="366" y1="160.5625" y2="160.5625"/><polygon fill="#A80036" points="484,185.5625,494,189.5625,484,193.5625,488,189.5625" style="stroke: #A80036; stroke-width: 1.0;"/><line style="stroke: #A80036; stroke-width: 1.0;" x1="226.5" x2="490" y1="189.5625" y2="189.5625"/><text fill="#000000" font-family="sans-serif" font-size="13" lengthAdjust="spacingAndGlyphs" textLength="87" x="233.5" y="184.6294">ausschalten()</text><line style="stroke: #A80036; stroke-width: 1.0;" x1="226.5" x2="236.5" y1="203.6953" y2="199.6953"/><line style="stroke: #A80036; stroke-width: 1.0;" x1="226.5" x2="236.5" y1="203.6953" y2="207.6953"/><line style="stroke: #A80036; stroke-width: 1.0; stroke-dasharray: 2.0,2.0;" x1="226.5" x2="500" y1="203.6953" y2="203.6953"/><line style="stroke: #A80036; stroke-width: 1.0;" x1="113" x2="123" y1="217.6953" y2="213.6953"/><line style="stroke: #A80036; stroke-width: 1.0;" x1="113" x2="123" y1="217.6953" y2="221.6953"/><line style="stroke: #A80036; stroke-width: 1.0; stroke-dasharray: 2.0,2.0;" x1="113" x2="220.5" y1="217.6953" y2="217.6953"/><!--
@startuml
actor Benutzer

Cem -> "<u>schalter1: Schalter</u>" as schalter1: drücken()
activate schalter1

schalter1 -> "<u>lampe1: Lampe</u>" as lampe1: ausschalten()
activate lampe1

lampe1 - ->> schalter1
deactivate lampe1

schalter1 -> "<u>lampe2: Lampe</u>" as lampe2: ausschalten()
activate lampe2

lampe2 - ->> schalter1
deactivate lampe2

schalter1 - ->> Cem
deactivate schalter1
@enduml

PlantUML version 1.2018.01(Sun Jan 28 19:08:22 CET 2018)
(APACHE source distribution)
Java Runtime: OpenJDK Runtime Environment
JVM: OpenJDK 64-Bit Server VM
Java Version: 1.8.0_172-b11
Operating System: Linux
OS Version: 4.16.7-1-ARCH
Default Encoding: UTF-8
Language: de
Country: DE
--></g></svg>