<?xml version="1.0" encoding="UTF-8" standalone="no"?><svg xmlns="http://www.w3.org/2000/svg" xmlns:xlink="http://www.w3.org/1999/xlink" contentScriptType="application/ecmascript" contentStyleType="text/css" height="243px" preserveAspectRatio="none" style="width:166px;height:243px;" version="1.1" viewBox="0 0 166 243" width="166px" zoomAndPan="magnify"><defs><filter height="300%" id="fmt4bnntzvt38" width="300%" x="-1" y="-1"><feGaussianBlur result="blurOut" stdDeviation="2.0"/><feColorMatrix in="blurOut" result="blurOut2" type="matrix" values="0 0 0 0 0 0 0 0 0 0 0 0 0 0 0 0 0 0 .4 0"/><feOffset dx="4.0" dy="4.0" in="blurOut2" result="blurOut3"/><feBlend in="SourceGraphic" in2="blurOut3" mode="normal"/></filter></defs><g><!--class schalter1--><rect fill="#FEFECE" filter="url(#fmt4bnntzvt38)" height="73.6094" id="schalter1" style="stroke: #A80036; stroke-width: 1.5;" width="149" x="6" y="8"/><ellipse cx="50.25" cy="24" fill="#ADD1B2" rx="11" ry="11" style="stroke: #A80036; stroke-width: 1.0;"/><path d="M53.2188,29.6406 Q52.6406,29.9375 52,30.0859 Q51.3594,30.2344 50.6563,30.2344 Q48.1563,30.2344 46.8359,28.5859 Q45.5156,26.9375 45.5156,23.8125 Q45.5156,20.6875 46.8359,19.0313 Q48.1563,17.375 50.6563,17.375 Q51.3594,17.375 52.0078,17.5313 Q52.6563,17.6875 53.2188,17.9844 L53.2188,20.7031 Q52.5938,20.125 52,19.8516 Q51.4063,19.5781 50.7813,19.5781 Q49.4375,19.5781 48.75,20.6484 Q48.0625,21.7188 48.0625,23.8125 Q48.0625,25.9063 48.75,26.9766 Q49.4375,28.0469 50.7813,28.0469 Q51.4063,28.0469 52,27.7734 Q52.5938,27.5 53.2188,26.9219 L53.2188,29.6406 Z "/><text fill="#000000" font-family="sans-serif" font-size="12" lengthAdjust="spacingAndGlyphs" textLength="52" x="70.75" y="28.1543">Schalter</text><line style="stroke: #A80036; stroke-width: 1.5;" x1="7" x2="154" y1="40" y2="40"/><text fill="#000000" font-family="sans-serif" font-size="11" lengthAdjust="spacingAndGlyphs" textLength="137" x="12" y="54.2104">zustand: Zustand = AUS</text><line style="stroke: #A80036; stroke-width: 1.5;" x1="7" x2="154" y1="60.8047" y2="60.8047"/><text fill="#000000" font-family="sans-serif" font-size="11" lengthAdjust="spacingAndGlyphs" textLength="53" x="12" y="75.0151">drücken()</text><!--class lampe1--><rect fill="#FEFECE" filter="url(#fmt4bnntzvt38)" height="73.6094" id="lampe1" style="stroke: #A80036; stroke-width: 1.5;" width="149" x="6" y="159"/><ellipse cx="55.75" cy="175" fill="#ADD1B2" rx="11" ry="11" style="stroke: #A80036; stroke-width: 1.0;"/><path d="M58.7188,180.6406 Q58.1406,180.9375 57.5,181.0859 Q56.8594,181.2344 56.1563,181.2344 Q53.6563,181.2344 52.3359,179.5859 Q51.0156,177.9375 51.0156,174.8125 Q51.0156,171.6875 52.3359,170.0313 Q53.6563,168.375 56.1563,168.375 Q56.8594,168.375 57.5078,168.5313 Q58.1563,168.6875 58.7188,168.9844 L58.7188,171.7031 Q58.0938,171.125 57.5,170.8516 Q56.9063,170.5781 56.2813,170.5781 Q54.9375,170.5781 54.25,171.6484 Q53.5625,172.7188 53.5625,174.8125 Q53.5625,176.9063 54.25,177.9766 Q54.9375,179.0469 56.2813,179.0469 Q56.9063,179.0469 57.5,178.7734 Q58.0938,178.5 58.7188,177.9219 L58.7188,180.6406 Z "/><text fill="#000000" font-family="sans-serif" font-size="12" lengthAdjust="spacingAndGlyphs" textLength="41" x="76.25" y="179.1543">Lampe</text><line style="stroke: #A80036; stroke-width: 1.5;" x1="7" x2="154" y1="191" y2="191"/><text fill="#000000" font-family="sans-serif" font-size="11" lengthAdjust="spacingAndGlyphs" textLength="137" x="12" y="205.2104">zustand: Zustand = AUS</text><line style="stroke: #A80036; stroke-width: 1.5;" x1="7" x2="154" y1="211.8047" y2="211.8047"/><text fill="#000000" font-family="sans-serif" font-size="11" lengthAdjust="spacingAndGlyphs" textLength="73" x="12" y="226.0151">einschalten()</text><!--link schalter1 to lampe1--><path d="M80.5,82.3259 C80.5,104.0047 80.5,131.3818 80.5,153.8365 " fill="none" id="schalter1-lampe1" style="stroke: #A80036; stroke-width: 1.0;"/><polygon fill="#A80036" points="80.5,158.8421,84.5,149.8421,80.5,153.8421,76.5,149.8421,80.5,158.8421" style="stroke: #A80036; stroke-width: 1.0;"/><text fill="#000000" font-family="sans-serif" font-size="13" lengthAdjust="spacingAndGlyphs" textLength="51" x="81.5" y="125.0669">schaltet</text><text fill="#000000" font-family="sans-serif" font-size="13" lengthAdjust="spacingAndGlyphs" textLength="8" x="71.8625" y="101.5786">1</text><text fill="#000000" font-family="sans-serif" font-size="13" lengthAdjust="spacingAndGlyphs" textLength="7" x="72.8766" y="148.0009">*</text><!--
@startuml
class "Schalter" as schalter1 {
  zustand: Zustand = AUS
  drücken()
}

class "Lampe" as lampe1 {
  zustand: Zustand = AUS
  einschalten()
}

schalter1 "1" - -> "*" lampe1 : schaltet
@enduml

PlantUML version 1.2018.01(Sun Jan 28 19:08:22 CET 2018)
(APACHE source distribution)
Java Runtime: OpenJDK Runtime Environment
JVM: OpenJDK 64-Bit Server VM
Java Version: 1.8.0_172-b11
Operating System: Linux
OS Version: 4.16.10-1-ARCH
Default Encoding: UTF-8
Language: de
Country: DE
--></g></svg>