<?xml version="1.0" encoding="UTF-8" standalone="no"?><svg xmlns="http://www.w3.org/2000/svg" xmlns:xlink="http://www.w3.org/1999/xlink" contentScriptType="application/ecmascript" contentStyleType="text/css" height="98px" preserveAspectRatio="none" style="width:92px;height:98px;" version="1.1" viewBox="0 0 92 98" width="92px" zoomAndPan="magnify"><defs><filter height="300%" id="f1b4de1mz25ti" width="300%" x="-1" y="-1"><feGaussianBlur result="blurOut" stdDeviation="2.0"/><feColorMatrix in="blurOut" result="blurOut2" type="matrix" values="0 0 0 0 0 0 0 0 0 0 0 0 0 0 0 0 0 0 .4 0"/><feOffset dx="4.0" dy="4.0" in="blurOut2" result="blurOut3"/><feBlend in="SourceGraphic" in2="blurOut3" mode="normal"/></filter></defs><g><!--class State--><rect fill="#FEFECE" filter="url(#f1b4de1mz25ti)" height="79.5469" id="State" style="stroke: #A80036; stroke-width: 1.5;" width="75" x="6" y="8"/><ellipse cx="21" cy="26.9688" fill="#ADD1B2" rx="11" ry="11" style="stroke: #A80036; stroke-width: 1.0;"/><path d="M23.9688,32.6094 Q23.3906,32.9063 22.75,33.0547 Q22.1094,33.2031 21.4063,33.2031 Q18.9063,33.2031 17.5859,31.5547 Q16.2656,29.9063 16.2656,26.7813 Q16.2656,23.6563 17.5859,22 Q18.9063,20.3438 21.4063,20.3438 Q22.1094,20.3438 22.7578,20.5 Q23.4063,20.6563 23.9688,20.9531 L23.9688,23.6719 Q23.3438,23.0938 22.75,22.8203 Q22.1563,22.5469 21.5313,22.5469 Q20.1875,22.5469 19.5,23.6172 Q18.8125,24.6875 18.8125,26.7813 Q18.8125,28.875 19.5,29.9453 Q20.1875,31.0156 21.5313,31.0156 Q22.1563,31.0156 22.75,30.7422 Q23.3438,30.4688 23.9688,29.8906 L23.9688,32.6094 Z "/><text fill="#000000" font-family="sans-serif" font-size="12" font-style="italic" lengthAdjust="spacingAndGlyphs" textLength="47" x="33" y="24.1387">«enum»</text><text fill="#000000" font-family="sans-serif" font-size="12" lengthAdjust="spacingAndGlyphs" textLength="34" x="39.5" y="38.1074">State</text><line style="stroke: #A80036; stroke-width: 1.5;" x1="7" x2="80" y1="45.9375" y2="45.9375"/><text fill="#000000" font-family="sans-serif" font-size="11" lengthAdjust="spacingAndGlyphs" textLength="17" x="12" y="60.1479">ON</text><text fill="#000000" font-family="sans-serif" font-size="11" lengthAdjust="spacingAndGlyphs" textLength="21" x="12" y="72.9526">OFF</text><line style="stroke: #A80036; stroke-width: 1.5;" x1="7" x2="80" y1="79.5469" y2="79.5469"/><!--
@startuml
class "State" << enum >> {
  ON
  OFF
}
@enduml

PlantUML version 1.2018.01(Sun Jan 28 19:08:22 CET 2018)
(APACHE source distribution)
Java Runtime: OpenJDK Runtime Environment
JVM: OpenJDK 64-Bit Server VM
Java Version: 1.8.0_172-b11
Operating System: Linux
OS Version: 4.16.10-1-ARCH
Default Encoding: UTF-8
Language: de
Country: DE
--></g></svg>