<?xml version="1.0" encoding="UTF-8" standalone="no"?><svg xmlns="http://www.w3.org/2000/svg" xmlns:xlink="http://www.w3.org/1999/xlink" contentScriptType="application/ecmascript" contentStyleType="text/css" height="307px" preserveAspectRatio="none" style="width:244px;height:307px;" version="1.1" viewBox="0 0 244 307" width="244px" zoomAndPan="magnify"><defs><filter height="300%" id="f1nkm7idz2157i" width="300%" x="-1" y="-1"><feGaussianBlur result="blurOut" stdDeviation="2.0"/><feColorMatrix in="blurOut" result="blurOut2" type="matrix" values="0 0 0 0 0 0 0 0 0 0 0 0 0 0 0 0 0 0 .4 0"/><feOffset dx="4.0" dy="4.0" in="blurOut2" result="blurOut3"/><feBlend in="SourceGraphic" in2="blurOut3" mode="normal"/></filter></defs><g><!--class switch1--><rect fill="#FEFECE" filter="url(#f1nkm7idz2157i)" height="112.0234" id="switch1" style="stroke: #A80036; stroke-width: 1.5;" width="117" x="71" y="8"/><ellipse cx="106.25" cy="24" fill="#ADD1B2" rx="11" ry="11" style="stroke: #A80036; stroke-width: 1.0;"/><path d="M109.2188,29.6406 Q108.6406,29.9375 108,30.0859 Q107.3594,30.2344 106.6563,30.2344 Q104.1563,30.2344 102.8359,28.5859 Q101.5156,26.9375 101.5156,23.8125 Q101.5156,20.6875 102.8359,19.0313 Q104.1563,17.375 106.6563,17.375 Q107.3594,17.375 108.0078,17.5313 Q108.6563,17.6875 109.2188,17.9844 L109.2188,20.7031 Q108.5938,20.125 108,19.8516 Q107.4063,19.5781 106.7813,19.5781 Q105.4375,19.5781 104.75,20.6484 Q104.0625,21.7188 104.0625,23.8125 Q104.0625,25.9063 104.75,26.9766 Q105.4375,28.0469 106.7813,28.0469 Q107.4063,28.0469 108,27.7734 Q108.5938,27.5 109.2188,26.9219 L109.2188,29.6406 Z "/><text fill="#000000" font-family="sans-serif" font-size="12" lengthAdjust="spacingAndGlyphs" textLength="40" x="124.75" y="28.1543">Switch</text><line style="stroke: #A80036; stroke-width: 1.5;" x1="72" x2="187" y1="40" y2="40"/><text fill="#000000" font-family="sans-serif" font-size="11" lengthAdjust="spacingAndGlyphs" textLength="105" x="77" y="54.2104">state: State = OFF</text><line style="stroke: #A80036; stroke-width: 1.5;" x1="72" x2="187" y1="60.8047" y2="60.8047"/><text fill="#000000" font-family="sans-serif" font-size="11" lengthAdjust="spacingAndGlyphs" textLength="45" x="77" y="75.0151">Switch()</text><text fill="#000000" font-family="sans-serif" font-size="11" lengthAdjust="spacingAndGlyphs" textLength="41" x="77" y="87.8198">press()</text><text fill="#000000" font-family="sans-serif" font-size="11" lengthAdjust="spacingAndGlyphs" textLength="83" x="77" y="100.6245">connect(Lamp)</text><text fill="#000000" font-family="sans-serif" font-size="11" lengthAdjust="spacingAndGlyphs" textLength="100" x="77" y="113.4292">disconnect(Lamp)</text><!--class lamp1--><rect fill="#FEFECE" filter="url(#f1nkm7idz2157i)" height="99.2188" id="lamp1" style="stroke: #A80036; stroke-width: 1.5;" width="117" x="6" y="197"/><ellipse cx="44.4" cy="213" fill="#ADD1B2" rx="11" ry="11" style="stroke: #A80036; stroke-width: 1.0;"/><path d="M47.3688,218.6406 Q46.7906,218.9375 46.15,219.0859 Q45.5094,219.2344 44.8063,219.2344 Q42.3063,219.2344 40.9859,217.5859 Q39.6656,215.9375 39.6656,212.8125 Q39.6656,209.6875 40.9859,208.0313 Q42.3063,206.375 44.8063,206.375 Q45.5094,206.375 46.1578,206.5313 Q46.8063,206.6875 47.3688,206.9844 L47.3688,209.7031 Q46.7438,209.125 46.15,208.8516 Q45.5563,208.5781 44.9313,208.5781 Q43.5875,208.5781 42.9,209.6484 Q42.2125,210.7188 42.2125,212.8125 Q42.2125,214.9063 42.9,215.9766 Q43.5875,217.0469 44.9313,217.0469 Q45.5563,217.0469 46.15,216.7734 Q46.7438,216.5 47.3688,215.9219 L47.3688,218.6406 Z "/><text fill="#000000" font-family="sans-serif" font-size="12" lengthAdjust="spacingAndGlyphs" textLength="33" x="63.6" y="217.1543">Lamp</text><line style="stroke: #A80036; stroke-width: 1.5;" x1="7" x2="122" y1="229" y2="229"/><text fill="#000000" font-family="sans-serif" font-size="11" lengthAdjust="spacingAndGlyphs" textLength="105" x="12" y="243.2104">state: State = OFF</text><line style="stroke: #A80036; stroke-width: 1.5;" x1="7" x2="122" y1="249.8047" y2="249.8047"/><text fill="#000000" font-family="sans-serif" font-size="11" lengthAdjust="spacingAndGlyphs" textLength="39" x="12" y="264.0151">Lamp()</text><text fill="#000000" font-family="sans-serif" font-size="11" lengthAdjust="spacingAndGlyphs" textLength="47" x="12" y="276.8198">turnOn()</text><text fill="#000000" font-family="sans-serif" font-size="11" lengthAdjust="spacingAndGlyphs" textLength="48" x="12" y="289.6245">turnOff()</text><!--class State--><rect fill="#FEFECE" filter="url(#f1nkm7idz2157i)" height="79.5469" id="State" style="stroke: #A80036; stroke-width: 1.5;" width="75" x="158" y="206.5"/><ellipse cx="173" cy="225.4688" fill="#ADD1B2" rx="11" ry="11" style="stroke: #A80036; stroke-width: 1.0;"/><path d="M175.9688,231.1094 Q175.3906,231.4063 174.75,231.5547 Q174.1094,231.7031 173.4063,231.7031 Q170.9063,231.7031 169.5859,230.0547 Q168.2656,228.4063 168.2656,225.2813 Q168.2656,222.1563 169.5859,220.5 Q170.9063,218.8438 173.4063,218.8438 Q174.1094,218.8438 174.7578,219 Q175.4063,219.1563 175.9688,219.4531 L175.9688,222.1719 Q175.3438,221.5938 174.75,221.3203 Q174.1563,221.0469 173.5313,221.0469 Q172.1875,221.0469 171.5,222.1172 Q170.8125,223.1875 170.8125,225.2813 Q170.8125,227.375 171.5,228.4453 Q172.1875,229.5156 173.5313,229.5156 Q174.1563,229.5156 174.75,229.2422 Q175.3438,228.9688 175.9688,228.3906 L175.9688,231.1094 Z "/><text fill="#000000" font-family="sans-serif" font-size="12" font-style="italic" lengthAdjust="spacingAndGlyphs" textLength="47" x="185" y="222.6387">«enum»</text><text fill="#000000" font-family="sans-serif" font-size="12" lengthAdjust="spacingAndGlyphs" textLength="34" x="191.5" y="236.6074">State</text><line style="stroke: #A80036; stroke-width: 1.5;" x1="159" x2="232" y1="244.4375" y2="244.4375"/><text fill="#000000" font-family="sans-serif" font-size="11" lengthAdjust="spacingAndGlyphs" textLength="17" x="164" y="258.6479">ON</text><text fill="#000000" font-family="sans-serif" font-size="11" lengthAdjust="spacingAndGlyphs" textLength="21" x="164" y="271.4526">OFF</text><line style="stroke: #A80036; stroke-width: 1.5;" x1="159" x2="232" y1="278.0469" y2="278.0469"/><!--link switch1 to lamp1--><path d="M109.4675,120.2452 C101.3185,143.125 91.9369,169.4657 83.8581,192.1483 " fill="none" id="switch1-lamp1" style="stroke: #A80036; stroke-width: 1.0;"/><polygon fill="#A80036" points="82.1549,196.9305,88.9429,189.7944,83.8326,192.2204,81.4067,187.1101,82.1549,196.9305" style="stroke: #A80036; stroke-width: 1.0;"/><text fill="#000000" font-family="sans-serif" font-size="13" lengthAdjust="spacingAndGlyphs" textLength="51" x="97.5" y="163.0669">controls</text><text fill="#000000" font-family="sans-serif" font-size="13" lengthAdjust="spacingAndGlyphs" textLength="8" x="90.051" y="140.0877">1</text><text fill="#000000" font-family="sans-serif" font-size="13" lengthAdjust="spacingAndGlyphs" textLength="7" x="77.1454" y="185.966">*</text><!--link switch1 to State--><path d="M149.8407,120.2452 C159.286,146.3627 170.3621,176.9898 179.2397,201.5378 " fill="none" id="switch1-State" style="stroke: #A80036; stroke-width: 1.0;"/><polygon fill="#A80036" points="180.9848,206.3632,181.6853,196.5393,179.2842,201.6613,174.1622,199.2602,180.9848,206.3632" style="stroke: #A80036; stroke-width: 1.0;"/><!--link lamp1 to State--><path d="M123.0918,246.5 C132.967,246.5 142.8423,246.5 152.7176,246.5 " fill="none" id="lamp1-State" style="stroke: #A80036; stroke-width: 1.0;"/><polygon fill="#A80036" points="157.8817,246.5,148.8817,242.5,152.8817,246.5,148.8817,250.5,157.8817,246.5" style="stroke: #A80036; stroke-width: 1.0;"/><!--
@startuml
class "Switch" as switch1 {
  state: State = OFF
  Switch()
  press()
  connect(Lamp)
  disconnect(Lamp)
}

class "Lamp" as lamp1 {
  state: State = OFF
  Lamp()
  turnOn()
  turnOff()
}

class "State" << enum >> {
  ON
  OFF
}

switch1 "1  " - -> "*" lamp1 : controls
switch1 -> State
lamp1 -> State
@enduml

PlantUML version 1.2018.01(Sun Jan 28 19:08:22 CET 2018)
(APACHE source distribution)
Java Runtime: Java(TM) SE Runtime Environment
JVM: Java HotSpot(TM) 64-Bit Server VM
Java Version: 10.0.1+10
Operating System: Linux
OS Version: 4.18.1-arch1-1-ARCH
Default Encoding: UTF-8
Language: de
Country: DE
--></g></svg>