<?xml version="1.0" encoding="UTF-8" standalone="no"?><svg xmlns="http://www.w3.org/2000/svg" xmlns:xlink="http://www.w3.org/1999/xlink" contentScriptType="application/ecmascript" contentStyleType="text/css" height="307px" preserveAspectRatio="none" style="width:241px;height:307px;" version="1.1" viewBox="0 0 241 307" width="241px" zoomAndPan="magnify"><defs><filter height="300%" id="f1nkm7idz2157i" width="300%" x="-1" y="-1"><feGaussianBlur result="blurOut" stdDeviation="2.0"/><feColorMatrix in="blurOut" result="blurOut2" type="matrix" values="0 0 0 0 0 0 0 0 0 0 0 0 0 0 0 0 0 0 .4 0"/><feOffset dx="4.0" dy="4.0" in="blurOut2" result="blurOut3"/><feBlend in="SourceGraphic" in2="blurOut3" mode="normal"/></filter></defs><g><!--class switch1--><rect fill="#FEFECE" filter="url(#f1nkm7idz2157i)" height="112.0234" id="switch1" style="stroke: #A80036; stroke-width: 1.5;" width="114" x="71" y="8"/><ellipse cx="104.9" cy="24" fill="#ADD1B2" rx="11" ry="11" style="stroke: #A80036; stroke-width: 1.0;"/><path d="M107.8688,29.6406 Q107.2906,29.9375 106.65,30.0859 Q106.0094,30.2344 105.3063,30.2344 Q102.8063,30.2344 101.4859,28.5859 Q100.1656,26.9375 100.1656,23.8125 Q100.1656,20.6875 101.4859,19.0313 Q102.8063,17.375 105.3063,17.375 Q106.0094,17.375 106.6578,17.5313 Q107.3063,17.6875 107.8688,17.9844 L107.8688,20.7031 Q107.2438,20.125 106.65,19.8516 Q106.0563,19.5781 105.4313,19.5781 Q104.0875,19.5781 103.4,20.6484 Q102.7125,21.7188 102.7125,23.8125 Q102.7125,25.9063 103.4,26.9766 Q104.0875,28.0469 105.4313,28.0469 Q106.0563,28.0469 106.65,27.7734 Q107.2438,27.5 107.8688,26.9219 L107.8688,29.6406 Z "/><text fill="#000000" font-family="sans-serif" font-size="12" lengthAdjust="spacingAndGlyphs" textLength="40" x="123.1" y="28.1543">Switch</text><line style="stroke: #A80036; stroke-width: 1.5;" x1="72" x2="184" y1="40" y2="40"/><text fill="#000000" font-family="sans-serif" font-size="11" lengthAdjust="spacingAndGlyphs" textLength="102" x="77" y="54.2104">state: State = OFF</text><line style="stroke: #A80036; stroke-width: 1.5;" x1="72" x2="184" y1="60.8047" y2="60.8047"/><text fill="#000000" font-family="sans-serif" font-size="11" lengthAdjust="spacingAndGlyphs" textLength="45" x="77" y="75.0151">Switch()</text><text fill="#000000" font-family="sans-serif" font-size="11" lengthAdjust="spacingAndGlyphs" textLength="41" x="77" y="87.8198">press()</text><text fill="#000000" font-family="sans-serif" font-size="11" lengthAdjust="spacingAndGlyphs" textLength="83" x="77" y="100.6245">connect(Lamp)</text><text fill="#000000" font-family="sans-serif" font-size="11" lengthAdjust="spacingAndGlyphs" textLength="100" x="77" y="113.4292">disconnect(Lamp)</text><!--class lamp1--><rect fill="#FEFECE" filter="url(#f1nkm7idz2157i)" height="99.2188" id="lamp1" style="stroke: #A80036; stroke-width: 1.5;" width="114" x="6" y="197"/><ellipse cx="43.05" cy="213" fill="#ADD1B2" rx="11" ry="11" style="stroke: #A80036; stroke-width: 1.0;"/><path d="M46.0188,218.6406 Q45.4406,218.9375 44.8,219.0859 Q44.1594,219.2344 43.4563,219.2344 Q40.9563,219.2344 39.6359,217.5859 Q38.3156,215.9375 38.3156,212.8125 Q38.3156,209.6875 39.6359,208.0313 Q40.9563,206.375 43.4563,206.375 Q44.1594,206.375 44.8078,206.5313 Q45.4563,206.6875 46.0188,206.9844 L46.0188,209.7031 Q45.3938,209.125 44.8,208.8516 Q44.2063,208.5781 43.5813,208.5781 Q42.2375,208.5781 41.55,209.6484 Q40.8625,210.7188 40.8625,212.8125 Q40.8625,214.9063 41.55,215.9766 Q42.2375,217.0469 43.5813,217.0469 Q44.2063,217.0469 44.8,216.7734 Q45.3938,216.5 46.0188,215.9219 L46.0188,218.6406 Z "/><text fill="#000000" font-family="sans-serif" font-size="12" lengthAdjust="spacingAndGlyphs" textLength="33" x="61.95" y="217.1543">Lamp</text><line style="stroke: #A80036; stroke-width: 1.5;" x1="7" x2="119" y1="229" y2="229"/><text fill="#000000" font-family="sans-serif" font-size="11" lengthAdjust="spacingAndGlyphs" textLength="102" x="12" y="243.2104">state: State = OFF</text><line style="stroke: #A80036; stroke-width: 1.5;" x1="7" x2="119" y1="249.8047" y2="249.8047"/><text fill="#000000" font-family="sans-serif" font-size="11" lengthAdjust="spacingAndGlyphs" textLength="39" x="12" y="264.0151">Lamp()</text><text fill="#000000" font-family="sans-serif" font-size="11" lengthAdjust="spacingAndGlyphs" textLength="47" x="12" y="276.8198">turnOn()</text><text fill="#000000" font-family="sans-serif" font-size="11" lengthAdjust="spacingAndGlyphs" textLength="48" x="12" y="289.6245">turnOff()</text><!--class State--><rect fill="#FEFECE" filter="url(#f1nkm7idz2157i)" height="79.5469" id="State" style="stroke: #A80036; stroke-width: 1.5;" width="75" x="155.5" y="206.5"/><ellipse cx="170.5" cy="225.4688" fill="#ADD1B2" rx="11" ry="11" style="stroke: #A80036; stroke-width: 1.0;"/><path d="M173.4688,231.1094 Q172.8906,231.4063 172.25,231.5547 Q171.6094,231.7031 170.9063,231.7031 Q168.4063,231.7031 167.0859,230.0547 Q165.7656,228.4063 165.7656,225.2813 Q165.7656,222.1563 167.0859,220.5 Q168.4063,218.8438 170.9063,218.8438 Q171.6094,218.8438 172.2578,219 Q172.9063,219.1563 173.4688,219.4531 L173.4688,222.1719 Q172.8438,221.5938 172.25,221.3203 Q171.6563,221.0469 171.0313,221.0469 Q169.6875,221.0469 169,222.1172 Q168.3125,223.1875 168.3125,225.2813 Q168.3125,227.375 169,228.4453 Q169.6875,229.5156 171.0313,229.5156 Q171.6563,229.5156 172.25,229.2422 Q172.8438,228.9688 173.4688,228.3906 L173.4688,231.1094 Z "/><text fill="#000000" font-family="sans-serif" font-size="12" font-style="italic" lengthAdjust="spacingAndGlyphs" textLength="47" x="182.5" y="222.6387">«enum»</text><text fill="#000000" font-family="sans-serif" font-size="12" lengthAdjust="spacingAndGlyphs" textLength="34" x="189" y="236.6074">State</text><line style="stroke: #A80036; stroke-width: 1.5;" x1="156.5" x2="229.5" y1="244.4375" y2="244.4375"/><text fill="#000000" font-family="sans-serif" font-size="11" lengthAdjust="spacingAndGlyphs" textLength="17" x="161.5" y="258.6479">ON</text><text fill="#000000" font-family="sans-serif" font-size="11" lengthAdjust="spacingAndGlyphs" textLength="21" x="161.5" y="271.4526">OFF</text><line style="stroke: #A80036; stroke-width: 1.5;" x1="156.5" x2="229.5" y1="278.0469" y2="278.0469"/><!--link switch1 to lamp1--><path d="M107.9675,120.2452 C99.8185,143.125 90.4369,169.4657 82.3581,192.1483 " fill="none" id="switch1-lamp1" style="stroke: #A80036; stroke-width: 1.0;"/><polygon fill="#A80036" points="80.6549,196.9305,87.4429,189.7944,82.3326,192.2204,79.9067,187.1101,80.6549,196.9305" style="stroke: #A80036; stroke-width: 1.0;"/><text fill="#000000" font-family="sans-serif" font-size="13" lengthAdjust="spacingAndGlyphs" textLength="51" x="97" y="163.0669">controls</text><text fill="#000000" font-family="sans-serif" font-size="13" lengthAdjust="spacingAndGlyphs" textLength="8" x="88.551" y="140.0877">1</text><text fill="#000000" font-family="sans-serif" font-size="13" lengthAdjust="spacingAndGlyphs" textLength="7" x="75.6454" y="185.966">*</text><!--link switch1 to State--><path d="M148.0325,120.2452 C157.3347,146.3627 168.2429,176.9898 176.9861,201.5378 " fill="none" id="switch1-State" style="stroke: #A80036; stroke-width: 1.0;"/><polygon fill="#A80036" points="178.7047,206.3632,179.4529,196.5428,177.027,201.6531,171.9167,199.2271,178.7047,206.3632" style="stroke: #A80036; stroke-width: 1.0;"/><!--link lamp1 to State--><path d="M120.1289,246.5 C130.1481,246.5 140.1673,246.5 150.1865,246.5 " fill="none" id="lamp1-State" style="stroke: #A80036; stroke-width: 1.0;"/><polygon fill="#A80036" points="155.4258,246.5,146.4258,242.5,150.4258,246.5,146.4258,250.5,155.4258,246.5" style="stroke: #A80036; stroke-width: 1.0;"/><!--
@startuml
class "Switch" as switch1 {
  state: State = OFF
  Switch()
  press()
  connect(Lamp)
  disconnect(Lamp)
}

class "Lamp" as lamp1 {
  state: State = OFF
  Lamp()
  turnOn()
  turnOff()
}

class "State" << enum >> {
  ON
  OFF
}

switch1 "1  " - -> "*" lamp1 : controls
switch1 -> State
lamp1 -> State
@enduml

PlantUML version 1.2018.01(Sun Jan 28 19:08:22 CET 2018)
(APACHE source distribution)
Java Runtime: OpenJDK Runtime Environment
JVM: OpenJDK 64-Bit Server VM
Java Version: 1.8.0_172-b11
Operating System: Linux
OS Version: 4.16.10-1-ARCH
Default Encoding: UTF-8
Language: de
Country: DE
--></g></svg>