<?xml version="1.0" encoding="UTF-8" standalone="no"?><svg xmlns="http://www.w3.org/2000/svg" xmlns:xlink="http://www.w3.org/1999/xlink" contentScriptType="application/ecmascript" contentStyleType="text/css" height="256px" preserveAspectRatio="none" style="width:169px;height:256px;" version="1.1" viewBox="0 0 169 256" width="169px" zoomAndPan="magnify"><defs><filter height="300%" id="f1066fdi0jtx7f" width="300%" x="-1" y="-1"><feGaussianBlur result="blurOut" stdDeviation="2.0"/><feColorMatrix in="blurOut" result="blurOut2" type="matrix" values="0 0 0 0 0 0 0 0 0 0 0 0 0 0 0 0 0 0 .4 0"/><feOffset dx="4.0" dy="4.0" in="blurOut2" result="blurOut3"/><feBlend in="SourceGraphic" in2="blurOut3" mode="normal"/></filter></defs><g><!--class schalter1--><rect fill="#FEFECE" filter="url(#f1066fdi0jtx7f)" height="73.6094" id="schalter1" style="stroke: #A80036; stroke-width: 1.5;" width="152" x="6" y="8"/><ellipse cx="51.75" cy="24" fill="#ADD1B2" rx="11" ry="11" style="stroke: #A80036; stroke-width: 1.0;"/><path d="M54.7188,29.6406 Q54.1406,29.9375 53.5,30.0859 Q52.8594,30.2344 52.1563,30.2344 Q49.6563,30.2344 48.3359,28.5859 Q47.0156,26.9375 47.0156,23.8125 Q47.0156,20.6875 48.3359,19.0313 Q49.6563,17.375 52.1563,17.375 Q52.8594,17.375 53.5078,17.5313 Q54.1563,17.6875 54.7188,17.9844 L54.7188,20.7031 Q54.0938,20.125 53.5,19.8516 Q52.9063,19.5781 52.2813,19.5781 Q50.9375,19.5781 50.25,20.6484 Q49.5625,21.7188 49.5625,23.8125 Q49.5625,25.9063 50.25,26.9766 Q50.9375,28.0469 52.2813,28.0469 Q52.9063,28.0469 53.5,27.7734 Q54.0938,27.5 54.7188,26.9219 L54.7188,29.6406 Z "/><text fill="#000000" font-family="sans-serif" font-size="12" lengthAdjust="spacingAndGlyphs" textLength="52" x="72.25" y="28.1543">Schalter</text><line style="stroke: #A80036; stroke-width: 1.5;" x1="7" x2="157" y1="40" y2="40"/><text fill="#000000" font-family="sans-serif" font-size="11" lengthAdjust="spacingAndGlyphs" textLength="140" x="12" y="54.2104">zustand: Zustand = AUS</text><line style="stroke: #A80036; stroke-width: 1.5;" x1="7" x2="157" y1="60.8047" y2="60.8047"/><text fill="#000000" font-family="sans-serif" font-size="11" lengthAdjust="spacingAndGlyphs" textLength="53" x="12" y="75.0151">drücken()</text><!--class lampe1--><rect fill="#FEFECE" filter="url(#f1066fdi0jtx7f)" height="86.4141" id="lampe1" style="stroke: #A80036; stroke-width: 1.5;" width="152" x="6" y="159"/><ellipse cx="57.25" cy="175" fill="#ADD1B2" rx="11" ry="11" style="stroke: #A80036; stroke-width: 1.0;"/><path d="M60.2188,180.6406 Q59.6406,180.9375 59,181.0859 Q58.3594,181.2344 57.6563,181.2344 Q55.1563,181.2344 53.8359,179.5859 Q52.5156,177.9375 52.5156,174.8125 Q52.5156,171.6875 53.8359,170.0313 Q55.1563,168.375 57.6563,168.375 Q58.3594,168.375 59.0078,168.5313 Q59.6563,168.6875 60.2188,168.9844 L60.2188,171.7031 Q59.5938,171.125 59,170.8516 Q58.4063,170.5781 57.7813,170.5781 Q56.4375,170.5781 55.75,171.6484 Q55.0625,172.7188 55.0625,174.8125 Q55.0625,176.9063 55.75,177.9766 Q56.4375,179.0469 57.7813,179.0469 Q58.4063,179.0469 59,178.7734 Q59.5938,178.5 60.2188,177.9219 L60.2188,180.6406 Z "/><text fill="#000000" font-family="sans-serif" font-size="12" lengthAdjust="spacingAndGlyphs" textLength="41" x="77.75" y="179.1543">Lampe</text><line style="stroke: #A80036; stroke-width: 1.5;" x1="7" x2="157" y1="191" y2="191"/><text fill="#000000" font-family="sans-serif" font-size="11" lengthAdjust="spacingAndGlyphs" textLength="140" x="12" y="205.2104">zustand: Zustand = AUS</text><line style="stroke: #A80036; stroke-width: 1.5;" x1="7" x2="157" y1="211.8047" y2="211.8047"/><text fill="#000000" font-family="sans-serif" font-size="11" lengthAdjust="spacingAndGlyphs" textLength="73" x="12" y="226.0151">einschalten()</text><text fill="#000000" font-family="sans-serif" font-size="11" lengthAdjust="spacingAndGlyphs" textLength="77" x="12" y="238.8198">ausschalten()</text><!--link schalter1 to lampe1--><path d="M82,82.2068 C82,103.6195 82,130.7626 82,153.7954 " fill="none" id="schalter1-lampe1" style="stroke: #A80036; stroke-width: 1.0;"/><polygon fill="#A80036" points="82,158.9466,86,149.9466,82,153.9466,78,149.9466,82,158.9466" style="stroke: #A80036; stroke-width: 1.0;"/><text fill="#000000" font-family="sans-serif" font-size="13" lengthAdjust="spacingAndGlyphs" textLength="51" x="83" y="125.0669">schaltet</text><text fill="#000000" font-family="sans-serif" font-size="13" lengthAdjust="spacingAndGlyphs" textLength="8" x="73.3375" y="101.7216">1</text><text fill="#000000" font-family="sans-serif" font-size="13" lengthAdjust="spacingAndGlyphs" textLength="7" x="74.4422" y="147.9341">*</text><!--
@startuml
class "Schalter" as schalter1 {
  zustand: Zustand = AUS
  drücken()
}

class "Lampe" as lampe1 {
  zustand: Zustand = AUS
  einschalten()
  ausschalten()
}

schalter1 "1" - -> "*" lampe1 : schaltet
@enduml

PlantUML version 1.2018.01(Sun Jan 28 19:08:22 CET 2018)
(APACHE source distribution)
Java Runtime: Java(TM) SE Runtime Environment
JVM: Java HotSpot(TM) 64-Bit Server VM
Java Version: 10.0.1+10
Operating System: Linux
OS Version: 4.18.1-arch1-1-ARCH
Default Encoding: UTF-8
Language: de
Country: DE
--></g></svg>