<?xml version="1.0" encoding="UTF-8" standalone="no"?><svg xmlns="http://www.w3.org/2000/svg" xmlns:xlink="http://www.w3.org/1999/xlink" contentScriptType="application/ecmascript" contentStyleType="text/css" height="143px" preserveAspectRatio="none" style="width:222px;height:143px;" version="1.1" viewBox="0 0 222 143" width="222px" zoomAndPan="magnify"><defs><filter height="300%" id="f1y4vjk8w1sy3" width="300%" x="-1" y="-1"><feGaussianBlur result="blurOut" stdDeviation="2.0"/><feColorMatrix in="blurOut" result="blurOut2" type="matrix" values="0 0 0 0 0 0 0 0 0 0 0 0 0 0 0 0 0 0 .4 0"/><feOffset dx="4.0" dy="4.0" in="blurOut2" result="blurOut3"/><feBlend in="SourceGraphic" in2="blurOut3" mode="normal"/></filter></defs><g><!--class Klassenname--><rect fill="#FEFECE" filter="url(#f1y4vjk8w1sy3)" height="124.8281" id="Klassenname" style="stroke: #A80036; stroke-width: 1.5;" width="205" x="6" y="8"/><ellipse cx="62.75" cy="24" fill="#ADD1B2" rx="11" ry="11" style="stroke: #A80036; stroke-width: 1.0;"/><path d="M65.7188,29.6406 Q65.1406,29.9375 64.5,30.0859 Q63.8594,30.2344 63.1563,30.2344 Q60.6563,30.2344 59.3359,28.5859 Q58.0156,26.9375 58.0156,23.8125 Q58.0156,20.6875 59.3359,19.0313 Q60.6563,17.375 63.1563,17.375 Q63.8594,17.375 64.5078,17.5313 Q65.1563,17.6875 65.7188,17.9844 L65.7188,20.7031 Q65.0938,20.125 64.5,19.8516 Q63.9063,19.5781 63.2813,19.5781 Q61.9375,19.5781 61.25,20.6484 Q60.5625,21.7188 60.5625,23.8125 Q60.5625,25.9063 61.25,26.9766 Q61.9375,28.0469 63.2813,28.0469 Q63.9063,28.0469 64.5,27.7734 Q65.0938,27.5 65.7188,26.9219 L65.7188,29.6406 Z "/><text fill="#000000" font-family="sans-serif" font-size="12" lengthAdjust="spacingAndGlyphs" textLength="83" x="83.25" y="28.1543">Klassenname</text><line style="stroke: #A80036; stroke-width: 1.5;" x1="7" x2="210" y1="40" y2="40"/><text fill="#000000" font-family="sans-serif" font-size="11" lengthAdjust="spacingAndGlyphs" textLength="41" x="12" y="54.2104">Attribut</text><text fill="#000000" font-family="sans-serif" font-size="11" lengthAdjust="spacingAndGlyphs" textLength="99" x="12" y="67.0151">Attribut: Datentyp</text><text fill="#000000" font-family="sans-serif" font-size="11" lengthAdjust="spacingAndGlyphs" textLength="171" x="12" y="79.8198">Attribut: Datentyp = Initialwert</text><line style="stroke: #A80036; stroke-width: 1.5;" x1="7" x2="210" y1="86.4141" y2="86.4141"/><text fill="#000000" font-family="sans-serif" font-size="11" lengthAdjust="spacingAndGlyphs" textLength="48" x="12" y="100.6245">Methode</text><text fill="#000000" font-family="sans-serif" font-size="11" lengthAdjust="spacingAndGlyphs" textLength="118" x="12" y="113.4292">Methode(Argumente)</text><text fill="#000000" font-family="sans-serif" font-size="11" lengthAdjust="spacingAndGlyphs" textLength="193" x="12" y="126.2339">Methode(Argumente): Ergebnistyp</text><!--
@startuml
class Klassenname {
  Attribut
  Attribut: Datentyp
  Attribut: Datentyp = Initialwert
  {method} Methode
  Methode(Argumente)
  Methode(Argumente): Ergebnistyp
}
@enduml

PlantUML version 1.2018.01(Sun Jan 28 19:08:22 CET 2018)
(APACHE source distribution)
Java Runtime: Java(TM) SE Runtime Environment
JVM: Java HotSpot(TM) 64-Bit Server VM
Java Version: 10.0.1+10
Operating System: Linux
OS Version: 4.18.1-arch1-1-ARCH
Default Encoding: UTF-8
Language: de
Country: DE
--></g></svg>