<?xml version="1.0" encoding="UTF-8" standalone="no"?><svg xmlns="http://www.w3.org/2000/svg" xmlns:xlink="http://www.w3.org/1999/xlink" contentScriptType="application/ecmascript" contentStyleType="text/css" height="256px" preserveAspectRatio="none" style="width:542px;height:256px;" version="1.1" viewBox="0 0 542 256" width="542px" zoomAndPan="magnify"><defs><filter height="300%" id="fomj4pwmfc6x8" width="300%" x="-1" y="-1"><feGaussianBlur result="blurOut" stdDeviation="2.0"/><feColorMatrix in="blurOut" result="blurOut2" type="matrix" values="0 0 0 0 0 0 0 0 0 0 0 0 0 0 0 0 0 0 .4 0"/><feOffset dx="4.0" dy="4.0" in="blurOut2" result="blurOut3"/><feBlend in="SourceGraphic" in2="blurOut3" mode="normal"/></filter></defs><g><!--class switch1--><rect fill="#FEFECE" filter="url(#fomj4pwmfc6x8)" height="73.6094" id="switch1" style="stroke: #A80036; stroke-width: 1.5;" width="114" x="71" y="8"/><ellipse cx="104.9" cy="24" fill="#ADD1B2" rx="11" ry="11" style="stroke: #A80036; stroke-width: 1.0;"/><path d="M107.8688,29.6406 Q107.2906,29.9375 106.65,30.0859 Q106.0094,30.2344 105.3063,30.2344 Q102.8063,30.2344 101.4859,28.5859 Q100.1656,26.9375 100.1656,23.8125 Q100.1656,20.6875 101.4859,19.0313 Q102.8063,17.375 105.3063,17.375 Q106.0094,17.375 106.6578,17.5313 Q107.3063,17.6875 107.8688,17.9844 L107.8688,20.7031 Q107.2438,20.125 106.65,19.8516 Q106.0563,19.5781 105.4313,19.5781 Q104.0875,19.5781 103.4,20.6484 Q102.7125,21.7188 102.7125,23.8125 Q102.7125,25.9063 103.4,26.9766 Q104.0875,28.0469 105.4313,28.0469 Q106.0563,28.0469 106.65,27.7734 Q107.2438,27.5 107.8688,26.9219 L107.8688,29.6406 Z "/><text fill="#000000" font-family="sans-serif" font-size="12" lengthAdjust="spacingAndGlyphs" textLength="40" x="123.1" y="28.1543">Switch</text><line style="stroke: #A80036; stroke-width: 1.5;" x1="72" x2="184" y1="40" y2="40"/><text fill="#000000" font-family="sans-serif" font-size="11" lengthAdjust="spacingAndGlyphs" textLength="102" x="77" y="54.2104">state: State = OFF</text><line style="stroke: #A80036; stroke-width: 1.5;" x1="72" x2="184" y1="60.8047" y2="60.8047"/><text fill="#000000" font-family="sans-serif" font-size="11" lengthAdjust="spacingAndGlyphs" textLength="41" x="77" y="75.0151">press()</text><!--class lamp1--><rect fill="#FEFECE" filter="url(#fomj4pwmfc6x8)" height="86.4141" id="lamp1" style="stroke: #A80036; stroke-width: 1.5;" width="114" x="6" y="159"/><ellipse cx="43.05" cy="175" fill="#ADD1B2" rx="11" ry="11" style="stroke: #A80036; stroke-width: 1.0;"/><path d="M46.0188,180.6406 Q45.4406,180.9375 44.8,181.0859 Q44.1594,181.2344 43.4563,181.2344 Q40.9563,181.2344 39.6359,179.5859 Q38.3156,177.9375 38.3156,174.8125 Q38.3156,171.6875 39.6359,170.0313 Q40.9563,168.375 43.4563,168.375 Q44.1594,168.375 44.8078,168.5313 Q45.4563,168.6875 46.0188,168.9844 L46.0188,171.7031 Q45.3938,171.125 44.8,170.8516 Q44.2063,170.5781 43.5813,170.5781 Q42.2375,170.5781 41.55,171.6484 Q40.8625,172.7188 40.8625,174.8125 Q40.8625,176.9063 41.55,177.9766 Q42.2375,179.0469 43.5813,179.0469 Q44.2063,179.0469 44.8,178.7734 Q45.3938,178.5 46.0188,177.9219 L46.0188,180.6406 Z "/><text fill="#000000" font-family="sans-serif" font-size="12" lengthAdjust="spacingAndGlyphs" textLength="33" x="61.95" y="179.1543">Lamp</text><line style="stroke: #A80036; stroke-width: 1.5;" x1="7" x2="119" y1="191" y2="191"/><text fill="#000000" font-family="sans-serif" font-size="11" lengthAdjust="spacingAndGlyphs" textLength="102" x="12" y="205.2104">state: State = OFF</text><line style="stroke: #A80036; stroke-width: 1.5;" x1="7" x2="119" y1="211.8047" y2="211.8047"/><text fill="#000000" font-family="sans-serif" font-size="11" lengthAdjust="spacingAndGlyphs" textLength="47" x="12" y="226.0151">turnOn()</text><text fill="#000000" font-family="sans-serif" font-size="11" lengthAdjust="spacingAndGlyphs" textLength="48" x="12" y="238.8198">turnOff()</text><!--class State--><rect fill="#FEFECE" filter="url(#fomj4pwmfc6x8)" height="79.5469" id="State" style="stroke: #A80036; stroke-width: 1.5;" width="75" x="155.5" y="162"/><ellipse cx="170.5" cy="180.9688" fill="#ADD1B2" rx="11" ry="11" style="stroke: #A80036; stroke-width: 1.0;"/><path d="M173.4688,186.6094 Q172.8906,186.9063 172.25,187.0547 Q171.6094,187.2031 170.9063,187.2031 Q168.4063,187.2031 167.0859,185.5547 Q165.7656,183.9063 165.7656,180.7813 Q165.7656,177.6563 167.0859,176 Q168.4063,174.3438 170.9063,174.3438 Q171.6094,174.3438 172.2578,174.5 Q172.9063,174.6563 173.4688,174.9531 L173.4688,177.6719 Q172.8438,177.0938 172.25,176.8203 Q171.6563,176.5469 171.0313,176.5469 Q169.6875,176.5469 169,177.6172 Q168.3125,178.6875 168.3125,180.7813 Q168.3125,182.875 169,183.9453 Q169.6875,185.0156 171.0313,185.0156 Q171.6563,185.0156 172.25,184.7422 Q172.8438,184.4688 173.4688,183.8906 L173.4688,186.6094 Z "/><text fill="#000000" font-family="sans-serif" font-size="12" font-style="italic" lengthAdjust="spacingAndGlyphs" textLength="47" x="182.5" y="178.1387">«enum»</text><text fill="#000000" font-family="sans-serif" font-size="12" lengthAdjust="spacingAndGlyphs" textLength="34" x="189" y="192.1074">State</text><line style="stroke: #A80036; stroke-width: 1.5;" x1="156.5" x2="229.5" y1="199.9375" y2="199.9375"/><text fill="#000000" font-family="sans-serif" font-size="11" lengthAdjust="spacingAndGlyphs" textLength="17" x="161.5" y="214.1479">ON</text><text fill="#000000" font-family="sans-serif" font-size="11" lengthAdjust="spacingAndGlyphs" textLength="21" x="161.5" y="226.9526">OFF</text><line style="stroke: #A80036; stroke-width: 1.5;" x1="156.5" x2="229.5" y1="233.5469" y2="233.5469"/><path d="M265.5,174.5 L265.5,198 L230.6367,202 L265.5,206 L265.5,229.8984 A0,0 0 0 0 265.5,229.8984 L530.5,229.8984 A0,0 0 0 0 530.5,229.8984 L530.5,184.5 L520.5,174.5 L265.5,174.5 A0,0 0 0 0 265.5,174.5 " fill="#FBFB77" filter="url(#fomj4pwmfc6x8)" style="stroke: #A80036; stroke-width: 1.0;"/><path d="M520.5,174.5 L520.5,184.5 L530.5,184.5 L520.5,174.5 " fill="#FBFB77" style="stroke: #A80036; stroke-width: 1.0;"/><text fill="#000000" font-family="sans-serif" font-size="13" lengthAdjust="spacingAndGlyphs" textLength="157" x="271.5" y="191.5669">Eine Enumeration wird in</text><text fill="#000000" font-family="sans-serif" font-size="13" lengthAdjust="spacingAndGlyphs" textLength="213" x="271.5" y="206.6997">Klassendiagrammen mit «enum»</text><text fill="#000000" font-family="sans-serif" font-size="13" lengthAdjust="spacingAndGlyphs" textLength="244" x="271.5" y="221.8325">als besondere Klasse gekennzeichnet.</text><!--link switch1 to lamp1--><path d="M108.7218,82.2066 C104.0094,91.8113 99.1369,102.2054 95,112 C89.3684,125.3336 83.8571,140.0369 79.0388,153.6261 " fill="none" id="switch1-lamp1" style="stroke: #A80036; stroke-width: 1.0;"/><polygon fill="#A80036" points="77.296,158.5777,84.0574,151.4164,78.9562,153.8614,76.5112,148.7602,77.296,158.5777" style="stroke: #A80036; stroke-width: 1.0;"/><text fill="#000000" font-family="sans-serif" font-size="13" lengthAdjust="spacingAndGlyphs" textLength="51" x="96" y="125.0669">controls</text><text fill="#000000" font-family="sans-serif" font-size="13" lengthAdjust="spacingAndGlyphs" textLength="8" x="88.2038" y="101.7214">1</text><text fill="#000000" font-family="sans-serif" font-size="13" lengthAdjust="spacingAndGlyphs" textLength="7" x="71.9491" y="147.8256">*</text><!--link switch1 to State--><path d="M143.4041,82.2068 C152.6957,104.6496 164.5935,133.3873 174.4066,157.0897 " fill="none" id="switch1-State" style="stroke: #A80036; stroke-width: 1.0;"/><polygon fill="#A80036" points="176.34,161.7597,176.5931,151.9141,174.4274,157.14,169.2016,154.9742,176.34,161.7597" style="stroke: #A80036; stroke-width: 1.0;"/><!--link lamp1 to State--><path d="M120.1289,202 C130.1481,202 140.1673,202 150.1865,202 " fill="none" id="lamp1-State" style="stroke: #A80036; stroke-width: 1.0;"/><polygon fill="#A80036" points="155.4258,202,146.4258,198,150.4258,202,146.4258,206,155.4258,202" style="stroke: #A80036; stroke-width: 1.0;"/><!--
@startuml
class "Switch" as switch1 {
  state: State = OFF
  press()
}

class "Lamp" as lamp1 {
  state: State = OFF
  turnOn()
  turnOff()
}

class "State" << enum >> {
  ON
  OFF
}
note right
  Eine Enumeration wird in
  Klassendiagrammen mit «enum»
  als besondere Klasse gekennzeichnet.
end note

switch1 "1  " - -> "*" lamp1 : controls
switch1 -> State
lamp1 -> State
@enduml

PlantUML version 1.2018.01(Sun Jan 28 19:08:22 CET 2018)
(APACHE source distribution)
Java Runtime: OpenJDK Runtime Environment
JVM: OpenJDK 64-Bit Server VM
Java Version: 1.8.0_172-b11
Operating System: Linux
OS Version: 4.16.10-1-ARCH
Default Encoding: UTF-8
Language: de
Country: DE
--></g></svg>