<?xml version="1.0" encoding="UTF-8" standalone="no"?><svg xmlns="http://www.w3.org/2000/svg" xmlns:xlink="http://www.w3.org/1999/xlink" contentScriptType="application/ecmascript" contentStyleType="text/css" height="256px" preserveAspectRatio="none" style="width:545px;height:256px;" version="1.1" viewBox="0 0 545 256" width="545px" zoomAndPan="magnify"><defs><filter height="300%" id="fomj4pwmfc6x8" width="300%" x="-1" y="-1"><feGaussianBlur result="blurOut" stdDeviation="2.0"/><feColorMatrix in="blurOut" result="blurOut2" type="matrix" values="0 0 0 0 0 0 0 0 0 0 0 0 0 0 0 0 0 0 .4 0"/><feOffset dx="4.0" dy="4.0" in="blurOut2" result="blurOut3"/><feBlend in="SourceGraphic" in2="blurOut3" mode="normal"/></filter></defs><g><!--class switch1--><rect fill="#FEFECE" filter="url(#fomj4pwmfc6x8)" height="73.6094" id="switch1" style="stroke: #A80036; stroke-width: 1.5;" width="117" x="71" y="8"/><ellipse cx="106.25" cy="24" fill="#ADD1B2" rx="11" ry="11" style="stroke: #A80036; stroke-width: 1.0;"/><path d="M109.2188,29.6406 Q108.6406,29.9375 108,30.0859 Q107.3594,30.2344 106.6563,30.2344 Q104.1563,30.2344 102.8359,28.5859 Q101.5156,26.9375 101.5156,23.8125 Q101.5156,20.6875 102.8359,19.0313 Q104.1563,17.375 106.6563,17.375 Q107.3594,17.375 108.0078,17.5313 Q108.6563,17.6875 109.2188,17.9844 L109.2188,20.7031 Q108.5938,20.125 108,19.8516 Q107.4063,19.5781 106.7813,19.5781 Q105.4375,19.5781 104.75,20.6484 Q104.0625,21.7188 104.0625,23.8125 Q104.0625,25.9063 104.75,26.9766 Q105.4375,28.0469 106.7813,28.0469 Q107.4063,28.0469 108,27.7734 Q108.5938,27.5 109.2188,26.9219 L109.2188,29.6406 Z "/><text fill="#000000" font-family="sans-serif" font-size="12" lengthAdjust="spacingAndGlyphs" textLength="40" x="124.75" y="28.1543">Switch</text><line style="stroke: #A80036; stroke-width: 1.5;" x1="72" x2="187" y1="40" y2="40"/><text fill="#000000" font-family="sans-serif" font-size="11" lengthAdjust="spacingAndGlyphs" textLength="105" x="77" y="54.2104">state: State = OFF</text><line style="stroke: #A80036; stroke-width: 1.5;" x1="72" x2="187" y1="60.8047" y2="60.8047"/><text fill="#000000" font-family="sans-serif" font-size="11" lengthAdjust="spacingAndGlyphs" textLength="41" x="77" y="75.0151">press()</text><!--class lamp1--><rect fill="#FEFECE" filter="url(#fomj4pwmfc6x8)" height="86.4141" id="lamp1" style="stroke: #A80036; stroke-width: 1.5;" width="117" x="6" y="159"/><ellipse cx="44.4" cy="175" fill="#ADD1B2" rx="11" ry="11" style="stroke: #A80036; stroke-width: 1.0;"/><path d="M47.3688,180.6406 Q46.7906,180.9375 46.15,181.0859 Q45.5094,181.2344 44.8063,181.2344 Q42.3063,181.2344 40.9859,179.5859 Q39.6656,177.9375 39.6656,174.8125 Q39.6656,171.6875 40.9859,170.0313 Q42.3063,168.375 44.8063,168.375 Q45.5094,168.375 46.1578,168.5313 Q46.8063,168.6875 47.3688,168.9844 L47.3688,171.7031 Q46.7438,171.125 46.15,170.8516 Q45.5563,170.5781 44.9313,170.5781 Q43.5875,170.5781 42.9,171.6484 Q42.2125,172.7188 42.2125,174.8125 Q42.2125,176.9063 42.9,177.9766 Q43.5875,179.0469 44.9313,179.0469 Q45.5563,179.0469 46.15,178.7734 Q46.7438,178.5 47.3688,177.9219 L47.3688,180.6406 Z "/><text fill="#000000" font-family="sans-serif" font-size="12" lengthAdjust="spacingAndGlyphs" textLength="33" x="63.6" y="179.1543">Lamp</text><line style="stroke: #A80036; stroke-width: 1.5;" x1="7" x2="122" y1="191" y2="191"/><text fill="#000000" font-family="sans-serif" font-size="11" lengthAdjust="spacingAndGlyphs" textLength="105" x="12" y="205.2104">state: State = OFF</text><line style="stroke: #A80036; stroke-width: 1.5;" x1="7" x2="122" y1="211.8047" y2="211.8047"/><text fill="#000000" font-family="sans-serif" font-size="11" lengthAdjust="spacingAndGlyphs" textLength="47" x="12" y="226.0151">turnOn()</text><text fill="#000000" font-family="sans-serif" font-size="11" lengthAdjust="spacingAndGlyphs" textLength="48" x="12" y="238.8198">turnOff()</text><!--class State--><rect fill="#FEFECE" filter="url(#fomj4pwmfc6x8)" height="79.5469" id="State" style="stroke: #A80036; stroke-width: 1.5;" width="75" x="158" y="162"/><ellipse cx="173" cy="180.9688" fill="#ADD1B2" rx="11" ry="11" style="stroke: #A80036; stroke-width: 1.0;"/><path d="M175.9688,186.6094 Q175.3906,186.9063 174.75,187.0547 Q174.1094,187.2031 173.4063,187.2031 Q170.9063,187.2031 169.5859,185.5547 Q168.2656,183.9063 168.2656,180.7813 Q168.2656,177.6563 169.5859,176 Q170.9063,174.3438 173.4063,174.3438 Q174.1094,174.3438 174.7578,174.5 Q175.4063,174.6563 175.9688,174.9531 L175.9688,177.6719 Q175.3438,177.0938 174.75,176.8203 Q174.1563,176.5469 173.5313,176.5469 Q172.1875,176.5469 171.5,177.6172 Q170.8125,178.6875 170.8125,180.7813 Q170.8125,182.875 171.5,183.9453 Q172.1875,185.0156 173.5313,185.0156 Q174.1563,185.0156 174.75,184.7422 Q175.3438,184.4688 175.9688,183.8906 L175.9688,186.6094 Z "/><text fill="#000000" font-family="sans-serif" font-size="12" font-style="italic" lengthAdjust="spacingAndGlyphs" textLength="47" x="185" y="178.1387">«enum»</text><text fill="#000000" font-family="sans-serif" font-size="12" lengthAdjust="spacingAndGlyphs" textLength="34" x="191.5" y="192.1074">State</text><line style="stroke: #A80036; stroke-width: 1.5;" x1="159" x2="232" y1="199.9375" y2="199.9375"/><text fill="#000000" font-family="sans-serif" font-size="11" lengthAdjust="spacingAndGlyphs" textLength="17" x="164" y="214.1479">ON</text><text fill="#000000" font-family="sans-serif" font-size="11" lengthAdjust="spacingAndGlyphs" textLength="21" x="164" y="226.9526">OFF</text><line style="stroke: #A80036; stroke-width: 1.5;" x1="159" x2="232" y1="233.5469" y2="233.5469"/><path d="M268,174.5 L268,198 L233.1367,202 L268,206 L268,229.8984 A0,0 0 0 0 268,229.8984 L533,229.8984 A0,0 0 0 0 533,229.8984 L533,184.5 L523,174.5 L268,174.5 A0,0 0 0 0 268,174.5 " fill="#FBFB77" filter="url(#fomj4pwmfc6x8)" style="stroke: #A80036; stroke-width: 1.0;"/><path d="M523,174.5 L523,184.5 L533,184.5 L523,174.5 " fill="#FBFB77" style="stroke: #A80036; stroke-width: 1.0;"/><text fill="#000000" font-family="sans-serif" font-size="13" lengthAdjust="spacingAndGlyphs" textLength="157" x="274" y="191.5669">Eine Enumeration wird in</text><text fill="#000000" font-family="sans-serif" font-size="13" lengthAdjust="spacingAndGlyphs" textLength="213" x="274" y="206.6997">Klassendiagrammen mit «enum»</text><text fill="#000000" font-family="sans-serif" font-size="13" lengthAdjust="spacingAndGlyphs" textLength="244" x="274" y="221.8325">als besondere Klasse gekennzeichnet.</text><!--link switch1 to lamp1--><path d="M114.0959,82.2068 C105.1935,103.7095 93.8987,130.9908 84.3372,154.0856 " fill="none" id="switch1-lamp1" style="stroke: #A80036; stroke-width: 1.0;"/><polygon fill="#A80036" points="82.3247,158.9466,89.4632,152.1612,84.2374,154.3269,82.0717,149.101,82.3247,158.9466" style="stroke: #A80036; stroke-width: 1.0;"/><text fill="#000000" font-family="sans-serif" font-size="13" lengthAdjust="spacingAndGlyphs" textLength="51" x="101.5" y="125.0669">controls</text><text fill="#000000" font-family="sans-serif" font-size="13" lengthAdjust="spacingAndGlyphs" textLength="8" x="94.2196" y="101.7216">1</text><text fill="#000000" font-family="sans-serif" font-size="13" lengthAdjust="spacingAndGlyphs" textLength="7" x="77.6077" y="147.9341">*</text><!--link switch1 to State--><path d="M146.4306,82.094 C150.7691,91.7928 155.3734,102.26 159.5,112 C165.6931,126.6176 172.2104,142.6834 177.972,157.145 " fill="none" id="switch1-State" style="stroke: #A80036; stroke-width: 1.0;"/><polygon fill="#A80036" points="179.8954,161.9835,180.2877,152.1425,178.0483,157.3372,172.8536,155.0978,179.8954,161.9835" style="stroke: #A80036; stroke-width: 1.0;"/><!--link lamp1 to State--><path d="M123.0918,202 C132.967,202 142.8423,202 152.7176,202 " fill="none" id="lamp1-State" style="stroke: #A80036; stroke-width: 1.0;"/><polygon fill="#A80036" points="157.8817,202,148.8817,198,152.8817,202,148.8817,206,157.8817,202" style="stroke: #A80036; stroke-width: 1.0;"/><!--
@startuml
class "Switch" as switch1 {
  state: State = OFF
  press()
}

class "Lamp" as lamp1 {
  state: State = OFF
  turnOn()
  turnOff()
}

class "State" << enum >> {
  ON
  OFF
}
note right
  Eine Enumeration wird in
  Klassendiagrammen mit «enum»
  als besondere Klasse gekennzeichnet.
end note

switch1 "1  " - -> "*" lamp1 : controls
switch1 -> State
lamp1 -> State
@enduml

PlantUML version 1.2018.01(Sun Jan 28 19:08:22 CET 2018)
(APACHE source distribution)
Java Runtime: Java(TM) SE Runtime Environment
JVM: Java HotSpot(TM) 64-Bit Server VM
Java Version: 10.0.1+10
Operating System: Linux
OS Version: 4.18.1-arch1-1-ARCH
Default Encoding: UTF-8
Language: de
Country: DE
--></g></svg>