<?xml version="1.0" encoding="UTF-8" standalone="no"?><!DOCTYPE svg PUBLIC "-//W3C//DTD SVG 1.1//EN" "http://www.w3.org/Graphics/SVG/1.1/DTD/svg11.dtd"><!-- Generated by graphviz version 2.39.20160930.0541 (20160930.0541) --><!-- Title: FlowChart Pages: 1 --><svg width="565pt" height="508pt" viewBox="0.00 0.00 565.35 508.00" xmlns="http://www.w3.org/2000/svg" xmlns:xlink="http://www.w3.org/1999/xlink"><g id="page0,1_graph0" class="graph" transform="scale(1 1) rotate(0) translate(4 504)"><title>FlowChart</title><g id="clust1" class="cluster"><title>cluster_block_1</title><polygon fill="transparent" stroke="#000000" points="8,-8 8,-492 549.349,-492 549.349,-8 8,-8"/><text text-anchor="start" x="227.174" y="-480" font-family="Open Sans, Noto Sans SC, Noto Sans TC, Noto Sans JP, Noto Sans KR" font-size="10.00" fill="#000000">römischesZahlzeichen</text><text text-anchor="start" x="265.674" y="-469" font-family="Open Sans, Noto Sans SC, Noto Sans TC, Noto Sans JP, Noto Sans KR" font-size="10.00" fill="#000000">(wert)</text></g><!-- switch_block_2 --><g id="node1" class="node"><title>switch_block_2</title><polygon fill="none" stroke="#000000" points="58.8023,-253 28.1964,-235 58.8023,-217 89.4082,-235 58.8023,-253"/><text text-anchor="start" x="48.3023" y="-232.5" font-family="Open Sans, Noto Sans SC, Noto Sans TC, Noto Sans JP, Noto Sans KR" font-size="10.00" fill="#000000">wert</text></g><!-- terminator_block_3 --><g id="node2" class="node"><title>terminator_block_3</title><ellipse fill="none" stroke="#000000" cx="340.977" cy="-46" rx="27" ry="18"/><text text-anchor="start" x="339.977" y="-43.5" font-family="Open Sans, Noto Sans SC, Noto Sans TC, Noto Sans JP, Noto Sans KR" font-size="10.00" fill="#000000">I</text></g><!-- switch_block_2&#45;&gt;terminator_block_3 --><g id="edge1" class="edge"><title>switch_block_2&#45;&gt;terminator_block_3</title><path fill="none" stroke="#000000" d="M62.1116,-218.609C67.3977,-195.203 79.3775,-151.549 100.605,-120 117.995,-94.1534 124.402,-86.2309 152.605,-73 201.373,-50.1212 264.434,-45.4333 303.798,-45.0452"/><polygon fill="#000000" stroke="#000000" points="304.001,-48.5451 313.998,-45.0362 303.995,-41.5451 304.001,-48.5451"/><text text-anchor="start" x="116.105" y="-124" font-family="Open Sans, Noto Sans SC, Noto Sans TC, Noto Sans JP, Noto Sans KR" font-weight="bold" font-size="10.00" fill="#000000"> 1 </text><polyline fill="none" stroke="#000000" points="126.105,-120 100.109,-120 "/></g><!-- terminator_block_4 --><g id="node3" class="node"><title>terminator_block_4</title><ellipse fill="none" stroke="#000000" cx="340.977" cy="-100" rx="27" ry="18"/><text text-anchor="start" x="338.477" y="-97.5" font-family="Open Sans, Noto Sans SC, Noto Sans TC, Noto Sans JP, Noto Sans KR" font-size="10.00" fill="#000000">V</text></g><!-- switch_block_2&#45;&gt;terminator_block_4 --><g id="edge2" class="edge"><title>switch_block_2&#45;&gt;terminator_block_4</title><path fill="none" stroke="#000000" d="M65.731,-221.07C78.7973,-196.586 109.672,-146.579 152.605,-127 201.479,-104.711 264.258,-99.8436 303.563,-99.2586"/><polygon fill="#000000" stroke="#000000" points="303.775,-102.757 313.753,-99.1956 303.732,-95.7576 303.775,-102.757"/><text text-anchor="start" x="116.105" y="-172" font-family="Open Sans, Noto Sans SC, Noto Sans TC, Noto Sans JP, Noto Sans KR" font-weight="bold" font-size="10.00" fill="#000000"> 5 </text><polyline fill="none" stroke="#000000" points="126.105,-168 100.771,-168 "/></g><!-- terminator_block_5 --><g id="node4" class="node"><title>terminator_block_5</title><ellipse fill="none" stroke="#000000" cx="340.977" cy="-154" rx="27" ry="18"/><text text-anchor="start" x="338.477" y="-151.5" font-family="Open Sans, Noto Sans SC, Noto Sans TC, Noto Sans JP, Noto Sans KR" font-size="10.00" fill="#000000">X</text></g><!-- switch_block_2&#45;&gt;terminator_block_5 --><g id="edge3" class="edge"><title>switch_block_2&#45;&gt;terminator_block_5</title><path fill="none" stroke="#000000" d="M71.8368,-224.158C79.833,-217.812 90.4541,-209.91 100.605,-204 165.121,-166.435 253.874,-156.867 303.499,-154.571"/><polygon fill="#000000" stroke="#000000" points="303.908,-158.058 313.765,-154.175 303.638,-151.063 303.908,-158.058"/><text text-anchor="start" x="113.105" y="-208" font-family="Open Sans, Noto Sans SC, Noto Sans TC, Noto Sans JP, Noto Sans KR" font-weight="bold" font-size="10.00" fill="#000000"> 10 </text><polyline fill="none" stroke="#000000" points="129.105,-204 99.6517,-204 "/></g><!-- terminator_block_6 --><g id="node5" class="node"><title>terminator_block_6</title><ellipse fill="none" stroke="#000000" cx="340.977" cy="-208" rx="27" ry="18"/><text text-anchor="start" x="338.477" y="-205.5" font-family="Open Sans, Noto Sans SC, Noto Sans TC, Noto Sans JP, Noto Sans KR" font-size="10.00" fill="#000000">L</text></g><!-- switch_block_2&#45;&gt;terminator_block_6 --><g id="edge4" class="edge"><title>switch_block_2&#45;&gt;terminator_block_6</title><path fill="none" stroke="#000000" d="M79.0461,-228.841C85.8386,-226.998 93.4946,-225.161 100.605,-224 171.789,-212.374 256.151,-209.151 303.631,-208.285"/><polygon fill="#000000" stroke="#000000" points="303.805,-211.783 313.749,-208.127 303.695,-204.784 303.805,-211.783"/><text text-anchor="start" x="113.105" y="-228" font-family="Open Sans, Noto Sans SC, Noto Sans TC, Noto Sans JP, Noto Sans KR" font-weight="bold" font-size="10.00" fill="#000000"> 50 </text><polyline fill="none" stroke="#000000" points="129.105,-224 95.1918,-224 "/></g><!-- terminator_block_7 --><g id="node6" class="node"><title>terminator_block_7</title><ellipse fill="none" stroke="#000000" cx="340.977" cy="-262" rx="27" ry="18"/><text text-anchor="start" x="337.977" y="-259.5" font-family="Open Sans, Noto Sans SC, Noto Sans TC, Noto Sans JP, Noto Sans KR" font-size="10.00" fill="#000000">C</text></g><!-- switch_block_2&#45;&gt;terminator_block_7 --><g id="edge5" class="edge"><title>switch_block_2&#45;&gt;terminator_block_7</title><path fill="none" stroke="#000000" d="M85.3486,-237.54C135.848,-242.372 245.859,-252.899 303.712,-258.434"/><polygon fill="#000000" stroke="#000000" points="303.594,-261.939 313.882,-259.407 304.261,-254.971 303.594,-261.939"/><text text-anchor="start" x="110.105" y="-247" font-family="Open Sans, Noto Sans SC, Noto Sans TC, Noto Sans JP, Noto Sans KR" font-weight="bold" font-size="10.00" fill="#000000"> 100 </text><polyline fill="none" stroke="#000000" points="132.105,-243 132.637,-243 "/></g><!-- terminator_block_8 --><g id="node7" class="node"><title>terminator_block_8</title><ellipse fill="none" stroke="#000000" cx="340.977" cy="-316" rx="27" ry="18"/><text text-anchor="start" x="337.477" y="-313.5" font-family="Open Sans, Noto Sans SC, Noto Sans TC, Noto Sans JP, Noto Sans KR" font-size="10.00" fill="#000000">D</text></g><!-- switch_block_2&#45;&gt;terminator_block_8 --><g id="edge6" class="edge"><title>switch_block_2&#45;&gt;terminator_block_8</title><path fill="none" stroke="#000000" d="M72.6045,-245.22C90.2113,-257.703 122.053,-278.455 152.605,-289 202.988,-306.39 264.681,-312.585 303.419,-314.788"/><polygon fill="#000000" stroke="#000000" points="303.543,-318.299 313.708,-315.31 303.898,-311.308 303.543,-318.299"/><text text-anchor="start" x="110.105" y="-287" font-family="Open Sans, Noto Sans SC, Noto Sans TC, Noto Sans JP, Noto Sans KR" font-weight="bold" font-size="10.00" fill="#000000"> 500 </text><polyline fill="none" stroke="#000000" points="132.105,-283 135.386,-283 "/></g><!-- terminator_block_9 --><g id="node8" class="node"><title>terminator_block_9</title><ellipse fill="none" stroke="#000000" cx="340.977" cy="-370" rx="27" ry="18"/><text text-anchor="start" x="336.477" y="-367.5" font-family="Open Sans, Noto Sans SC, Noto Sans TC, Noto Sans JP, Noto Sans KR" font-size="10.00" fill="#000000">M</text></g><!-- switch_block_2&#45;&gt;terminator_block_9 --><g id="edge7" class="edge"><title>switch_block_2&#45;&gt;terminator_block_9</title><path fill="none" stroke="#000000" d="M65.731,-248.93C78.7973,-273.414 109.672,-323.421 152.605,-343 201.479,-365.289 264.258,-370.156 303.563,-370.741"/><polygon fill="#000000" stroke="#000000" points="303.732,-374.242 313.753,-370.804 303.775,-367.243 303.732,-374.242"/><text text-anchor="start" x="107.105" y="-339" font-family="Open Sans, Noto Sans SC, Noto Sans TC, Noto Sans JP, Noto Sans KR" font-weight="bold" font-size="10.00" fill="#000000"> 1000 </text><polyline fill="none" stroke="#000000" points="135.105,-335 137.081,-335 "/></g><!-- terminator_block_10 --><g id="node9" class="node"><title>terminator_block_10</title><ellipse fill="none" stroke="#000000" cx="340.977" cy="-424" rx="188.244" ry="18"/><text text-anchor="start" x="188.977" y="-421.5" font-family="Open Sans, Noto Sans SC, Noto Sans TC, Noto Sans JP, Noto Sans KR" font-size="10.00" fill="#000000">(error: &quot;Für den Wert &quot; wert &quot; gibt es kein römisches Zahlzeichen&quot;)</text></g><!-- switch_block_2&#45;&gt;terminator_block_10 --><g id="edge8" class="edge"><title>switch_block_2&#45;&gt;terminator_block_10</title><path fill="none" stroke="#000000" d="M62.1116,-251.391C67.3977,-274.797 79.3775,-318.451 100.605,-350 117.995,-375.847 124.402,-383.769 152.605,-397 163.354,-402.043 174.797,-406.202 186.528,-409.626"/><polygon fill="#000000" stroke="#000000" points="185.871,-413.074 196.44,-412.332 187.715,-406.322 185.871,-413.074"/><text text-anchor="start" x="100.605" y="-394" font-family="Open Sans, Noto Sans SC, Noto Sans TC, Noto Sans JP, Noto Sans KR" font-weight="bold" font-size="10.00" fill="#000000"> default </text><polyline fill="none" stroke="#000000" points="141.605,-390 138.823,-390 "/></g></g></svg>