<?xml version="1.0" encoding="UTF-8" standalone="no"?><svg xmlns="http://www.w3.org/2000/svg" xmlns:xlink="http://www.w3.org/1999/xlink" contentScriptType="application/ecmascript" contentStyleType="text/css" height="79px" preserveAspectRatio="none" style="width:249px;height:79px;" version="1.1" viewBox="0 0 249 79" width="249px" zoomAndPan="magnify"><defs><filter height="300%" id="f13lgqqbo2tq1j" width="300%" x="-1" y="-1"><feGaussianBlur result="blurOut" stdDeviation="2.0"/><feColorMatrix in="blurOut" result="blurOut2" type="matrix" values="0 0 0 0 0 0 0 0 0 0 0 0 0 0 0 0 0 0 .4 0"/><feOffset dx="4.0" dy="4.0" in="blurOut2" result="blurOut3"/><feBlend in="SourceGraphic" in2="blurOut3" mode="normal"/></filter></defs><g><!--class Ampel--><rect fill="#FEFECE" filter="url(#f13lgqqbo2tq1j)" height="60.8047" id="Ampel" style="stroke: #A80036; stroke-width: 1.5;" width="86" x="6" y="8"/><ellipse cx="28.65" cy="24" fill="#B4A7E5" rx="11" ry="11" style="stroke: #A80036; stroke-width: 1.0;"/><path d="M24.5719,19.7656 L24.5719,17.6094 L31.9625,17.6094 L31.9625,19.7656 L29.4938,19.7656 L29.4938,27.8438 L31.9625,27.8438 L31.9625,30 L24.5719,30 L24.5719,27.8438 L27.0406,27.8438 L27.0406,19.7656 L24.5719,19.7656 Z "/><text fill="#000000" font-family="sans-serif" font-size="12" font-style="italic" lengthAdjust="spacingAndGlyphs" textLength="37" x="44.35" y="28.1543">Ampel</text><line style="stroke: #A80036; stroke-width: 1.5;" x1="7" x2="91" y1="40" y2="40"/><line style="stroke: #A80036; stroke-width: 1.5;" x1="7" x2="91" y1="48" y2="48"/><text fill="#000000" font-family="sans-serif" font-size="11" lengthAdjust="spacingAndGlyphs" textLength="74" x="12" y="62.2104">switch(State)</text><!--class Controller--><rect fill="#FEFECE" filter="url(#f13lgqqbo2tq1j)" height="60.8047" id="Controller" style="stroke: #A80036; stroke-width: 1.5;" width="111" x="127.5" y="8"/><ellipse cx="152.4" cy="24" fill="#B4A7E5" rx="11" ry="11" style="stroke: #A80036; stroke-width: 1.0;"/><path d="M148.3219,19.7656 L148.3219,17.6094 L155.7125,17.6094 L155.7125,19.7656 L153.2438,19.7656 L153.2438,27.8438 L155.7125,27.8438 L155.7125,30 L148.3219,30 L148.3219,27.8438 L150.7906,27.8438 L150.7906,19.7656 L148.3219,19.7656 Z "/><text fill="#000000" font-family="sans-serif" font-size="12" font-style="italic" lengthAdjust="spacingAndGlyphs" textLength="57" x="168.6" y="28.1543">Controller</text><line style="stroke: #A80036; stroke-width: 1.5;" x1="128.5" x2="237.5" y1="40" y2="40"/><line style="stroke: #A80036; stroke-width: 1.5;" x1="128.5" x2="237.5" y1="48" y2="48"/><text fill="#000000" font-family="sans-serif" font-size="11" lengthAdjust="spacingAndGlyphs" textLength="99" x="133.5" y="62.2104">addAmpel(Ampel)</text><!--
@startuml
interface Ampel {
  switch(State)

}

interface Controller {
  addAmpel(Ampel)
}
@enduml

PlantUML version 1.2018.01(Sun Jan 28 19:08:22 CET 2018)
(APACHE source distribution)
Java Runtime: OpenJDK Runtime Environment
JVM: OpenJDK 64-Bit Server VM
Java Version: 1.8.0_172-b11
Operating System: Linux
OS Version: 4.16.10-1-ARCH
Default Encoding: UTF-8
Language: de
Country: DE
--></g></svg>