<?xml version="1.0" encoding="UTF-8" standalone="no"?><svg xmlns="http://www.w3.org/2000/svg" xmlns:xlink="http://www.w3.org/1999/xlink" contentScriptType="application/ecmascript" contentStyleType="text/css" height="597px" preserveAspectRatio="none" style="width:586px;height:597px;" version="1.1" viewBox="0 0 586 597" width="586px" zoomAndPan="magnify"><defs><filter height="300%" id="fnj6m4qce07pt" width="300%" x="-1" y="-1"><feGaussianBlur result="blurOut" stdDeviation="2.0"/><feColorMatrix in="blurOut" result="blurOut2" type="matrix" values="0 0 0 0 0 0 0 0 0 0 0 0 0 0 0 0 0 0 .4 0"/><feOffset dx="4.0" dy="4.0" in="blurOut2" result="blurOut3"/><feBlend in="SourceGraphic" in2="blurOut3" mode="normal"/></filter></defs><g><!--cluster com.traffic_lights.controller--><polygon fill="#FFFFFF" filter="url(#fnj6m4qce07pt)" points="68,16,291,16,298,38.2969,509,38.2969,509,360,68,360,68,16" style="stroke: #000000; stroke-width: 1.5;"/><line style="stroke: #000000; stroke-width: 1.5;" x1="68" x2="298" y1="38.2969" y2="38.2969"/><text fill="#000000" font-family="sans-serif" font-size="14" font-weight="bold" lengthAdjust="spacingAndGlyphs" textLength="217" x="72" y="30.9951">com.traffic_lights.controller</text><!--cluster com.traffic_lights.view--><polygon fill="#FFFFFF" filter="url(#fnj6m4qce07pt)" points="14,489,197,489,204,511.2969,564,511.2969,564,585,14,585,14,489" style="stroke: #000000; stroke-width: 1.5;"/><line style="stroke: #000000; stroke-width: 1.5;" x1="14" x2="204" y1="511.2969" y2="511.2969"/><text fill="#000000" font-family="sans-serif" font-size="14" font-weight="bold" lengthAdjust="spacingAndGlyphs" textLength="177" x="18" y="503.9951">com.traffic_lights.view</text><!--class pcc--><rect fill="#FEFECE" filter="url(#fnj6m4qce07pt)" height="48" id="pcc" style="stroke: #A80036; stroke-width: 1.5;" width="215" x="184.5" y="81.5"/><ellipse cx="199.5" cy="97.5" fill="#ADD1B2" rx="11" ry="11" style="stroke: #A80036; stroke-width: 1.0;"/><path d="M202.4688,103.1406 Q201.8906,103.4375 201.25,103.5859 Q200.6094,103.7344 199.9063,103.7344 Q197.4063,103.7344 196.0859,102.0859 Q194.7656,100.4375 194.7656,97.3125 Q194.7656,94.1875 196.0859,92.5313 Q197.4063,90.875 199.9063,90.875 Q200.6094,90.875 201.2578,91.0313 Q201.9063,91.1875 202.4688,91.4844 L202.4688,94.2031 Q201.8438,93.625 201.25,93.3516 Q200.6563,93.0781 200.0313,93.0781 Q198.6875,93.0781 198,94.1484 Q197.3125,95.2188 197.3125,97.3125 Q197.3125,99.4063 198,100.4766 Q198.6875,101.5469 200.0313,101.5469 Q200.6563,101.5469 201.25,101.2734 Q201.8438,101 202.4688,100.4219 L202.4688,103.1406 Z "/><text fill="#000000" font-family="sans-serif" font-size="12" lengthAdjust="spacingAndGlyphs" textLength="183" x="213.5" y="101.6543">PedestrianCrossingController</text><line style="stroke: #A80036; stroke-width: 1.5;" x1="185.5" x2="398.5" y1="113.5" y2="113.5"/><line style="stroke: #A80036; stroke-width: 1.5;" x1="185.5" x2="398.5" y1="121.5" y2="121.5"/><!--class pclstate--><rect fill="#FEFECE" filter="url(#fnj6m4qce07pt)" height="86.4141" id="pclstate" style="stroke: #A80036; stroke-width: 1.5;" width="66" x="435" y="62.5"/><ellipse cx="450" cy="78.5" fill="#EB937F" rx="11" ry="11" style="stroke: #A80036; stroke-width: 1.0;"/><path d="M454.1094,84.5 L446.3906,84.5 L446.3906,72.1094 L454.1094,72.1094 L454.1094,74.2656 L448.8438,74.2656 L448.8438,76.9375 L453.6094,76.9375 L453.6094,79.0938 L448.8438,79.0938 L448.8438,82.3438 L454.1094,82.3438 L454.1094,84.5 Z "/><text fill="#000000" font-family="sans-serif" font-size="12" lengthAdjust="spacingAndGlyphs" textLength="34" x="464" y="82.6543">State</text><line style="stroke: #A80036; stroke-width: 1.5;" x1="436" x2="500" y1="94.5" y2="94.5"/><text fill="#000000" font-family="sans-serif" font-size="11" lengthAdjust="spacingAndGlyphs" textLength="25" x="441" y="108.7104">Red,</text><text fill="#000000" font-family="sans-serif" font-size="11" lengthAdjust="spacingAndGlyphs" textLength="43" x="441" y="121.5151">Greem,</text><text fill="#000000" font-family="sans-serif" font-size="11" lengthAdjust="spacingAndGlyphs" textLength="17" x="441" y="134.3198">Off</text><line style="stroke: #A80036; stroke-width: 1.5;" x1="436" x2="500" y1="140.9141" y2="140.9141"/><!--class pcl--><rect fill="#FEFECE" filter="url(#fnj6m4qce07pt)" height="60.8047" id="pcl" style="stroke: #A80036; stroke-width: 1.5;" width="180" x="321" y="291"/><ellipse cx="336" cy="307" fill="#B4A7E5" rx="11" ry="11" style="stroke: #A80036; stroke-width: 1.0;"/><path d="M331.9219,302.7656 L331.9219,300.6094 L339.3125,300.6094 L339.3125,302.7656 L336.8438,302.7656 L336.8438,310.8438 L339.3125,310.8438 L339.3125,313 L331.9219,313 L331.9219,310.8438 L334.3906,310.8438 L334.3906,302.7656 L331.9219,302.7656 Z "/><text fill="#000000" font-family="sans-serif" font-size="12" font-style="italic" lengthAdjust="spacingAndGlyphs" textLength="148" x="350" y="311.1543">PedestrianCrossingLights</text><line style="stroke: #A80036; stroke-width: 1.5;" x1="322" x2="500" y1="323" y2="323"/><line style="stroke: #A80036; stroke-width: 1.5;" x1="322" x2="500" y1="331" y2="331"/><text fill="#000000" font-family="sans-serif" font-size="11" lengthAdjust="spacingAndGlyphs" textLength="92" x="327" y="345.2104">void turn(State);</text><!--class tlstate--><rect fill="#FEFECE" filter="url(#fnj6m4qce07pt)" height="124.8281" id="tlstate" style="stroke: #A80036; stroke-width: 1.5;" width="73" x="76.5" y="43"/><ellipse cx="94.65" cy="59" fill="#EB937F" rx="11" ry="11" style="stroke: #A80036; stroke-width: 1.0;"/><path d="M98.7594,65 L91.0406,65 L91.0406,52.6094 L98.7594,52.6094 L98.7594,54.7656 L93.4938,54.7656 L93.4938,57.4375 L98.2594,57.4375 L98.2594,59.5938 L93.4938,59.5938 L93.4938,62.8438 L98.7594,62.8438 L98.7594,65 Z "/><text fill="#000000" font-family="sans-serif" font-size="12" lengthAdjust="spacingAndGlyphs" textLength="34" x="109.35" y="63.1543">State</text><line style="stroke: #A80036; stroke-width: 1.5;" x1="77.5" x2="148.5" y1="75" y2="75"/><text fill="#000000" font-family="sans-serif" font-size="11" lengthAdjust="spacingAndGlyphs" textLength="25" x="82.5" y="89.2104">Red,</text><text fill="#000000" font-family="sans-serif" font-size="11" lengthAdjust="spacingAndGlyphs" textLength="39" x="82.5" y="102.0151">Green,</text><text fill="#000000" font-family="sans-serif" font-size="11" lengthAdjust="spacingAndGlyphs" textLength="40" x="82.5" y="114.8198">Yellow,</text><text fill="#000000" font-family="sans-serif" font-size="11" lengthAdjust="spacingAndGlyphs" textLength="61" x="82.5" y="127.6245">RedYellow,</text><text fill="#000000" font-family="sans-serif" font-size="11" lengthAdjust="spacingAndGlyphs" textLength="21" x="82.5" y="140.4292">Off,</text><text fill="#000000" font-family="sans-serif" font-size="11" lengthAdjust="spacingAndGlyphs" textLength="30" x="82.5" y="153.2339">Flash</text><line style="stroke: #A80036; stroke-width: 1.5;" x1="77.5" x2="148.5" y1="159.8281" y2="159.8281"/><!--class tl--><rect fill="#FEFECE" filter="url(#fnj6m4qce07pt)" height="60.8047" id="tl" style="stroke: #A80036; stroke-width: 1.5;" width="105" x="76.5" y="291"/><ellipse cx="91.5" cy="307" fill="#B4A7E5" rx="11" ry="11" style="stroke: #A80036; stroke-width: 1.0;"/><path d="M87.4219,302.7656 L87.4219,300.6094 L94.8125,300.6094 L94.8125,302.7656 L92.3438,302.7656 L92.3438,310.8438 L94.8125,310.8438 L94.8125,313 L87.4219,313 L87.4219,310.8438 L89.8906,310.8438 L89.8906,302.7656 L87.4219,302.7656 Z "/><text fill="#000000" font-family="sans-serif" font-size="12" font-style="italic" lengthAdjust="spacingAndGlyphs" textLength="73" x="105.5" y="311.1543">TrafficLights</text><line style="stroke: #A80036; stroke-width: 1.5;" x1="77.5" x2="180.5" y1="323" y2="323"/><line style="stroke: #A80036; stroke-width: 1.5;" x1="77.5" x2="180.5" y1="331" y2="331"/><text fill="#000000" font-family="sans-serif" font-size="11" lengthAdjust="spacingAndGlyphs" textLength="92" x="82.5" y="345.2104">void turn(State);</text><!--class spcl--><rect fill="#FEFECE" filter="url(#fnj6m4qce07pt)" height="60.8047" id="spcl" style="stroke: #A80036; stroke-width: 1.5;" width="287" x="268.5" y="516"/><ellipse cx="308.25" cy="532" fill="#ADD1B2" rx="11" ry="11" style="stroke: #A80036; stroke-width: 1.0;"/><path d="M311.2188,537.6406 Q310.6406,537.9375 310,538.0859 Q309.3594,538.2344 308.6563,538.2344 Q306.1563,538.2344 304.8359,536.5859 Q303.5156,534.9375 303.5156,531.8125 Q303.5156,528.6875 304.8359,527.0313 Q306.1563,525.375 308.6563,525.375 Q309.3594,525.375 310.0078,525.5313 Q310.6563,525.6875 311.2188,525.9844 L311.2188,528.7031 Q310.5938,528.125 310,527.8516 Q309.4063,527.5781 308.7813,527.5781 Q307.4375,527.5781 306.75,528.6484 Q306.0625,529.7188 306.0625,531.8125 Q306.0625,533.9063 306.75,534.9766 Q307.4375,536.0469 308.7813,536.0469 Q309.4063,536.0469 310,535.7734 Q310.5938,535.5 311.2188,534.9219 L311.2188,537.6406 Z "/><text fill="#000000" font-family="sans-serif" font-size="12" lengthAdjust="spacingAndGlyphs" textLength="200" x="327.75" y="536.1543">SimplePedestrianCrossingLights</text><line style="stroke: #A80036; stroke-width: 1.5;" x1="269.5" x2="554.5" y1="548" y2="548"/><line style="stroke: #A80036; stroke-width: 1.5;" x1="269.5" x2="554.5" y1="556" y2="556"/><text fill="#000000" font-family="sans-serif" font-size="11" lengthAdjust="spacingAndGlyphs" textLength="275" x="274.5" y="570.2104">public void turn(PedestrianCrossingLights.State)</text><!--class stl--><rect fill="#FEFECE" filter="url(#fnj6m4qce07pt)" height="60.8047" id="stl" style="stroke: #A80036; stroke-width: 1.5;" width="211" x="22.5" y="516"/><ellipse cx="65.85" cy="532" fill="#ADD1B2" rx="11" ry="11" style="stroke: #A80036; stroke-width: 1.0;"/><path d="M68.8188,537.6406 Q68.2406,537.9375 67.6,538.0859 Q66.9594,538.2344 66.2563,538.2344 Q63.7562,538.2344 62.4359,536.5859 Q61.1156,534.9375 61.1156,531.8125 Q61.1156,528.6875 62.4359,527.0313 Q63.7562,525.375 66.2563,525.375 Q66.9594,525.375 67.6078,525.5313 Q68.2563,525.6875 68.8188,525.9844 L68.8188,528.7031 Q68.1938,528.125 67.6,527.8516 Q67.0063,527.5781 66.3813,527.5781 Q65.0375,527.5781 64.35,528.6484 Q63.6625,529.7188 63.6625,531.8125 Q63.6625,533.9063 64.35,534.9766 Q65.0375,536.0469 66.3813,536.0469 Q67.0063,536.0469 67.6,535.7734 Q68.1938,535.5 68.8188,534.9219 L68.8188,537.6406 Z "/><text fill="#000000" font-family="sans-serif" font-size="12" lengthAdjust="spacingAndGlyphs" textLength="116" x="86.15" y="536.1543">SimpleTrafficLights</text><line style="stroke: #A80036; stroke-width: 1.5;" x1="23.5" x2="232.5" y1="548" y2="548"/><line style="stroke: #A80036; stroke-width: 1.5;" x1="23.5" x2="232.5" y1="556" y2="556"/><text fill="#000000" font-family="sans-serif" font-size="11" lengthAdjust="spacingAndGlyphs" textLength="199" x="28.5" y="570.2104">public void turn(TrafficLights.State)</text><!--link pclstate to pcl--><path d="M456.6022,148.6917 C446.8366,185.698 432.82,238.8138 422.9095,276.3692 " fill="none" id="pclstate-pcl" style="stroke: #A80036; stroke-width: 1.0;"/><ellipse cx="421.1102" cy="283.1879" fill="#FFFFFF" rx="8" ry="8" style="stroke: #A80036; stroke-width: 1.0;"/><line style="stroke: #A80036; stroke-width: 1.0;" x1="423.1515" x2="419.0689" y1="275.4527" y2="290.9231"/><line style="stroke: #A80036; stroke-width: 1.0;" x1="428.8454" x2="413.375" y1="285.2292" y2="281.1466"/><!--link tlstate to tl--><path d="M117.6494,168.2663 C120.1872,202.527 123.2741,244.2004 125.5877,275.4343 " fill="none" id="tlstate-tl" style="stroke: #A80036; stroke-width: 1.0;"/><ellipse cx="126.1291" cy="282.7433" fill="#FFFFFF" rx="8" ry="8" style="stroke: #A80036; stroke-width: 1.0;"/><line style="stroke: #A80036; stroke-width: 1.0;" x1="125.5381" x2="126.7201" y1="274.7651" y2="290.7214"/><line style="stroke: #A80036; stroke-width: 1.0;" x1="134.1072" x2="118.151" y1="282.1523" y2="283.3343"/><!--link pcc to pcl--><path d="M305.4195,129.8581 C326.5165,168.1518 367.5286,242.5939 391.7605,286.5778 " fill="none" id="pcc-pcl" style="stroke: #A80036; stroke-width: 1.0;"/><polygon fill="#A80036" points="394.1962,290.999,393.3567,281.186,391.7835,286.6197,386.3498,285.0464,394.1962,290.999" style="stroke: #A80036; stroke-width: 1.0;"/><!--link pcc to tl--><path d="M273.6187,129.8581 C244.6627,168.2291 188.3178,242.8949 155.1524,286.844 " fill="none" id="pcc-tl" style="stroke: #A80036; stroke-width: 1.0;"/><polygon fill="#A80036" points="152.017,290.999,160.6312,286.2245,155.0288,287.0079,154.2454,281.4056,152.017,290.999" style="stroke: #A80036; stroke-width: 1.0;"/><!--link pcl to spcl--><path d="M411.2271,372.5954 C411.423,416.6666 411.6994,478.8632 411.8631,515.6984 " fill="none" id="pcl-spcl" style="stroke: #A80036; stroke-width: 1.0; stroke-dasharray: 7.0,7.0;"/><polygon fill="none" points="404.226,372.3445,411.1369,352.3135,418.2259,372.2822,404.226,372.3445" style="stroke: #A80036; stroke-width: 1.0;"/><!--link tl to stl--><path d="M128.7729,372.5954 C128.577,416.6666 128.3006,478.8632 128.1369,515.6984 " fill="none" id="tl-stl" style="stroke: #A80036; stroke-width: 1.0; stroke-dasharray: 7.0,7.0;"/><polygon fill="none" points="121.7741,372.2822,128.8631,352.3135,135.774,372.3445,121.7741,372.2822" style="stroke: #A80036; stroke-width: 1.0;"/><path d="M134,387 L134,472 L314,472 L314,397 L304,387 L134,387 " fill="#FBFB77" filter="url(#fnj6m4qce07pt)" style="stroke: #A80036; stroke-width: 1.0;"/><path d="M304,387 L304,397 L314,397 L304,387 " fill="#FBFB77" style="stroke: #A80036; stroke-width: 1.0;"/><text fill="#000000" font-family="sans-serif" font-size="13" lengthAdjust="spacingAndGlyphs" textLength="149" x="140" y="404.0669">Mit diesem Pfeiltyp wird</text><text fill="#000000" font-family="sans-serif" font-size="13" lengthAdjust="spacingAndGlyphs" textLength="156" x="140" y="419.1997">kenntlich gemacht, dass</text><text fill="#000000" font-family="sans-serif" font-size="13" lengthAdjust="spacingAndGlyphs" textLength="143" x="140" y="434.3325">SimpleTrafficLights die</text><text fill="#000000" font-family="sans-serif" font-size="13" lengthAdjust="spacingAndGlyphs" textLength="159" x="140" y="449.4653">Schnittstelle TrafficLights</text><text fill="#000000" font-family="sans-serif" font-size="13" lengthAdjust="spacingAndGlyphs" textLength="94" x="140" y="464.5981">implementiert.</text><!--
@startuml
package com.traffic_lights.controller {
  class "PedestrianCrossingController" as pcc {
  }

  enum "State" as pclstate {
        Red,
        Greem,
        Off
  }

  interface "PedestrianCrossingLights" as pcl {
    void turn(State);
  }

  pcl +-up- pclstate

  enum "State" as tlstate {
        Red,
        Green,
        Yellow,
        RedYellow,
        Off,
        Flash
   }


  interface "TrafficLights" as tl {
    void turn(State);
  }

  tl +-up- tlstate

  pcc -down-> pcl
  pcc -down-> tl
}

package com.traffic_lights.view {
  class "SimplePedestrianCrossingLights" as spcl {
    public void turn(PedestrianCrossingLights.State)
  }

  spcl .up.|> pcl

  class "SimpleTrafficLights" as stl {
    public void turn(TrafficLights.State)
  }

  stl .up.|> tl
  note on link
    Mit diesem Pfeiltyp wird
    kenntlich gemacht, dass
    SimpleTrafficLights die
    Schnittstelle TrafficLights
    implementiert.
  end note
}
@enduml

PlantUML version 1.2018.01(Sun Jan 28 19:08:22 CET 2018)
(APACHE source distribution)
Java Runtime: Java(TM) SE Runtime Environment
JVM: Java HotSpot(TM) 64-Bit Server VM
Java Version: 10.0.1+10
Operating System: Linux
OS Version: 4.18.1-arch1-1-ARCH
Default Encoding: UTF-8
Language: de
Country: DE
--></g></svg>