<?xml version="1.0" encoding="UTF-8" standalone="no"?><svg xmlns="http://www.w3.org/2000/svg" xmlns:xlink="http://www.w3.org/1999/xlink" contentScriptType="application/ecmascript" contentStyleType="text/css" height="597px" preserveAspectRatio="none" style="width:582px;height:597px;" version="1.1" viewBox="0 0 582 597" width="582px" zoomAndPan="magnify"><defs><filter height="300%" id="f1o0ddluif4ezf" width="300%" x="-1" y="-1"><feGaussianBlur result="blurOut" stdDeviation="2.0"/><feColorMatrix in="blurOut" result="blurOut2" type="matrix" values="0 0 0 0 0 0 0 0 0 0 0 0 0 0 0 0 0 0 .4 0"/><feOffset dx="4.0" dy="4.0" in="blurOut2" result="blurOut3"/><feBlend in="SourceGraphic" in2="blurOut3" mode="normal"/></filter></defs><g><!--cluster com.traffic_lights.controller--><polygon fill="#FFFFFF" filter="url(#f1o0ddluif4ezf)" points="61,16,284,16,291,38.2969,502,38.2969,502,360,61,360,61,16" style="stroke: #000000; stroke-width: 1.5;"/><line style="stroke: #000000; stroke-width: 1.5;" x1="61" x2="291" y1="38.2969" y2="38.2969"/><text fill="#000000" font-family="sans-serif" font-size="14" font-weight="bold" lengthAdjust="spacingAndGlyphs" textLength="217" x="65" y="30.9951">com.traffic_lights.controller</text><!--cluster com.traffic_lights.view--><polygon fill="#FFFFFF" filter="url(#f1o0ddluif4ezf)" points="14,489,197,489,204,511.2969,560,511.2969,560,585,14,585,14,489" style="stroke: #000000; stroke-width: 1.5;"/><line style="stroke: #000000; stroke-width: 1.5;" x1="14" x2="204" y1="511.2969" y2="511.2969"/><text fill="#000000" font-family="sans-serif" font-size="14" font-weight="bold" lengthAdjust="spacingAndGlyphs" textLength="177" x="18" y="503.9951">com.traffic_lights.view</text><!--class pcc--><rect fill="#FEFECE" filter="url(#f1o0ddluif4ezf)" height="48" id="pcc" style="stroke: #A80036; stroke-width: 1.5;" width="215" x="177.5" y="81.5"/><ellipse cx="192.5" cy="97.5" fill="#ADD1B2" rx="11" ry="11" style="stroke: #A80036; stroke-width: 1.0;"/><path d="M195.4688,103.1406 Q194.8906,103.4375 194.25,103.5859 Q193.6094,103.7344 192.9063,103.7344 Q190.4063,103.7344 189.0859,102.0859 Q187.7656,100.4375 187.7656,97.3125 Q187.7656,94.1875 189.0859,92.5313 Q190.4063,90.875 192.9063,90.875 Q193.6094,90.875 194.2578,91.0313 Q194.9063,91.1875 195.4688,91.4844 L195.4688,94.2031 Q194.8438,93.625 194.25,93.3516 Q193.6563,93.0781 193.0313,93.0781 Q191.6875,93.0781 191,94.1484 Q190.3125,95.2188 190.3125,97.3125 Q190.3125,99.4063 191,100.4766 Q191.6875,101.5469 193.0313,101.5469 Q193.6563,101.5469 194.25,101.2734 Q194.8438,101 195.4688,100.4219 L195.4688,103.1406 Z "/><text fill="#000000" font-family="sans-serif" font-size="12" lengthAdjust="spacingAndGlyphs" textLength="183" x="206.5" y="101.6543">PedestrianCrossingController</text><line style="stroke: #A80036; stroke-width: 1.5;" x1="178.5" x2="391.5" y1="113.5" y2="113.5"/><line style="stroke: #A80036; stroke-width: 1.5;" x1="178.5" x2="391.5" y1="121.5" y2="121.5"/><!--class pclstate--><rect fill="#FEFECE" filter="url(#f1o0ddluif4ezf)" height="86.4141" id="pclstate" style="stroke: #A80036; stroke-width: 1.5;" width="66" x="428" y="62.5"/><ellipse cx="443" cy="78.5" fill="#EB937F" rx="11" ry="11" style="stroke: #A80036; stroke-width: 1.0;"/><path d="M447.1094,84.5 L439.3906,84.5 L439.3906,72.1094 L447.1094,72.1094 L447.1094,74.2656 L441.8438,74.2656 L441.8438,76.9375 L446.6094,76.9375 L446.6094,79.0938 L441.8438,79.0938 L441.8438,82.3438 L447.1094,82.3438 L447.1094,84.5 Z "/><text fill="#000000" font-family="sans-serif" font-size="12" lengthAdjust="spacingAndGlyphs" textLength="34" x="457" y="82.6543">State</text><line style="stroke: #A80036; stroke-width: 1.5;" x1="429" x2="493" y1="94.5" y2="94.5"/><text fill="#000000" font-family="sans-serif" font-size="11" lengthAdjust="spacingAndGlyphs" textLength="25" x="434" y="108.7104">Red,</text><text fill="#000000" font-family="sans-serif" font-size="11" lengthAdjust="spacingAndGlyphs" textLength="43" x="434" y="121.5151">Greem,</text><text fill="#000000" font-family="sans-serif" font-size="11" lengthAdjust="spacingAndGlyphs" textLength="17" x="434" y="134.3198">Off</text><line style="stroke: #A80036; stroke-width: 1.5;" x1="429" x2="493" y1="140.9141" y2="140.9141"/><!--class pcl--><rect fill="#FEFECE" filter="url(#f1o0ddluif4ezf)" height="60.8047" id="pcl" style="stroke: #A80036; stroke-width: 1.5;" width="180" x="314" y="291"/><ellipse cx="329" cy="307" fill="#B4A7E5" rx="11" ry="11" style="stroke: #A80036; stroke-width: 1.0;"/><path d="M324.9219,302.7656 L324.9219,300.6094 L332.3125,300.6094 L332.3125,302.7656 L329.8438,302.7656 L329.8438,310.8438 L332.3125,310.8438 L332.3125,313 L324.9219,313 L324.9219,310.8438 L327.3906,310.8438 L327.3906,302.7656 L324.9219,302.7656 Z "/><text fill="#000000" font-family="sans-serif" font-size="12" font-style="italic" lengthAdjust="spacingAndGlyphs" textLength="148" x="343" y="311.1543">PedestrianCrossingLights</text><line style="stroke: #A80036; stroke-width: 1.5;" x1="315" x2="493" y1="323" y2="323"/><line style="stroke: #A80036; stroke-width: 1.5;" x1="315" x2="493" y1="331" y2="331"/><text fill="#000000" font-family="sans-serif" font-size="11" lengthAdjust="spacingAndGlyphs" textLength="127" x="320" y="345.2104">public void turn(State);</text><!--class tlstate--><rect fill="#FEFECE" filter="url(#f1o0ddluif4ezf)" height="124.8281" id="tlstate" style="stroke: #A80036; stroke-width: 1.5;" width="73" x="69.5" y="43"/><ellipse cx="87.65" cy="59" fill="#EB937F" rx="11" ry="11" style="stroke: #A80036; stroke-width: 1.0;"/><path d="M91.7594,65 L84.0406,65 L84.0406,52.6094 L91.7594,52.6094 L91.7594,54.7656 L86.4938,54.7656 L86.4938,57.4375 L91.2594,57.4375 L91.2594,59.5938 L86.4938,59.5938 L86.4938,62.8438 L91.7594,62.8438 L91.7594,65 Z "/><text fill="#000000" font-family="sans-serif" font-size="12" lengthAdjust="spacingAndGlyphs" textLength="34" x="102.35" y="63.1543">State</text><line style="stroke: #A80036; stroke-width: 1.5;" x1="70.5" x2="141.5" y1="75" y2="75"/><text fill="#000000" font-family="sans-serif" font-size="11" lengthAdjust="spacingAndGlyphs" textLength="25" x="75.5" y="89.2104">Red,</text><text fill="#000000" font-family="sans-serif" font-size="11" lengthAdjust="spacingAndGlyphs" textLength="39" x="75.5" y="102.0151">Green,</text><text fill="#000000" font-family="sans-serif" font-size="11" lengthAdjust="spacingAndGlyphs" textLength="40" x="75.5" y="114.8198">Yellow,</text><text fill="#000000" font-family="sans-serif" font-size="11" lengthAdjust="spacingAndGlyphs" textLength="61" x="75.5" y="127.6245">RedYellow,</text><text fill="#000000" font-family="sans-serif" font-size="11" lengthAdjust="spacingAndGlyphs" textLength="21" x="75.5" y="140.4292">Off,</text><text fill="#000000" font-family="sans-serif" font-size="11" lengthAdjust="spacingAndGlyphs" textLength="30" x="75.5" y="153.2339">Flash</text><line style="stroke: #A80036; stroke-width: 1.5;" x1="70.5" x2="141.5" y1="159.8281" y2="159.8281"/><!--class tl--><rect fill="#FEFECE" filter="url(#f1o0ddluif4ezf)" height="60.8047" id="tl" style="stroke: #A80036; stroke-width: 1.5;" width="139" x="69.5" y="291"/><ellipse cx="99.8" cy="307" fill="#B4A7E5" rx="11" ry="11" style="stroke: #A80036; stroke-width: 1.0;"/><path d="M95.7219,302.7656 L95.7219,300.6094 L103.1125,300.6094 L103.1125,302.7656 L100.6438,302.7656 L100.6438,310.8438 L103.1125,310.8438 L103.1125,313 L95.7219,313 L95.7219,310.8438 L98.1906,310.8438 L98.1906,302.7656 L95.7219,302.7656 Z "/><text fill="#000000" font-family="sans-serif" font-size="12" font-style="italic" lengthAdjust="spacingAndGlyphs" textLength="73" x="117.2" y="311.1543">TrafficLights</text><line style="stroke: #A80036; stroke-width: 1.5;" x1="70.5" x2="207.5" y1="323" y2="323"/><line style="stroke: #A80036; stroke-width: 1.5;" x1="70.5" x2="207.5" y1="331" y2="331"/><text fill="#000000" font-family="sans-serif" font-size="11" lengthAdjust="spacingAndGlyphs" textLength="127" x="75.5" y="345.2104">public void turn(State);</text><!--class spcl--><rect fill="#FEFECE" filter="url(#f1o0ddluif4ezf)" height="60.8047" id="spcl" style="stroke: #A80036; stroke-width: 1.5;" width="285" x="266.5" y="516"/><ellipse cx="305.35" cy="532" fill="#ADD1B2" rx="11" ry="11" style="stroke: #A80036; stroke-width: 1.0;"/><path d="M308.3188,537.6406 Q307.7406,537.9375 307.1,538.0859 Q306.4594,538.2344 305.7563,538.2344 Q303.2563,538.2344 301.9359,536.5859 Q300.6156,534.9375 300.6156,531.8125 Q300.6156,528.6875 301.9359,527.0313 Q303.2563,525.375 305.7563,525.375 Q306.4594,525.375 307.1078,525.5313 Q307.7563,525.6875 308.3188,525.9844 L308.3188,528.7031 Q307.6938,528.125 307.1,527.8516 Q306.5063,527.5781 305.8813,527.5781 Q304.5375,527.5781 303.85,528.6484 Q303.1625,529.7188 303.1625,531.8125 Q303.1625,533.9063 303.85,534.9766 Q304.5375,536.0469 305.8813,536.0469 Q306.5063,536.0469 307.1,535.7734 Q307.6938,535.5 308.3188,534.9219 L308.3188,537.6406 Z "/><text fill="#000000" font-family="sans-serif" font-size="12" lengthAdjust="spacingAndGlyphs" textLength="200" x="324.65" y="536.1543">SimplePedestrianCrossingLights</text><line style="stroke: #A80036; stroke-width: 1.5;" x1="267.5" x2="550.5" y1="548" y2="548"/><line style="stroke: #A80036; stroke-width: 1.5;" x1="267.5" x2="550.5" y1="556" y2="556"/><text fill="#000000" font-family="sans-serif" font-size="11" lengthAdjust="spacingAndGlyphs" textLength="273" x="272.5" y="570.2104">public void turn(PedestrianCrossingLights.State)</text><!--class stl--><rect fill="#FEFECE" filter="url(#f1o0ddluif4ezf)" height="60.8047" id="stl" style="stroke: #A80036; stroke-width: 1.5;" width="209" x="22.5" y="516"/><ellipse cx="64.95" cy="532" fill="#ADD1B2" rx="11" ry="11" style="stroke: #A80036; stroke-width: 1.0;"/><path d="M67.9188,537.6406 Q67.3406,537.9375 66.7,538.0859 Q66.0594,538.2344 65.3563,538.2344 Q62.8563,538.2344 61.5359,536.5859 Q60.2156,534.9375 60.2156,531.8125 Q60.2156,528.6875 61.5359,527.0313 Q62.8563,525.375 65.3563,525.375 Q66.0594,525.375 66.7078,525.5313 Q67.3563,525.6875 67.9188,525.9844 L67.9188,528.7031 Q67.2938,528.125 66.7,527.8516 Q66.1063,527.5781 65.4813,527.5781 Q64.1375,527.5781 63.45,528.6484 Q62.7625,529.7188 62.7625,531.8125 Q62.7625,533.9063 63.45,534.9766 Q64.1375,536.0469 65.4813,536.0469 Q66.1063,536.0469 66.7,535.7734 Q67.2938,535.5 67.9188,534.9219 L67.9188,537.6406 Z "/><text fill="#000000" font-family="sans-serif" font-size="12" lengthAdjust="spacingAndGlyphs" textLength="116" x="85.05" y="536.1543">SimpleTrafficLights</text><line style="stroke: #A80036; stroke-width: 1.5;" x1="23.5" x2="230.5" y1="548" y2="548"/><line style="stroke: #A80036; stroke-width: 1.5;" x1="23.5" x2="230.5" y1="556" y2="556"/><text fill="#000000" font-family="sans-serif" font-size="11" lengthAdjust="spacingAndGlyphs" textLength="197" x="28.5" y="570.2104">public void turn(TrafficLights.State)</text><!--link pclstate to pcl--><path d="M449.6022,148.6917 C439.8366,185.698 425.82,238.8138 415.9095,276.3692 " fill="none" id="pclstate-pcl" style="stroke: #A80036; stroke-width: 1.0;"/><ellipse cx="414.1102" cy="283.1879" fill="#FFFFFF" rx="8" ry="8" style="stroke: #A80036; stroke-width: 1.0;"/><line style="stroke: #A80036; stroke-width: 1.0;" x1="416.1515" x2="412.0689" y1="275.4527" y2="290.9231"/><line style="stroke: #A80036; stroke-width: 1.0;" x1="421.8454" x2="406.375" y1="285.2292" y2="281.1466"/><!--link tlstate to tl--><path d="M115.5893,168.2663 C120.8476,202.6842 127.2488,244.5828 132.0277,275.8634 " fill="none" id="tlstate-tl" style="stroke: #A80036; stroke-width: 1.0;"/><ellipse cx="133.0895" cy="282.8132" fill="#FFFFFF" rx="8" ry="8" style="stroke: #A80036; stroke-width: 1.0;"/><line style="stroke: #A80036; stroke-width: 1.0;" x1="131.8812" x2="134.2977" y1="274.9049" y2="290.7214"/><line style="stroke: #A80036; stroke-width: 1.0;" x1="140.9977" x2="125.1812" y1="281.6049" y2="284.0214"/><!--link pcc to pcl--><path d="M298.4195,129.8581 C319.5165,168.1518 360.5286,242.5939 384.7605,286.5778 " fill="none" id="pcc-pcl" style="stroke: #A80036; stroke-width: 1.0;"/><polygon fill="#A80036" points="387.1962,290.999,386.3567,281.186,384.7835,286.6197,379.3498,285.0464,387.1962,290.999" style="stroke: #A80036; stroke-width: 1.0;"/><!--link pcc to tl--><path d="M268.5357,129.8581 C242.5997,168.2291 192.1313,242.8949 162.4249,286.844 " fill="none" id="pcc-tl" style="stroke: #A80036; stroke-width: 1.0;"/><polygon fill="#A80036" points="159.6164,290.999,167.9704,285.7826,162.4164,286.8565,161.3425,281.3026,159.6164,290.999" style="stroke: #A80036; stroke-width: 1.0;"/><!--link pcl to spcl--><path d="M405.1355,372.5954 C406.1148,416.6666 407.497,478.8632 408.3155,515.6984 " fill="none" id="pcl-spcl" style="stroke: #A80036; stroke-width: 1.0; stroke-dasharray: 7.0,7.0;"/><polygon fill="none" points="398.1309,372.4641,404.6847,352.3135,412.1274,372.153,398.1309,372.4641" style="stroke: #A80036; stroke-width: 1.0;"/><!--link tl to stl--><path d="M136.291,372.2945 C133.9396,416.3831 130.6118,478.7793 128.6428,515.6984 " fill="none" id="tl-stl" style="stroke: #A80036; stroke-width: 1.0; stroke-dasharray: 7.0,7.0;"/><polygon fill="none" points="129.3013,371.9123,137.3566,352.3135,143.2814,372.658,129.3013,371.9123" style="stroke: #A80036; stroke-width: 1.0;"/><path d="M141,387 L141,472 L321,472 L321,397 L311,387 L141,387 " fill="#FBFB77" filter="url(#f1o0ddluif4ezf)" style="stroke: #A80036; stroke-width: 1.0;"/><path d="M311,387 L311,397 L321,397 L311,387 " fill="#FBFB77" style="stroke: #A80036; stroke-width: 1.0;"/><text fill="#000000" font-family="sans-serif" font-size="13" lengthAdjust="spacingAndGlyphs" textLength="149" x="147" y="404.0669">Mit diesem Pfeiltyp wird</text><text fill="#000000" font-family="sans-serif" font-size="13" lengthAdjust="spacingAndGlyphs" textLength="156" x="147" y="419.1997">kenntlich gemacht, dass</text><text fill="#000000" font-family="sans-serif" font-size="13" lengthAdjust="spacingAndGlyphs" textLength="143" x="147" y="434.3325">SimpleTrafficLights die</text><text fill="#000000" font-family="sans-serif" font-size="13" lengthAdjust="spacingAndGlyphs" textLength="159" x="147" y="449.4653">Schnittstelle TrafficLights</text><text fill="#000000" font-family="sans-serif" font-size="13" lengthAdjust="spacingAndGlyphs" textLength="94" x="147" y="464.5981">implementiert.</text><!--
@startuml
package com.traffic_lights.controller {
  class "PedestrianCrossingController" as pcc {
  }

  enum "State" as pclstate {
        Red,
        Greem,
        Off
  }

  interface "PedestrianCrossingLights" as pcl {
    public void turn(State);
  }

  pcl +-up- pclstate

  enum "State" as tlstate {
        Red,
        Green,
        Yellow,
        RedYellow,
        Off,
        Flash
   }


  interface "TrafficLights" as tl {
    public void turn(State);
  }

  tl +-up- tlstate

  pcc -down-> pcl
  pcc -down-> tl
}

package com.traffic_lights.view {
  class "SimplePedestrianCrossingLights" as spcl {
    public void turn(PedestrianCrossingLights.State)
  }

  spcl .up.|> pcl

  class "SimpleTrafficLights" as stl {
    public void turn(TrafficLights.State)
  }

  stl .up.|> tl
  note on link
    Mit diesem Pfeiltyp wird
    kenntlich gemacht, dass
    SimpleTrafficLights die
    Schnittstelle TrafficLights
    implementiert.
  end note
}
@enduml

PlantUML version 1.2018.01(Sun Jan 28 19:08:22 CET 2018)
(APACHE source distribution)
Java Runtime: OpenJDK Runtime Environment
JVM: OpenJDK 64-Bit Server VM
Java Version: 1.8.0_172-b11
Operating System: Linux
OS Version: 4.16.10-1-ARCH
Default Encoding: UTF-8
Language: de
Country: DE
--></g></svg>