<?xml version="1.0" encoding="UTF-8" standalone="no"?><svg xmlns="http://www.w3.org/2000/svg" xmlns:xlink="http://www.w3.org/1999/xlink" contentScriptType="application/ecmascript" contentStyleType="text/css" height="383px" preserveAspectRatio="none" style="width:496px;height:383px;" version="1.1" viewBox="0 0 496 383" width="496px" zoomAndPan="magnify"><defs><filter height="300%" id="fj2e4tpt05lfu" width="300%" x="-1" y="-1"><feGaussianBlur result="blurOut" stdDeviation="2.0"/><feColorMatrix in="blurOut" result="blurOut2" type="matrix" values="0 0 0 0 0 0 0 0 0 0 0 0 0 0 0 0 0 0 .4 0"/><feOffset dx="4.0" dy="4.0" in="blurOut2" result="blurOut3"/><feBlend in="SourceGraphic" in2="blurOut3" mode="normal"/></filter></defs><g><!--entity c--><rect fill="#FEFECE" filter="url(#fj2e4tpt05lfu)" height="46.2969" style="stroke: #A80036; stroke-width: 1.5;" width="224" x="247.5" y="8"/><rect fill="#FEFECE" height="10" style="stroke: #A80036; stroke-width: 1.5;" width="15" x="451.5" y="13"/><rect fill="#FEFECE" height="2" style="stroke: #A80036; stroke-width: 1.5;" width="4" x="449.5" y="15"/><rect fill="#FEFECE" height="2" style="stroke: #A80036; stroke-width: 1.5;" width="4" x="449.5" y="19"/><text fill="#000000" font-family="sans-serif" font-size="14" lengthAdjust="spacingAndGlyphs" textLength="184" x="262.5" y="40.9951">com.traffic_lights.controller</text><!--entity v--><rect fill="#FEFECE" filter="url(#fj2e4tpt05lfu)" height="46.2969" style="stroke: #A80036; stroke-width: 1.5;" width="189" x="6" y="220"/><rect fill="#FEFECE" height="10" style="stroke: #A80036; stroke-width: 1.5;" width="15" x="175" y="225"/><rect fill="#FEFECE" height="2" style="stroke: #A80036; stroke-width: 1.5;" width="4" x="173" y="227"/><rect fill="#FEFECE" height="2" style="stroke: #A80036; stroke-width: 1.5;" width="4" x="173" y="231"/><text fill="#000000" font-family="sans-serif" font-size="14" lengthAdjust="spacingAndGlyphs" textLength="149" x="21" y="252.9951">com.traffic_lights.view</text><!--entity i--><rect fill="#FEFECE" filter="url(#fj2e4tpt05lfu)" height="46.2969" style="stroke: #A80036; stroke-width: 1.5;" width="194" x="262.5" y="114"/><rect fill="#FEFECE" height="10" style="stroke: #A80036; stroke-width: 1.5;" width="15" x="436.5" y="119"/><rect fill="#FEFECE" height="2" style="stroke: #A80036; stroke-width: 1.5;" width="4" x="434.5" y="121"/><rect fill="#FEFECE" height="2" style="stroke: #A80036; stroke-width: 1.5;" width="4" x="434.5" y="125"/><text fill="#000000" font-family="sans-serif" font-size="14" lengthAdjust="spacingAndGlyphs" textLength="154" x="277.5" y="146.9951">com.traffic_lights.input</text><!--entity u--><rect fill="#FEFECE" filter="url(#fj2e4tpt05lfu)" height="46.2969" style="stroke: #A80036; stroke-width: 1.5;" width="190" x="230.5" y="220"/><rect fill="#FEFECE" height="10" style="stroke: #A80036; stroke-width: 1.5;" width="15" x="400.5" y="225"/><rect fill="#FEFECE" height="2" style="stroke: #A80036; stroke-width: 1.5;" width="4" x="398.5" y="227"/><rect fill="#FEFECE" height="2" style="stroke: #A80036; stroke-width: 1.5;" width="4" x="398.5" y="231"/><text fill="#000000" font-family="sans-serif" font-size="14" lengthAdjust="spacingAndGlyphs" textLength="150" x="245.5" y="252.9951">com.traffic_lights.user</text><!--entity m--><rect fill="#FEFECE" filter="url(#fj2e4tpt05lfu)" height="46.2969" style="stroke: #A80036; stroke-width: 1.5;" width="155" x="322" y="326"/><rect fill="#FEFECE" height="10" style="stroke: #A80036; stroke-width: 1.5;" width="15" x="457" y="331"/><rect fill="#FEFECE" height="2" style="stroke: #A80036; stroke-width: 1.5;" width="4" x="455" y="333"/><rect fill="#FEFECE" height="2" style="stroke: #A80036; stroke-width: 1.5;" width="4" x="455" y="337"/><text fill="#000000" font-family="sans-serif" font-size="14" lengthAdjust="spacingAndGlyphs" textLength="115" x="337" y="358.9951">com.traffic_lights</text><!--link c to v--><path d="M321.4221,56.9709 C298.6599,72.8649 269.4162,93.9402 244.5,114 C200.8389,149.1512 152.8623,193.3373 124.7807,219.8119 " fill="none" id="c-v" style="stroke: #A80036; stroke-width: 1.0;"/><polygon fill="#A80036" points="325.5944,54.0649,315.9231,55.9265,321.4915,56.9226,320.4954,62.4911,325.5944,54.0649" style="stroke: #A80036; stroke-width: 1.0;"/><!--link c to i--><path d="M359.5,59.1305 C359.5,76.1538 359.5,97.6037 359.5,113.6784 " fill="none" id="c-i" style="stroke: #A80036; stroke-width: 1.0;"/><polygon fill="#A80036" points="359.5,54.0004,355.5,63.0004,359.5,59.0004,363.5,63.0004,359.5,54.0004" style="stroke: #A80036; stroke-width: 1.0;"/><!--link i to u--><path d="M350.477,165.1305 C345.0167,182.1538 338.1366,203.6037 332.9805,219.6784 " fill="none" id="i-u" style="stroke: #A80036; stroke-width: 1.0;"/><polygon fill="#A80036" points="352.1225,160.0004,345.5648,167.3486,350.5954,164.7615,353.1825,169.792,352.1225,160.0004" style="stroke: #A80036; stroke-width: 1.0;"/><!--link c to m--><path d="M414.7474,56.6935 C437.2841,70.2943 460.9565,89.3515 473.5,114 C484.6292,135.8692 481.5208,227.5624 466.5,266 C457.5352,288.9404 439.8013,310.4471 424.8295,325.8178 " fill="none" id="c-m" style="stroke: #A80036; stroke-width: 1.0;"/><polygon fill="#A80036" points="410.2588,54.046,415.9786,62.0638,414.5654,56.5862,420.043,55.1731,410.2588,54.046" style="stroke: #A80036; stroke-width: 1.0;"/><!--link i to m--><path d="M394.8159,163.7641 C411.1219,178.3739 428.7721,197.9677 437.5,220 C451.7739,256.0323 431.5584,299.576 415.5802,325.7392 " fill="none" id="i-m" style="stroke: #A80036; stroke-width: 1.0;"/><polygon fill="#A80036" points="390.7055,160.1586,394.8339,169.1004,394.4644,163.4557,400.1092,163.0862,390.7055,160.1586" style="stroke: #A80036; stroke-width: 1.0;"/><!--link u to m--><path d="M344.5264,270.254 C356.505,287.4126 371.8034,309.3265 383.2189,325.6784 " fill="none" id="u-m" style="stroke: #A80036; stroke-width: 1.0;"/><polygon fill="#A80036" points="341.5569,266.0004,343.4288,275.6697,344.419,270.1002,349.9885,271.0904,341.5569,266.0004" style="stroke: #A80036; stroke-width: 1.0;"/><!--link v to m--><path d="M170.1264,267.6836 C219.7357,285.2709 285.9567,308.7472 334.4904,325.9531 " fill="none" id="v-m" style="stroke: #A80036; stroke-width: 1.0;"/><polygon fill="#A80036" points="165.3785,266.0004,172.5246,272.7778,170.0911,267.6711,175.1978,265.2376,165.3785,266.0004" style="stroke: #A80036; stroke-width: 1.0;"/><!--
@startuml
skinparam componentStyle uml2

component com.traffic_lights.controller as c

component com.traffic_lights.view as v

component com.traffic_lights.input as i

component com.traffic_lights.user as u

component com.traffic_lights as m

v -up-> c

i -up-> c

u -up-> i

m -up-> c
m -up-> i
m -up-> u
m -up-> v
@enduml

PlantUML version 1.2018.01(Sun Jan 28 19:08:22 CET 2018)
(APACHE source distribution)
Java Runtime: OpenJDK Runtime Environment
JVM: OpenJDK 64-Bit Server VM
Java Version: 1.8.0_172-b11
Operating System: Linux
OS Version: 4.16.10-1-ARCH
Default Encoding: UTF-8
Language: de
Country: DE
--></g></svg>