<?xml version="1.0" encoding="UTF-8" standalone="no"?><svg xmlns="http://www.w3.org/2000/svg" xmlns:xlink="http://www.w3.org/1999/xlink" contentScriptType="application/ecmascript" contentStyleType="text/css" height="485px" preserveAspectRatio="none" style="width:394px;height:485px;" version="1.1" viewBox="0 0 394 485" width="394px" zoomAndPan="magnify"><defs><filter height="300%" id="f1gk4rde75bfu1" width="300%" x="-1" y="-1"><feGaussianBlur result="blurOut" stdDeviation="2.0"/><feColorMatrix in="blurOut" result="blurOut2" type="matrix" values="0 0 0 0 0 0 0 0 0 0 0 0 0 0 0 0 0 0 .4 0"/><feOffset dx="4.0" dy="4.0" in="blurOut2" result="blurOut3"/><feBlend in="SourceGraphic" in2="blurOut3" mode="normal"/></filter></defs><g><!--cluster com.traffic_lights.controller--><polygon fill="#FFFFFF" filter="url(#f1gk4rde75bfu1)" points="14,16,237,16,244,38.2969,351,38.2969,351,473,14,473,14,16" style="stroke: #000000; stroke-width: 1.5;"/><line style="stroke: #000000; stroke-width: 1.5;" x1="14" x2="244" y1="38.2969" y2="38.2969"/><text fill="#000000" font-family="sans-serif" font-size="14" font-weight="bold" lengthAdjust="spacingAndGlyphs" textLength="217" x="18" y="30.9951">com.traffic_lights.controller</text><!--class pclstate--><rect fill="#FEFECE" filter="url(#f1gk4rde75bfu1)" height="86.4141" id="pclstate" style="stroke: #A80036; stroke-width: 1.5;" width="66" x="30" y="62.5"/><ellipse cx="45" cy="78.5" fill="#EB937F" rx="11" ry="11" style="stroke: #A80036; stroke-width: 1.0;"/><path d="M49.1094,84.5 L41.3906,84.5 L41.3906,72.1094 L49.1094,72.1094 L49.1094,74.2656 L43.8438,74.2656 L43.8438,76.9375 L48.6094,76.9375 L48.6094,79.0938 L43.8438,79.0938 L43.8438,82.3438 L49.1094,82.3438 L49.1094,84.5 Z "/><text fill="#000000" font-family="sans-serif" font-size="12" lengthAdjust="spacingAndGlyphs" textLength="34" x="59" y="82.6543">State</text><line style="stroke: #A80036; stroke-width: 1.5;" x1="31" x2="95" y1="94.5" y2="94.5"/><text fill="#000000" font-family="sans-serif" font-size="11" lengthAdjust="spacingAndGlyphs" textLength="25" x="36" y="108.7104">Red,</text><text fill="#000000" font-family="sans-serif" font-size="11" lengthAdjust="spacingAndGlyphs" textLength="43" x="36" y="121.5151">Greem,</text><text fill="#000000" font-family="sans-serif" font-size="11" lengthAdjust="spacingAndGlyphs" textLength="17" x="36" y="134.3198">Off</text><line style="stroke: #A80036; stroke-width: 1.5;" x1="31" x2="95" y1="140.9141" y2="140.9141"/><!--class pcl--><rect fill="#FEFECE" filter="url(#f1gk4rde75bfu1)" height="60.8047" id="pcl" style="stroke: #A80036; stroke-width: 1.5;" width="180" x="22" y="404"/><ellipse cx="37" cy="420" fill="#B4A7E5" rx="11" ry="11" style="stroke: #A80036; stroke-width: 1.0;"/><path d="M32.9219,415.7656 L32.9219,413.6094 L40.3125,413.6094 L40.3125,415.7656 L37.8438,415.7656 L37.8438,423.8438 L40.3125,423.8438 L40.3125,426 L32.9219,426 L32.9219,423.8438 L35.3906,423.8438 L35.3906,415.7656 L32.9219,415.7656 Z "/><text fill="#000000" font-family="sans-serif" font-size="12" font-style="italic" lengthAdjust="spacingAndGlyphs" textLength="148" x="51" y="424.1543">PedestrianCrossingLights</text><line style="stroke: #A80036; stroke-width: 1.5;" x1="23" x2="201" y1="436" y2="436"/><line style="stroke: #A80036; stroke-width: 1.5;" x1="23" x2="201" y1="444" y2="444"/><text fill="#000000" font-family="sans-serif" font-size="11" lengthAdjust="spacingAndGlyphs" textLength="91" x="28" y="458.2104">void turn(State);</text><!--class tlstate--><rect fill="#FEFECE" filter="url(#f1gk4rde75bfu1)" height="124.8281" id="tlstate" style="stroke: #A80036; stroke-width: 1.5;" width="73" x="131.5" y="43"/><ellipse cx="149.65" cy="59" fill="#EB937F" rx="11" ry="11" style="stroke: #A80036; stroke-width: 1.0;"/><path d="M153.7594,65 L146.0406,65 L146.0406,52.6094 L153.7594,52.6094 L153.7594,54.7656 L148.4938,54.7656 L148.4938,57.4375 L153.2594,57.4375 L153.2594,59.5938 L148.4938,59.5938 L148.4938,62.8438 L153.7594,62.8438 L153.7594,65 Z "/><text fill="#000000" font-family="sans-serif" font-size="12" lengthAdjust="spacingAndGlyphs" textLength="34" x="164.35" y="63.1543">State</text><line style="stroke: #A80036; stroke-width: 1.5;" x1="132.5" x2="203.5" y1="75" y2="75"/><text fill="#000000" font-family="sans-serif" font-size="11" lengthAdjust="spacingAndGlyphs" textLength="25" x="137.5" y="89.2104">Red,</text><text fill="#000000" font-family="sans-serif" font-size="11" lengthAdjust="spacingAndGlyphs" textLength="39" x="137.5" y="102.0151">Green,</text><text fill="#000000" font-family="sans-serif" font-size="11" lengthAdjust="spacingAndGlyphs" textLength="40" x="137.5" y="114.8198">Yellow,</text><text fill="#000000" font-family="sans-serif" font-size="11" lengthAdjust="spacingAndGlyphs" textLength="61" x="137.5" y="127.6245">RedYellow,</text><text fill="#000000" font-family="sans-serif" font-size="11" lengthAdjust="spacingAndGlyphs" textLength="21" x="137.5" y="140.4292">Off,</text><text fill="#000000" font-family="sans-serif" font-size="11" lengthAdjust="spacingAndGlyphs" textLength="30" x="137.5" y="153.2339">Flash</text><line style="stroke: #A80036; stroke-width: 1.5;" x1="132.5" x2="203.5" y1="159.8281" y2="159.8281"/><!--class tl--><rect fill="#FEFECE" filter="url(#f1gk4rde75bfu1)" height="60.8047" id="tl" style="stroke: #A80036; stroke-width: 1.5;" width="105" x="237.5" y="404"/><ellipse cx="252.5" cy="420" fill="#B4A7E5" rx="11" ry="11" style="stroke: #A80036; stroke-width: 1.0;"/><path d="M248.4219,415.7656 L248.4219,413.6094 L255.8125,413.6094 L255.8125,415.7656 L253.3438,415.7656 L253.3438,423.8438 L255.8125,423.8438 L255.8125,426 L248.4219,426 L248.4219,423.8438 L250.8906,423.8438 L250.8906,415.7656 L248.4219,415.7656 Z "/><text fill="#000000" font-family="sans-serif" font-size="12" font-style="italic" lengthAdjust="spacingAndGlyphs" textLength="73" x="266.5" y="424.1543">TrafficLights</text><line style="stroke: #A80036; stroke-width: 1.5;" x1="238.5" x2="341.5" y1="436" y2="436"/><line style="stroke: #A80036; stroke-width: 1.5;" x1="238.5" x2="341.5" y1="444" y2="444"/><text fill="#000000" font-family="sans-serif" font-size="11" lengthAdjust="spacingAndGlyphs" textLength="91" x="243.5" y="458.2104">void turn(State);</text><!--link pclstate to pcl--><path d="M69.4059,148.511 C78.6609,210.6519 95.6992,325.0517 105.1802,388.7096 " fill="none" id="pclstate-pcl" style="stroke: #A80036; stroke-width: 1.0;"/><ellipse cx="106.2399" cy="395.8252" fill="#FFFFFF" rx="8" ry="8" style="stroke: #A80036; stroke-width: 1.0;"/><line style="stroke: #A80036; stroke-width: 1.0;" x1="105.0614" x2="107.4184" y1="387.9125" y2="403.7379"/><line style="stroke: #A80036; stroke-width: 1.0;" x1="114.1526" x2="98.3272" y1="394.6467" y2="397.0037"/><!--link tlstate to tl--><path d="M167.8635,168.239 C170.0329,217.9268 178.2768,287.8995 205,343 C213.8843,361.3184 227.6867,378.5088 241.6042,392.9342 " fill="none" id="tlstate-tl" style="stroke: #A80036; stroke-width: 1.0;"/><ellipse cx="247.0036" cy="398.2606" fill="#FFFFFF" rx="8" ry="8" style="stroke: #A80036; stroke-width: 1.0;"/><line style="stroke: #A80036; stroke-width: 1.0;" x1="241.3085" x2="252.6987" y1="392.6423" y2="403.8789"/><line style="stroke: #A80036; stroke-width: 1.0;" x1="252.6219" x2="241.3853" y1="392.5655" y2="403.9557"/><path d="M210,234 L210,334 L382,334 L382,244 L372,234 L210,234 " fill="#FBFB77" filter="url(#f1gk4rde75bfu1)" style="stroke: #A80036; stroke-width: 1.0;"/><path d="M372,234 L372,244 L382,244 L372,234 " fill="#FBFB77" style="stroke: #A80036; stroke-width: 1.0;"/><text fill="#000000" font-family="sans-serif" font-size="13" lengthAdjust="spacingAndGlyphs" textLength="120" x="216" y="251.0669">Mit diesem Pfeiltyp</text><text fill="#000000" font-family="sans-serif" font-size="13" lengthAdjust="spacingAndGlyphs" textLength="151" x="216" y="266.1997">wird kenntlich gemacht,</text><text fill="#000000" font-family="sans-serif" font-size="13" lengthAdjust="spacingAndGlyphs" textLength="109" x="216" y="281.3325">dass State in der</text><text fill="#000000" font-family="sans-serif" font-size="13" lengthAdjust="spacingAndGlyphs" textLength="79" x="216" y="296.4653">Schnittstelle</text><text fill="#000000" font-family="sans-serif" font-size="13" lengthAdjust="spacingAndGlyphs" textLength="76" x="216" y="311.5981">TrafficLights</text><text fill="#000000" font-family="sans-serif" font-size="13" lengthAdjust="spacingAndGlyphs" textLength="79" x="216" y="326.731">enhalten ist.</text><!--
@startuml
package com.traffic_lights.controller {
  enum "State" as pclstate {
        Red,
        Greem,
        Off
  }

  interface "PedestrianCrossingLights" as pcl {
    void turn(State);
  }

  enum "State" as tlstate {
        Red,
        Green,
        Yellow,
        RedYellow,
        Off,
        Flash
   }


  interface "TrafficLights" as tl {
    void turn(State);
  }

  pcl +-up- pclstate

  tl +-up- tlstate
  note on link
    Mit diesem Pfeiltyp
    wird kenntlich gemacht,
    dass State in der
    Schnittstelle
    TrafficLights
    enhalten ist.
  end note
}
@enduml

PlantUML version 1.2018.01(Sun Jan 28 19:08:22 CET 2018)
(APACHE source distribution)
Java Runtime: OpenJDK Runtime Environment
JVM: OpenJDK 64-Bit Server VM
Java Version: 1.8.0_172-b11
Operating System: Linux
OS Version: 4.16.10-1-ARCH
Default Encoding: UTF-8
Language: de
Country: DE
--></g></svg>