<?xml version="1.0" encoding="UTF-8" standalone="no"?><svg xmlns="http://www.w3.org/2000/svg" xmlns:xlink="http://www.w3.org/1999/xlink" contentScriptType="application/ecmascript" contentStyleType="text/css" height="485px" preserveAspectRatio="none" style="width:428px;height:485px;" version="1.1" viewBox="0 0 428 485" width="428px" zoomAndPan="magnify"><defs><filter height="300%" id="f17i9prg1mt5xb" width="300%" x="-1" y="-1"><feGaussianBlur result="blurOut" stdDeviation="2.0"/><feColorMatrix in="blurOut" result="blurOut2" type="matrix" values="0 0 0 0 0 0 0 0 0 0 0 0 0 0 0 0 0 0 .4 0"/><feOffset dx="4.0" dy="4.0" in="blurOut2" result="blurOut3"/><feBlend in="SourceGraphic" in2="blurOut3" mode="normal"/></filter></defs><g><!--cluster com.traffic_lights.controller--><polygon fill="#FFFFFF" filter="url(#f17i9prg1mt5xb)" points="14,16,237,16,244,38.2969,385,38.2969,385,473,14,473,14,16" style="stroke: #000000; stroke-width: 1.5;"/><line style="stroke: #000000; stroke-width: 1.5;" x1="14" x2="244" y1="38.2969" y2="38.2969"/><text fill="#000000" font-family="sans-serif" font-size="14" font-weight="bold" lengthAdjust="spacingAndGlyphs" textLength="217" x="18" y="30.9951">com.traffic_lights.controller</text><!--class pclstate--><rect fill="#FEFECE" filter="url(#f17i9prg1mt5xb)" height="86.4141" id="pclstate" style="stroke: #A80036; stroke-width: 1.5;" width="66" x="60" y="62.5"/><ellipse cx="75" cy="78.5" fill="#EB937F" rx="11" ry="11" style="stroke: #A80036; stroke-width: 1.0;"/><path d="M79.1094,84.5 L71.3906,84.5 L71.3906,72.1094 L79.1094,72.1094 L79.1094,74.2656 L73.8438,74.2656 L73.8438,76.9375 L78.6094,76.9375 L78.6094,79.0938 L73.8438,79.0938 L73.8438,82.3438 L79.1094,82.3438 L79.1094,84.5 Z "/><text fill="#000000" font-family="sans-serif" font-size="12" lengthAdjust="spacingAndGlyphs" textLength="34" x="89" y="82.6543">State</text><line style="stroke: #A80036; stroke-width: 1.5;" x1="61" x2="125" y1="94.5" y2="94.5"/><text fill="#000000" font-family="sans-serif" font-size="11" lengthAdjust="spacingAndGlyphs" textLength="25" x="66" y="108.7104">Red,</text><text fill="#000000" font-family="sans-serif" font-size="11" lengthAdjust="spacingAndGlyphs" textLength="43" x="66" y="121.5151">Greem,</text><text fill="#000000" font-family="sans-serif" font-size="11" lengthAdjust="spacingAndGlyphs" textLength="17" x="66" y="134.3198">Off</text><line style="stroke: #A80036; stroke-width: 1.5;" x1="61" x2="125" y1="140.9141" y2="140.9141"/><!--class pcl--><rect fill="#FEFECE" filter="url(#f17i9prg1mt5xb)" height="60.8047" id="pcl" style="stroke: #A80036; stroke-width: 1.5;" width="180" x="22" y="404"/><ellipse cx="37" cy="420" fill="#B4A7E5" rx="11" ry="11" style="stroke: #A80036; stroke-width: 1.0;"/><path d="M32.9219,415.7656 L32.9219,413.6094 L40.3125,413.6094 L40.3125,415.7656 L37.8438,415.7656 L37.8438,423.8438 L40.3125,423.8438 L40.3125,426 L32.9219,426 L32.9219,423.8438 L35.3906,423.8438 L35.3906,415.7656 L32.9219,415.7656 Z "/><text fill="#000000" font-family="sans-serif" font-size="12" font-style="italic" lengthAdjust="spacingAndGlyphs" textLength="148" x="51" y="424.1543">PedestrianCrossingLights</text><line style="stroke: #A80036; stroke-width: 1.5;" x1="23" x2="201" y1="436" y2="436"/><line style="stroke: #A80036; stroke-width: 1.5;" x1="23" x2="201" y1="444" y2="444"/><text fill="#000000" font-family="sans-serif" font-size="11" lengthAdjust="spacingAndGlyphs" textLength="127" x="28" y="458.2104">public void turn(State);</text><!--class tlstate--><rect fill="#FEFECE" filter="url(#f17i9prg1mt5xb)" height="124.8281" id="tlstate" style="stroke: #A80036; stroke-width: 1.5;" width="73" x="161.5" y="43"/><ellipse cx="179.65" cy="59" fill="#EB937F" rx="11" ry="11" style="stroke: #A80036; stroke-width: 1.0;"/><path d="M183.7594,65 L176.0406,65 L176.0406,52.6094 L183.7594,52.6094 L183.7594,54.7656 L178.4938,54.7656 L178.4938,57.4375 L183.2594,57.4375 L183.2594,59.5938 L178.4938,59.5938 L178.4938,62.8438 L183.7594,62.8438 L183.7594,65 Z "/><text fill="#000000" font-family="sans-serif" font-size="12" lengthAdjust="spacingAndGlyphs" textLength="34" x="194.35" y="63.1543">State</text><line style="stroke: #A80036; stroke-width: 1.5;" x1="162.5" x2="233.5" y1="75" y2="75"/><text fill="#000000" font-family="sans-serif" font-size="11" lengthAdjust="spacingAndGlyphs" textLength="25" x="167.5" y="89.2104">Red,</text><text fill="#000000" font-family="sans-serif" font-size="11" lengthAdjust="spacingAndGlyphs" textLength="39" x="167.5" y="102.0151">Green,</text><text fill="#000000" font-family="sans-serif" font-size="11" lengthAdjust="spacingAndGlyphs" textLength="40" x="167.5" y="114.8198">Yellow,</text><text fill="#000000" font-family="sans-serif" font-size="11" lengthAdjust="spacingAndGlyphs" textLength="61" x="167.5" y="127.6245">RedYellow,</text><text fill="#000000" font-family="sans-serif" font-size="11" lengthAdjust="spacingAndGlyphs" textLength="21" x="167.5" y="140.4292">Off,</text><text fill="#000000" font-family="sans-serif" font-size="11" lengthAdjust="spacingAndGlyphs" textLength="30" x="167.5" y="153.2339">Flash</text><line style="stroke: #A80036; stroke-width: 1.5;" x1="162.5" x2="233.5" y1="159.8281" y2="159.8281"/><!--class tl--><rect fill="#FEFECE" filter="url(#f17i9prg1mt5xb)" height="60.8047" id="tl" style="stroke: #A80036; stroke-width: 1.5;" width="139" x="237.5" y="404"/><ellipse cx="267.8" cy="420" fill="#B4A7E5" rx="11" ry="11" style="stroke: #A80036; stroke-width: 1.0;"/><path d="M263.7219,415.7656 L263.7219,413.6094 L271.1125,413.6094 L271.1125,415.7656 L268.6438,415.7656 L268.6438,423.8438 L271.1125,423.8438 L271.1125,426 L263.7219,426 L263.7219,423.8438 L266.1906,423.8438 L266.1906,415.7656 L263.7219,415.7656 Z "/><text fill="#000000" font-family="sans-serif" font-size="12" font-style="italic" lengthAdjust="spacingAndGlyphs" textLength="73" x="285.2" y="424.1543">TrafficLights</text><line style="stroke: #A80036; stroke-width: 1.5;" x1="238.5" x2="375.5" y1="436" y2="436"/><line style="stroke: #A80036; stroke-width: 1.5;" x1="238.5" x2="375.5" y1="444" y2="444"/><text fill="#000000" font-family="sans-serif" font-size="11" lengthAdjust="spacingAndGlyphs" textLength="127" x="243.5" y="458.2104">public void turn(State);</text><!--link pclstate to pcl--><path d="M95.4839,148.511 C99.0726,210.6519 105.6793,325.0517 109.3556,388.7096 " fill="none" id="pclstate-pcl" style="stroke: #A80036; stroke-width: 1.0;"/><ellipse cx="109.7622" cy="395.7512" fill="#FFFFFF" rx="8" ry="8" style="stroke: #A80036; stroke-width: 1.0;"/><line style="stroke: #A80036; stroke-width: 1.0;" x1="109.3008" x2="110.2235" y1="387.7645" y2="403.7379"/><line style="stroke: #A80036; stroke-width: 1.0;" x1="117.7489" x2="101.7755" y1="395.2899" y2="396.2125"/><!--link tlstate to tl--><path d="M200.8497,168.0139 C204.9433,217.2625 214.8864,286.7566 239,343 C246.359,360.1644 257.5315,377.1067 268.7065,391.6586 " fill="none" id="tlstate-tl" style="stroke: #A80036; stroke-width: 1.0;"/><ellipse cx="273.4246" cy="397.5376" fill="#FFFFFF" rx="8" ry="8" style="stroke: #A80036; stroke-width: 1.0;"/><line style="stroke: #A80036; stroke-width: 1.0;" x1="268.4174" x2="278.4318" y1="391.2984" y2="403.7768"/><line style="stroke: #A80036; stroke-width: 1.0;" x1="279.6638" x2="267.1854" y1="392.5304" y2="402.5448"/><path d="M244,234 L244,334 L416,334 L416,244 L406,234 L244,234 " fill="#FBFB77" filter="url(#f17i9prg1mt5xb)" style="stroke: #A80036; stroke-width: 1.0;"/><path d="M406,234 L406,244 L416,244 L406,234 " fill="#FBFB77" style="stroke: #A80036; stroke-width: 1.0;"/><text fill="#000000" font-family="sans-serif" font-size="13" lengthAdjust="spacingAndGlyphs" textLength="120" x="250" y="251.0669">Mit diesem Pfeiltyp</text><text fill="#000000" font-family="sans-serif" font-size="13" lengthAdjust="spacingAndGlyphs" textLength="151" x="250" y="266.1997">wird kenntlich gemacht,</text><text fill="#000000" font-family="sans-serif" font-size="13" lengthAdjust="spacingAndGlyphs" textLength="109" x="250" y="281.3325">dass State in der</text><text fill="#000000" font-family="sans-serif" font-size="13" lengthAdjust="spacingAndGlyphs" textLength="79" x="250" y="296.4653">Schnittstelle</text><text fill="#000000" font-family="sans-serif" font-size="13" lengthAdjust="spacingAndGlyphs" textLength="76" x="250" y="311.5981">TrafficLights</text><text fill="#000000" font-family="sans-serif" font-size="13" lengthAdjust="spacingAndGlyphs" textLength="79" x="250" y="326.731">enhalten ist.</text><!--
@startuml
package com.traffic_lights.controller {
  enum "State" as pclstate {
        Red,
        Greem,
        Off
  }

  interface "PedestrianCrossingLights" as pcl {
    public void turn(State);
  }

  enum "State" as tlstate {
        Red,
        Green,
        Yellow,
        RedYellow,
        Off,
        Flash
   }


  interface "TrafficLights" as tl {
    public void turn(State);
  }

  pcl +-up- pclstate

  tl +-up- tlstate
  note on link
    Mit diesem Pfeiltyp
    wird kenntlich gemacht,
    dass State in der
    Schnittstelle
    TrafficLights
    enhalten ist.
  end note
}
@enduml

PlantUML version 1.2018.01(Sun Jan 28 19:08:22 CET 2018)
(APACHE source distribution)
Java Runtime: OpenJDK Runtime Environment
JVM: OpenJDK 64-Bit Server VM
Java Version: 1.8.0_172-b11
Operating System: Linux
OS Version: 4.16.10-1-ARCH
Default Encoding: UTF-8
Language: de
Country: DE
--></g></svg>