<?xml version="1.0" encoding="UTF-8" standalone="no"?><svg xmlns="http://www.w3.org/2000/svg" xmlns:xlink="http://www.w3.org/1999/xlink" contentScriptType="application/ecmascript" contentStyleType="text/css" height="597px" preserveAspectRatio="none" style="width:582px;height:597px;" version="1.1" viewBox="0 0 582 597" width="582px" zoomAndPan="magnify"><defs><filter height="300%" id="fnj6m4qce07pt" width="300%" x="-1" y="-1"><feGaussianBlur result="blurOut" stdDeviation="2.0"/><feColorMatrix in="blurOut" result="blurOut2" type="matrix" values="0 0 0 0 0 0 0 0 0 0 0 0 0 0 0 0 0 0 .4 0"/><feOffset dx="4.0" dy="4.0" in="blurOut2" result="blurOut3"/><feBlend in="SourceGraphic" in2="blurOut3" mode="normal"/></filter></defs><g><!--cluster com.traffic_lights.controller--><polygon fill="#FFFFFF" filter="url(#fnj6m4qce07pt)" points="66,16,289,16,296,38.2969,507,38.2969,507,360,66,360,66,16" style="stroke: #000000; stroke-width: 1.5;"/><line style="stroke: #000000; stroke-width: 1.5;" x1="66" x2="296" y1="38.2969" y2="38.2969"/><text fill="#000000" font-family="sans-serif" font-size="14" font-weight="bold" lengthAdjust="spacingAndGlyphs" textLength="217" x="70" y="30.9951">com.traffic_lights.controller</text><!--cluster com.traffic_lights.view--><polygon fill="#FFFFFF" filter="url(#fnj6m4qce07pt)" points="14,489,197,489,204,511.2969,560,511.2969,560,585,14,585,14,489" style="stroke: #000000; stroke-width: 1.5;"/><line style="stroke: #000000; stroke-width: 1.5;" x1="14" x2="204" y1="511.2969" y2="511.2969"/><text fill="#000000" font-family="sans-serif" font-size="14" font-weight="bold" lengthAdjust="spacingAndGlyphs" textLength="177" x="18" y="503.9951">com.traffic_lights.view</text><!--class pcc--><rect fill="#FEFECE" filter="url(#fnj6m4qce07pt)" height="48" id="pcc" style="stroke: #A80036; stroke-width: 1.5;" width="215" x="182.5" y="81.5"/><ellipse cx="197.5" cy="97.5" fill="#ADD1B2" rx="11" ry="11" style="stroke: #A80036; stroke-width: 1.0;"/><path d="M200.4688,103.1406 Q199.8906,103.4375 199.25,103.5859 Q198.6094,103.7344 197.9063,103.7344 Q195.4063,103.7344 194.0859,102.0859 Q192.7656,100.4375 192.7656,97.3125 Q192.7656,94.1875 194.0859,92.5313 Q195.4063,90.875 197.9063,90.875 Q198.6094,90.875 199.2578,91.0313 Q199.9063,91.1875 200.4688,91.4844 L200.4688,94.2031 Q199.8438,93.625 199.25,93.3516 Q198.6563,93.0781 198.0313,93.0781 Q196.6875,93.0781 196,94.1484 Q195.3125,95.2188 195.3125,97.3125 Q195.3125,99.4063 196,100.4766 Q196.6875,101.5469 198.0313,101.5469 Q198.6563,101.5469 199.25,101.2734 Q199.8438,101 200.4688,100.4219 L200.4688,103.1406 Z "/><text fill="#000000" font-family="sans-serif" font-size="12" lengthAdjust="spacingAndGlyphs" textLength="183" x="211.5" y="101.6543">PedestrianCrossingController</text><line style="stroke: #A80036; stroke-width: 1.5;" x1="183.5" x2="396.5" y1="113.5" y2="113.5"/><line style="stroke: #A80036; stroke-width: 1.5;" x1="183.5" x2="396.5" y1="121.5" y2="121.5"/><!--class pclstate--><rect fill="#FEFECE" filter="url(#fnj6m4qce07pt)" height="86.4141" id="pclstate" style="stroke: #A80036; stroke-width: 1.5;" width="66" x="433" y="62.5"/><ellipse cx="448" cy="78.5" fill="#EB937F" rx="11" ry="11" style="stroke: #A80036; stroke-width: 1.0;"/><path d="M452.1094,84.5 L444.3906,84.5 L444.3906,72.1094 L452.1094,72.1094 L452.1094,74.2656 L446.8438,74.2656 L446.8438,76.9375 L451.6094,76.9375 L451.6094,79.0938 L446.8438,79.0938 L446.8438,82.3438 L452.1094,82.3438 L452.1094,84.5 Z "/><text fill="#000000" font-family="sans-serif" font-size="12" lengthAdjust="spacingAndGlyphs" textLength="34" x="462" y="82.6543">State</text><line style="stroke: #A80036; stroke-width: 1.5;" x1="434" x2="498" y1="94.5" y2="94.5"/><text fill="#000000" font-family="sans-serif" font-size="11" lengthAdjust="spacingAndGlyphs" textLength="25" x="439" y="108.7104">Red,</text><text fill="#000000" font-family="sans-serif" font-size="11" lengthAdjust="spacingAndGlyphs" textLength="43" x="439" y="121.5151">Greem,</text><text fill="#000000" font-family="sans-serif" font-size="11" lengthAdjust="spacingAndGlyphs" textLength="17" x="439" y="134.3198">Off</text><line style="stroke: #A80036; stroke-width: 1.5;" x1="434" x2="498" y1="140.9141" y2="140.9141"/><!--class pcl--><rect fill="#FEFECE" filter="url(#fnj6m4qce07pt)" height="60.8047" id="pcl" style="stroke: #A80036; stroke-width: 1.5;" width="180" x="319" y="291"/><ellipse cx="334" cy="307" fill="#B4A7E5" rx="11" ry="11" style="stroke: #A80036; stroke-width: 1.0;"/><path d="M329.9219,302.7656 L329.9219,300.6094 L337.3125,300.6094 L337.3125,302.7656 L334.8438,302.7656 L334.8438,310.8438 L337.3125,310.8438 L337.3125,313 L329.9219,313 L329.9219,310.8438 L332.3906,310.8438 L332.3906,302.7656 L329.9219,302.7656 Z "/><text fill="#000000" font-family="sans-serif" font-size="12" font-style="italic" lengthAdjust="spacingAndGlyphs" textLength="148" x="348" y="311.1543">PedestrianCrossingLights</text><line style="stroke: #A80036; stroke-width: 1.5;" x1="320" x2="498" y1="323" y2="323"/><line style="stroke: #A80036; stroke-width: 1.5;" x1="320" x2="498" y1="331" y2="331"/><text fill="#000000" font-family="sans-serif" font-size="11" lengthAdjust="spacingAndGlyphs" textLength="91" x="325" y="345.2104">void turn(State);</text><!--class tlstate--><rect fill="#FEFECE" filter="url(#fnj6m4qce07pt)" height="124.8281" id="tlstate" style="stroke: #A80036; stroke-width: 1.5;" width="73" x="74.5" y="43"/><ellipse cx="92.65" cy="59" fill="#EB937F" rx="11" ry="11" style="stroke: #A80036; stroke-width: 1.0;"/><path d="M96.7594,65 L89.0406,65 L89.0406,52.6094 L96.7594,52.6094 L96.7594,54.7656 L91.4938,54.7656 L91.4938,57.4375 L96.2594,57.4375 L96.2594,59.5938 L91.4938,59.5938 L91.4938,62.8438 L96.7594,62.8438 L96.7594,65 Z "/><text fill="#000000" font-family="sans-serif" font-size="12" lengthAdjust="spacingAndGlyphs" textLength="34" x="107.35" y="63.1543">State</text><line style="stroke: #A80036; stroke-width: 1.5;" x1="75.5" x2="146.5" y1="75" y2="75"/><text fill="#000000" font-family="sans-serif" font-size="11" lengthAdjust="spacingAndGlyphs" textLength="25" x="80.5" y="89.2104">Red,</text><text fill="#000000" font-family="sans-serif" font-size="11" lengthAdjust="spacingAndGlyphs" textLength="39" x="80.5" y="102.0151">Green,</text><text fill="#000000" font-family="sans-serif" font-size="11" lengthAdjust="spacingAndGlyphs" textLength="40" x="80.5" y="114.8198">Yellow,</text><text fill="#000000" font-family="sans-serif" font-size="11" lengthAdjust="spacingAndGlyphs" textLength="61" x="80.5" y="127.6245">RedYellow,</text><text fill="#000000" font-family="sans-serif" font-size="11" lengthAdjust="spacingAndGlyphs" textLength="21" x="80.5" y="140.4292">Off,</text><text fill="#000000" font-family="sans-serif" font-size="11" lengthAdjust="spacingAndGlyphs" textLength="30" x="80.5" y="153.2339">Flash</text><line style="stroke: #A80036; stroke-width: 1.5;" x1="75.5" x2="146.5" y1="159.8281" y2="159.8281"/><!--class tl--><rect fill="#FEFECE" filter="url(#fnj6m4qce07pt)" height="60.8047" id="tl" style="stroke: #A80036; stroke-width: 1.5;" width="105" x="74.5" y="291"/><ellipse cx="89.5" cy="307" fill="#B4A7E5" rx="11" ry="11" style="stroke: #A80036; stroke-width: 1.0;"/><path d="M85.4219,302.7656 L85.4219,300.6094 L92.8125,300.6094 L92.8125,302.7656 L90.3438,302.7656 L90.3438,310.8438 L92.8125,310.8438 L92.8125,313 L85.4219,313 L85.4219,310.8438 L87.8906,310.8438 L87.8906,302.7656 L85.4219,302.7656 Z "/><text fill="#000000" font-family="sans-serif" font-size="12" font-style="italic" lengthAdjust="spacingAndGlyphs" textLength="73" x="103.5" y="311.1543">TrafficLights</text><line style="stroke: #A80036; stroke-width: 1.5;" x1="75.5" x2="178.5" y1="323" y2="323"/><line style="stroke: #A80036; stroke-width: 1.5;" x1="75.5" x2="178.5" y1="331" y2="331"/><text fill="#000000" font-family="sans-serif" font-size="11" lengthAdjust="spacingAndGlyphs" textLength="91" x="80.5" y="345.2104">void turn(State);</text><!--class spcl--><rect fill="#FEFECE" filter="url(#fnj6m4qce07pt)" height="60.8047" id="spcl" style="stroke: #A80036; stroke-width: 1.5;" width="285" x="266.5" y="516"/><ellipse cx="305.35" cy="532" fill="#ADD1B2" rx="11" ry="11" style="stroke: #A80036; stroke-width: 1.0;"/><path d="M308.3188,537.6406 Q307.7406,537.9375 307.1,538.0859 Q306.4594,538.2344 305.7563,538.2344 Q303.2563,538.2344 301.9359,536.5859 Q300.6156,534.9375 300.6156,531.8125 Q300.6156,528.6875 301.9359,527.0313 Q303.2563,525.375 305.7563,525.375 Q306.4594,525.375 307.1078,525.5313 Q307.7563,525.6875 308.3188,525.9844 L308.3188,528.7031 Q307.6938,528.125 307.1,527.8516 Q306.5063,527.5781 305.8813,527.5781 Q304.5375,527.5781 303.85,528.6484 Q303.1625,529.7188 303.1625,531.8125 Q303.1625,533.9063 303.85,534.9766 Q304.5375,536.0469 305.8813,536.0469 Q306.5063,536.0469 307.1,535.7734 Q307.6938,535.5 308.3188,534.9219 L308.3188,537.6406 Z "/><text fill="#000000" font-family="sans-serif" font-size="12" lengthAdjust="spacingAndGlyphs" textLength="200" x="324.65" y="536.1543">SimplePedestrianCrossingLights</text><line style="stroke: #A80036; stroke-width: 1.5;" x1="267.5" x2="550.5" y1="548" y2="548"/><line style="stroke: #A80036; stroke-width: 1.5;" x1="267.5" x2="550.5" y1="556" y2="556"/><text fill="#000000" font-family="sans-serif" font-size="11" lengthAdjust="spacingAndGlyphs" textLength="273" x="272.5" y="570.2104">public void turn(PedestrianCrossingLights.State)</text><!--class stl--><rect fill="#FEFECE" filter="url(#fnj6m4qce07pt)" height="60.8047" id="stl" style="stroke: #A80036; stroke-width: 1.5;" width="209" x="22.5" y="516"/><ellipse cx="64.95" cy="532" fill="#ADD1B2" rx="11" ry="11" style="stroke: #A80036; stroke-width: 1.0;"/><path d="M67.9188,537.6406 Q67.3406,537.9375 66.7,538.0859 Q66.0594,538.2344 65.3563,538.2344 Q62.8563,538.2344 61.5359,536.5859 Q60.2156,534.9375 60.2156,531.8125 Q60.2156,528.6875 61.5359,527.0313 Q62.8563,525.375 65.3563,525.375 Q66.0594,525.375 66.7078,525.5313 Q67.3563,525.6875 67.9188,525.9844 L67.9188,528.7031 Q67.2938,528.125 66.7,527.8516 Q66.1063,527.5781 65.4813,527.5781 Q64.1375,527.5781 63.45,528.6484 Q62.7625,529.7188 62.7625,531.8125 Q62.7625,533.9063 63.45,534.9766 Q64.1375,536.0469 65.4813,536.0469 Q66.1063,536.0469 66.7,535.7734 Q67.2938,535.5 67.9188,534.9219 L67.9188,537.6406 Z "/><text fill="#000000" font-family="sans-serif" font-size="12" lengthAdjust="spacingAndGlyphs" textLength="116" x="85.05" y="536.1543">SimpleTrafficLights</text><line style="stroke: #A80036; stroke-width: 1.5;" x1="23.5" x2="230.5" y1="548" y2="548"/><line style="stroke: #A80036; stroke-width: 1.5;" x1="23.5" x2="230.5" y1="556" y2="556"/><text fill="#000000" font-family="sans-serif" font-size="11" lengthAdjust="spacingAndGlyphs" textLength="197" x="28.5" y="570.2104">public void turn(TrafficLights.State)</text><!--link pclstate to pcl--><path d="M454.6022,148.6917 C444.8366,185.698 430.82,238.8138 420.9095,276.3692 " fill="none" id="pclstate-pcl" style="stroke: #A80036; stroke-width: 1.0;"/><ellipse cx="419.1102" cy="283.1879" fill="#FFFFFF" rx="8" ry="8" style="stroke: #A80036; stroke-width: 1.0;"/><line style="stroke: #A80036; stroke-width: 1.0;" x1="421.1515" x2="417.0689" y1="275.4527" y2="290.9231"/><line style="stroke: #A80036; stroke-width: 1.0;" x1="426.8454" x2="411.375" y1="285.2292" y2="281.1466"/><!--link tlstate to tl--><path d="M115.6494,168.2663 C118.1872,202.527 121.2741,244.2004 123.5877,275.4343 " fill="none" id="tlstate-tl" style="stroke: #A80036; stroke-width: 1.0;"/><ellipse cx="124.1291" cy="282.7433" fill="#FFFFFF" rx="8" ry="8" style="stroke: #A80036; stroke-width: 1.0;"/><line style="stroke: #A80036; stroke-width: 1.0;" x1="123.5381" x2="124.7201" y1="274.7651" y2="290.7214"/><line style="stroke: #A80036; stroke-width: 1.0;" x1="132.1072" x2="116.151" y1="282.1523" y2="283.3343"/><!--link pcc to pcl--><path d="M303.4195,129.8581 C324.5165,168.1518 365.5286,242.5939 389.7605,286.5778 " fill="none" id="pcc-pcl" style="stroke: #A80036; stroke-width: 1.0;"/><polygon fill="#A80036" points="392.1962,290.999,391.3567,281.186,389.7835,286.6197,384.3498,285.0464,392.1962,290.999" style="stroke: #A80036; stroke-width: 1.0;"/><!--link pcc to tl--><path d="M271.6187,129.8581 C242.6627,168.2291 186.3178,242.8949 153.1524,286.844 " fill="none" id="pcc-tl" style="stroke: #A80036; stroke-width: 1.0;"/><polygon fill="#A80036" points="150.017,290.999,158.6312,286.2245,153.0288,287.0079,152.2454,281.4056,150.017,290.999" style="stroke: #A80036; stroke-width: 1.0;"/><!--link pcl to spcl--><path d="M409,372.5954 C409,416.6666 409,478.8632 409,515.6984 " fill="none" id="pcl-spcl" style="stroke: #A80036; stroke-width: 1.0; stroke-dasharray: 7.0,7.0;"/><polygon fill="none" points="402.0001,372.3136,409,352.3135,416.0001,372.3135,402.0001,372.3136" style="stroke: #A80036; stroke-width: 1.0;"/><!--link tl to stl--><path d="M127,372.5954 C127,416.6666 127,478.8632 127,515.6984 " fill="none" id="tl-stl" style="stroke: #A80036; stroke-width: 1.0; stroke-dasharray: 7.0,7.0;"/><polygon fill="none" points="120.0001,372.3136,127,352.3135,134.0001,372.3135,120.0001,372.3136" style="stroke: #A80036; stroke-width: 1.0;"/><path d="M132,387 L132,472 L312,472 L312,397 L302,387 L132,387 " fill="#FBFB77" filter="url(#fnj6m4qce07pt)" style="stroke: #A80036; stroke-width: 1.0;"/><path d="M302,387 L302,397 L312,397 L302,387 " fill="#FBFB77" style="stroke: #A80036; stroke-width: 1.0;"/><text fill="#000000" font-family="sans-serif" font-size="13" lengthAdjust="spacingAndGlyphs" textLength="149" x="138" y="404.0669">Mit diesem Pfeiltyp wird</text><text fill="#000000" font-family="sans-serif" font-size="13" lengthAdjust="spacingAndGlyphs" textLength="156" x="138" y="419.1997">kenntlich gemacht, dass</text><text fill="#000000" font-family="sans-serif" font-size="13" lengthAdjust="spacingAndGlyphs" textLength="143" x="138" y="434.3325">SimpleTrafficLights die</text><text fill="#000000" font-family="sans-serif" font-size="13" lengthAdjust="spacingAndGlyphs" textLength="159" x="138" y="449.4653">Schnittstelle TrafficLights</text><text fill="#000000" font-family="sans-serif" font-size="13" lengthAdjust="spacingAndGlyphs" textLength="94" x="138" y="464.5981">implementiert.</text><!--
@startuml
package com.traffic_lights.controller {
  class "PedestrianCrossingController" as pcc {
  }

  enum "State" as pclstate {
        Red,
        Greem,
        Off
  }

  interface "PedestrianCrossingLights" as pcl {
    void turn(State);
  }

  pcl +-up- pclstate

  enum "State" as tlstate {
        Red,
        Green,
        Yellow,
        RedYellow,
        Off,
        Flash
   }


  interface "TrafficLights" as tl {
    void turn(State);
  }

  tl +-up- tlstate

  pcc -down-> pcl
  pcc -down-> tl
}

package com.traffic_lights.view {
  class "SimplePedestrianCrossingLights" as spcl {
    public void turn(PedestrianCrossingLights.State)
  }

  spcl .up.|> pcl

  class "SimpleTrafficLights" as stl {
    public void turn(TrafficLights.State)
  }

  stl .up.|> tl
  note on link
    Mit diesem Pfeiltyp wird
    kenntlich gemacht, dass
    SimpleTrafficLights die
    Schnittstelle TrafficLights
    implementiert.
  end note
}
@enduml

PlantUML version 1.2018.01(Sun Jan 28 19:08:22 CET 2018)
(APACHE source distribution)
Java Runtime: OpenJDK Runtime Environment
JVM: OpenJDK 64-Bit Server VM
Java Version: 1.8.0_172-b11
Operating System: Linux
OS Version: 4.16.10-1-ARCH
Default Encoding: UTF-8
Language: de
Country: DE
--></g></svg>