<?xml version="1.0" encoding="UTF-8" standalone="no"?><svg xmlns="http://www.w3.org/2000/svg" xmlns:xlink="http://www.w3.org/1999/xlink" contentScriptType="application/ecmascript" contentStyleType="text/css" height="760px" preserveAspectRatio="none" style="width:1137px;height:760px;" version="1.1" viewBox="0 0 1137 760" width="1137px" zoomAndPan="magnify"><defs><filter height="300%" id="fbplbvongps2e" width="300%" x="-1" y="-1"><feGaussianBlur result="blurOut" stdDeviation="2.0"/><feColorMatrix in="blurOut" result="blurOut2" type="matrix" values="0 0 0 0 0 0 0 0 0 0 0 0 0 0 0 0 0 0 .4 0"/><feOffset dx="4.0" dy="4.0" in="blurOut2" result="blurOut3"/><feBlend in="SourceGraphic" in2="blurOut3" mode="normal"/></filter></defs><g><!--cluster com.traffic_lights.controller--><polygon fill="#FFFFFF" filter="url(#fbplbvongps2e)" points="14,16,237,16,244,38.2969,863,38.2969,863,335,14,335,14,16" style="stroke: #000000; stroke-width: 1.5;"/><line style="stroke: #000000; stroke-width: 1.5;" x1="14" x2="244" y1="38.2969" y2="38.2969"/><text fill="#000000" font-family="sans-serif" font-size="14" font-weight="bold" lengthAdjust="spacingAndGlyphs" textLength="217" x="18" y="30.9951">com.traffic_lights.controller</text><!--cluster com.traffic_lights.input--><polygon fill="#FFFFFF" filter="url(#fbplbvongps2e)" points="823,360,1009,360,1016,382.2969,1115,382.2969,1115,602,823,602,823,360" style="stroke: #000000; stroke-width: 1.5;"/><line style="stroke: #000000; stroke-width: 1.5;" x1="823" x2="1016" y1="382.2969" y2="382.2969"/><text fill="#000000" font-family="sans-serif" font-size="14" font-weight="bold" lengthAdjust="spacingAndGlyphs" textLength="180" x="827" y="374.9951">com.traffic_lights.input</text><!--cluster com.traffic_lights.view--><polygon fill="#FFFFFF" filter="url(#fbplbvongps2e)" points="277,360,460,360,467,382.2969,804,382.2969,804,481,277,481,277,360" style="stroke: #000000; stroke-width: 1.5;"/><line style="stroke: #000000; stroke-width: 1.5;" x1="277" x2="467" y1="382.2969" y2="382.2969"/><text fill="#000000" font-family="sans-serif" font-size="14" font-weight="bold" lengthAdjust="spacingAndGlyphs" textLength="177" x="281" y="374.9951">com.traffic_lights.view</text><!--cluster com.traffic_lights.user--><polygon fill="#FFFFFF" filter="url(#fbplbvongps2e)" points="804,627,986,627,993,649.2969,1030,649.2969,1030,748,804,748,804,627" style="stroke: #000000; stroke-width: 1.5;"/><line style="stroke: #000000; stroke-width: 1.5;" x1="804" x2="993" y1="649.2969" y2="649.2969"/><text fill="#000000" font-family="sans-serif" font-size="14" font-weight="bold" lengthAdjust="spacingAndGlyphs" textLength="176" x="808" y="641.9951">com.traffic_lights.user</text><!--class Controller--><rect fill="#FEFECE" filter="url(#fbplbvongps2e)" height="86.4141" id="Controller" style="stroke: #A80036; stroke-width: 1.5;" width="406" x="348" y="62.5"/><ellipse cx="518.25" cy="78.5" fill="#B4A7E5" rx="11" ry="11" style="stroke: #A80036; stroke-width: 1.0;"/><path d="M514.1719,74.2656 L514.1719,72.1094 L521.5625,72.1094 L521.5625,74.2656 L519.0938,74.2656 L519.0938,82.3438 L521.5625,82.3438 L521.5625,84.5 L514.1719,84.5 L514.1719,82.3438 L516.6406,82.3438 L516.6406,74.2656 L514.1719,74.2656 Z "/><text fill="#000000" font-family="sans-serif" font-size="12" font-style="italic" lengthAdjust="spacingAndGlyphs" textLength="57" x="538.75" y="82.6543">Controller</text><line style="stroke: #A80036; stroke-width: 1.5;" x1="349" x2="753" y1="94.5" y2="94.5"/><line style="stroke: #A80036; stroke-width: 1.5;" x1="349" x2="753" y1="102.5" y2="102.5"/><text fill="#000000" font-family="sans-serif" font-size="11" lengthAdjust="spacingAndGlyphs" textLength="238" x="354" y="116.7104">void addTrafficLights(TrafficLights,String);</text><text fill="#000000" font-family="sans-serif" font-size="11" lengthAdjust="spacingAndGlyphs" textLength="394" x="354" y="129.5151">void addPedestrianCrossingLights(PedestrianCrossingLights, String);</text><text fill="#000000" font-family="sans-serif" font-size="11" lengthAdjust="spacingAndGlyphs" textLength="280" x="354" y="142.3198">void addPedestrianInput(PedestrianInput, String);</text><!--class pcc--><rect fill="#FEFECE" filter="url(#fbplbvongps2e)" height="99.2188" id="pcc" style="stroke: #A80036; stroke-width: 1.5;" width="229" x="38.5" y="228"/><ellipse cx="59.8" cy="244" fill="#ADD1B2" rx="11" ry="11" style="stroke: #A80036; stroke-width: 1.0;"/><path d="M62.7688,249.6406 Q62.1906,249.9375 61.55,250.0859 Q60.9094,250.2344 60.2063,250.2344 Q57.7063,250.2344 56.3859,248.5859 Q55.0656,246.9375 55.0656,243.8125 Q55.0656,240.6875 56.3859,239.0313 Q57.7063,237.375 60.2063,237.375 Q60.9094,237.375 61.5578,237.5313 Q62.2063,237.6875 62.7688,237.9844 L62.7688,240.7031 Q62.1438,240.125 61.55,239.8516 Q60.9563,239.5781 60.3313,239.5781 Q58.9875,239.5781 58.3,240.6484 Q57.6125,241.7188 57.6125,243.8125 Q57.6125,245.9063 58.3,246.9766 Q58.9875,248.0469 60.3313,248.0469 Q60.9563,248.0469 61.55,247.7734 Q62.1438,247.5 62.7688,246.9219 L62.7688,249.6406 Z "/><text fill="#000000" font-family="sans-serif" font-size="12" lengthAdjust="spacingAndGlyphs" textLength="183" x="75.2" y="248.1543">PedestrianCrossingController</text><line style="stroke: #A80036; stroke-width: 1.5;" x1="39.5" x2="266.5" y1="260" y2="260"/><text fill="#000000" font-family="sans-serif" font-size="11" lengthAdjust="spacingAndGlyphs" textLength="114" x="44.5" y="274.2104">private state : State</text><line style="stroke: #A80036; stroke-width: 1.5;" x1="39.5" x2="266.5" y1="280.8047" y2="280.8047"/><text fill="#000000" font-family="sans-serif" font-size="11" lengthAdjust="spacingAndGlyphs" textLength="217" x="44.5" y="295.0151">public PedestrianCrossingController ()</text><text fill="#000000" font-family="sans-serif" font-size="11" lengthAdjust="spacingAndGlyphs" textLength="91" x="44.5" y="307.8198">public void run()</text><text fill="#000000" font-family="sans-serif" font-size="11" lengthAdjust="spacingAndGlyphs" textLength="115" x="44.5" y="320.6245">private void wait(int)</text><!--class pccstate--><rect fill="#FEFECE" filter="url(#fbplbvongps2e)" height="99.2188" id="pccstate" style="stroke: #A80036; stroke-width: 1.5;" width="182" x="22" y="56"/><ellipse cx="91.75" cy="72" fill="#EB937F" rx="11" ry="11" style="stroke: #A80036; stroke-width: 1.0;"/><path d="M95.8594,78 L88.1406,78 L88.1406,65.6094 L95.8594,65.6094 L95.8594,67.7656 L90.5938,67.7656 L90.5938,70.4375 L95.3594,70.4375 L95.3594,72.5938 L90.5938,72.5938 L90.5938,75.8438 L95.8594,75.8438 L95.8594,78 Z "/><text fill="#000000" font-family="sans-serif" font-size="12" lengthAdjust="spacingAndGlyphs" textLength="34" x="112.25" y="76.1543">State</text><line style="stroke: #A80036; stroke-width: 1.5;" x1="23" x2="203" y1="88" y2="88"/><text fill="#000000" font-family="sans-serif" font-size="11" lengthAdjust="spacingAndGlyphs" textLength="82" x="28" y="102.2104">CarsCrossing,</text><text fill="#000000" font-family="sans-serif" font-size="11" lengthAdjust="spacingAndGlyphs" textLength="170" x="28" y="115.0151">TransitionCarsToPedestrains,</text><text fill="#000000" font-family="sans-serif" font-size="11" lengthAdjust="spacingAndGlyphs" textLength="123" x="28" y="127.8198">PedestriansCrossing,</text><text fill="#000000" font-family="sans-serif" font-size="11" lengthAdjust="spacingAndGlyphs" textLength="166" x="28" y="140.6245">TransitionPedestriansToCars</text><line style="stroke: #A80036; stroke-width: 1.5;" x1="23" x2="203" y1="147.2188" y2="147.2188"/><!--class pclstate--><rect fill="#FEFECE" filter="url(#fbplbvongps2e)" height="86.4141" id="pclstate" style="stroke: #A80036; stroke-width: 1.5;" width="66" x="789" y="62.5"/><ellipse cx="804" cy="78.5" fill="#EB937F" rx="11" ry="11" style="stroke: #A80036; stroke-width: 1.0;"/><path d="M808.1094,84.5 L800.3906,84.5 L800.3906,72.1094 L808.1094,72.1094 L808.1094,74.2656 L802.8438,74.2656 L802.8438,76.9375 L807.6094,76.9375 L807.6094,79.0938 L802.8438,79.0938 L802.8438,82.3438 L808.1094,82.3438 L808.1094,84.5 Z "/><text fill="#000000" font-family="sans-serif" font-size="12" lengthAdjust="spacingAndGlyphs" textLength="34" x="818" y="82.6543">State</text><line style="stroke: #A80036; stroke-width: 1.5;" x1="790" x2="854" y1="94.5" y2="94.5"/><text fill="#000000" font-family="sans-serif" font-size="11" lengthAdjust="spacingAndGlyphs" textLength="25" x="795" y="108.7104">Red,</text><text fill="#000000" font-family="sans-serif" font-size="11" lengthAdjust="spacingAndGlyphs" textLength="43" x="795" y="121.5151">Greem,</text><text fill="#000000" font-family="sans-serif" font-size="11" lengthAdjust="spacingAndGlyphs" textLength="17" x="795" y="134.3198">Off</text><line style="stroke: #A80036; stroke-width: 1.5;" x1="790" x2="854" y1="140.9141" y2="140.9141"/><!--class pcl--><rect fill="#FEFECE" filter="url(#fbplbvongps2e)" height="60.8047" id="pcl" style="stroke: #A80036; stroke-width: 1.5;" width="180" x="649" y="247"/><ellipse cx="664" cy="263" fill="#B4A7E5" rx="11" ry="11" style="stroke: #A80036; stroke-width: 1.0;"/><path d="M659.9219,258.7656 L659.9219,256.6094 L667.3125,256.6094 L667.3125,258.7656 L664.8438,258.7656 L664.8438,266.8438 L667.3125,266.8438 L667.3125,269 L659.9219,269 L659.9219,266.8438 L662.3906,266.8438 L662.3906,258.7656 L659.9219,258.7656 Z "/><text fill="#000000" font-family="sans-serif" font-size="12" font-style="italic" lengthAdjust="spacingAndGlyphs" textLength="148" x="678" y="267.1543">PedestrianCrossingLights</text><line style="stroke: #A80036; stroke-width: 1.5;" x1="650" x2="828" y1="279" y2="279"/><line style="stroke: #A80036; stroke-width: 1.5;" x1="650" x2="828" y1="287" y2="287"/><text fill="#000000" font-family="sans-serif" font-size="11" lengthAdjust="spacingAndGlyphs" textLength="92" x="655" y="301.2104">void turn(State);</text><!--class tlstate--><rect fill="#FEFECE" filter="url(#fbplbvongps2e)" height="124.8281" id="tlstate" style="stroke: #A80036; stroke-width: 1.5;" width="73" x="239.5" y="43"/><ellipse cx="257.65" cy="59" fill="#EB937F" rx="11" ry="11" style="stroke: #A80036; stroke-width: 1.0;"/><path d="M261.7594,65 L254.0406,65 L254.0406,52.6094 L261.7594,52.6094 L261.7594,54.7656 L256.4938,54.7656 L256.4938,57.4375 L261.2594,57.4375 L261.2594,59.5938 L256.4938,59.5938 L256.4938,62.8438 L261.7594,62.8438 L261.7594,65 Z "/><text fill="#000000" font-family="sans-serif" font-size="12" lengthAdjust="spacingAndGlyphs" textLength="34" x="272.35" y="63.1543">State</text><line style="stroke: #A80036; stroke-width: 1.5;" x1="240.5" x2="311.5" y1="75" y2="75"/><text fill="#000000" font-family="sans-serif" font-size="11" lengthAdjust="spacingAndGlyphs" textLength="25" x="245.5" y="89.2104">Red,</text><text fill="#000000" font-family="sans-serif" font-size="11" lengthAdjust="spacingAndGlyphs" textLength="39" x="245.5" y="102.0151">Green,</text><text fill="#000000" font-family="sans-serif" font-size="11" lengthAdjust="spacingAndGlyphs" textLength="40" x="245.5" y="114.8198">Yellow,</text><text fill="#000000" font-family="sans-serif" font-size="11" lengthAdjust="spacingAndGlyphs" textLength="61" x="245.5" y="127.6245">RedYellow,</text><text fill="#000000" font-family="sans-serif" font-size="11" lengthAdjust="spacingAndGlyphs" textLength="21" x="245.5" y="140.4292">Off,</text><text fill="#000000" font-family="sans-serif" font-size="11" lengthAdjust="spacingAndGlyphs" textLength="30" x="245.5" y="153.2339">Flash</text><line style="stroke: #A80036; stroke-width: 1.5;" x1="240.5" x2="311.5" y1="159.8281" y2="159.8281"/><!--class tl--><rect fill="#FEFECE" filter="url(#fbplbvongps2e)" height="60.8047" id="tl" style="stroke: #A80036; stroke-width: 1.5;" width="105" x="332.5" y="247"/><ellipse cx="347.5" cy="263" fill="#B4A7E5" rx="11" ry="11" style="stroke: #A80036; stroke-width: 1.0;"/><path d="M343.4219,258.7656 L343.4219,256.6094 L350.8125,256.6094 L350.8125,258.7656 L348.3438,258.7656 L348.3438,266.8438 L350.8125,266.8438 L350.8125,269 L343.4219,269 L343.4219,266.8438 L345.8906,266.8438 L345.8906,258.7656 L343.4219,258.7656 Z "/><text fill="#000000" font-family="sans-serif" font-size="12" font-style="italic" lengthAdjust="spacingAndGlyphs" textLength="73" x="361.5" y="267.1543">TrafficLights</text><line style="stroke: #A80036; stroke-width: 1.5;" x1="333.5" x2="436.5" y1="279" y2="279"/><line style="stroke: #A80036; stroke-width: 1.5;" x1="333.5" x2="436.5" y1="287" y2="287"/><text fill="#000000" font-family="sans-serif" font-size="11" lengthAdjust="spacingAndGlyphs" textLength="92" x="338.5" y="301.2104">void turn(State);</text><!--class pi--><rect fill="#FEFECE" filter="url(#fbplbvongps2e)" height="86.4141" id="pi" style="stroke: #A80036; stroke-width: 1.5;" width="126" x="488" y="234.5"/><ellipse cx="503" cy="250.5" fill="#B4A7E5" rx="11" ry="11" style="stroke: #A80036; stroke-width: 1.0;"/><path d="M498.9219,246.2656 L498.9219,244.1094 L506.3125,244.1094 L506.3125,246.2656 L503.8438,246.2656 L503.8438,254.3438 L506.3125,254.3438 L506.3125,256.5 L498.9219,256.5 L498.9219,254.3438 L501.3906,254.3438 L501.3906,246.2656 L498.9219,246.2656 Z "/><text fill="#000000" font-family="sans-serif" font-size="12" font-style="italic" lengthAdjust="spacingAndGlyphs" textLength="94" x="517" y="254.6543">PedestrianInput</text><line style="stroke: #A80036; stroke-width: 1.5;" x1="489" x2="613" y1="266.5" y2="266.5"/><line style="stroke: #A80036; stroke-width: 1.5;" x1="489" x2="613" y1="274.5" y2="274.5"/><text fill="#000000" font-family="sans-serif" font-size="11" lengthAdjust="spacingAndGlyphs" textLength="90" x="494" y="288.7104">boolean isSet();</text><text fill="#000000" font-family="sans-serif" font-size="11" lengthAdjust="spacingAndGlyphs" textLength="83" x="494" y="301.5151">void resume();</text><text fill="#000000" font-family="sans-serif" font-size="11" lengthAdjust="spacingAndGlyphs" textLength="74" x="494" y="314.3198">void pause();</text><!--class Button--><rect fill="#FEFECE" filter="url(#fbplbvongps2e)" height="60.8047" id="Button" style="stroke: #A80036; stroke-width: 1.5;" width="79" x="877.5" y="533"/><ellipse cx="895.65" cy="549" fill="#B4A7E5" rx="11" ry="11" style="stroke: #A80036; stroke-width: 1.0;"/><path d="M891.5719,544.7656 L891.5719,542.6094 L898.9625,542.6094 L898.9625,544.7656 L896.4938,544.7656 L896.4938,552.8438 L898.9625,552.8438 L898.9625,555 L891.5719,555 L891.5719,552.8438 L894.0406,552.8438 L894.0406,544.7656 L891.5719,544.7656 Z "/><text fill="#000000" font-family="sans-serif" font-size="12" font-style="italic" lengthAdjust="spacingAndGlyphs" textLength="40" x="910.35" y="553.1543">Button</text><line style="stroke: #A80036; stroke-width: 1.5;" x1="878.5" x2="955.5" y1="565" y2="565"/><line style="stroke: #A80036; stroke-width: 1.5;" x1="878.5" x2="955.5" y1="573" y2="573"/><text fill="#000000" font-family="sans-serif" font-size="11" lengthAdjust="spacingAndGlyphs" textLength="67" x="883.5" y="587.2104">void push();</text><!--class sb--><rect fill="#FEFECE" filter="url(#fbplbvongps2e)" height="86.4141" id="sb" style="stroke: #A80036; stroke-width: 1.5;" width="171" x="831.5" y="387"/><ellipse cx="871.7" cy="403" fill="#ADD1B2" rx="11" ry="11" style="stroke: #A80036; stroke-width: 1.0;"/><path d="M874.6688,408.6406 Q874.0906,408.9375 873.45,409.0859 Q872.8094,409.2344 872.1063,409.2344 Q869.6063,409.2344 868.2859,407.5859 Q866.9656,405.9375 866.9656,402.8125 Q866.9656,399.6875 868.2859,398.0313 Q869.6063,396.375 872.1063,396.375 Q872.8094,396.375 873.4578,396.5313 Q874.1063,396.6875 874.6688,396.9844 L874.6688,399.7031 Q874.0438,399.125 873.45,398.8516 Q872.8563,398.5781 872.2313,398.5781 Q870.8875,398.5781 870.2,399.6484 Q869.5125,400.7188 869.5125,402.8125 Q869.5125,404.9063 870.2,405.9766 Q870.8875,407.0469 872.2313,407.0469 Q872.8563,407.0469 873.45,406.7734 Q874.0438,406.5 874.6688,405.9219 L874.6688,408.6406 Z "/><text fill="#000000" font-family="sans-serif" font-size="12" lengthAdjust="spacingAndGlyphs" textLength="83" x="891.3" y="407.1543">SimpleButton</text><line style="stroke: #A80036; stroke-width: 1.5;" x1="832.5" x2="1001.5" y1="419" y2="419"/><text fill="#000000" font-family="sans-serif" font-size="11" lengthAdjust="spacingAndGlyphs" textLength="121" x="837.5" y="433.2104">private name : String</text><text fill="#000000" font-family="sans-serif" font-size="11" lengthAdjust="spacingAndGlyphs" textLength="114" x="837.5" y="446.0151">private state : State</text><line style="stroke: #A80036; stroke-width: 1.5;" x1="832.5" x2="1001.5" y1="452.6094" y2="452.6094"/><text fill="#000000" font-family="sans-serif" font-size="11" lengthAdjust="spacingAndGlyphs" textLength="159" x="837.5" y="466.8198">public SimpleButton (String)</text><!--class sbs--><rect fill="#FEFECE" filter="url(#fbplbvongps2e)" height="86.4141" id="sbs" style="stroke: #A80036; stroke-width: 1.5;" width="69" x="1037.5" y="387"/><ellipse cx="1053.85" cy="403" fill="#EB937F" rx="11" ry="11" style="stroke: #A80036; stroke-width: 1.0;"/><path d="M1057.9594,409 L1050.2406,409 L1050.2406,396.6094 L1057.9594,396.6094 L1057.9594,398.7656 L1052.6938,398.7656 L1052.6938,401.4375 L1057.4594,401.4375 L1057.4594,403.5938 L1052.6938,403.5938 L1052.6938,406.8438 L1057.9594,406.8438 L1057.9594,409 Z "/><text fill="#000000" font-family="sans-serif" font-size="12" lengthAdjust="spacingAndGlyphs" textLength="34" x="1068.15" y="407.1543">State</text><line style="stroke: #A80036; stroke-width: 1.5;" x1="1038.5" x2="1105.5" y1="419" y2="419"/><text fill="#000000" font-family="sans-serif" font-size="11" lengthAdjust="spacingAndGlyphs" textLength="46" x="1043.5" y="433.2104">Pushed,</text><text fill="#000000" font-family="sans-serif" font-size="11" lengthAdjust="spacingAndGlyphs" textLength="57" x="1043.5" y="446.0151">Resumed,</text><text fill="#000000" font-family="sans-serif" font-size="11" lengthAdjust="spacingAndGlyphs" textLength="42" x="1043.5" y="458.8198">Paused</text><line style="stroke: #A80036; stroke-width: 1.5;" x1="1038.5" x2="1105.5" y1="465.4141" y2="465.4141"/><!--class spcl--><rect fill="#FEFECE" filter="url(#fbplbvongps2e)" height="86.4141" id="spcl" style="stroke: #A80036; stroke-width: 1.5;" width="276" x="520" y="387"/><ellipse cx="554.8" cy="403" fill="#ADD1B2" rx="11" ry="11" style="stroke: #A80036; stroke-width: 1.0;"/><path d="M557.7688,408.6406 Q557.1906,408.9375 556.55,409.0859 Q555.9094,409.2344 555.2063,409.2344 Q552.7063,409.2344 551.3859,407.5859 Q550.0656,405.9375 550.0656,402.8125 Q550.0656,399.6875 551.3859,398.0313 Q552.7063,396.375 555.2063,396.375 Q555.9094,396.375 556.5578,396.5313 Q557.2063,396.6875 557.7688,396.9844 L557.7688,399.7031 Q557.1438,399.125 556.55,398.8516 Q555.9563,398.5781 555.3313,398.5781 Q553.9875,398.5781 553.3,399.6484 Q552.6125,400.7188 552.6125,402.8125 Q552.6125,404.9063 553.3,405.9766 Q553.9875,407.0469 555.3313,407.0469 Q555.9563,407.0469 556.55,406.7734 Q557.1438,406.5 557.7688,405.9219 L557.7688,408.6406 Z "/><text fill="#000000" font-family="sans-serif" font-size="12" lengthAdjust="spacingAndGlyphs" textLength="200" x="573.2" y="407.1543">SimplePedestrianCrossingLights</text><line style="stroke: #A80036; stroke-width: 1.5;" x1="521" x2="795" y1="419" y2="419"/><text fill="#000000" font-family="sans-serif" font-size="11" lengthAdjust="spacingAndGlyphs" textLength="121" x="526" y="433.2104">private name : String</text><text fill="#000000" font-family="sans-serif" font-size="11" lengthAdjust="spacingAndGlyphs" textLength="264" x="526" y="446.0151">private state : PedestrianCrossingLights.State</text><line style="stroke: #A80036; stroke-width: 1.5;" x1="521" x2="795" y1="452.6094" y2="452.6094"/><text fill="#000000" font-family="sans-serif" font-size="11" lengthAdjust="spacingAndGlyphs" textLength="264" x="526" y="466.8198">public SimplePedestrianCrossingLights(String)</text><!--class stl--><rect fill="#FEFECE" filter="url(#fbplbvongps2e)" height="86.4141" id="stl" style="stroke: #A80036; stroke-width: 1.5;" width="200" x="285" y="387"/><ellipse cx="323.4" cy="403" fill="#ADD1B2" rx="11" ry="11" style="stroke: #A80036; stroke-width: 1.0;"/><path d="M326.3688,408.6406 Q325.7906,408.9375 325.15,409.0859 Q324.5094,409.2344 323.8063,409.2344 Q321.3063,409.2344 319.9859,407.5859 Q318.6656,405.9375 318.6656,402.8125 Q318.6656,399.6875 319.9859,398.0313 Q321.3063,396.375 323.8063,396.375 Q324.5094,396.375 325.1578,396.5313 Q325.8063,396.6875 326.3688,396.9844 L326.3688,399.7031 Q325.7438,399.125 325.15,398.8516 Q324.5563,398.5781 323.9313,398.5781 Q322.5875,398.5781 321.9,399.6484 Q321.2125,400.7188 321.2125,402.8125 Q321.2125,404.9063 321.9,405.9766 Q322.5875,407.0469 323.9313,407.0469 Q324.5563,407.0469 325.15,406.7734 Q325.7438,406.5 326.3688,405.9219 L326.3688,408.6406 Z "/><text fill="#000000" font-family="sans-serif" font-size="12" lengthAdjust="spacingAndGlyphs" textLength="116" x="342.6" y="407.1543">SimpleTrafficLights</text><line style="stroke: #A80036; stroke-width: 1.5;" x1="286" x2="484" y1="419" y2="419"/><text fill="#000000" font-family="sans-serif" font-size="11" lengthAdjust="spacingAndGlyphs" textLength="121" x="291" y="433.2104">private name : String</text><text fill="#000000" font-family="sans-serif" font-size="11" lengthAdjust="spacingAndGlyphs" textLength="188" x="291" y="446.0151">private state : TrafficLights.State</text><line style="stroke: #A80036; stroke-width: 1.5;" x1="286" x2="484" y1="452.6094" y2="452.6094"/><text fill="#000000" font-family="sans-serif" font-size="11" lengthAdjust="spacingAndGlyphs" textLength="188" x="291" y="466.8198">public SimpleTrafficLights(String)</text><!--class ru--><rect fill="#FEFECE" filter="url(#fbplbvongps2e)" height="86.4141" id="ru" style="stroke: #A80036; stroke-width: 1.5;" width="209" x="812.5" y="654"/><ellipse cx="872.75" cy="670" fill="#ADD1B2" rx="11" ry="11" style="stroke: #A80036; stroke-width: 1.0;"/><path d="M875.7188,675.6406 Q875.1406,675.9375 874.5,676.0859 Q873.8594,676.2344 873.1563,676.2344 Q870.6563,676.2344 869.3359,674.5859 Q868.0156,672.9375 868.0156,669.8125 Q868.0156,666.6875 869.3359,665.0313 Q870.6563,663.375 873.1563,663.375 Q873.8594,663.375 874.5078,663.5313 Q875.1563,663.6875 875.7188,663.9844 L875.7188,666.7031 Q875.0938,666.125 874.5,665.8516 Q873.9063,665.5781 873.2813,665.5781 Q871.9375,665.5781 871.25,666.6484 Q870.5625,667.7188 870.5625,669.8125 Q870.5625,671.9063 871.25,672.9766 Q871.9375,674.0469 873.2813,674.0469 Q873.9063,674.0469 874.5,673.7734 Q875.0938,673.5 875.7188,672.9219 L875.7188,675.6406 Z "/><text fill="#000000" font-family="sans-serif" font-size="12" lengthAdjust="spacingAndGlyphs" textLength="80" x="893.25" y="674.1543">RandomUser</text><line style="stroke: #A80036; stroke-width: 1.5;" x1="813.5" x2="1020.5" y1="686" y2="686"/><text fill="#000000" font-family="sans-serif" font-size="11" lengthAdjust="spacingAndGlyphs" textLength="121" x="818.5" y="700.2104">private name : String</text><line style="stroke: #A80036; stroke-width: 1.5;" x1="813.5" x2="1020.5" y1="706.8047" y2="706.8047"/><text fill="#000000" font-family="sans-serif" font-size="11" lengthAdjust="spacingAndGlyphs" textLength="197" x="818.5" y="721.0151">public RandomUser(String, Button)</text><text fill="#000000" font-family="sans-serif" font-size="11" lengthAdjust="spacingAndGlyphs" textLength="91" x="818.5" y="733.8198">public void run()</text><!--link Controller to pcc--><path d="M432.89,156.5425 C380.6262,179.1289 319.3918,205.592 267.5469,227.9973 " fill="none" id="Controller-pcc" style="stroke: #A80036; stroke-width: 1.0; stroke-dasharray: 7.0,7.0;"/><polygon fill="none" points="430.2022,150.0784,451.3381,148.57,435.7561,162.9297,430.2022,150.0784" style="stroke: #A80036; stroke-width: 1.0;"/><!--link pccstate to pcc--><path d="M124.5697,155.2495 C128.7778,173.3447 133.5955,194.0606 138.0544,213.2341 " fill="none" id="pccstate-pcc" style="stroke: #A80036; stroke-width: 1.0;"/><ellipse cx="139.6441" cy="220.0703" fill="#FFFFFF" rx="8" ry="8" style="stroke: #A80036; stroke-width: 1.0;"/><line style="stroke: #A80036; stroke-width: 1.0;" x1="137.8319" x2="141.4563" y1="212.2782" y2="227.8623"/><line style="stroke: #A80036; stroke-width: 1.0;" x1="147.4362" x2="131.8521" y1="218.2581" y2="221.8824"/><!--link pclstate to pcl--><path d="M801.0556,148.9029 C788.616,174.6813 772.8798,207.2912 760.3667,233.2221 " fill="none" id="pclstate-pcl" style="stroke: #A80036; stroke-width: 1.0;"/><ellipse cx="757.2647" cy="239.6502" fill="#FFFFFF" rx="8" ry="8" style="stroke: #A80036; stroke-width: 1.0;"/><line style="stroke: #A80036; stroke-width: 1.0;" x1="760.7415" x2="753.7879" y1="232.4452" y2="246.8552"/><line style="stroke: #A80036; stroke-width: 1.0;" x1="764.4697" x2="750.0597" y1="243.127" y2="236.1734"/><!--link tlstate to tl--><path d="M312.5986,163.252 C327.2467,186.3664 343.8356,212.5434 357.4353,234.0035 " fill="none" id="tlstate-tl" style="stroke: #A80036; stroke-width: 1.0;"/><ellipse cx="361.1904" cy="239.929" fill="#FFFFFF" rx="8" ry="8" style="stroke: #A80036; stroke-width: 1.0;"/><line style="stroke: #A80036; stroke-width: 1.0;" x1="356.9081" x2="365.4727" y1="233.1716" y2="246.6863"/><line style="stroke: #A80036; stroke-width: 1.0;" x1="367.9477" x2="354.433" y1="235.6466" y2="244.2113"/><!--link Controller to tl--><path d="M509.1112,148.9029 C481.0069,178.023 444.4893,215.8604 418.3542,242.9402 " fill="none" id="Controller-tl" style="stroke: #A80036; stroke-width: 1.0;"/><polygon fill="#A80036" points="414.5758,246.8552,423.7039,243.1568,418.0479,243.2574,417.9473,237.6014,414.5758,246.8552" style="stroke: #A80036; stroke-width: 1.0;"/><!--link Controller to pcl--><path d="M598.4403,148.9029 C630.3997,178.1423 671.9657,216.1707 701.5887,243.2726 " fill="none" id="Controller-pcl" style="stroke: #A80036; stroke-width: 1.0;"/><polygon fill="#A80036" points="705.5045,246.8552,701.5641,237.829,701.8154,243.4802,696.1641,243.7315,705.5045,246.8552" style="stroke: #A80036; stroke-width: 1.0;"/><!--link Controller to pi--><path d="M551,148.9029 C551,173.3382 551,203.9117 551,229.1164 " fill="none" id="Controller-pi" style="stroke: #A80036; stroke-width: 1.0;"/><polygon fill="#A80036" points="551,234.4092,555,225.4092,551,229.4092,547,225.4092,551,234.4092" style="stroke: #A80036; stroke-width: 1.0;"/><!--link sb to Button--><path d="M917,473.3436 C917,485.7322 917,499.3525 917,512.1702 " fill="none" id="sb-Button" style="stroke: #A80036; stroke-width: 1.0; stroke-dasharray: 7.0,7.0;"/><polygon fill="none" points="924.0001,512.6248,917,532.6248,910.0001,512.6248,924.0001,512.6248" style="stroke: #A80036; stroke-width: 1.0;"/><!--link pi to sb--><path d="M621.8475,330.4792 C625.2096,332.1322 628.6011,333.6516 632,335 C707.0761,364.7832 736.4954,331.3206 812,360 C829.4089,366.6125 846.8329,376.5511 862.3427,386.8779 " fill="none" id="pi-sb" style="stroke: #A80036; stroke-width: 1.0; stroke-dasharray: 7.0,7.0;"/><polygon fill="none" points="618.2637,336.4947,604.2739,320.5798,625.1349,324.2969,618.2637,336.4947" style="stroke: #A80036; stroke-width: 1.0;"/><!--link sb to sbs--><path d="M1017.8389,430 C1024.3383,430 1030.8376,430 1037.3369,430 " fill="none" id="sb-sbs" style="stroke: #A80036; stroke-width: 1.0;"/><ellipse cx="1010.6738" cy="429.9999" fill="#FFFFFF" rx="8" ry="8" style="stroke: #A80036; stroke-width: 1.0;"/><line style="stroke: #A80036; stroke-width: 1.0;" x1="1018.6738" x2="1002.6738" y1="429.9998" y2="430"/><line style="stroke: #A80036; stroke-width: 1.0;" x1="1010.6739" x2="1010.6737" y1="437.9999" y2="421.9999"/><!--link pcl to spcl--><path d="M713.0784,326.303 C702.756,345.7372 690.9756,367.9164 680.966,386.7616 " fill="none" id="pcl-spcl" style="stroke: #A80036; stroke-width: 1.0; stroke-dasharray: 7.0,7.0;"/><polygon fill="none" points="707.0446,322.7401,722.6084,308.3607,719.4088,329.3073,707.0446,322.7401" style="stroke: #A80036; stroke-width: 1.0;"/><!--link tl to stl--><path d="M385,328.4282 C385,347.3416 385,368.5999 385,386.7616 " fill="none" id="tl-stl" style="stroke: #A80036; stroke-width: 1.0; stroke-dasharray: 7.0,7.0;"/><polygon fill="none" points="378.0001,328.3607,385,308.3607,392.0001,328.3606,378.0001,328.3607" style="stroke: #A80036; stroke-width: 1.0;"/><!--link Button to ru--><path d="M917,599.2286 C917,616.0355 917,636.2166 917,653.8681 " fill="none" id="Button-ru" style="stroke: #A80036; stroke-width: 1.0;"/><polygon fill="#A80036" points="917,594.1276,913,603.1276,917,599.1276,921,603.1276,917,594.1276" style="stroke: #A80036; stroke-width: 1.0;"/><!--
@startuml

package com.traffic_lights.controller {
  interface Controller {
    void addTrafficLights(TrafficLights,String);
    void addPedestrianCrossingLights(PedestrianCrossingLights, String);
    void addPedestrianInput(PedestrianInput, String);

  }


  class "PedestrianCrossingController" as pcc {
    private state : State

    public PedestrianCrossingController ()
    public void run()
    private void wait(int)
  }

  enum "State" as pccstate {
        CarsCrossing,
        TransitionCarsToPedestrains,
        PedestriansCrossing,
        TransitionPedestriansToCars
  }

  pcc .up.|> Controller
  pcc +-up- pccstate

  enum "State" as pclstate {
        Red,
        Greem,
        Off
  }

  interface "PedestrianCrossingLights" as pcl {
    void turn(State);
  }

  pcl +-up- pclstate

  enum "State" as tlstate {
        Red,
        Green,
        Yellow,
        RedYellow,
        Off,
        Flash
   }


  interface "TrafficLights" as tl {
    void turn(State);
  }

  tl +-up- tlstate

  interface "PedestrianInput" as pi {

    boolean isSet();
    void resume();
    void pause();
  }

  Controller - -> tl
  Controller - -> pcl
  Controller - -> pi
}

package com.traffic_lights.input {
  interface Button {
    void push();

  }

  class "SimpleButton" as sb {
    private name : String
    private state : State

    public SimpleButton (String)
  }

  enum "State" as sbs {
        Pushed,
        Resumed,
        Paused
  }

  sb .down.|> Button
  sb .up.|> pi
  sb +-right- sbs
}

package com.traffic_lights.view {
  class "SimplePedestrianCrossingLights" as spcl {
    private name : String
    private state : PedestrianCrossingLights.State

    public SimplePedestrianCrossingLights(String)
  }

  spcl .up.|> pcl

  class "SimpleTrafficLights" as stl {
    private name : String
    private state : TrafficLights.State

    public SimpleTrafficLights(String)
  }

  stl .up.|> tl
}

package com.traffic_lights.user {
  class "RandomUser" as ru {
    private name : String

    public RandomUser(String, Button)
    public void run()
  }

  ru -up-> Button
}

@enduml

PlantUML version 1.2018.01(Sun Jan 28 19:08:22 CET 2018)
(APACHE source distribution)
Java Runtime: Java(TM) SE Runtime Environment
JVM: Java HotSpot(TM) 64-Bit Server VM
Java Version: 10.0.1+10
Operating System: Linux
OS Version: 4.18.1-arch1-1-ARCH
Default Encoding: UTF-8
Language: de
Country: DE
--></g></svg>