<?xml version="1.0" encoding="UTF-8" standalone="no"?><svg xmlns="http://www.w3.org/2000/svg" xmlns:xlink="http://www.w3.org/1999/xlink" contentScriptType="application/ecmascript" contentStyleType="text/css" height="760px" preserveAspectRatio="none" style="width:1132px;height:760px;" version="1.1" viewBox="0 0 1132 760" width="1132px" zoomAndPan="magnify"><defs><filter height="300%" id="fbplbvongps2e" width="300%" x="-1" y="-1"><feGaussianBlur result="blurOut" stdDeviation="2.0"/><feColorMatrix in="blurOut" result="blurOut2" type="matrix" values="0 0 0 0 0 0 0 0 0 0 0 0 0 0 0 0 0 0 .4 0"/><feOffset dx="4.0" dy="4.0" in="blurOut2" result="blurOut3"/><feBlend in="SourceGraphic" in2="blurOut3" mode="normal"/></filter></defs><g><!--cluster com.traffic_lights.controller--><polygon fill="#FFFFFF" filter="url(#fbplbvongps2e)" points="14,16,237,16,244,38.2969,861,38.2969,861,335,14,335,14,16" style="stroke: #000000; stroke-width: 1.5;"/><line style="stroke: #000000; stroke-width: 1.5;" x1="14" x2="244" y1="38.2969" y2="38.2969"/><text fill="#000000" font-family="sans-serif" font-size="14" font-weight="bold" lengthAdjust="spacingAndGlyphs" textLength="217" x="18" y="30.9951">com.traffic_lights.controller</text><!--cluster com.traffic_lights.input--><polygon fill="#FFFFFF" filter="url(#fbplbvongps2e)" points="821,360,1007,360,1014,382.2969,1110,382.2969,1110,602,821,602,821,360" style="stroke: #000000; stroke-width: 1.5;"/><line style="stroke: #000000; stroke-width: 1.5;" x1="821" x2="1014" y1="382.2969" y2="382.2969"/><text fill="#000000" font-family="sans-serif" font-size="14" font-weight="bold" lengthAdjust="spacingAndGlyphs" textLength="180" x="825" y="374.9951">com.traffic_lights.input</text><!--cluster com.traffic_lights.view--><polygon fill="#FFFFFF" filter="url(#fbplbvongps2e)" points="276,360,459,360,466,382.2969,802,382.2969,802,481,276,481,276,360" style="stroke: #000000; stroke-width: 1.5;"/><line style="stroke: #000000; stroke-width: 1.5;" x1="276" x2="466" y1="382.2969" y2="382.2969"/><text fill="#000000" font-family="sans-serif" font-size="14" font-weight="bold" lengthAdjust="spacingAndGlyphs" textLength="177" x="280" y="374.9951">com.traffic_lights.view</text><!--cluster com.traffic_lights.user--><polygon fill="#FFFFFF" filter="url(#fbplbvongps2e)" points="801,627,983,627,990,649.2969,1025,649.2969,1025,748,801,748,801,627" style="stroke: #000000; stroke-width: 1.5;"/><line style="stroke: #000000; stroke-width: 1.5;" x1="801" x2="990" y1="649.2969" y2="649.2969"/><text fill="#000000" font-family="sans-serif" font-size="14" font-weight="bold" lengthAdjust="spacingAndGlyphs" textLength="176" x="805" y="641.9951">com.traffic_lights.user</text><!--class Controller--><rect fill="#FEFECE" filter="url(#fbplbvongps2e)" height="86.4141" id="Controller" style="stroke: #A80036; stroke-width: 1.5;" width="404" x="348" y="62.5"/><ellipse cx="517.25" cy="78.5" fill="#B4A7E5" rx="11" ry="11" style="stroke: #A80036; stroke-width: 1.0;"/><path d="M513.1719,74.2656 L513.1719,72.1094 L520.5625,72.1094 L520.5625,74.2656 L518.0938,74.2656 L518.0938,82.3438 L520.5625,82.3438 L520.5625,84.5 L513.1719,84.5 L513.1719,82.3438 L515.6406,82.3438 L515.6406,74.2656 L513.1719,74.2656 Z "/><text fill="#000000" font-family="sans-serif" font-size="12" font-style="italic" lengthAdjust="spacingAndGlyphs" textLength="57" x="537.75" y="82.6543">Controller</text><line style="stroke: #A80036; stroke-width: 1.5;" x1="349" x2="751" y1="94.5" y2="94.5"/><line style="stroke: #A80036; stroke-width: 1.5;" x1="349" x2="751" y1="102.5" y2="102.5"/><text fill="#000000" font-family="sans-serif" font-size="11" lengthAdjust="spacingAndGlyphs" textLength="237" x="354" y="116.7104">void addTrafficLights(TrafficLights,String);</text><text fill="#000000" font-family="sans-serif" font-size="11" lengthAdjust="spacingAndGlyphs" textLength="392" x="354" y="129.5151">void addPedestrianCrossingLights(PedestrianCrossingLights, String);</text><text fill="#000000" font-family="sans-serif" font-size="11" lengthAdjust="spacingAndGlyphs" textLength="278" x="354" y="142.3198">void addPedestrianInput(PedestrianInput, String);</text><!--class pcc--><rect fill="#FEFECE" filter="url(#fbplbvongps2e)" height="99.2188" id="pcc" style="stroke: #A80036; stroke-width: 1.5;" width="227" x="38.5" y="228"/><ellipse cx="58.9" cy="244" fill="#ADD1B2" rx="11" ry="11" style="stroke: #A80036; stroke-width: 1.0;"/><path d="M61.8688,249.6406 Q61.2906,249.9375 60.65,250.0859 Q60.0094,250.2344 59.3063,250.2344 Q56.8063,250.2344 55.4859,248.5859 Q54.1656,246.9375 54.1656,243.8125 Q54.1656,240.6875 55.4859,239.0313 Q56.8063,237.375 59.3063,237.375 Q60.0094,237.375 60.6578,237.5313 Q61.3063,237.6875 61.8688,237.9844 L61.8688,240.7031 Q61.2438,240.125 60.65,239.8516 Q60.0563,239.5781 59.4313,239.5781 Q58.0875,239.5781 57.4,240.6484 Q56.7125,241.7188 56.7125,243.8125 Q56.7125,245.9063 57.4,246.9766 Q58.0875,248.0469 59.4313,248.0469 Q60.0563,248.0469 60.65,247.7734 Q61.2438,247.5 61.8688,246.9219 L61.8688,249.6406 Z "/><text fill="#000000" font-family="sans-serif" font-size="12" lengthAdjust="spacingAndGlyphs" textLength="183" x="74.1" y="248.1543">PedestrianCrossingController</text><line style="stroke: #A80036; stroke-width: 1.5;" x1="39.5" x2="264.5" y1="260" y2="260"/><text fill="#000000" font-family="sans-serif" font-size="11" lengthAdjust="spacingAndGlyphs" textLength="111" x="44.5" y="274.2104">private state : State</text><line style="stroke: #A80036; stroke-width: 1.5;" x1="39.5" x2="264.5" y1="280.8047" y2="280.8047"/><text fill="#000000" font-family="sans-serif" font-size="11" lengthAdjust="spacingAndGlyphs" textLength="215" x="44.5" y="295.0151">public PedestrianCrossingController ()</text><text fill="#000000" font-family="sans-serif" font-size="11" lengthAdjust="spacingAndGlyphs" textLength="89" x="44.5" y="307.8198">public void run()</text><text fill="#000000" font-family="sans-serif" font-size="11" lengthAdjust="spacingAndGlyphs" textLength="113" x="44.5" y="320.6245">private void wait(int)</text><!--class pccstate--><rect fill="#FEFECE" filter="url(#fbplbvongps2e)" height="99.2188" id="pccstate" style="stroke: #A80036; stroke-width: 1.5;" width="182" x="22" y="56"/><ellipse cx="91.75" cy="72" fill="#EB937F" rx="11" ry="11" style="stroke: #A80036; stroke-width: 1.0;"/><path d="M95.8594,78 L88.1406,78 L88.1406,65.6094 L95.8594,65.6094 L95.8594,67.7656 L90.5938,67.7656 L90.5938,70.4375 L95.3594,70.4375 L95.3594,72.5938 L90.5938,72.5938 L90.5938,75.8438 L95.8594,75.8438 L95.8594,78 Z "/><text fill="#000000" font-family="sans-serif" font-size="12" lengthAdjust="spacingAndGlyphs" textLength="34" x="112.25" y="76.1543">State</text><line style="stroke: #A80036; stroke-width: 1.5;" x1="23" x2="203" y1="88" y2="88"/><text fill="#000000" font-family="sans-serif" font-size="11" lengthAdjust="spacingAndGlyphs" textLength="82" x="28" y="102.2104">CarsCrossing,</text><text fill="#000000" font-family="sans-serif" font-size="11" lengthAdjust="spacingAndGlyphs" textLength="170" x="28" y="115.0151">TransitionCarsToPedestrains,</text><text fill="#000000" font-family="sans-serif" font-size="11" lengthAdjust="spacingAndGlyphs" textLength="123" x="28" y="127.8198">PedestriansCrossing,</text><text fill="#000000" font-family="sans-serif" font-size="11" lengthAdjust="spacingAndGlyphs" textLength="166" x="28" y="140.6245">TransitionPedestriansToCars</text><line style="stroke: #A80036; stroke-width: 1.5;" x1="23" x2="203" y1="147.2188" y2="147.2188"/><!--class pclstate--><rect fill="#FEFECE" filter="url(#fbplbvongps2e)" height="86.4141" id="pclstate" style="stroke: #A80036; stroke-width: 1.5;" width="66" x="787" y="62.5"/><ellipse cx="802" cy="78.5" fill="#EB937F" rx="11" ry="11" style="stroke: #A80036; stroke-width: 1.0;"/><path d="M806.1094,84.5 L798.3906,84.5 L798.3906,72.1094 L806.1094,72.1094 L806.1094,74.2656 L800.8438,74.2656 L800.8438,76.9375 L805.6094,76.9375 L805.6094,79.0938 L800.8438,79.0938 L800.8438,82.3438 L806.1094,82.3438 L806.1094,84.5 Z "/><text fill="#000000" font-family="sans-serif" font-size="12" lengthAdjust="spacingAndGlyphs" textLength="34" x="816" y="82.6543">State</text><line style="stroke: #A80036; stroke-width: 1.5;" x1="788" x2="852" y1="94.5" y2="94.5"/><text fill="#000000" font-family="sans-serif" font-size="11" lengthAdjust="spacingAndGlyphs" textLength="25" x="793" y="108.7104">Red,</text><text fill="#000000" font-family="sans-serif" font-size="11" lengthAdjust="spacingAndGlyphs" textLength="43" x="793" y="121.5151">Greem,</text><text fill="#000000" font-family="sans-serif" font-size="11" lengthAdjust="spacingAndGlyphs" textLength="17" x="793" y="134.3198">Off</text><line style="stroke: #A80036; stroke-width: 1.5;" x1="788" x2="852" y1="140.9141" y2="140.9141"/><!--class pcl--><rect fill="#FEFECE" filter="url(#fbplbvongps2e)" height="60.8047" id="pcl" style="stroke: #A80036; stroke-width: 1.5;" width="180" x="648" y="247"/><ellipse cx="663" cy="263" fill="#B4A7E5" rx="11" ry="11" style="stroke: #A80036; stroke-width: 1.0;"/><path d="M658.9219,258.7656 L658.9219,256.6094 L666.3125,256.6094 L666.3125,258.7656 L663.8438,258.7656 L663.8438,266.8438 L666.3125,266.8438 L666.3125,269 L658.9219,269 L658.9219,266.8438 L661.3906,266.8438 L661.3906,258.7656 L658.9219,258.7656 Z "/><text fill="#000000" font-family="sans-serif" font-size="12" font-style="italic" lengthAdjust="spacingAndGlyphs" textLength="148" x="677" y="267.1543">PedestrianCrossingLights</text><line style="stroke: #A80036; stroke-width: 1.5;" x1="649" x2="827" y1="279" y2="279"/><line style="stroke: #A80036; stroke-width: 1.5;" x1="649" x2="827" y1="287" y2="287"/><text fill="#000000" font-family="sans-serif" font-size="11" lengthAdjust="spacingAndGlyphs" textLength="91" x="654" y="301.2104">void turn(State);</text><!--class tlstate--><rect fill="#FEFECE" filter="url(#fbplbvongps2e)" height="124.8281" id="tlstate" style="stroke: #A80036; stroke-width: 1.5;" width="73" x="239.5" y="43"/><ellipse cx="257.65" cy="59" fill="#EB937F" rx="11" ry="11" style="stroke: #A80036; stroke-width: 1.0;"/><path d="M261.7594,65 L254.0406,65 L254.0406,52.6094 L261.7594,52.6094 L261.7594,54.7656 L256.4938,54.7656 L256.4938,57.4375 L261.2594,57.4375 L261.2594,59.5938 L256.4938,59.5938 L256.4938,62.8438 L261.7594,62.8438 L261.7594,65 Z "/><text fill="#000000" font-family="sans-serif" font-size="12" lengthAdjust="spacingAndGlyphs" textLength="34" x="272.35" y="63.1543">State</text><line style="stroke: #A80036; stroke-width: 1.5;" x1="240.5" x2="311.5" y1="75" y2="75"/><text fill="#000000" font-family="sans-serif" font-size="11" lengthAdjust="spacingAndGlyphs" textLength="25" x="245.5" y="89.2104">Red,</text><text fill="#000000" font-family="sans-serif" font-size="11" lengthAdjust="spacingAndGlyphs" textLength="39" x="245.5" y="102.0151">Green,</text><text fill="#000000" font-family="sans-serif" font-size="11" lengthAdjust="spacingAndGlyphs" textLength="40" x="245.5" y="114.8198">Yellow,</text><text fill="#000000" font-family="sans-serif" font-size="11" lengthAdjust="spacingAndGlyphs" textLength="61" x="245.5" y="127.6245">RedYellow,</text><text fill="#000000" font-family="sans-serif" font-size="11" lengthAdjust="spacingAndGlyphs" textLength="21" x="245.5" y="140.4292">Off,</text><text fill="#000000" font-family="sans-serif" font-size="11" lengthAdjust="spacingAndGlyphs" textLength="30" x="245.5" y="153.2339">Flash</text><line style="stroke: #A80036; stroke-width: 1.5;" x1="240.5" x2="311.5" y1="159.8281" y2="159.8281"/><!--class tl--><rect fill="#FEFECE" filter="url(#fbplbvongps2e)" height="60.8047" id="tl" style="stroke: #A80036; stroke-width: 1.5;" width="105" x="331.5" y="247"/><ellipse cx="346.5" cy="263" fill="#B4A7E5" rx="11" ry="11" style="stroke: #A80036; stroke-width: 1.0;"/><path d="M342.4219,258.7656 L342.4219,256.6094 L349.8125,256.6094 L349.8125,258.7656 L347.3438,258.7656 L347.3438,266.8438 L349.8125,266.8438 L349.8125,269 L342.4219,269 L342.4219,266.8438 L344.8906,266.8438 L344.8906,258.7656 L342.4219,258.7656 Z "/><text fill="#000000" font-family="sans-serif" font-size="12" font-style="italic" lengthAdjust="spacingAndGlyphs" textLength="73" x="360.5" y="267.1543">TrafficLights</text><line style="stroke: #A80036; stroke-width: 1.5;" x1="332.5" x2="435.5" y1="279" y2="279"/><line style="stroke: #A80036; stroke-width: 1.5;" x1="332.5" x2="435.5" y1="287" y2="287"/><text fill="#000000" font-family="sans-serif" font-size="11" lengthAdjust="spacingAndGlyphs" textLength="91" x="337.5" y="301.2104">void turn(State);</text><!--class pi--><rect fill="#FEFECE" filter="url(#fbplbvongps2e)" height="86.4141" id="pi" style="stroke: #A80036; stroke-width: 1.5;" width="126" x="487" y="234.5"/><ellipse cx="502" cy="250.5" fill="#B4A7E5" rx="11" ry="11" style="stroke: #A80036; stroke-width: 1.0;"/><path d="M497.9219,246.2656 L497.9219,244.1094 L505.3125,244.1094 L505.3125,246.2656 L502.8438,246.2656 L502.8438,254.3438 L505.3125,254.3438 L505.3125,256.5 L497.9219,256.5 L497.9219,254.3438 L500.3906,254.3438 L500.3906,246.2656 L497.9219,246.2656 Z "/><text fill="#000000" font-family="sans-serif" font-size="12" font-style="italic" lengthAdjust="spacingAndGlyphs" textLength="94" x="516" y="254.6543">PedestrianInput</text><line style="stroke: #A80036; stroke-width: 1.5;" x1="488" x2="612" y1="266.5" y2="266.5"/><line style="stroke: #A80036; stroke-width: 1.5;" x1="488" x2="612" y1="274.5" y2="274.5"/><text fill="#000000" font-family="sans-serif" font-size="11" lengthAdjust="spacingAndGlyphs" textLength="89" x="493" y="288.7104">boolean isSet();</text><text fill="#000000" font-family="sans-serif" font-size="11" lengthAdjust="spacingAndGlyphs" textLength="82" x="493" y="301.5151">void resume();</text><text fill="#000000" font-family="sans-serif" font-size="11" lengthAdjust="spacingAndGlyphs" textLength="73" x="493" y="314.3198">void pause();</text><!--class Button--><rect fill="#FEFECE" filter="url(#fbplbvongps2e)" height="60.8047" id="Button" style="stroke: #A80036; stroke-width: 1.5;" width="78" x="874" y="533"/><ellipse cx="891.7" cy="549" fill="#B4A7E5" rx="11" ry="11" style="stroke: #A80036; stroke-width: 1.0;"/><path d="M887.6219,544.7656 L887.6219,542.6094 L895.0125,542.6094 L895.0125,544.7656 L892.5438,544.7656 L892.5438,552.8438 L895.0125,552.8438 L895.0125,555 L887.6219,555 L887.6219,552.8438 L890.0906,552.8438 L890.0906,544.7656 L887.6219,544.7656 Z "/><text fill="#000000" font-family="sans-serif" font-size="12" font-style="italic" lengthAdjust="spacingAndGlyphs" textLength="40" x="906.3" y="553.1543">Button</text><line style="stroke: #A80036; stroke-width: 1.5;" x1="875" x2="951" y1="565" y2="565"/><line style="stroke: #A80036; stroke-width: 1.5;" x1="875" x2="951" y1="573" y2="573"/><text fill="#000000" font-family="sans-serif" font-size="11" lengthAdjust="spacingAndGlyphs" textLength="66" x="880" y="587.2104">void push();</text><!--class sb--><rect fill="#FEFECE" filter="url(#fbplbvongps2e)" height="86.4141" id="sb" style="stroke: #A80036; stroke-width: 1.5;" width="169" x="828.5" y="387"/><ellipse cx="867.8" cy="403" fill="#ADD1B2" rx="11" ry="11" style="stroke: #A80036; stroke-width: 1.0;"/><path d="M870.7688,408.6406 Q870.1906,408.9375 869.55,409.0859 Q868.9094,409.2344 868.2063,409.2344 Q865.7063,409.2344 864.3859,407.5859 Q863.0656,405.9375 863.0656,402.8125 Q863.0656,399.6875 864.3859,398.0313 Q865.7063,396.375 868.2063,396.375 Q868.9094,396.375 869.5578,396.5313 Q870.2063,396.6875 870.7688,396.9844 L870.7688,399.7031 Q870.1438,399.125 869.55,398.8516 Q868.9563,398.5781 868.3313,398.5781 Q866.9875,398.5781 866.3,399.6484 Q865.6125,400.7188 865.6125,402.8125 Q865.6125,404.9063 866.3,405.9766 Q866.9875,407.0469 868.3313,407.0469 Q868.9563,407.0469 869.55,406.7734 Q870.1438,406.5 870.7688,405.9219 L870.7688,408.6406 Z "/><text fill="#000000" font-family="sans-serif" font-size="12" lengthAdjust="spacingAndGlyphs" textLength="83" x="887.2" y="407.1543">SimpleButton</text><line style="stroke: #A80036; stroke-width: 1.5;" x1="829.5" x2="996.5" y1="419" y2="419"/><text fill="#000000" font-family="sans-serif" font-size="11" lengthAdjust="spacingAndGlyphs" textLength="118" x="834.5" y="433.2104">private name : String</text><text fill="#000000" font-family="sans-serif" font-size="11" lengthAdjust="spacingAndGlyphs" textLength="111" x="834.5" y="446.0151">private state : State</text><line style="stroke: #A80036; stroke-width: 1.5;" x1="829.5" x2="996.5" y1="452.6094" y2="452.6094"/><text fill="#000000" font-family="sans-serif" font-size="11" lengthAdjust="spacingAndGlyphs" textLength="157" x="834.5" y="466.8198">public SimpleButton (String)</text><!--class sbs--><rect fill="#FEFECE" filter="url(#fbplbvongps2e)" height="86.4141" id="sbs" style="stroke: #A80036; stroke-width: 1.5;" width="69" x="1032.5" y="387"/><ellipse cx="1048.85" cy="403" fill="#EB937F" rx="11" ry="11" style="stroke: #A80036; stroke-width: 1.0;"/><path d="M1052.9594,409 L1045.2406,409 L1045.2406,396.6094 L1052.9594,396.6094 L1052.9594,398.7656 L1047.6938,398.7656 L1047.6938,401.4375 L1052.4594,401.4375 L1052.4594,403.5938 L1047.6938,403.5938 L1047.6938,406.8438 L1052.9594,406.8438 L1052.9594,409 Z "/><text fill="#000000" font-family="sans-serif" font-size="12" lengthAdjust="spacingAndGlyphs" textLength="34" x="1063.15" y="407.1543">State</text><line style="stroke: #A80036; stroke-width: 1.5;" x1="1033.5" x2="1100.5" y1="419" y2="419"/><text fill="#000000" font-family="sans-serif" font-size="11" lengthAdjust="spacingAndGlyphs" textLength="46" x="1038.5" y="433.2104">Pushed,</text><text fill="#000000" font-family="sans-serif" font-size="11" lengthAdjust="spacingAndGlyphs" textLength="57" x="1038.5" y="446.0151">Resumed,</text><text fill="#000000" font-family="sans-serif" font-size="11" lengthAdjust="spacingAndGlyphs" textLength="42" x="1038.5" y="458.8198">Paused</text><line style="stroke: #A80036; stroke-width: 1.5;" x1="1033.5" x2="1100.5" y1="465.4141" y2="465.4141"/><!--class spcl--><rect fill="#FEFECE" filter="url(#fbplbvongps2e)" height="86.4141" id="spcl" style="stroke: #A80036; stroke-width: 1.5;" width="275" x="518.5" y="387"/><ellipse cx="552.85" cy="403" fill="#ADD1B2" rx="11" ry="11" style="stroke: #A80036; stroke-width: 1.0;"/><path d="M555.8188,408.6406 Q555.2406,408.9375 554.6,409.0859 Q553.9594,409.2344 553.2563,409.2344 Q550.7563,409.2344 549.4359,407.5859 Q548.1156,405.9375 548.1156,402.8125 Q548.1156,399.6875 549.4359,398.0313 Q550.7563,396.375 553.2563,396.375 Q553.9594,396.375 554.6078,396.5313 Q555.2563,396.6875 555.8188,396.9844 L555.8188,399.7031 Q555.1938,399.125 554.6,398.8516 Q554.0063,398.5781 553.3813,398.5781 Q552.0375,398.5781 551.35,399.6484 Q550.6625,400.7188 550.6625,402.8125 Q550.6625,404.9063 551.35,405.9766 Q552.0375,407.0469 553.3813,407.0469 Q554.0063,407.0469 554.6,406.7734 Q555.1938,406.5 555.8188,405.9219 L555.8188,408.6406 Z "/><text fill="#000000" font-family="sans-serif" font-size="12" lengthAdjust="spacingAndGlyphs" textLength="200" x="571.15" y="407.1543">SimplePedestrianCrossingLights</text><line style="stroke: #A80036; stroke-width: 1.5;" x1="519.5" x2="792.5" y1="419" y2="419"/><text fill="#000000" font-family="sans-serif" font-size="11" lengthAdjust="spacingAndGlyphs" textLength="118" x="524.5" y="433.2104">private name : String</text><text fill="#000000" font-family="sans-serif" font-size="11" lengthAdjust="spacingAndGlyphs" textLength="261" x="524.5" y="446.0151">private state : PedestrianCrossingLights.State</text><line style="stroke: #A80036; stroke-width: 1.5;" x1="519.5" x2="792.5" y1="452.6094" y2="452.6094"/><text fill="#000000" font-family="sans-serif" font-size="11" lengthAdjust="spacingAndGlyphs" textLength="263" x="524.5" y="466.8198">public SimplePedestrianCrossingLights(String)</text><!--class stl--><rect fill="#FEFECE" filter="url(#fbplbvongps2e)" height="86.4141" id="stl" style="stroke: #A80036; stroke-width: 1.5;" width="199" x="284.5" y="387"/><ellipse cx="322.45" cy="403" fill="#ADD1B2" rx="11" ry="11" style="stroke: #A80036; stroke-width: 1.0;"/><path d="M325.4188,408.6406 Q324.8406,408.9375 324.2,409.0859 Q323.5594,409.2344 322.8563,409.2344 Q320.3563,409.2344 319.0359,407.5859 Q317.7156,405.9375 317.7156,402.8125 Q317.7156,399.6875 319.0359,398.0313 Q320.3563,396.375 322.8563,396.375 Q323.5594,396.375 324.2078,396.5313 Q324.8563,396.6875 325.4188,396.9844 L325.4188,399.7031 Q324.7938,399.125 324.2,398.8516 Q323.6063,398.5781 322.9813,398.5781 Q321.6375,398.5781 320.95,399.6484 Q320.2625,400.7188 320.2625,402.8125 Q320.2625,404.9063 320.95,405.9766 Q321.6375,407.0469 322.9813,407.0469 Q323.6063,407.0469 324.2,406.7734 Q324.7938,406.5 325.4188,405.9219 L325.4188,408.6406 Z "/><text fill="#000000" font-family="sans-serif" font-size="12" lengthAdjust="spacingAndGlyphs" textLength="116" x="341.55" y="407.1543">SimpleTrafficLights</text><line style="stroke: #A80036; stroke-width: 1.5;" x1="285.5" x2="482.5" y1="419" y2="419"/><text fill="#000000" font-family="sans-serif" font-size="11" lengthAdjust="spacingAndGlyphs" textLength="118" x="290.5" y="433.2104">private name : String</text><text fill="#000000" font-family="sans-serif" font-size="11" lengthAdjust="spacingAndGlyphs" textLength="185" x="290.5" y="446.0151">private state : TrafficLights.State</text><line style="stroke: #A80036; stroke-width: 1.5;" x1="285.5" x2="482.5" y1="452.6094" y2="452.6094"/><text fill="#000000" font-family="sans-serif" font-size="11" lengthAdjust="spacingAndGlyphs" textLength="187" x="290.5" y="466.8198">public SimpleTrafficLights(String)</text><!--class ru--><rect fill="#FEFECE" filter="url(#fbplbvongps2e)" height="86.4141" id="ru" style="stroke: #A80036; stroke-width: 1.5;" width="207" x="809.5" y="654"/><ellipse cx="868.75" cy="670" fill="#ADD1B2" rx="11" ry="11" style="stroke: #A80036; stroke-width: 1.0;"/><path d="M871.7188,675.6406 Q871.1406,675.9375 870.5,676.0859 Q869.8594,676.2344 869.1563,676.2344 Q866.6563,676.2344 865.3359,674.5859 Q864.0156,672.9375 864.0156,669.8125 Q864.0156,666.6875 865.3359,665.0313 Q866.6563,663.375 869.1563,663.375 Q869.8594,663.375 870.5078,663.5313 Q871.1563,663.6875 871.7188,663.9844 L871.7188,666.7031 Q871.0938,666.125 870.5,665.8516 Q869.9063,665.5781 869.2813,665.5781 Q867.9375,665.5781 867.25,666.6484 Q866.5625,667.7188 866.5625,669.8125 Q866.5625,671.9063 867.25,672.9766 Q867.9375,674.0469 869.2813,674.0469 Q869.9063,674.0469 870.5,673.7734 Q871.0938,673.5 871.7188,672.9219 L871.7188,675.6406 Z "/><text fill="#000000" font-family="sans-serif" font-size="12" lengthAdjust="spacingAndGlyphs" textLength="80" x="889.25" y="674.1543">RandomUser</text><line style="stroke: #A80036; stroke-width: 1.5;" x1="810.5" x2="1015.5" y1="686" y2="686"/><text fill="#000000" font-family="sans-serif" font-size="11" lengthAdjust="spacingAndGlyphs" textLength="118" x="815.5" y="700.2104">private name : String</text><line style="stroke: #A80036; stroke-width: 1.5;" x1="810.5" x2="1015.5" y1="706.8047" y2="706.8047"/><text fill="#000000" font-family="sans-serif" font-size="11" lengthAdjust="spacingAndGlyphs" textLength="195" x="815.5" y="721.0151">public RandomUser(String, Button)</text><text fill="#000000" font-family="sans-serif" font-size="11" lengthAdjust="spacingAndGlyphs" textLength="89" x="815.5" y="733.8198">public void run()</text><!--link Controller to pcc--><path d="M431.8122,156.5761 C379.324,179.2595 317.8001,205.8477 265.8289,228.3076 " fill="none" id="Controller-pcc" style="stroke: #A80036; stroke-width: 1.0; stroke-dasharray: 7.0,7.0;"/><polygon fill="none" points="429.2022,150.0784,450.3381,148.57,434.7561,162.9297,429.2022,150.0784" style="stroke: #A80036; stroke-width: 1.0;"/><!--link pccstate to pcc--><path d="M124.2804,155.2495 C128.3632,173.2555 133.0343,193.8566 137.3638,212.9507 " fill="none" id="pccstate-pcc" style="stroke: #A80036; stroke-width: 1.0;"/><ellipse cx="138.9758" cy="220.0604" fill="#FFFFFF" rx="8" ry="8" style="stroke: #A80036; stroke-width: 1.0;"/><line style="stroke: #A80036; stroke-width: 1.0;" x1="137.2067" x2="140.7449" y1="212.2584" y2="227.8623"/><line style="stroke: #A80036; stroke-width: 1.0;" x1="146.7778" x2="131.1739" y1="218.2913" y2="221.8294"/><!--link pclstate to pcl--><path d="M799.3079,148.9029 C787.0182,174.6813 771.4716,207.2912 759.1092,233.2221 " fill="none" id="pclstate-pcl" style="stroke: #A80036; stroke-width: 1.0;"/><ellipse cx="756.0524" cy="239.6339" fill="#FFFFFF" rx="8" ry="8" style="stroke: #A80036; stroke-width: 1.0;"/><line style="stroke: #A80036; stroke-width: 1.0;" x1="759.4952" x2="752.6097" y1="232.4125" y2="246.8552"/><line style="stroke: #A80036; stroke-width: 1.0;" x1="763.2738" x2="748.8311" y1="243.0766" y2="236.1911"/><!--link tlstate to tl--><path d="M312.5639,163.7314 C326.9891,186.7048 343.2739,212.6398 356.6482,233.9397 " fill="none" id="tlstate-tl" style="stroke: #A80036; stroke-width: 1.0;"/><ellipse cx="360.5076" cy="240.0863" fill="#FFFFFF" rx="8" ry="8" style="stroke: #A80036; stroke-width: 1.0;"/><line style="stroke: #A80036; stroke-width: 1.0;" x1="356.2534" x2="364.7618" y1="233.3112" y2="246.8614"/><line style="stroke: #A80036; stroke-width: 1.0;" x1="367.2827" x2="353.7325" y1="235.8321" y2="244.3405"/><!--link Controller to tl--><path d="M508.1112,148.9029 C480.0069,178.023 443.4893,215.8604 417.3542,242.9402 " fill="none" id="Controller-tl" style="stroke: #A80036; stroke-width: 1.0;"/><polygon fill="#A80036" points="413.5758,246.8552,422.7039,243.1568,417.0479,243.2574,416.9473,237.6014,413.5758,246.8552" style="stroke: #A80036; stroke-width: 1.0;"/><!--link Controller to pcl--><path d="M597.4403,148.9029 C629.3997,178.1423 670.9657,216.1707 700.5887,243.2726 " fill="none" id="Controller-pcl" style="stroke: #A80036; stroke-width: 1.0;"/><polygon fill="#A80036" points="704.5045,246.8552,700.5641,237.829,700.8154,243.4802,695.1641,243.7315,704.5045,246.8552" style="stroke: #A80036; stroke-width: 1.0;"/><!--link Controller to pi--><path d="M550,148.9029 C550,173.3382 550,203.9117 550,229.1164 " fill="none" id="Controller-pi" style="stroke: #A80036; stroke-width: 1.0;"/><polygon fill="#A80036" points="550,234.4092,554,225.4092,550,229.4092,546,225.4092,550,234.4092" style="stroke: #A80036; stroke-width: 1.0;"/><!--link sb to Button--><path d="M913,473.3436 C913,485.7322 913,499.3525 913,512.1702 " fill="none" id="sb-Button" style="stroke: #A80036; stroke-width: 1.0; stroke-dasharray: 7.0,7.0;"/><polygon fill="none" points="920.0001,512.6248,913,532.6248,906.0001,512.6248,920.0001,512.6248" style="stroke: #A80036; stroke-width: 1.0;"/><!--link pi to sb--><path d="M620.8488,330.476 C624.2105,332.1298 627.6016,333.6503 631,335 C705.6556,364.6493 735.0457,331.1142 810,360 C827.1482,366.6086 844.2642,376.5458 859.4788,386.8726 " fill="none" id="pi-sb" style="stroke: #A80036; stroke-width: 1.0; stroke-dasharray: 7.0,7.0;"/><polygon fill="none" points="617.2636,336.4906,603.2764,320.5734,624.1369,324.2939,617.2636,336.4906" style="stroke: #A80036; stroke-width: 1.0;"/><!--link sb to sbs--><path d="M1012.7184,430 C1019.2322,430 1025.746,430 1032.2598,430 " fill="none" id="sb-sbs" style="stroke: #A80036; stroke-width: 1.0;"/><ellipse cx="1005.5195" cy="429.9999" fill="#FFFFFF" rx="8" ry="8" style="stroke: #A80036; stroke-width: 1.0;"/><line style="stroke: #A80036; stroke-width: 1.0;" x1="1013.5195" x2="997.5195" y1="429.9998" y2="430"/><line style="stroke: #A80036; stroke-width: 1.0;" x1="1005.5196" x2="1005.5194" y1="437.9999" y2="421.9999"/><!--link pcl to spcl--><path d="M711.9207,326.0012 C701.4322,345.5072 689.4352,367.8187 679.2495,386.7616 " fill="none" id="pcl-spcl" style="stroke: #A80036; stroke-width: 1.0; stroke-dasharray: 7.0,7.0;"/><polygon fill="none" points="705.7691,322.6605,721.4061,308.3607,718.0996,329.2907,705.7691,322.6605" style="stroke: #A80036; stroke-width: 1.0;"/><!--link tl to stl--><path d="M384,328.4282 C384,347.3416 384,368.5999 384,386.7616 " fill="none" id="tl-stl" style="stroke: #A80036; stroke-width: 1.0; stroke-dasharray: 7.0,7.0;"/><polygon fill="none" points="377.0001,328.3607,384,308.3607,391.0001,328.3606,377.0001,328.3607" style="stroke: #A80036; stroke-width: 1.0;"/><!--link Button to ru--><path d="M913,599.2286 C913,616.0355 913,636.2166 913,653.8681 " fill="none" id="Button-ru" style="stroke: #A80036; stroke-width: 1.0;"/><polygon fill="#A80036" points="913,594.1276,909,603.1276,913,599.1276,917,603.1276,913,594.1276" style="stroke: #A80036; stroke-width: 1.0;"/><!--
@startuml

package com.traffic_lights.controller {
  interface Controller {
    void addTrafficLights(TrafficLights,String);
    void addPedestrianCrossingLights(PedestrianCrossingLights, String);
    void addPedestrianInput(PedestrianInput, String);

  }


  class "PedestrianCrossingController" as pcc {
    private state : State

    public PedestrianCrossingController ()
    public void run()
    private void wait(int)
  }

  enum "State" as pccstate {
        CarsCrossing,
        TransitionCarsToPedestrains,
        PedestriansCrossing,
        TransitionPedestriansToCars
  }

  pcc .up.|> Controller
  pcc +-up- pccstate

  enum "State" as pclstate {
        Red,
        Greem,
        Off
  }

  interface "PedestrianCrossingLights" as pcl {
    void turn(State);
  }

  pcl +-up- pclstate

  enum "State" as tlstate {
        Red,
        Green,
        Yellow,
        RedYellow,
        Off,
        Flash
   }


  interface "TrafficLights" as tl {
    void turn(State);
  }

  tl +-up- tlstate

  interface "PedestrianInput" as pi {

    boolean isSet();
    void resume();
    void pause();
  }

  Controller - -> tl
  Controller - -> pcl
  Controller - -> pi
}

package com.traffic_lights.input {
  interface Button {
    void push();

  }

  class "SimpleButton" as sb {
    private name : String
    private state : State

    public SimpleButton (String)
  }

  enum "State" as sbs {
        Pushed,
        Resumed,
        Paused
  }

  sb .down.|> Button
  sb .up.|> pi
  sb +-right- sbs
}

package com.traffic_lights.view {
  class "SimplePedestrianCrossingLights" as spcl {
    private name : String
    private state : PedestrianCrossingLights.State

    public SimplePedestrianCrossingLights(String)
  }

  spcl .up.|> pcl

  class "SimpleTrafficLights" as stl {
    private name : String
    private state : TrafficLights.State

    public SimpleTrafficLights(String)
  }

  stl .up.|> tl
}

package com.traffic_lights.user {
  class "RandomUser" as ru {
    private name : String

    public RandomUser(String, Button)
    public void run()
  }

  ru -up-> Button
}

@enduml

PlantUML version 1.2018.01(Sun Jan 28 19:08:22 CET 2018)
(APACHE source distribution)
Java Runtime: OpenJDK Runtime Environment
JVM: OpenJDK 64-Bit Server VM
Java Version: 1.8.0_172-b11
Operating System: Linux
OS Version: 4.16.10-1-ARCH
Default Encoding: UTF-8
Language: de
Country: DE
--></g></svg>