<?xml version="1.0" encoding="UTF-8" standalone="no"?><svg xmlns="http://www.w3.org/2000/svg" xmlns:xlink="http://www.w3.org/1999/xlink" contentScriptType="application/ecmascript" contentStyleType="text/css" height="760px" preserveAspectRatio="none" style="width:1133px;height:760px;" version="1.1" viewBox="0 0 1133 760" width="1133px" zoomAndPan="magnify"><defs><filter height="300%" id="f6l1jy7x77r2z" width="300%" x="-1" y="-1"><feGaussianBlur result="blurOut" stdDeviation="2.0"/><feColorMatrix in="blurOut" result="blurOut2" type="matrix" values="0 0 0 0 0 0 0 0 0 0 0 0 0 0 0 0 0 0 .4 0"/><feOffset dx="4.0" dy="4.0" in="blurOut2" result="blurOut3"/><feBlend in="SourceGraphic" in2="blurOut3" mode="normal"/></filter></defs><g><!--cluster com.traffic_lights.controller--><polygon fill="#FFFFFF" filter="url(#f6l1jy7x77r2z)" points="14,16,237,16,244,38.2969,897,38.2969,897,335,14,335,14,16" style="stroke: #000000; stroke-width: 1.5;"/><line style="stroke: #000000; stroke-width: 1.5;" x1="14" x2="244" y1="38.2969" y2="38.2969"/><text fill="#000000" font-family="sans-serif" font-size="14" font-weight="bold" lengthAdjust="spacingAndGlyphs" textLength="217" x="18" y="30.9951">com.traffic_lights.controller</text><!--cluster com.traffic_lights.input--><polygon fill="#FFFFFF" filter="url(#f6l1jy7x77r2z)" points="822,360,1008,360,1015,382.2969,1111,382.2969,1111,602,822,602,822,360" style="stroke: #000000; stroke-width: 1.5;"/><line style="stroke: #000000; stroke-width: 1.5;" x1="822" x2="1015" y1="382.2969" y2="382.2969"/><text fill="#000000" font-family="sans-serif" font-size="14" font-weight="bold" lengthAdjust="spacingAndGlyphs" textLength="180" x="826" y="374.9951">com.traffic_lights.input</text><!--cluster com.traffic_lights.view--><polygon fill="#FFFFFF" filter="url(#f6l1jy7x77r2z)" points="277,360,460,360,467,382.2969,803,382.2969,803,481,277,481,277,360" style="stroke: #000000; stroke-width: 1.5;"/><line style="stroke: #000000; stroke-width: 1.5;" x1="277" x2="467" y1="382.2969" y2="382.2969"/><text fill="#000000" font-family="sans-serif" font-size="14" font-weight="bold" lengthAdjust="spacingAndGlyphs" textLength="177" x="281" y="374.9951">com.traffic_lights.view</text><!--cluster com.traffic_lights.user--><polygon fill="#FFFFFF" filter="url(#f6l1jy7x77r2z)" points="802,627,984,627,991,649.2969,1026,649.2969,1026,748,802,748,802,627" style="stroke: #000000; stroke-width: 1.5;"/><line style="stroke: #000000; stroke-width: 1.5;" x1="802" x2="991" y1="649.2969" y2="649.2969"/><text fill="#000000" font-family="sans-serif" font-size="14" font-weight="bold" lengthAdjust="spacingAndGlyphs" textLength="176" x="806" y="641.9951">com.traffic_lights.user</text><!--class Controller--><rect fill="#FEFECE" filter="url(#f6l1jy7x77r2z)" height="86.4141" id="Controller" style="stroke: #A80036; stroke-width: 1.5;" width="440" x="348" y="62.5"/><ellipse cx="535.25" cy="78.5" fill="#B4A7E5" rx="11" ry="11" style="stroke: #A80036; stroke-width: 1.0;"/><path d="M531.1719,74.2656 L531.1719,72.1094 L538.5625,72.1094 L538.5625,74.2656 L536.0938,74.2656 L536.0938,82.3438 L538.5625,82.3438 L538.5625,84.5 L531.1719,84.5 L531.1719,82.3438 L533.6406,82.3438 L533.6406,74.2656 L531.1719,74.2656 Z "/><text fill="#000000" font-family="sans-serif" font-size="12" font-style="italic" lengthAdjust="spacingAndGlyphs" textLength="57" x="555.75" y="82.6543">Controller</text><line style="stroke: #A80036; stroke-width: 1.5;" x1="349" x2="787" y1="94.5" y2="94.5"/><line style="stroke: #A80036; stroke-width: 1.5;" x1="349" x2="787" y1="102.5" y2="102.5"/><text fill="#000000" font-family="sans-serif" font-size="11" lengthAdjust="spacingAndGlyphs" textLength="273" x="354" y="116.7104">public void addTrafficLights(TrafficLights,String);</text><text fill="#000000" font-family="sans-serif" font-size="11" lengthAdjust="spacingAndGlyphs" textLength="428" x="354" y="129.5151">public void addPedestrianCrossingLights(PedestrianCrossingLights, String);</text><text fill="#000000" font-family="sans-serif" font-size="11" lengthAdjust="spacingAndGlyphs" textLength="314" x="354" y="142.3198">public void addPedestrianInput(PedestrianInput, String);</text><!--class pcc--><rect fill="#FEFECE" filter="url(#f6l1jy7x77r2z)" height="99.2188" id="pcc" style="stroke: #A80036; stroke-width: 1.5;" width="227" x="33.5" y="228"/><ellipse cx="53.9" cy="244" fill="#ADD1B2" rx="11" ry="11" style="stroke: #A80036; stroke-width: 1.0;"/><path d="M56.8688,249.6406 Q56.2906,249.9375 55.65,250.0859 Q55.0094,250.2344 54.3063,250.2344 Q51.8063,250.2344 50.4859,248.5859 Q49.1656,246.9375 49.1656,243.8125 Q49.1656,240.6875 50.4859,239.0313 Q51.8063,237.375 54.3063,237.375 Q55.0094,237.375 55.6578,237.5313 Q56.3063,237.6875 56.8688,237.9844 L56.8688,240.7031 Q56.2438,240.125 55.65,239.8516 Q55.0563,239.5781 54.4313,239.5781 Q53.0875,239.5781 52.4,240.6484 Q51.7125,241.7188 51.7125,243.8125 Q51.7125,245.9063 52.4,246.9766 Q53.0875,248.0469 54.4313,248.0469 Q55.0563,248.0469 55.65,247.7734 Q56.2438,247.5 56.8688,246.9219 L56.8688,249.6406 Z "/><text fill="#000000" font-family="sans-serif" font-size="12" lengthAdjust="spacingAndGlyphs" textLength="183" x="69.1" y="248.1543">PedestrianCrossingController</text><line style="stroke: #A80036; stroke-width: 1.5;" x1="34.5" x2="259.5" y1="260" y2="260"/><text fill="#000000" font-family="sans-serif" font-size="11" lengthAdjust="spacingAndGlyphs" textLength="111" x="39.5" y="274.2104">private state : State</text><line style="stroke: #A80036; stroke-width: 1.5;" x1="34.5" x2="259.5" y1="280.8047" y2="280.8047"/><text fill="#000000" font-family="sans-serif" font-size="11" lengthAdjust="spacingAndGlyphs" textLength="215" x="39.5" y="295.0151">public PedestrianCrossingController ()</text><text fill="#000000" font-family="sans-serif" font-size="11" lengthAdjust="spacingAndGlyphs" textLength="89" x="39.5" y="307.8198">public void run()</text><text fill="#000000" font-family="sans-serif" font-size="11" lengthAdjust="spacingAndGlyphs" textLength="113" x="39.5" y="320.6245">private void wait(int)</text><!--class pccstate--><rect fill="#FEFECE" filter="url(#f6l1jy7x77r2z)" height="99.2188" id="pccstate" style="stroke: #A80036; stroke-width: 1.5;" width="182" x="22" y="56"/><ellipse cx="91.75" cy="72" fill="#EB937F" rx="11" ry="11" style="stroke: #A80036; stroke-width: 1.0;"/><path d="M95.8594,78 L88.1406,78 L88.1406,65.6094 L95.8594,65.6094 L95.8594,67.7656 L90.5938,67.7656 L90.5938,70.4375 L95.3594,70.4375 L95.3594,72.5938 L90.5938,72.5938 L90.5938,75.8438 L95.8594,75.8438 L95.8594,78 Z "/><text fill="#000000" font-family="sans-serif" font-size="12" lengthAdjust="spacingAndGlyphs" textLength="34" x="112.25" y="76.1543">State</text><line style="stroke: #A80036; stroke-width: 1.5;" x1="23" x2="203" y1="88" y2="88"/><text fill="#000000" font-family="sans-serif" font-size="11" lengthAdjust="spacingAndGlyphs" textLength="82" x="28" y="102.2104">CarsCrossing,</text><text fill="#000000" font-family="sans-serif" font-size="11" lengthAdjust="spacingAndGlyphs" textLength="170" x="28" y="115.0151">TransitionCarsToPedestrains,</text><text fill="#000000" font-family="sans-serif" font-size="11" lengthAdjust="spacingAndGlyphs" textLength="123" x="28" y="127.8198">PedestriansCrossing,</text><text fill="#000000" font-family="sans-serif" font-size="11" lengthAdjust="spacingAndGlyphs" textLength="166" x="28" y="140.6245">TransitionPedestriansToCars</text><line style="stroke: #A80036; stroke-width: 1.5;" x1="23" x2="203" y1="147.2188" y2="147.2188"/><!--class pclstate--><rect fill="#FEFECE" filter="url(#f6l1jy7x77r2z)" height="86.4141" id="pclstate" style="stroke: #A80036; stroke-width: 1.5;" width="66" x="823" y="62.5"/><ellipse cx="838" cy="78.5" fill="#EB937F" rx="11" ry="11" style="stroke: #A80036; stroke-width: 1.0;"/><path d="M842.1094,84.5 L834.3906,84.5 L834.3906,72.1094 L842.1094,72.1094 L842.1094,74.2656 L836.8438,74.2656 L836.8438,76.9375 L841.6094,76.9375 L841.6094,79.0938 L836.8438,79.0938 L836.8438,82.3438 L842.1094,82.3438 L842.1094,84.5 Z "/><text fill="#000000" font-family="sans-serif" font-size="12" lengthAdjust="spacingAndGlyphs" textLength="34" x="852" y="82.6543">State</text><line style="stroke: #A80036; stroke-width: 1.5;" x1="824" x2="888" y1="94.5" y2="94.5"/><text fill="#000000" font-family="sans-serif" font-size="11" lengthAdjust="spacingAndGlyphs" textLength="25" x="829" y="108.7104">Red,</text><text fill="#000000" font-family="sans-serif" font-size="11" lengthAdjust="spacingAndGlyphs" textLength="43" x="829" y="121.5151">Greem,</text><text fill="#000000" font-family="sans-serif" font-size="11" lengthAdjust="spacingAndGlyphs" textLength="17" x="829" y="134.3198">Off</text><line style="stroke: #A80036; stroke-width: 1.5;" x1="824" x2="888" y1="140.9141" y2="140.9141"/><!--class pcl--><rect fill="#FEFECE" filter="url(#f6l1jy7x77r2z)" height="60.8047" id="pcl" style="stroke: #A80036; stroke-width: 1.5;" width="180" x="672" y="247"/><ellipse cx="687" cy="263" fill="#B4A7E5" rx="11" ry="11" style="stroke: #A80036; stroke-width: 1.0;"/><path d="M682.9219,258.7656 L682.9219,256.6094 L690.3125,256.6094 L690.3125,258.7656 L687.8438,258.7656 L687.8438,266.8438 L690.3125,266.8438 L690.3125,269 L682.9219,269 L682.9219,266.8438 L685.3906,266.8438 L685.3906,258.7656 L682.9219,258.7656 Z "/><text fill="#000000" font-family="sans-serif" font-size="12" font-style="italic" lengthAdjust="spacingAndGlyphs" textLength="148" x="701" y="267.1543">PedestrianCrossingLights</text><line style="stroke: #A80036; stroke-width: 1.5;" x1="673" x2="851" y1="279" y2="279"/><line style="stroke: #A80036; stroke-width: 1.5;" x1="673" x2="851" y1="287" y2="287"/><text fill="#000000" font-family="sans-serif" font-size="11" lengthAdjust="spacingAndGlyphs" textLength="127" x="678" y="301.2104">public void turn(State);</text><!--class tlstate--><rect fill="#FEFECE" filter="url(#f6l1jy7x77r2z)" height="124.8281" id="tlstate" style="stroke: #A80036; stroke-width: 1.5;" width="73" x="239.5" y="43"/><ellipse cx="257.65" cy="59" fill="#EB937F" rx="11" ry="11" style="stroke: #A80036; stroke-width: 1.0;"/><path d="M261.7594,65 L254.0406,65 L254.0406,52.6094 L261.7594,52.6094 L261.7594,54.7656 L256.4938,54.7656 L256.4938,57.4375 L261.2594,57.4375 L261.2594,59.5938 L256.4938,59.5938 L256.4938,62.8438 L261.7594,62.8438 L261.7594,65 Z "/><text fill="#000000" font-family="sans-serif" font-size="12" lengthAdjust="spacingAndGlyphs" textLength="34" x="272.35" y="63.1543">State</text><line style="stroke: #A80036; stroke-width: 1.5;" x1="240.5" x2="311.5" y1="75" y2="75"/><text fill="#000000" font-family="sans-serif" font-size="11" lengthAdjust="spacingAndGlyphs" textLength="25" x="245.5" y="89.2104">Red,</text><text fill="#000000" font-family="sans-serif" font-size="11" lengthAdjust="spacingAndGlyphs" textLength="39" x="245.5" y="102.0151">Green,</text><text fill="#000000" font-family="sans-serif" font-size="11" lengthAdjust="spacingAndGlyphs" textLength="40" x="245.5" y="114.8198">Yellow,</text><text fill="#000000" font-family="sans-serif" font-size="11" lengthAdjust="spacingAndGlyphs" textLength="61" x="245.5" y="127.6245">RedYellow,</text><text fill="#000000" font-family="sans-serif" font-size="11" lengthAdjust="spacingAndGlyphs" textLength="21" x="245.5" y="140.4292">Off,</text><text fill="#000000" font-family="sans-serif" font-size="11" lengthAdjust="spacingAndGlyphs" textLength="30" x="245.5" y="153.2339">Flash</text><line style="stroke: #A80036; stroke-width: 1.5;" x1="240.5" x2="311.5" y1="159.8281" y2="159.8281"/><!--class tl--><rect fill="#FEFECE" filter="url(#f6l1jy7x77r2z)" height="60.8047" id="tl" style="stroke: #A80036; stroke-width: 1.5;" width="139" x="315.5" y="247"/><ellipse cx="345.8" cy="263" fill="#B4A7E5" rx="11" ry="11" style="stroke: #A80036; stroke-width: 1.0;"/><path d="M341.7219,258.7656 L341.7219,256.6094 L349.1125,256.6094 L349.1125,258.7656 L346.6438,258.7656 L346.6438,266.8438 L349.1125,266.8438 L349.1125,269 L341.7219,269 L341.7219,266.8438 L344.1906,266.8438 L344.1906,258.7656 L341.7219,258.7656 Z "/><text fill="#000000" font-family="sans-serif" font-size="12" font-style="italic" lengthAdjust="spacingAndGlyphs" textLength="73" x="363.2" y="267.1543">TrafficLights</text><line style="stroke: #A80036; stroke-width: 1.5;" x1="316.5" x2="453.5" y1="279" y2="279"/><line style="stroke: #A80036; stroke-width: 1.5;" x1="316.5" x2="453.5" y1="287" y2="287"/><text fill="#000000" font-family="sans-serif" font-size="11" lengthAdjust="spacingAndGlyphs" textLength="127" x="321.5" y="301.2104">public void turn(State);</text><!--class pi--><rect fill="#FEFECE" filter="url(#f6l1jy7x77r2z)" height="86.4141" id="pi" style="stroke: #A80036; stroke-width: 1.5;" width="137" x="499.5" y="234.5"/><ellipse cx="519.45" cy="250.5" fill="#B4A7E5" rx="11" ry="11" style="stroke: #A80036; stroke-width: 1.0;"/><path d="M515.3719,246.2656 L515.3719,244.1094 L522.7625,244.1094 L522.7625,246.2656 L520.2938,246.2656 L520.2938,254.3438 L522.7625,254.3438 L522.7625,256.5 L515.3719,256.5 L515.3719,254.3438 L517.8406,254.3438 L517.8406,246.2656 L515.3719,246.2656 Z "/><text fill="#000000" font-family="sans-serif" font-size="12" font-style="italic" lengthAdjust="spacingAndGlyphs" textLength="94" x="534.55" y="254.6543">PedestrianInput</text><line style="stroke: #A80036; stroke-width: 1.5;" x1="500.5" x2="635.5" y1="266.5" y2="266.5"/><line style="stroke: #A80036; stroke-width: 1.5;" x1="500.5" x2="635.5" y1="274.5" y2="274.5"/><text fill="#000000" font-family="sans-serif" font-size="11" lengthAdjust="spacingAndGlyphs" textLength="125" x="505.5" y="288.7104">public boolean isSet();</text><text fill="#000000" font-family="sans-serif" font-size="11" lengthAdjust="spacingAndGlyphs" textLength="118" x="505.5" y="301.5151">public void resume();</text><text fill="#000000" font-family="sans-serif" font-size="11" lengthAdjust="spacingAndGlyphs" textLength="109" x="505.5" y="314.3198">public void pause();</text><!--class Button--><rect fill="#FEFECE" filter="url(#f6l1jy7x77r2z)" height="60.8047" id="Button" style="stroke: #A80036; stroke-width: 1.5;" width="114" x="857" y="533"/><ellipse cx="890.9" cy="549" fill="#B4A7E5" rx="11" ry="11" style="stroke: #A80036; stroke-width: 1.0;"/><path d="M886.8219,544.7656 L886.8219,542.6094 L894.2125,542.6094 L894.2125,544.7656 L891.7438,544.7656 L891.7438,552.8438 L894.2125,552.8438 L894.2125,555 L886.8219,555 L886.8219,552.8438 L889.2906,552.8438 L889.2906,544.7656 L886.8219,544.7656 Z "/><text fill="#000000" font-family="sans-serif" font-size="12" font-style="italic" lengthAdjust="spacingAndGlyphs" textLength="40" x="909.1" y="553.1543">Button</text><line style="stroke: #A80036; stroke-width: 1.5;" x1="858" x2="970" y1="565" y2="565"/><line style="stroke: #A80036; stroke-width: 1.5;" x1="858" x2="970" y1="573" y2="573"/><text fill="#000000" font-family="sans-serif" font-size="11" lengthAdjust="spacingAndGlyphs" textLength="102" x="863" y="587.2104">public void push();</text><!--class sb--><rect fill="#FEFECE" filter="url(#f6l1jy7x77r2z)" height="86.4141" id="sb" style="stroke: #A80036; stroke-width: 1.5;" width="169" x="829.5" y="387"/><ellipse cx="868.8" cy="403" fill="#ADD1B2" rx="11" ry="11" style="stroke: #A80036; stroke-width: 1.0;"/><path d="M871.7688,408.6406 Q871.1906,408.9375 870.55,409.0859 Q869.9094,409.2344 869.2063,409.2344 Q866.7063,409.2344 865.3859,407.5859 Q864.0656,405.9375 864.0656,402.8125 Q864.0656,399.6875 865.3859,398.0313 Q866.7063,396.375 869.2063,396.375 Q869.9094,396.375 870.5578,396.5313 Q871.2063,396.6875 871.7688,396.9844 L871.7688,399.7031 Q871.1438,399.125 870.55,398.8516 Q869.9563,398.5781 869.3313,398.5781 Q867.9875,398.5781 867.3,399.6484 Q866.6125,400.7188 866.6125,402.8125 Q866.6125,404.9063 867.3,405.9766 Q867.9875,407.0469 869.3313,407.0469 Q869.9563,407.0469 870.55,406.7734 Q871.1438,406.5 871.7688,405.9219 L871.7688,408.6406 Z "/><text fill="#000000" font-family="sans-serif" font-size="12" lengthAdjust="spacingAndGlyphs" textLength="83" x="888.2" y="407.1543">SimpleButton</text><line style="stroke: #A80036; stroke-width: 1.5;" x1="830.5" x2="997.5" y1="419" y2="419"/><text fill="#000000" font-family="sans-serif" font-size="11" lengthAdjust="spacingAndGlyphs" textLength="118" x="835.5" y="433.2104">private name : String</text><text fill="#000000" font-family="sans-serif" font-size="11" lengthAdjust="spacingAndGlyphs" textLength="111" x="835.5" y="446.0151">private state : State</text><line style="stroke: #A80036; stroke-width: 1.5;" x1="830.5" x2="997.5" y1="452.6094" y2="452.6094"/><text fill="#000000" font-family="sans-serif" font-size="11" lengthAdjust="spacingAndGlyphs" textLength="157" x="835.5" y="466.8198">public SimpleButton (String)</text><!--class sbs--><rect fill="#FEFECE" filter="url(#f6l1jy7x77r2z)" height="86.4141" id="sbs" style="stroke: #A80036; stroke-width: 1.5;" width="69" x="1033.5" y="387"/><ellipse cx="1049.85" cy="403" fill="#EB937F" rx="11" ry="11" style="stroke: #A80036; stroke-width: 1.0;"/><path d="M1053.9594,409 L1046.2406,409 L1046.2406,396.6094 L1053.9594,396.6094 L1053.9594,398.7656 L1048.6938,398.7656 L1048.6938,401.4375 L1053.4594,401.4375 L1053.4594,403.5938 L1048.6938,403.5938 L1048.6938,406.8438 L1053.9594,406.8438 L1053.9594,409 Z "/><text fill="#000000" font-family="sans-serif" font-size="12" lengthAdjust="spacingAndGlyphs" textLength="34" x="1064.15" y="407.1543">State</text><line style="stroke: #A80036; stroke-width: 1.5;" x1="1034.5" x2="1101.5" y1="419" y2="419"/><text fill="#000000" font-family="sans-serif" font-size="11" lengthAdjust="spacingAndGlyphs" textLength="46" x="1039.5" y="433.2104">Pushed,</text><text fill="#000000" font-family="sans-serif" font-size="11" lengthAdjust="spacingAndGlyphs" textLength="57" x="1039.5" y="446.0151">Resumed,</text><text fill="#000000" font-family="sans-serif" font-size="11" lengthAdjust="spacingAndGlyphs" textLength="42" x="1039.5" y="458.8198">Paused</text><line style="stroke: #A80036; stroke-width: 1.5;" x1="1034.5" x2="1101.5" y1="465.4141" y2="465.4141"/><!--class spcl--><rect fill="#FEFECE" filter="url(#f6l1jy7x77r2z)" height="86.4141" id="spcl" style="stroke: #A80036; stroke-width: 1.5;" width="275" x="519.5" y="387"/><ellipse cx="553.85" cy="403" fill="#ADD1B2" rx="11" ry="11" style="stroke: #A80036; stroke-width: 1.0;"/><path d="M556.8188,408.6406 Q556.2406,408.9375 555.6,409.0859 Q554.9594,409.2344 554.2563,409.2344 Q551.7563,409.2344 550.4359,407.5859 Q549.1156,405.9375 549.1156,402.8125 Q549.1156,399.6875 550.4359,398.0313 Q551.7563,396.375 554.2563,396.375 Q554.9594,396.375 555.6078,396.5313 Q556.2563,396.6875 556.8188,396.9844 L556.8188,399.7031 Q556.1938,399.125 555.6,398.8516 Q555.0063,398.5781 554.3813,398.5781 Q553.0375,398.5781 552.35,399.6484 Q551.6625,400.7188 551.6625,402.8125 Q551.6625,404.9063 552.35,405.9766 Q553.0375,407.0469 554.3813,407.0469 Q555.0063,407.0469 555.6,406.7734 Q556.1938,406.5 556.8188,405.9219 L556.8188,408.6406 Z "/><text fill="#000000" font-family="sans-serif" font-size="12" lengthAdjust="spacingAndGlyphs" textLength="200" x="572.15" y="407.1543">SimplePedestrianCrossingLights</text><line style="stroke: #A80036; stroke-width: 1.5;" x1="520.5" x2="793.5" y1="419" y2="419"/><text fill="#000000" font-family="sans-serif" font-size="11" lengthAdjust="spacingAndGlyphs" textLength="118" x="525.5" y="433.2104">private name : String</text><text fill="#000000" font-family="sans-serif" font-size="11" lengthAdjust="spacingAndGlyphs" textLength="261" x="525.5" y="446.0151">private state : PedestrianCrossingLights.State</text><line style="stroke: #A80036; stroke-width: 1.5;" x1="520.5" x2="793.5" y1="452.6094" y2="452.6094"/><text fill="#000000" font-family="sans-serif" font-size="11" lengthAdjust="spacingAndGlyphs" textLength="263" x="525.5" y="466.8198">public SimplePedestrianCrossingLights(String)</text><!--class stl--><rect fill="#FEFECE" filter="url(#f6l1jy7x77r2z)" height="86.4141" id="stl" style="stroke: #A80036; stroke-width: 1.5;" width="199" x="285.5" y="387"/><ellipse cx="323.45" cy="403" fill="#ADD1B2" rx="11" ry="11" style="stroke: #A80036; stroke-width: 1.0;"/><path d="M326.4188,408.6406 Q325.8406,408.9375 325.2,409.0859 Q324.5594,409.2344 323.8563,409.2344 Q321.3563,409.2344 320.0359,407.5859 Q318.7156,405.9375 318.7156,402.8125 Q318.7156,399.6875 320.0359,398.0313 Q321.3563,396.375 323.8563,396.375 Q324.5594,396.375 325.2078,396.5313 Q325.8563,396.6875 326.4188,396.9844 L326.4188,399.7031 Q325.7938,399.125 325.2,398.8516 Q324.6063,398.5781 323.9813,398.5781 Q322.6375,398.5781 321.95,399.6484 Q321.2625,400.7188 321.2625,402.8125 Q321.2625,404.9063 321.95,405.9766 Q322.6375,407.0469 323.9813,407.0469 Q324.6063,407.0469 325.2,406.7734 Q325.7938,406.5 326.4188,405.9219 L326.4188,408.6406 Z "/><text fill="#000000" font-family="sans-serif" font-size="12" lengthAdjust="spacingAndGlyphs" textLength="116" x="342.55" y="407.1543">SimpleTrafficLights</text><line style="stroke: #A80036; stroke-width: 1.5;" x1="286.5" x2="483.5" y1="419" y2="419"/><text fill="#000000" font-family="sans-serif" font-size="11" lengthAdjust="spacingAndGlyphs" textLength="118" x="291.5" y="433.2104">private name : String</text><text fill="#000000" font-family="sans-serif" font-size="11" lengthAdjust="spacingAndGlyphs" textLength="185" x="291.5" y="446.0151">private state : TrafficLights.State</text><line style="stroke: #A80036; stroke-width: 1.5;" x1="286.5" x2="483.5" y1="452.6094" y2="452.6094"/><text fill="#000000" font-family="sans-serif" font-size="11" lengthAdjust="spacingAndGlyphs" textLength="187" x="291.5" y="466.8198">public SimpleTrafficLights(String)</text><!--class ru--><rect fill="#FEFECE" filter="url(#f6l1jy7x77r2z)" height="86.4141" id="ru" style="stroke: #A80036; stroke-width: 1.5;" width="207" x="810.5" y="654"/><ellipse cx="869.75" cy="670" fill="#ADD1B2" rx="11" ry="11" style="stroke: #A80036; stroke-width: 1.0;"/><path d="M872.7188,675.6406 Q872.1406,675.9375 871.5,676.0859 Q870.8594,676.2344 870.1563,676.2344 Q867.6563,676.2344 866.3359,674.5859 Q865.0156,672.9375 865.0156,669.8125 Q865.0156,666.6875 866.3359,665.0313 Q867.6563,663.375 870.1563,663.375 Q870.8594,663.375 871.5078,663.5313 Q872.1563,663.6875 872.7188,663.9844 L872.7188,666.7031 Q872.0938,666.125 871.5,665.8516 Q870.9063,665.5781 870.2813,665.5781 Q868.9375,665.5781 868.25,666.6484 Q867.5625,667.7188 867.5625,669.8125 Q867.5625,671.9063 868.25,672.9766 Q868.9375,674.0469 870.2813,674.0469 Q870.9063,674.0469 871.5,673.7734 Q872.0938,673.5 872.7188,672.9219 L872.7188,675.6406 Z "/><text fill="#000000" font-family="sans-serif" font-size="12" lengthAdjust="spacingAndGlyphs" textLength="80" x="890.25" y="674.1543">RandomUser</text><line style="stroke: #A80036; stroke-width: 1.5;" x1="811.5" x2="1016.5" y1="686" y2="686"/><text fill="#000000" font-family="sans-serif" font-size="11" lengthAdjust="spacingAndGlyphs" textLength="118" x="816.5" y="700.2104">private name : String</text><line style="stroke: #A80036; stroke-width: 1.5;" x1="811.5" x2="1016.5" y1="706.8047" y2="706.8047"/><text fill="#000000" font-family="sans-serif" font-size="11" lengthAdjust="spacingAndGlyphs" textLength="195" x="816.5" y="721.0151">public RandomUser(String, Button)</text><text fill="#000000" font-family="sans-serif" font-size="11" lengthAdjust="spacingAndGlyphs" textLength="89" x="816.5" y="733.8198">public void run()</text><!--link Controller to pcc--><path d="M443.7525,156.2614 C385.7679,179.9511 317.2257,207.9541 260.631,231.0759 " fill="none" id="Controller-pcc" style="stroke: #A80036; stroke-width: 1.0; stroke-dasharray: 7.0,7.0;"/><polygon fill="none" points="441.4168,149.6541,462.5787,148.57,446.7117,162.6142,441.4168,149.6541" style="stroke: #A80036; stroke-width: 1.0;"/><!--link pccstate to pcc--><path d="M122.8342,155.2495 C126.3935,173.2555 130.4658,193.8566 134.2402,212.9507 " fill="none" id="pccstate-pcc" style="stroke: #A80036; stroke-width: 1.0;"/><ellipse cx="135.6365" cy="220.0142" fill="#FFFFFF" rx="8" ry="8" style="stroke: #A80036; stroke-width: 1.0;"/><line style="stroke: #A80036; stroke-width: 1.0;" x1="134.0851" x2="137.1879" y1="212.166" y2="227.8623"/><line style="stroke: #A80036; stroke-width: 1.0;" x1="143.4846" x2="127.7884" y1="218.4628" y2="221.5656"/><!--link pclstate to pcl--><path d="M832.2798,148.9029 C818.1264,174.8007 800.2048,207.5933 786.0018,233.5818 " fill="none" id="pclstate-pcl" style="stroke: #A80036; stroke-width: 1.0;"/><ellipse cx="782.5842" cy="239.8351" fill="#FFFFFF" rx="8" ry="8" style="stroke: #A80036; stroke-width: 1.0;"/><line style="stroke: #A80036; stroke-width: 1.0;" x1="786.4207" x2="778.7477" y1="232.8151" y2="246.8552"/><line style="stroke: #A80036; stroke-width: 1.0;" x1="789.6043" x2="775.5641" y1="243.6716" y2="235.9986"/><!--link tlstate to tl--><path d="M312.5986,163.252 C327.2467,186.3664 343.8356,212.5434 357.4353,234.0035 " fill="none" id="tlstate-tl" style="stroke: #A80036; stroke-width: 1.0;"/><ellipse cx="361.1904" cy="239.929" fill="#FFFFFF" rx="8" ry="8" style="stroke: #A80036; stroke-width: 1.0;"/><line style="stroke: #A80036; stroke-width: 1.0;" x1="356.9081" x2="365.4727" y1="233.1716" y2="246.6863"/><line style="stroke: #A80036; stroke-width: 1.0;" x1="367.9477" x2="354.433" y1="235.6466" y2="244.2113"/><!--link Controller to tl--><path d="M521.8214,148.9029 C490.712,178.1423 450.2515,216.1707 421.4164,243.2726 " fill="none" id="Controller-tl" style="stroke: #A80036; stroke-width: 1.0;"/><polygon fill="#A80036" points="417.6046,246.8552,426.9021,243.6062,421.248,243.4309,421.4233,237.7768,417.6046,246.8552" style="stroke: #A80036; stroke-width: 1.0;"/><!--link Controller to pcl--><path d="M616.9544,148.9029 C649.9338,178.1423 692.8263,216.1707 723.3947,243.2726 " fill="none" id="Controller-pcl" style="stroke: #A80036; stroke-width: 1.0;"/><polygon fill="#A80036" points="727.4355,246.8552,723.355,237.8914,723.6943,243.5381,718.0476,243.8774,727.4355,246.8552" style="stroke: #A80036; stroke-width: 1.0;"/><!--link Controller to pi--><path d="M568,148.9029 C568,173.3382 568,203.9117 568,229.1164 " fill="none" id="Controller-pi" style="stroke: #A80036; stroke-width: 1.0;"/><polygon fill="#A80036" points="568,234.4092,572,225.4092,568,229.4092,564,225.4092,568,234.4092" style="stroke: #A80036; stroke-width: 1.0;"/><!--link sb to Button--><path d="M914,473.3436 C914,485.7322 914,499.3525 914,512.1702 " fill="none" id="sb-Button" style="stroke: #A80036; stroke-width: 1.0; stroke-dasharray: 7.0,7.0;"/><polygon fill="none" points="921.0001,512.6248,914,532.6248,907.0001,512.6248,921.0001,512.6248" style="stroke: #A80036; stroke-width: 1.0;"/><!--link pi to sb--><path d="M644.0059,330.235 C647.657,331.9692 651.3307,333.5707 655,335 C720.429,360.4874 745.7367,334.0912 811,360 C827.9804,366.741 844.973,376.6585 860.1199,386.9211 " fill="none" id="pi-sb" style="stroke: #A80036; stroke-width: 1.0; stroke-dasharray: 7.0,7.0;"/><polygon fill="none" points="640.4027,336.2463,626.0665,320.6426,647.0042,323.9004,640.4027,336.2463" style="stroke: #A80036; stroke-width: 1.0;"/><!--link sb to sbs--><path d="M1013.7184,430 C1020.2322,430 1026.746,430 1033.2598,430 " fill="none" id="sb-sbs" style="stroke: #A80036; stroke-width: 1.0;"/><ellipse cx="1006.5195" cy="429.9999" fill="#FFFFFF" rx="8" ry="8" style="stroke: #A80036; stroke-width: 1.0;"/><line style="stroke: #A80036; stroke-width: 1.0;" x1="1014.5195" x2="998.5195" y1="429.9998" y2="430"/><line style="stroke: #A80036; stroke-width: 1.0;" x1="1006.5196" x2="1006.5194" y1="437.9999" y2="421.9999"/><!--link pcl to spcl--><path d="M729.2274,325.0983 C715.651,344.8164 700.015,367.5258 686.7707,386.7616 " fill="none" id="pcl-spcl" style="stroke: #A80036; stroke-width: 1.0; stroke-dasharray: 7.0,7.0;"/><polygon fill="none" points="723.6441,320.8639,740.7517,308.3607,735.1751,328.8034,723.6441,320.8639" style="stroke: #A80036; stroke-width: 1.0;"/><!--link tl to stl--><path d="M385,328.4282 C385,347.3416 385,368.5999 385,386.7616 " fill="none" id="tl-stl" style="stroke: #A80036; stroke-width: 1.0; stroke-dasharray: 7.0,7.0;"/><polygon fill="none" points="378.0001,328.3607,385,308.3607,392.0001,328.3606,378.0001,328.3607" style="stroke: #A80036; stroke-width: 1.0;"/><!--link Button to ru--><path d="M914,599.2286 C914,616.0355 914,636.2166 914,653.8681 " fill="none" id="Button-ru" style="stroke: #A80036; stroke-width: 1.0;"/><polygon fill="#A80036" points="914,594.1276,910,603.1276,914,599.1276,918,603.1276,914,594.1276" style="stroke: #A80036; stroke-width: 1.0;"/><!--
@startuml

package com.traffic_lights.controller {
  interface Controller {
    public void addTrafficLights(TrafficLights,String);
    public void addPedestrianCrossingLights(PedestrianCrossingLights, String);
    public void addPedestrianInput(PedestrianInput, String);

  }


  class "PedestrianCrossingController" as pcc {
    private state : State

    public PedestrianCrossingController ()
    public void run()
    private void wait(int)
  }

  enum "State" as pccstate {
        CarsCrossing,
        TransitionCarsToPedestrains,
        PedestriansCrossing,
        TransitionPedestriansToCars
  }

  pcc .up.|> Controller
  pcc +-up- pccstate

  enum "State" as pclstate {
        Red,
        Greem,
        Off
  }

  interface "PedestrianCrossingLights" as pcl {
    public void turn(State);
  }

  pcl +-up- pclstate

  enum "State" as tlstate {
        Red,
        Green,
        Yellow,
        RedYellow,
        Off,
        Flash
   }


  interface "TrafficLights" as tl {
    public void turn(State);
  }

  tl +-up- tlstate

  interface "PedestrianInput" as pi {

    public boolean isSet();
    public void resume();
    public void pause();
  }

  Controller - -> tl
  Controller - -> pcl
  Controller - -> pi
}

package com.traffic_lights.input {
  interface Button {
    public void push();

  }

  class "SimpleButton" as sb {
    private name : String
    private state : State

    public SimpleButton (String)
  }

  enum "State" as sbs {
        Pushed,
        Resumed,
        Paused
  }

  sb .down.|> Button
  sb .up.|> pi
  sb +-right- sbs
}

package com.traffic_lights.view {
  class "SimplePedestrianCrossingLights" as spcl {
    private name : String
    private state : PedestrianCrossingLights.State

    public SimplePedestrianCrossingLights(String)
  }

  spcl .up.|> pcl

  class "SimpleTrafficLights" as stl {
    private name : String
    private state : TrafficLights.State

    public SimpleTrafficLights(String)
  }

  stl .up.|> tl
}

package com.traffic_lights.user {
  class "RandomUser" as ru {
    private name : String

    public RandomUser(String, Button)
    public void run()
  }

  ru -up-> Button
}

@enduml

PlantUML version 1.2018.01(Sun Jan 28 19:08:22 CET 2018)
(APACHE source distribution)
Java Runtime: OpenJDK Runtime Environment
JVM: OpenJDK 64-Bit Server VM
Java Version: 1.8.0_172-b11
Operating System: Linux
OS Version: 4.16.10-1-ARCH
Default Encoding: UTF-8
Language: de
Country: DE
--></g></svg>