<?xml version="1.0" encoding="UTF-8" standalone="no"?><svg xmlns="http://www.w3.org/2000/svg" xmlns:xlink="http://www.w3.org/1999/xlink" contentScriptType="application/ecmascript" contentStyleType="text/css" height="215px" preserveAspectRatio="none" style="width:618px;height:215px;" version="1.1" viewBox="0 0 618 215" width="618px" zoomAndPan="magnify"><defs><filter height="300%" id="fnfo7xnbc4gxi" width="300%" x="-1" y="-1"><feGaussianBlur result="blurOut" stdDeviation="2.0"/><feColorMatrix in="blurOut" result="blurOut2" type="matrix" values="0 0 0 0 0 0 0 0 0 0 0 0 0 0 0 0 0 0 .4 0"/><feOffset dx="4.0" dy="4.0" in="blurOut2" result="blurOut3"/><feBlend in="SourceGraphic" in2="blurOut3" mode="normal"/></filter></defs><g><!--cluster lf1--><rect fill="#FFFFFF" filter="url(#fnfo7xnbc4gxi)" height="81" style="stroke: #000000; stroke-width: 1.5;" width="301" x="14" y="16"/><text fill="#000000" font-family="sans-serif" font-size="14" font-weight="bold" lengthAdjust="spacingAndGlyphs" textLength="144" x="92.5" y="30.9951">Logical Filesystem</text><!--cluster pf1--><path d="M28,117 C28,107 112.5,107 112.5,107 C112.5,107 197,107 197,117 L197,193 C197,203 112.5,203 112.5,203 C112.5,203 28,203 28,193 L28,117 " fill="#FFFFFF" filter="url(#fnfo7xnbc4gxi)" style="stroke: #000000; stroke-width: 1.5;"/><path d="M28,117 C28,127 112.5,127 112.5,127 C112.5,127 197,127 197,117 " fill="none" style="stroke: #000000; stroke-width: 1.5;"/><text fill="#000000" font-family="sans-serif" font-size="14" font-weight="bold" lengthAdjust="spacingAndGlyphs" textLength="153" x="36" y="140.9951">Physical Filesystem</text><!--cluster lf2--><rect fill="#FFFFFF" filter="url(#fnfo7xnbc4gxi)" height="81" style="stroke: #000000; stroke-width: 1.5;" width="273" x="334" y="16"/><text fill="#000000" font-family="sans-serif" font-size="14" font-weight="bold" lengthAdjust="spacingAndGlyphs" textLength="144" x="398.5" y="30.9951">Logical Filesystem</text><!--cluster pf2--><path d="M377,117 C377,107 461.5,107 461.5,107 C461.5,107 546,107 546,117 L546,193 C546,203 461.5,203 461.5,203 C461.5,203 377,203 377,193 L377,117 " fill="#FFFFFF" filter="url(#fnfo7xnbc4gxi)" style="stroke: #000000; stroke-width: 1.5;"/><path d="M377,117 C377,127 461.5,127 461.5,127 C461.5,127 546,127 546,117 " fill="none" style="stroke: #000000; stroke-width: 1.5;"/><text fill="#000000" font-family="sans-serif" font-size="14" font-weight="bold" lengthAdjust="spacingAndGlyphs" textLength="153" x="385" y="140.9951">Physical Filesystem</text><!--entity of1--><rect fill="#FEFECE" filter="url(#fnfo7xnbc4gxi)" height="46.2969" style="stroke: #000000; stroke-width: 1.5;" width="118" x="22" y="43"/><path d="M61.3333,44 L61.3333,48 L54.3333,55 L22,55 " fill="none" style="stroke: #000000; stroke-width: 1.5;"/><text fill="#000000" font-family="sans-serif" font-size="14" lengthAdjust="spacingAndGlyphs" textLength="78" x="37" y="75.9951">Original File</text><!--entity sl1--><rect fill="#FEFECE" filter="url(#fnfo7xnbc4gxi)" height="46.2969" style="stroke: #000000; stroke-width: 1.5;" width="132" x="175" y="43"/><path d="M219,44 L219,48 L212,55 L175,55 " fill="none" style="stroke: #000000; stroke-width: 1.5;"/><text fill="#000000" font-family="sans-serif" font-size="14" lengthAdjust="spacingAndGlyphs" textLength="92" x="190" y="75.9951">Symbolic Link</text><!--entity file1--><rect fill="#FEFECE" filter="url(#fnfo7xnbc4gxi)" height="46.2969" style="stroke: #000000; stroke-width: 1.5;" width="63" x="49.5" y="149"/><path d="M70.5,150 L70.5,154 L63.5,161 L49.5,161 " fill="none" style="stroke: #000000; stroke-width: 1.5;"/><text fill="#000000" font-family="sans-serif" font-size="14" lengthAdjust="spacingAndGlyphs" textLength="23" x="64.5" y="181.9951">File</text><!--entity of2--><rect fill="#FEFECE" filter="url(#fnfo7xnbc4gxi)" height="46.2969" style="stroke: #000000; stroke-width: 1.5;" width="118" x="342" y="43"/><path d="M381.3333,44 L381.3333,48 L374.3333,55 L342,55 " fill="none" style="stroke: #000000; stroke-width: 1.5;"/><text fill="#000000" font-family="sans-serif" font-size="14" lengthAdjust="spacingAndGlyphs" textLength="78" x="357" y="75.9951">Original File</text><!--entity hl2--><rect fill="#FEFECE" filter="url(#fnfo7xnbc4gxi)" height="46.2969" style="stroke: #000000; stroke-width: 1.5;" width="103" x="495.5" y="43"/><path d="M529.8333,44 L529.8333,48 L522.8333,55 L495.5,55 " fill="none" style="stroke: #000000; stroke-width: 1.5;"/><text fill="#000000" font-family="sans-serif" font-size="14" lengthAdjust="spacingAndGlyphs" textLength="63" x="510.5" y="75.9951">Hard Link</text><!--entity file2--><rect fill="#FEFECE" filter="url(#fnfo7xnbc4gxi)" height="46.2969" style="stroke: #000000; stroke-width: 1.5;" width="63" x="429.5" y="149"/><path d="M450.5,150 L450.5,154 L443.5,161 L429.5,161 " fill="none" style="stroke: #000000; stroke-width: 1.5;"/><text fill="#000000" font-family="sans-serif" font-size="14" lengthAdjust="spacingAndGlyphs" textLength="23" x="444.5" y="181.9951">File</text><!--link of1 to sl1--><path d="M145.2129,66 C155.0618,66 164.9108,66 174.7598,66 " fill="none" id="of1-sl1" style="stroke: #A80036; stroke-width: 1.0;"/><polygon fill="#A80036" points="140.0625,66,149.0625,70,145.0625,66,149.0625,62,140.0625,66" style="stroke: #A80036; stroke-width: 1.0;"/><!--link of1 to file1--><path d="M81,89.0004 C81,105.003 81,126.4461 81,143.528 " fill="none" id="of1-file1" style="stroke: #A80036; stroke-width: 1.0;"/><polygon fill="#A80036" points="81,148.6784,85,139.6784,81,143.6784,77,139.6784,81,148.6784" style="stroke: #A80036; stroke-width: 1.0;"/><!--link of2 to file2--><path d="M414.0191,89.0004 C423.1552,105.1409 435.4242,126.8162 445.1333,143.9688 " fill="none" id="of2-file2" style="stroke: #A80036; stroke-width: 1.0;"/><polygon fill="#A80036" points="447.7991,148.6784,446.8467,138.8757,445.3361,144.3271,439.8847,142.8165,447.7991,148.6784" style="stroke: #A80036; stroke-width: 1.0;"/><!--link file2 to hl2--><path d="M483.3863,144.4076 C497.3576,127.1871 515.1322,105.2789 528.3393,89.0004 " fill="none" id="file2-hl2" style="stroke: #A80036; stroke-width: 1.0;"/><polygon fill="#A80036" points="479.9213,148.6784,488.6979,144.2096,483.0715,144.7956,482.4855,139.1692,479.9213,148.6784" style="stroke: #A80036; stroke-width: 1.0;"/><!--
@startuml
rectangle "Logical Filesystem" as lf1 {
  frame "Original File" as of1

  frame "Symbolic Link" as sl1

  sl1 -left-> of1
}

database "Physical Filesystem" as pf1 {
  frame "File" as file1

  of1 -down-> file1
}


rectangle "Logical Filesystem" as lf2 {
  frame "Original File" as of2

  frame "Hard Link" as hl2
}

database "Physical Filesystem" as pf2 {
  frame "File" as file2

  of2 -down-> file2
  hl2 -left-> file2
}
@enduml

PlantUML version 1.2018.01(Sun Jan 28 19:08:22 CET 2018)
(APACHE source distribution)
Java Runtime: OpenJDK Runtime Environment
JVM: OpenJDK 64-Bit Server VM
Java Version: 1.8.0_172-b11
Operating System: Linux
OS Version: 4.16.10-1-ARCH
Default Encoding: UTF-8
Language: de
Country: DE
--></g></svg>