<?xml version="1.0" encoding="utf-8"?>
<!-- Generator: Adobe Illustrator 16.0.0, SVG Export Plug-In . SVG Version: 6.00 Build 0)  -->
<!DOCTYPE svg PUBLIC "-//W3C//DTD SVG 1.1//EN" "http://www.w3.org/Graphics/SVG/1.1/DTD/svg11.dtd">
<svg version="1.1" xmlns="http://www.w3.org/2000/svg" xmlns:xlink="http://www.w3.org/1999/xlink" x="0px" y="0px" width="370px"
	 height="300px" viewBox="0 0 370 300" enable-background="new 0 0 370 300" xml:space="preserve">
<g id="Hilfslinien_f체r_Zeichenfl채che_1_">
</g>
<g id="Hilfslinien_f체r_Zeichenfl채che">
</g>
<g id="Ebene_1">
	<g>
		<g>
			<path fill="#CF081C" d="M110.671,229.827c-8.089-3.742-15.659-8.711-22.404-14.83l-36.092,36.092
				c11.579,10.889,24.789,19.564,38.968,25.865L110.671,229.827z"/>
		</g>
		<g>
			<path fill="#F3991D" d="M64.5,179.638c-3.154-8.625-4.896-17.539-5.296-26.441H8.182c0.43,15.48,3.433,31.023,9.168,45.979
				L64.5,179.638z"/>
		</g>
		<g>
			<path fill="#0F802E" d="M71.889,195.079c-1.592-2.639-3.018-5.33-4.305-8.061l-47.146,19.537
				c2.274,5.045,4.854,10.014,7.782,14.869c5.32,8.82,11.472,16.836,18.286,24.021l36.088-36.088
				C78.63,205.046,75.028,200.286,71.889,195.079z"/>
		</g>
		<g>
			<g>
				<path fill="#2960A7" d="M263.679,185.972c5.273,0,9.162,0.959,11.673,2.879c2.506,1.916,4.664,5.742,6.474,11.473l12.02,38.137
					c0.257,0.787,0.712,2.426,1.357,4.924c0.646,2.494,1.486,5.848,2.521,10.053c0.827-4.021,1.513-7.107,2.056-9.254
					c0.541-2.152,1.071-3.99,1.589-5.516l12.408-39.037c1.55-4.992,3.646-8.469,6.282-10.434c2.636-1.963,6.46-2.949,11.476-2.949
					h13.495c5.48,0,9.656,1.217,12.523,3.643c2.868,2.428,4.305,5.951,4.305,10.572v75.371c0,4.992-1.331,8.771-3.994,11.338
					s-6.581,3.848-11.749,3.848c-5.48,0-9.706-1.271-12.679-3.814c-2.973-2.541-4.459-6.193-4.459-10.955v-36.887
					c0-0.23,0.062-2.324,0.194-6.275c0.126-3.953,0.22-7.824,0.271-11.615c-0.982,4.07-1.862,7.605-2.637,10.609
					c-0.775,3.006-1.474,5.525-2.094,7.557l-11.943,42.297c-0.93,3.238-2.573,5.559-4.926,6.969
					c-2.354,1.408-5.777,2.115-10.273,2.115c-4.498,0-7.859-0.67-10.082-2.012c-2.224-1.34-3.8-3.65-4.729-6.934l-12.022-41.256
					c-0.62-2.033-1.256-4.414-1.901-7.143c-0.646-2.727-1.562-6.793-2.752-12.203c0.104,1.48,0.181,3.006,0.233,4.576
					c0.05,1.574,0.076,3.654,0.076,6.24c0,1.666-0.026,3.398-0.076,5.203c-0.053,1.801-0.076,2.748-0.076,2.84v35.918
					c0,4.762-1.489,8.414-4.459,10.955c-2.976,2.543-7.201,3.814-12.682,3.814c-5.171,0-9.086-1.281-11.749-3.848
					s-3.994-6.346-3.994-11.338v-75.646c0-4.621,1.434-8.148,4.307-10.574c2.867-2.428,7.043-3.641,12.521-3.641H263.679"/>
			</g>
		</g>
		<g>
			<g>
				<path fill="#2960A7" d="M152.991,289.058c-0.667-1.158-1.267-2.396-1.795-3.719l-19.294-48.746
					c-4.698-0.881-9.326-2.119-13.829-3.732l-19.53,47.131c15.893,6.006,32.807,9.121,49.867,9.119v0.037
					C149.943,289.146,151.47,289.108,152.991,289.058z"/>
			</g>
		</g>
		<g>
			<g>
				<path fill="#2960A7" d="M230.8,182.333c0.134-0.117,0.269-0.24,0.4-0.352c4.709-3.988,11.096-6.01,18.983-6.01h13.495
					c7.6,0,13.404,1.615,17.747,4.936c0.904,0.691,1.761,1.486,2.578,2.377c2.781-11.033,4.267-22.574,4.246-34.463
					C288.114,71.579,225.166,8.849,147.923,8.981C72.057,9.114,10.195,69.845,8.143,145.196h51.029
					c2.031-47.264,41.07-85.131,88.841-85.215c49.119-0.084,89.152,39.809,89.237,88.93
					C237.271,160.722,234.976,172.005,230.8,182.333z"/>
			</g>
		</g>
		<g>
			<path fill="#2960A7" d="M207.415,212.39c4.7,0,8.566,1.225,11.591,3.674c3.025,2.451,4.538,5.57,4.538,9.359
				c0,1.02-0.115,2.07-0.349,3.158c-0.234,1.086-0.58,2.275-1.048,3.57l-18.302,49.508c-1.189,3.188-2.998,5.521-5.428,7
				c-2.432,1.479-5.636,2.219-9.617,2.219h-13.027c-4.034,0-7.267-0.727-9.693-2.182c-2.432-1.457-4.293-3.803-5.586-7.037
				l-19.54-49.371c-0.415-1.016-0.725-2.08-0.933-3.188c-0.207-1.111-0.31-2.242-0.31-3.398c0-3.836,1.536-6.967,4.614-9.396
				c3.075-2.426,7.043-3.639,11.904-3.639c3.721,0,6.746,0.938,9.072,2.809c2.327,1.871,4.16,4.863,5.508,8.979l11.479,35.084
				l10.777-34.943c1.291-4.068,3.127-7.121,5.507-9.156C200.949,213.407,203.896,212.39,207.415,212.39"/>
		</g>
	</g>
</g>
</svg>
