<?xml version="1.0" encoding="utf-8"?>
<!-- Generator: Adobe Illustrator 16.0.0, SVG Export Plug-In . SVG Version: 6.00 Build 0)  -->
<!DOCTYPE svg PUBLIC "-//W3C//DTD SVG 1.1//EN" "http://www.w3.org/Graphics/SVG/1.1/DTD/svg11.dtd">
<svg version="1.1" xmlns="http://www.w3.org/2000/svg" xmlns:xlink="http://www.w3.org/1999/xlink" x="0px" y="0px" width="1570px"
	 height="300px" viewBox="0 0 1570 300" enable-background="new 0 0 1570 300" xml:space="preserve">
<g id="Hilfslinien_f체r_Zeichenfl채che_1_">
</g>
<g id="Hilfslinien_f체r_Zeichenfl채che">
</g>
<g id="Ebene_1">
	<g>
		<g>
			<g>
				<g>
					<path fill="#2960A7" d="M398.863,256.305c0-11.17,2.854-19.865,8.562-26.088s13.658-9.336,23.848-9.336
						c10.445,0,18.496,3.057,24.146,9.17c5.652,6.115,8.479,14.678,8.479,25.693c0,7.996-1.234,14.555-3.705,19.672
						c-2.469,5.119-6.035,9.1-10.703,11.947c-4.664,2.848-10.482,4.27-17.445,4.27c-7.08,0-12.938-1.227-17.576-3.686
						s-8.4-6.348-11.283-11.668S398.863,264.301,398.863,256.305z M418.258,256.398c0,6.906,1.178,11.869,3.531,14.887
						c2.355,3.018,5.559,4.527,9.613,4.527c4.166,0,7.391-1.479,9.676-4.432c2.283-2.959,3.426-8.262,3.426-15.918
						c0-6.439-1.193-11.145-3.574-14.115c-2.385-2.971-5.617-4.459-9.699-4.459c-3.91,0-7.049,1.512-9.42,4.527
						C419.443,244.436,418.258,249.428,418.258,256.398z"/>
				</g>
				<g>
					<path fill="#2960A7" d="M471.859,276.699l17.297-1.773c0.713,2.24,1.715,3.844,2.998,4.807
						c1.283,0.965,2.996,1.447,5.139,1.447c2.34,0,4.152-0.543,5.436-1.633c0.998-0.807,1.5-1.816,1.5-3.027
						c0-1.367-0.658-2.424-1.971-3.17c-0.943-0.527-3.441-1.18-7.492-1.957c-6.051-1.148-10.254-2.213-12.607-3.191
						c-2.355-0.98-4.34-2.635-5.953-4.967c-1.613-2.33-2.418-4.988-2.418-7.973c0-3.264,0.869-6.076,2.611-8.438
						c1.74-2.365,4.139-4.127,7.193-5.293s7.148-1.748,12.287-1.748c5.422,0,9.426,0.451,12.01,1.354
						c2.582,0.902,4.738,2.303,6.465,4.199c1.725,1.898,3.162,4.467,4.303,7.701l-16.525,1.773c-0.43-1.586-1.143-2.754-2.141-3.5
						c-1.373-0.996-3.027-1.494-4.967-1.494c-1.971,0-3.404,0.381-4.303,1.141c-0.898,0.764-1.35,1.688-1.35,2.775
						c0,1.211,0.57,2.125,1.713,2.748c1.141,0.621,3.623,1.182,7.449,1.678c5.795,0.715,10.104,1.709,12.93,2.984
						c2.826,1.273,4.988,3.092,6.486,5.455c1.5,2.361,2.248,4.957,2.248,7.785c0,2.861-0.793,5.643-2.375,8.348
						c-1.584,2.703-4.084,4.855-7.494,6.457c-3.41,1.598-8.055,2.398-13.936,2.398c-8.307,0-14.223-1.289-17.746-3.871
						C475.121,285.131,472.859,281.459,471.859,276.699z"/>
				</g>
				<g>
					<path fill="#2960A7" d="M530.258,222.049h17.811v35.314l13.016-16.461h21.451l-16.312,17.363l17.254,32.201h-19.635
						l-9.207-19.867l-6.566,6.986v12.881h-17.811V222.049z"/>
				</g>
				<g>
					<path fill="#2960A7" d="M606.379,256.959l-16.654-1.914c0.627-3.174,1.533-5.672,2.717-7.492
						c1.186-1.82,2.893-3.398,5.117-4.736c1.6-0.963,3.797-1.711,6.594-2.24c2.799-0.529,5.824-0.793,9.076-0.793
						c5.225,0,9.42,0.318,12.59,0.955c3.168,0.641,5.807,1.971,7.92,3.99c1.484,1.4,2.652,3.385,3.51,5.951
						c0.855,2.568,1.285,5.018,1.285,7.352v21.889c0,2.334,0.135,4.162,0.406,5.484s0.865,3.01,1.775,5.062h-16.354
						c-0.656-1.273-1.086-2.246-1.283-2.918c-0.201-0.668-0.402-1.719-0.602-3.15c-2.283,2.398-4.553,4.107-6.807,5.135
						c-3.082,1.369-6.666,2.053-10.746,2.053c-5.424,0-9.541-1.367-12.352-4.107c-2.811-2.736-4.217-6.113-4.217-10.127
						c0-3.764,1.012-6.861,3.039-9.287c2.025-2.428,5.766-4.23,11.219-5.414c6.535-1.43,10.773-2.432,12.715-3.01
						c1.939-0.576,3.996-1.33,6.164-2.264c0-2.332-0.441-3.967-1.328-4.9c-0.883-0.934-2.439-1.398-4.666-1.398
						c-2.854,0-4.994,0.498-6.422,1.492C607.965,253.35,607.064,254.811,606.379,256.959z M621.492,266.943
						c-2.396,0.934-4.895,1.76-7.492,2.477c-3.539,1.025-5.779,2.037-6.721,3.031c-0.973,1.027-1.457,2.195-1.457,3.502
						c0,1.492,0.479,2.713,1.436,3.662c0.955,0.949,2.361,1.426,4.215,1.426c1.943,0,3.748-0.514,5.418-1.541
						s2.854-2.279,3.553-3.758s1.049-3.398,1.049-5.764V266.943z"/>
				</g>
				<g>
					<path fill="#2960A7" d="M650.904,240.902h16.314v8.121c1.568-3.516,3.188-5.936,4.859-7.256
						c1.668-1.324,3.73-1.984,6.186-1.984c2.568,0,5.379,0.871,8.434,2.613l-5.395,13.535c-2.055-0.934-3.682-1.4-4.881-1.4
						c-2.285,0-4.055,1.025-5.309,3.08c-1.799,2.895-2.697,8.307-2.697,16.24v16.615h-17.512V240.902z"/>
				</g>
				<g>
					<path fill="#2960A7" d="M688.068,258.172h25.346v14.699h-25.346V258.172z"/>
				</g>
				<g>
					<path fill="#2960A7" d="M717.223,240.902h18.131l8.82,31.41l9.152-31.41h17.584l-19.324,49.564h-15.455L717.223,240.902z"/>
				</g>
				<g>
					<path fill="#2960A7" d="M773.266,265.824c0-7.559,2.338-13.789,7.02-18.689s11.004-7.352,18.967-7.352
						c9.105,0,15.984,2.877,20.637,8.635c3.74,4.635,5.609,10.344,5.609,17.127c0,7.623-2.32,13.871-6.957,18.736
						c-4.641,4.873-11.055,7.305-19.244,7.305c-7.309,0-13.217-2.021-17.727-6.066C776.031,280.51,773.266,273.945,773.266,265.824z
						 M790.732,265.779c0,4.418,0.82,7.684,2.463,9.801c1.641,2.115,3.701,3.174,6.188,3.174c2.51,0,4.572-1.043,6.186-3.129
						c1.611-2.082,2.418-5.428,2.418-10.033c0-4.293-0.812-7.49-2.439-9.592c-1.627-2.1-3.641-3.148-6.039-3.148
						c-2.539,0-4.637,1.064-6.291,3.195C791.561,258.18,790.732,261.422,790.732,265.779z"/>
				</g>
				<g>
					<path fill="#2960A7" d="M835.643,240.902h16.227v8.074c2.426-3.297,4.881-5.654,7.365-7.07
						c2.482-1.416,5.508-2.123,9.078-2.123c4.822,0,8.596,1.564,11.322,4.689c2.725,3.127,4.088,7.957,4.088,14.492v31.502h-17.51
						v-27.256c0-3.111-0.529-5.311-1.584-6.604c-1.055-1.289-2.541-1.938-4.453-1.938c-2.111,0-3.826,0.871-5.137,2.613
						c-1.314,1.744-1.971,4.871-1.971,9.381v23.803h-17.426V240.902z"/>
				</g>
				<g>
					<path fill="#2960A7" d="M892.541,258.172h25.348v14.699h-25.348V258.172z"/>
				</g>
				<g>
					<path fill="#2960A7" d="M927.775,222.049h25.508l9.838,41.629l9.766-41.629h25.49v68.418h-15.883v-52.178l-12.24,52.178
						h-14.375l-12.219-52.178v52.178h-15.885V222.049z"/>
				</g>
				<g>
					<path fill="#2960A7" d="M1011.992,222.049h17.426v12.926h-17.426V222.049z M1011.992,240.902h17.426v49.564h-17.426V240.902z"
						/>
				</g>
				<g>
					<path fill="#2960A7" d="M1042.9,222.049h17.471v68.418H1042.9V222.049z"/>
				</g>
				<g>
					<path fill="#2960A7" d="M1073.854,222.049h17.469v68.418h-17.469V222.049z"/>
				</g>
				<g>
					<path fill="#2960A7" d="M1154.686,270.398h-34.936c0.314,3.051,1.07,5.322,2.27,6.814c1.684,2.146,3.881,3.221,6.594,3.221
						c1.711,0,3.338-0.467,4.881-1.402c0.941-0.59,1.953-1.631,3.041-3.127l17.168,1.729c-2.627,4.979-5.797,8.549-9.506,10.711
						c-3.711,2.162-9.035,3.242-15.969,3.242c-6.023,0-10.762-0.926-14.217-2.775c-3.451-1.852-6.314-4.791-8.584-8.82
						c-2.268-4.029-3.402-8.768-3.402-14.211c0-7.748,2.277-14.018,6.828-18.811c4.553-4.791,10.84-7.186,18.859-7.186
						c6.508,0,11.646,1.072,15.416,3.221c3.766,2.146,6.635,5.256,8.604,9.334c1.971,4.076,2.953,9.381,2.953,15.914V270.398z
						 M1136.963,261.299c-0.342-3.672-1.25-6.301-2.721-7.889c-1.469-1.588-3.404-2.379-5.799-2.379
						c-2.77,0-4.984,1.197-6.639,3.594c-1.055,1.492-1.727,3.717-2.012,6.674H1136.963z"/>
				</g>
				<g>
					<path fill="#2960A7" d="M1164.619,240.902h16.311v8.121c1.57-3.516,3.191-5.936,4.861-7.256
						c1.668-1.324,3.73-1.984,6.186-1.984c2.568,0,5.381,0.871,8.436,2.613l-5.395,13.535c-2.055-0.934-3.684-1.4-4.881-1.4
						c-2.285,0-4.055,1.025-5.311,3.08c-1.797,2.895-2.697,8.307-2.697,16.24v16.615h-17.51V240.902z"/>
				</g>
				<g>
					<path fill="#2960A7" d="M1201.779,258.172h25.346v14.699h-25.346V258.172z"/>
				</g>
				<g>
					<path fill="#2960A7" d="M1233.846,267.832l18.451-1.26c0.4,3.266,1.215,5.756,2.441,7.467c1.998,2.77,4.854,4.154,8.562,4.154
						c2.768,0,4.902-0.707,6.4-2.123c1.5-1.416,2.248-3.059,2.248-4.926c0-1.773-0.715-3.359-2.141-4.76s-4.738-2.721-9.934-3.967
						c-8.506-2.084-14.57-4.854-18.193-8.309c-3.654-3.451-5.48-7.854-5.48-13.207c0-3.516,0.934-6.836,2.805-9.963
						c1.867-3.129,4.68-5.584,8.434-7.375c3.752-1.787,8.898-2.684,15.434-2.684c8.02,0,14.137,1.627,18.346,4.877
						c4.211,3.252,6.717,8.426,7.514,15.52l-18.281,1.166c-0.486-3.08-1.506-5.32-3.062-6.721c-1.555-1.4-3.701-2.1-6.441-2.1
						c-2.256,0-3.953,0.521-5.096,1.564c-1.143,1.041-1.713,2.309-1.713,3.803c0,1.09,0.471,2.068,1.414,2.939
						c0.914,0.902,3.082,1.742,6.508,2.52c8.477,1.99,14.549,4.006,18.217,6.043c3.668,2.039,6.336,4.568,8.006,7.586
						c1.672,3.018,2.506,6.393,2.506,10.127c0,4.389-1.115,8.432-3.34,12.135s-5.338,6.51-9.334,8.424s-9.033,2.869-15.113,2.869
						c-10.676,0-18.066-2.24-22.178-6.721C1236.715,280.434,1234.387,274.738,1233.846,267.832z"/>
				</g>
				<g>
					<path fill="#2960A7" d="M1335.057,271.051l16.57,2.055c-0.914,3.766-2.412,7.023-4.496,9.779
						c-2.082,2.752-4.746,4.891-7.984,6.414c-3.24,1.525-7.357,2.287-12.352,2.287c-4.824,0-8.842-0.49-12.053-1.469
						s-5.973-2.562-8.283-4.754c-2.312-2.191-4.125-4.766-5.439-7.719c-1.311-2.953-1.969-6.869-1.969-11.75
						c0-5.098,0.799-9.342,2.398-12.729c1.17-2.488,2.768-4.717,4.795-6.691c2.025-1.975,4.109-3.443,6.25-4.408
						c3.396-1.521,7.75-2.283,13.061-2.283c7.42,0,13.078,1.447,16.975,4.34c3.895,2.893,6.627,7.125,8.199,12.693l-16.398,2.383
						c-0.514-2.117-1.449-3.711-2.805-4.785c-1.355-1.072-3.176-1.611-5.457-1.611c-2.885,0-5.217,1.127-7,3.379
						c-1.785,2.252-2.678,5.66-2.678,10.227c0,4.068,0.883,7.158,2.654,9.27c1.77,2.113,4.025,3.168,6.766,3.168
						c2.283,0,4.201-0.637,5.758-1.912C1333.125,275.656,1334.287,273.695,1335.057,271.051z"/>
				</g>
				<g>
					<path fill="#2960A7" d="M1359.887,222.049h17.426v25.203c2.371-2.678,4.727-4.592,7.066-5.742s5.109-1.727,8.307-1.727
						c4.736,0,8.469,1.572,11.195,4.713c2.725,3.143,4.09,7.965,4.09,14.469v31.502h-17.512v-27.256
						c0-3.111-0.527-5.311-1.584-6.604c-1.057-1.289-2.543-1.938-4.455-1.938c-2.109,0-3.824,0.871-5.137,2.613
						c-1.312,1.744-1.971,4.871-1.971,9.381v23.803h-17.426V222.049z"/>
				</g>
				<g>
					<path fill="#2960A7" d="M1468.035,290.467h-16.27v-8.027c-2.426,3.297-4.873,5.646-7.342,7.047s-5.502,2.1-9.1,2.1
						c-4.795,0-8.557-1.562-11.281-4.691c-2.725-3.125-4.09-7.939-4.09-14.443v-31.549h17.512v27.256
						c0,3.111,0.529,5.32,1.586,6.627s2.537,1.961,4.453,1.961c2.084,0,3.789-0.869,5.115-2.615c1.326-1.74,1.992-4.867,1.992-9.379
						v-23.85h17.424V290.467z"/>
				</g>
				<g>
					<path fill="#2960A7" d="M1480.963,222.049h17.469v68.418h-17.469V222.049z"/>
				</g>
				<g>
					<path fill="#2960A7" d="M1561.797,270.398h-34.938c0.314,3.051,1.07,5.322,2.27,6.814c1.684,2.146,3.883,3.221,6.594,3.221
						c1.713,0,3.34-0.467,4.881-1.402c0.941-0.59,1.955-1.631,3.039-3.127l17.17,1.729c-2.627,4.979-5.797,8.549-9.506,10.711
						c-3.711,2.162-9.035,3.242-15.971,3.242c-6.023,0-10.76-0.926-14.213-2.775c-3.453-1.852-6.314-4.791-8.584-8.82
						s-3.406-8.768-3.406-14.211c0-7.748,2.279-14.018,6.83-18.811c4.553-4.791,10.84-7.186,18.859-7.186
						c6.51,0,11.646,1.072,15.416,3.221c3.766,2.146,6.633,5.256,8.605,9.334c1.969,4.076,2.953,9.381,2.953,15.914V270.398z
						 M1544.072,261.299c-0.342-3.672-1.25-6.301-2.719-7.889c-1.473-1.588-3.404-2.379-5.803-2.379c-2.77,0-4.98,1.197-6.637,3.594
						c-1.055,1.492-1.727,3.717-2.012,6.674H1544.072z"/>
				</g>
			</g>
			<g>
				<g>
					<path fill="#2960A7" d="M419.963,176.549l-0.039-0.137l-0.096-0.104c-0.353-0.382-0.801-0.568-1.369-0.568
						c-0.278,0-0.535,0.042-0.784,0.081c-0.127,0.012-0.401,0.042-0.692,0.075c-0.367,0.041-0.924,0.104-1.03,0.106h-0.026
						l-0.036,0.003c-0.601,0.066-1.383,0.146-2.103,0.189c-0.176,0.009-0.409,0.013-0.657,0.013c-0.697,0-1.36-0.029-1.494-0.049
						c-0.305-0.033-0.584-0.092-0.88-0.154c-0.386-0.081-0.785-0.165-1.215-0.188c-0.089-0.01-0.222-0.019-0.383-0.028
						c-0.357-0.022-0.848-0.052-1.611-0.155l-0.04-0.006h-0.04l-0.035-0.01c-0.13-0.023-0.346-0.062-0.613-0.062h-0.073
						c-0.253-0.051-0.493-0.078-0.714-0.078c-0.266,0-0.552,0.079-0.633,0.104c-0.844,0.27-1.266,0.968-1.266,2.079
						c0,0.274,0.028,0.539,0.054,0.773c0.019,0.172,0.038,0.332,0.038,0.471c0.023,0.46,0.035,0.879,0.047,1.298
						c0.012,0.429,0.023,0.857,0.047,1.297c0.143,1.829,0.232,4.703,0.232,5.431c0,0.488,0.023,0.956,0.047,1.408
						c0.024,0.457,0.047,0.888,0.047,1.344v1.281c0,0.461,0,0.897,0.047,1.378c0.043,0.32,0.043,0.629,0.043,0.956
						c0,0.333-0.012,0.667-0.022,1c-0.012,0.347-0.022,0.692-0.022,1.039c0,0.466,0.007,2.062,0.096,3.03
						c0.025,0.432-0.016,0.817-0.052,1.157c-0.024,0.228-0.044,0.426-0.044,0.596v1.584v0.789c0,0.246,0,0.479-0.037,0.692
						l-0.006,0.036l-0.002,0.037l-0.008,0.159c-0.033,0.657-0.071,1.401,0.433,1.932c0.342,0.359,0.853,0.535,1.563,0.535
						c0.72,0,1.404-0.27,1.785-0.703c0.273-0.31,0.395-0.702,0.344-1.104l-0.01-0.067l-0.023-0.063
						c-0.156-0.427-0.191-0.99-0.219-1.443c-0.008-0.129-0.016-0.251-0.025-0.361c-0.019-0.312-0.054-0.638-0.088-0.96
						c-0.05-0.467-0.098-0.906-0.098-1.327c0-0.112,0.012-0.226,0.022-0.338c0.014-0.149,0.026-0.3,0.026-0.449
						c0-0.416-0.054-0.835-0.095-1.146l-0.091-2.161l-0.047-0.908c0-0.069,0-0.195,0.043-0.535c0.049-0.418,0.049-1.044,0.049-1.279
						c0-0.143-0.004-0.284-0.012-0.424c0.086-0.008,0.191-0.017,0.32-0.026c-0.005,0-0.005,0-0.002,0
						c0.012,0,0.065-0.002,0.137-0.006c0.215-0.011,0.627-0.031,1.16-0.031h2.783c0.455,0,2.148,0.079,2.49,0.141
						c0.112,0.015,0.17,0.037,0.258,0.071c0.14,0.054,0.33,0.128,0.59,0.128c0.209,0,0.41-0.045,0.667-0.146
						c0.627-0.202,0.853-0.653,0.938-0.824c0.152-0.257,0.152-0.537,0.152-0.722c0-0.187,0-0.38-0.087-0.601
						c-0.187-0.501-0.565-0.891-1.094-1.114c-0.259-0.13-0.459-0.13-0.671-0.13c-0.152,0-0.384,0-0.812,0.086
						c-0.77,0.141-0.883,0.141-1.133,0.141h-0.465c-1.09,0-1.23,0-1.604,0.037c-0.241-0.002-0.603-0.035-1.431-0.11
						c-0.502-0.046-1.177-0.107-2.106-0.188c-0.06-0.009-0.116-0.016-0.171-0.021v-1.39c0-0.22,0.006-0.438,0.011-0.66
						c0.011-0.464,0.021-0.944-0.012-1.447c-0.027-0.532-0.006-1.07,0.018-1.64c0.016-0.383,0.03-0.767,0.03-1.149
						c-0.032-1.456-0.002-2.599,0.088-3.316l0.057-0.343h1.852h0.04l0.039-0.006c0.515-0.068,1.466-0.107,2.61-0.107
						c0.558,0,1.189,0,1.817,0.037c0.214,0.013,0.427,0.018,0.64,0.018c0.204,0,0.408-0.005,0.613-0.009
						c0.197-0.004,0.396-0.007,0.594-0.007c0.312,0,0.626,0.018,0.939,0.035c0.336,0.02,0.672,0.039,1.008,0.039
						c0.883,0,1.675-0.594,1.841-1.381l0.031-0.146l-0.042-0.144L419.963,176.549z"/>
				</g>
				<g>
					<path fill="#2960A7" d="M431.332,176.456c-1.162,0-1.943,0.771-1.943,1.917v0.041l0.005,0.04
						c0.181,1.317,0.181,2.598,0.181,3.952c0,0.4,0.011,0.802,0.022,1.204c0.011,0.39,0.022,0.78,0.022,1.169
						c0.03,0.519,0.021,1.032,0.01,1.529c-0.005,0.259-0.01,0.517-0.01,0.77c0.047,0.812,0.047,1.589,0.047,2.34
						c0,0.408,0,0.794-0.043,1.175c-0.107,0.726-0.139,1.364-0.097,1.992c-0.001,0.488-0.001,0.988-0.042,1.493
						c-0.014,0.343-0.027,0.659-0.042,0.976c-0.044,0.959-0.089,1.95-0.054,2.938c0,0.514-0.078,1.014-0.18,1.611l-0.005,0.03
						l-0.002,0.03c-0.022,0.339-0.034,0.687-0.046,1.035c-0.011,0.349-0.022,0.697-0.046,1.035
						c-0.046,0.855-0.046,1.615-0.046,2.495c0,0.274,0.087,0.521,0.139,0.646l0.019,0.043l0.024,0.041
						c0.273,0.437,0.776,0.761,1.352,0.87c0.207,0.054,0.396,0.054,0.551,0.054c1.227,0,2.082-0.68,2.082-1.653
						c0-0.388-0.109-0.757-0.216-1.067c-0.069-0.252-0.114-0.59-0.161-0.969c-0.043-0.375-0.043-0.762-0.043-1.171v-1.318
						c0-0.213,0.021-0.435,0.043-0.67c0.025-0.267,0.051-0.541,0.051-0.838c0-0.229-0.011-0.487-0.023-0.751
						c-0.011-0.255-0.023-0.515-0.023-0.755c0-0.623,0.036-1.266,0.07-1.888c0.036-0.639,0.072-1.299,0.072-1.956
						c0-0.228,0-0.508-0.046-0.803c0.005-0.222,0.04-0.468,0.077-0.726c0.021-0.149,0.042-0.297,0.058-0.44
						c0.097-0.86,0.097-1.722,0.097-2.555c0.045-0.581,0.045-1.195,0.045-1.846c0-0.217,0.021-0.441,0.044-0.68
						c0.023-0.255,0.048-0.518,0.048-0.791c0-1.164,0.084-2.286,0.172-3.475l0.013-0.173c0.021-0.304,0.054-0.605,0.087-0.91
						c0.037-0.346,0.074-0.696,0.099-1.057c0.001-0.242,0.001-0.389,0.037-0.556c0.056-0.188,0.056-0.402,0.056-0.574
						c0-0.144,0-0.381-0.164-0.666C433.261,176.893,432.387,176.456,431.332,176.456z"/>
				</g>
				<g>
					<path fill="#2960A7" d="M462.361,176.567c-0.264-0.201-0.62-0.301-1.09-0.301c-0.412,0-0.865,0.079-1.23,0.143
						c-0.127,0.021-0.239,0.041-0.326,0.053c-0.285,0.012-0.482,0.027-0.76,0.051c-0.348,0.029-0.826,0.069-1.891,0.133
						c-1.186,0.074-4.865,0.111-5.252,0.111c-3.922-0.035-4.695-0.107-5.631-0.222c-0.255-0.044-0.562-0.044-0.859-0.044
						c-0.824,0-1.379,0.156-1.741,0.491c-0.347,0.29-0.577,0.844-0.577,1.391c0,0.421,0.125,0.8,0.363,1.094
						c0.548,0.737,1.46,0.835,2.192,0.835c0.125,0,0.254-0.004,0.386-0.009c0.371-0.038,1.982-0.149,2.922-0.188l1.416,0.001h0.036
						l0.035-0.005l0.284-0.034c0.015,0.044,0.027,0.08,0.039,0.111c0.039,0.109,0.055,0.149,0.12,1.101l0.139,2.331l-0.001,1.807
						c-0.025,0.232,0.002,0.603,0.051,1.157c0.02,0.231,0.039,0.438,0.039,0.543l-0.042,0.64c-0.05,0.521-0.048,0.562-0.048,0.604
						v0.602c0.047,1.63,0.047,3.442,0.047,4.898v1.508c0,0.718-0.051,1.464-0.078,1.596c-0.055,0.224-0.107,0.56-0.107,1.455
						c0,0.601,0.021,1.2,0.034,1.582c0.006,0.165,0.011,0.287,0.011,0.344c0,0.171-0.048,0.854-0.083,1.354
						c-0.03,0.438-0.056,0.82-0.056,0.905c-0.042,0.613-0.123,0.868-0.341,1.55c-0.108,0.297-0.13,0.821,0.429,1.506
						c0.4,0.484,0.943,0.75,1.531,0.75c0.661,0,1.624-0.275,2.162-1.051c0.212-0.347,0.293-0.598,0.293-0.87
						c0-0.128-0.023-0.236-0.041-0.31c0.019-0.132,0.041-0.395,0.041-1.161c0-0.585-0.015-0.76-0.027-0.914
						c-0.01-0.121-0.02-0.234-0.02-0.592v-1.094v-0.026l-0.002-0.025l-0.092-1.057c-0.073-0.903-0.129-1.59-0.102-1.748
						c0.104-0.381,0.104-0.523,0.104-1.214v-1.545c0-2.18-0.045-3.759-0.075-4.804c-0.021-0.723-0.036-1.244-0.019-1.437
						c0.039-0.287,0.085-0.842,0.093-1.055c0.046-0.329,0.046-0.543,0.046-0.732c0-0.292-0.028-0.468-0.053-0.622
						c-0.021-0.132-0.039-0.235-0.039-0.433c0-0.309,0.029-1.048,0.063-1.903c0.026-0.657,0.055-1.383,0.075-2.037
						c0.017-0.445,0.036-1.082,0.044-1.791h2.325c0.452-0.02,0.945-0.037,1.412-0.037c0.503,0,0.891,0.02,1.151,0.061
						c0.351,0.094,0.894,0.164,1.284,0.164h0.139h0.025l0.025-0.003c0.616-0.052,1.263-0.494,1.583-0.904
						c0.27-0.382,0.403-0.763,0.403-1.123C463.123,177.467,462.743,176.824,462.361,176.567z"/>
				</g>
				<g>
					<path fill="#2960A7" d="M524.133,179.966c1.289,0,2.059-0.979,2.059-1.923c0-0.193-0.043-0.396-0.129-0.604l-0.015-0.033
						l-0.018-0.031c-0.36-0.638-1.301-1.119-2.188-1.119c-1.165,0-1.977,0.995-1.977,1.888
						C521.865,179.217,523.061,179.966,524.133,179.966z"/>
				</g>
				<g>
					<path fill="#2960A7" d="M515.183,179.29c0.332,0.238,0.745,0.537,1.364,0.537c0.472,0,0.987-0.188,1.378-0.503
						c0.382-0.312,0.599-0.778,0.599-1.281c0-0.534-0.211-1.001-0.596-1.313c-0.448-0.312-0.982-0.475-1.504-0.475
						c-0.436,0-0.993,0.04-1.432,0.351c-0.344,0.275-0.502,0.66-0.502,1.167v0.201c0,0.49,0.211,0.933,0.596,1.246L515.183,179.29z"
						/>
				</g>
				<g>
					<path fill="#2960A7" d="M528.377,191.361c-0.042-1.503-0.09-3.187-0.232-4.825c-0.008-0.124-0.01-0.263-0.011-0.402
						c-0.007-0.617-0.015-1.384-0.623-2.005c-0.431-0.384-0.925-0.616-1.385-0.667c-0.084-0.006-0.148-0.009-0.213-0.009
						c-0.653,0-1.392,0.245-1.728,0.482l-0.027,0.02l-0.025,0.022c-0.239,0.213-0.523,0.604-0.523,1.263
						c0,0.409,0.111,0.827,0.209,1.197c0.03,0.114,0.06,0.224,0.083,0.325c0.428,1.587,0.552,3.182,0.635,4.555l0.006,0.105
						c0.044,0.751,0.085,1.461,0.085,2.185c0,0.467,0,0.95-0.045,1.409c-0.035,0.828-0.18,1.578-0.332,2.372
						c-0.041,0.212-0.082,0.426-0.121,0.641c-0.603,2.997-1.918,4.522-3.91,4.522c-1.049,0-1.948-0.434-2.531-1.223
						c-0.615-0.891-0.972-1.915-1.257-2.803c-0.625-1.938-0.712-4.059-0.712-6.063c0-0.27-0.011-0.538-0.023-0.812
						c-0.011-0.268-0.023-0.539-0.023-0.821c0-0.268,0.045-0.551,0.093-0.851c0.036-0.229,0.071-0.459,0.091-0.688
						c0.083-0.771,0.178-1.657,0.318-2.481c0.055-0.235,0.055-0.489,0.055-0.714c0-0.686-0.233-1.215-0.694-1.573
						c-0.394-0.346-1.077-0.574-1.759-0.574c-0.261,0-0.902,0.045-1.301,0.451c-0.604,0.553-0.693,1.479-0.693,1.985v0.034
						l0.004,0.035c0.043,0.371,0.043,0.812,0.043,1.237c0,0.843-0.044,1.747-0.086,2.622l-0.006,0.123
						c0,0.343,0.024,0.648,0.049,0.943c0.021,0.26,0.043,0.514,0.043,0.759c0.025,0.388,0.037,0.745,0.049,1.103
						c0.013,0.357,0.024,0.714,0.048,1.061c0.039,1.029,0.189,2.211,0.472,3.701c0.223,1.013,0.609,2.124,1.155,3.318
						c0.504,1.177,1.176,2.165,1.992,2.926c1.23,1.082,2.869,1.672,4.628,1.672c1.764,0,3.48-0.62,4.711-1.701
						c2.014-1.774,2.548-4.258,3.019-6.449c0.354-1.559,0.521-3.143,0.521-4.979c0-0.255-0.011-0.499-0.022-0.743
						C528.389,191.821,528.377,191.597,528.377,191.361z"/>
				</g>
				<g>
					<path fill="#2960A7" d="M554.511,201.187l-0.103-0.079c-0.146-0.112-0.312-0.239-1.532-1.327
						c-0.873-0.749-1.887-1.642-2.841-2.639c-0.555-0.578-2.878-3.075-4.552-5.04c2.114-0.632,3.968-1.903,5.077-3.514
						c0.931-1.345,1.402-3.082,1.402-5.162c0-2.396-0.821-4.27-2.376-5.42c-1.037-0.76-2.49-1.31-3.988-1.509
						c-0.57-0.078-1.757-0.155-1.979-0.155l-0.927-0.073l-0.064-0.005l-0.064,0.01c-0.004,0-0.008,0-0.013,0
						c-0.199,0-0.43-0.055-0.568-0.087l-0.086-0.021c-0.193-0.051-0.396-0.051-0.504-0.051c-1.228,0-1.99,0.852-1.99,2.223v3.391
						c0.025,0.333,0.061,0.487,0.089,0.611c0.029,0.132,0.05,0.22,0.05,0.521v0.373c0,0.282-0.011,0.46-0.021,0.641
						c-0.012,0.206-0.023,0.415-0.023,0.756c0,0.31,0,0.734,0.046,1.397l0.025,0.604c0.036,0.846,0.067,1.577,0.067,1.992
						c0,0.124-0.003,0.188-0.006,0.25c-0.01,0.212-0.019,0.395,0.051,2.037c0.023,0.646,0.069,1.623,0.109,2.49
						c0.04,0.854,0.078,1.659,0.078,1.818c0.025,0.782,0.008,1.124-0.004,1.351c-0.01,0.188-0.018,0.337,0.004,0.564
						c0.004,0.23,0.045,0.806,0.109,1.703c0.058,0.79,0.123,1.685,0.123,1.921c0,0.221-0.05,1.812-0.137,2.525l-0.018,0.116
						c-0.04,0.267-0.078,0.519-0.078,0.786c0,0.336,0.076,0.631,0.227,0.877c0.359,0.535,0.965,0.816,1.719,0.816
						c0.151,0,0.338,0,0.54-0.051c1.053-0.177,1.679-0.803,1.679-1.68c0-0.355-0.087-0.842-0.146-1.163
						c-0.019-0.104-0.034-0.187-0.039-0.23c-0.046-1.056-0.149-2.283-0.282-3.356c-0.132-1.014-0.18-1.444-0.227-3.027
						c0-0.358-0.023-0.718-0.051-1.07c2.023,1.923,2.774,2.701,5.084,5.188l3.25,3.469c0.451,0.459,1.144,1.055,2.061,1.055
						c1.236,0,2.361-0.896,2.361-1.881C556.043,202.365,555.4,201.871,554.511,201.187z M543.942,189.052
						c-0.148,0.028-0.301,0.028-0.511,0.028c-0.1,0-0.211,0-0.326-0.004v-2.449c0.022-1.579,0.063-1.795,0.098-1.969
						c0.049-0.258,0.088-0.462,0.088-2.252c0-0.19,0.044-0.799,0.136-1.502l0.075-0.875c0.029-0.002,0.051-0.002,0.07-0.002h0.034
						l0.033-0.004c0.293-0.033,0.686-0.033,1.14-0.033c1.086,0,1.867,0.175,2.459,0.549c0.532,0.34,0.897,0.925,1.081,1.736
						c0.084,0.441,0.171,0.934,0.171,1.449c0,0.969-0.226,1.958-0.634,2.787C547.16,187.912,545.88,188.743,543.942,189.052z"/>
				</g>
				<g>
					<path fill="#2960A7" d="M596.738,188.588c0-1.758-0.021-1.939-0.095-2.299c-0.025-0.118-0.056-0.269-0.095-0.599
						c-0.05-0.524-0.149-1.043-0.199-1.244c-0.073-0.294-0.26-0.879-0.432-1.413l-0.027-0.084c-0.008-0.265-0.052-0.56-0.413-1.355
						c-0.338-0.792-0.684-1.245-1.008-1.641c-0.89-1.083-1.74-1.892-3.229-2.574c-0.423-0.203-0.977-0.403-1.307-0.523
						c-0.112-0.04-0.198-0.071-0.245-0.09c-0.095-0.039-0.176-0.077-0.256-0.115c-0.338-0.159-0.687-0.324-1.604-0.451
						c-0.947-0.164-1.481-0.197-2.032-0.197h-0.695c-0.022,0-0.044,0-0.064,0.002l-0.185-0.09c-0.248-0.104-0.389-0.157-0.703-0.203
						c-0.189-0.044-0.408-0.047-0.671-0.047c-0.799,0-1.408,0.273-1.717,0.771l-0.029,0.047l-0.021,0.052
						c-0.067,0.173-0.224,0.641-0.224,1.239v0.262l0.095,1.579c0.017,0.407,0.035,0.583,0.051,0.735
						c0.021,0.21,0.038,0.362,0.038,1.227c0,0.551,0.015,0.766,0.028,0.955c0.011,0.146,0.021,0.282,0.021,0.588
						c0,0.482,0.018,1.023,0.031,1.426c0.007,0.226,0.014,0.405,0.014,0.5c0,0.051,0.023,0.357,0.054,0.718
						c0.031,0.38,0.084,1.017,0.085,1.128v1.652c-0.03,0.219-0.023,0.513-0.01,0.923c0.005,0.146,0.01,0.286,0.01,0.401v1.213
						c-0.069,0.331-0.134,1.07-0.094,1.981v1.405v0.092l0.026,0.087c-0.001-0.004-0.002-0.006-0.003-0.006
						c-0.004,0-0.006,0.023-0.007,0.054c-0.007,0.111-0.017,0.278-0.017,0.564v0.562c0,0.283,0.013,0.755,0.026,1.262
						c0.021,0.746,0.049,1.767,0.022,2.039l-0.002,0.028v0.028c0,0.107-0.024,0.364-0.047,0.611
						c-0.023,0.271-0.045,0.53-0.045,0.631c-0.012,0.166-0.021,0.264-0.028,0.346c-0.02,0.215-0.031,0.333-0.065,1.599l-0.089,1.639
						l-0.047,0.671c-0.001,0.297,0.263,0.959,0.579,1.28c0.356,0.389,1.152,0.669,1.909,0.669c0.143,0,0.285-0.011,0.426-0.032
						c0.336-0.045,0.62-0.175,0.811-0.274c0.024-0.01,0.044-0.018,0.061-0.023c0.016,0.002,0.037,0.002,0.06,0.002h0.035
						l0.035-0.004l0.648-0.076c0.854-0.114,1.124-0.154,1.681-0.322c0.628-0.156,0.84-0.241,2.037-0.824
						c1.357-0.643,2.377-1.471,3.405-2.768c1.698-2.191,2.229-3.929,2.849-6.331c0.481-1.812,0.481-2.073,0.481-2.185l0.136-1.84
						c0.017-0.191,0.039-0.372,0.062-0.545c0.041-0.326,0.08-0.634,0.08-1.002c0-0.167-0.02-0.486-0.042-0.828
						C596.765,189.209,596.738,188.821,596.738,188.588z M593.281,191l-0.015,0.222l-0.092,1.356
						c-0.035,0.311-0.044,0.541-0.052,0.74c-0.011,0.29-0.018,0.466-0.116,0.848c-0.209,0.718-0.412,1.672-0.469,1.946
						c-0.204,0.759-0.597,1.771-1.016,2.607c-0.321,0.61-0.852,1.527-1.688,2.322c-0.69,0.651-1.055,0.896-1.239,0.985
						c-0.384,0.208-1.206,0.493-1.472,0.566c-0.331,0.099-0.924,0.201-1.327,0.201c-0.018,0-0.033,0-0.046-0.001
						c-0.001,0-0.002-0.001-0.002-0.001l-0.001-0.828v-0.046l-0.007-0.046c-0.134-0.86-0.134-0.918-0.134-1.191
						c0.047-0.77,0.047-1.229,0.047-1.504c-0.029-1.047-0.092-2-0.138-2.696c-0.026-0.408-0.048-0.709-0.048-0.849v-2.035
						c0-0.586-0.02-0.803-0.034-0.962c-0.007-0.075-0.013-0.136-0.013-0.241c0-0.125,0.021-0.38,0.06-0.844l0.08-0.998l0.001-0.195
						c0-2.176,0.015-2.644,0.023-2.729h-0.001c0.015-0.072,0.022-0.154,0.022-0.248c-0.045-0.956-0.045-1.754-0.045-2.336
						c0-0.946,0.025-1.549,0.038-1.839c0.004-0.115,0.007-0.192,0.007-0.233l-0.003-0.135c-0.008-0.276-0.026-0.922,0.048-1.774
						l0.072-1.389c0.245-0.041,0.548-0.062,0.906-0.062c0.823,0,1.049,0.094,1.499,0.28l0.128,0.053
						c0.062,0.024,0.152,0.053,0.271,0.088c0.277,0.08,0.741,0.216,1.353,0.53c0.773,0.414,0.785,0.428,0.979,0.668
						c0.13,0.159,0.325,0.4,0.725,0.805c0.266,0.25,0.487,0.611,0.594,0.959c0.085,0.259,0.148,0.468,0.205,0.656
						c0.076,0.255,0.144,0.476,0.226,0.696c0.167,0.412,0.253,0.86,0.341,1.362c0.046,0.212,0.085,0.359,0.121,0.496
						c0.117,0.445,0.194,0.739,0.194,2.115c0,0.835,0.025,1.046,0.041,1.172v0.03l0.007,0.064
						C593.352,189.973,593.319,190.449,593.281,191z"/>
				</g>
				<g>
					<path fill="#2960A7" d="M608.316,176.456c-1.346,0-1.947,0.963-1.947,1.917v0.041l0.006,0.041
						c0.182,1.316,0.182,2.597,0.182,3.951c0,0.4,0.012,0.802,0.023,1.204c0.012,0.391,0.023,0.78,0.023,1.169
						c0.03,0.519,0.021,1.032,0.01,1.529c-0.005,0.259-0.01,0.517-0.01,0.77c0.047,0.812,0.047,1.589,0.047,2.34
						c0,0.408,0,0.794-0.043,1.175c-0.109,0.758-0.14,1.379-0.095,1.996c-0.001,0.484-0.001,0.982-0.046,1.485
						c-0.014,0.351-0.028,0.671-0.043,0.989c-0.043,0.956-0.088,1.943-0.055,2.928c0,0.533-0.083,1.067-0.176,1.611l-0.005,0.03
						l-0.002,0.03c-0.022,0.339-0.034,0.687-0.046,1.035c-0.011,0.349-0.022,0.697-0.046,1.035
						c-0.048,0.855-0.048,1.615-0.048,2.495c0,0.257,0.076,0.492,0.141,0.646l0.018,0.042l0.024,0.04
						c0.271,0.438,0.774,0.763,1.353,0.872c0.207,0.054,0.395,0.054,0.547,0.054c1.228,0,2.084-0.68,2.084-1.653
						c0-0.396-0.11-0.763-0.22-1.071c-0.064-0.244-0.105-0.579-0.149-0.934c-0.049-0.407-0.049-0.793-0.049-1.202v-1.318
						c0-0.212,0.021-0.435,0.044-0.669c0.026-0.267,0.052-0.542,0.052-0.839c0-0.229-0.011-0.487-0.023-0.751
						c-0.011-0.255-0.023-0.515-0.023-0.755c0-0.624,0.035-1.267,0.068-1.889c0.033-0.638,0.068-1.298,0.068-1.955
						c0-0.228,0-0.507-0.044-0.801c0.005-0.23,0.042-0.493,0.079-0.748c0.02-0.141,0.04-0.28,0.055-0.417
						c0.098-0.863,0.098-1.725,0.098-2.558c0.045-0.581,0.045-1.195,0.045-1.846c0-0.216,0.022-0.44,0.045-0.677
						c0.025-0.256,0.051-0.52,0.051-0.794c0-1.188,0.083-2.354,0.182-3.646c0.021-0.306,0.055-0.607,0.088-0.912
						c0.037-0.346,0.074-0.696,0.099-1.057c0.001-0.232,0.001-0.377,0.031-0.536c0.063-0.223,0.063-0.428,0.063-0.594
						c0-0.145,0-0.384-0.168-0.67C610.238,176.891,609.365,176.456,608.316,176.456z"/>
				</g>
				<g>
					<path fill="#2960A7" d="M679.271,176.492c-0.229,0-0.433,0.085-0.567,0.143l-0.012,0.004l-0.443-0.032c-0.005,0-0.01,0-0.015,0
						c-0.178,0-0.273,0.026-0.357,0.049c-0.109,0.03-0.336,0.092-1.044,0.184c-1.487,0.188-3.488,0.296-5.487,0.296
						c-2.329,0-3.981-0.142-4.76-0.226c-0.252-0.038-0.51-0.038-0.76-0.038c-0.496,0-1.131,0.067-1.638,0.597
						c-0.312,0.303-0.491,0.75-0.491,1.243c0,0.551,0.262,1.105,0.685,1.448c0.483,0.45,1.226,0.511,1.815,0.511
						c0.933,0,1.653-0.065,2.35-0.13c0.617-0.057,1.256-0.115,2.066-0.132l3.249-0.078c0.238-0.01,0.513-0.014,0.806-0.014
						c0.444,0,0.908,0.01,1.312,0.026c-0.48,0.873-0.982,1.76-2.002,3.538c-0.643,1.091-0.747,1.321-0.839,1.524
						c-0.045,0.101-0.084,0.187-0.226,0.431l-1.103,1.751c-0.202,0.303-0.377,0.697-0.504,0.985
						c-0.046,0.104-0.081,0.188-0.106,0.233l-0.744,1.244c-0.294,0.478-0.451,0.711-0.56,0.869
						c-0.214,0.316-0.267,0.401-0.627,1.184l-0.349,0.748c-0.024,0.034-0.061,0.08-0.104,0.138
						c-0.177,0.234-0.472,0.627-0.693,1.051l-1.242,2.162l-0.342,0.549c-0.588,0.94-0.876,1.406-0.963,1.57
						c-0.028,0.05-0.071,0.132-0.127,0.24c-0.181,0.351-0.516,1.002-0.952,1.63c-0.205,0.31-0.405,0.567-0.6,0.815
						c-0.11,0.142-0.217,0.277-0.317,0.414l-0.619,0.93c-0.039,0.062-0.079,0.116-0.123,0.177c-0.217,0.302-0.485,0.677-0.485,1.097
						c0,1.011,1.197,1.766,2.268,1.766c0.195,0,0.337,0,0.581-0.049c0.073-0.014,0.128-0.021,0.17-0.021
						c0.024,0,0.033,0.001,0.064,0.008c0.046,0.01,0.115,0.024,0.202,0.024h0.034l0.034-0.004c0.281-0.031,0.359-0.045,0.432-0.057
						c0.096-0.015,0.181-0.028,0.814-0.093c0.996-0.1,1.522-0.112,1.87-0.112l0.271,0.002l0.21,0.002h2.131
						c1.365,0.061,1.904,0.077,2.182,0.086c0.218,0.007,0.262,0.008,0.462,0.023c0.687,0.053,1.231,0.078,1.669,0.078
						c0.769,0,3.105,0,3.105-2.07c0-0.898-0.601-1.805-1.943-1.805c-0.411,0-0.908,0.095-1.146,0.162
						c-0.157,0.02-0.395,0.055-0.627,0.09c-0.262,0.04-0.516,0.08-0.608,0.086l-0.016,0.001l-0.036,0.003
						c-0.887,0.1-1.911,0.146-3.226,0.146c-1.061,0-2.236-0.048-3.571-0.146c0.248-0.435,0.478-0.872,0.703-1.3
						c0.278-0.529,0.565-1.076,0.881-1.602l1.254-2.196c0.223-0.411,0.343-0.643,0.425-0.801c0.156-0.302,0.156-0.302,0.481-0.782
						c0.033-0.053,0.076-0.119,0.134-0.209c0.497-0.77,0.688-1.084,0.757-1.247l0.01-0.021l0.015-0.044
						c0.079-0.234,0.118-0.352,0.361-0.78c0.134-0.218,0.364-0.567,0.581-0.897c0.336-0.512,0.499-0.763,0.573-0.899
						c0.132-0.202,0.306-0.522,0.506-0.891c0.275-0.507,0.588-1.081,0.866-1.49c0.337-0.479,0.372-0.537,0.551-0.821
						c0.115-0.184,0.292-0.466,0.661-1.038c0.188-0.318,0.294-0.502,0.376-0.646c0.153-0.268,0.226-0.394,0.551-0.899l2.365-3.694
						c0.269-0.431,0.66-0.926,0.911-1.196c0.142-0.177,0.256-0.299,0.362-0.413c0.318-0.343,0.679-0.731,0.679-1.313
						C681.684,177.129,679.936,176.492,679.271,176.492z"/>
				</g>
				<g>
					<path fill="#2960A7" d="M705.777,186.631c-0.048-2.298-0.099-4.356-0.231-6.419c-0.009-0.18-0.01-0.372-0.012-0.565
						c-0.006-0.807-0.013-1.721-0.568-2.477c-0.419-0.507-0.927-0.822-1.415-0.895c-0.097-0.01-0.16-0.013-0.225-0.013
						c-0.694,0-1.463,0.337-1.806,0.661l-0.023,0.022l-0.021,0.024c-0.312,0.366-0.469,0.864-0.469,1.48
						c0,0.5,0.107,1.037,0.202,1.51c0.031,0.156,0.062,0.307,0.086,0.445c0.392,1.945,0.539,3.86,0.64,6.142
						c0.046,1.012,0.094,2.058,0.094,3.081c0,0.635,0,1.291-0.046,1.922c-0.037,1.11-0.184,2.124-0.338,3.198
						c-0.041,0.283-0.082,0.567-0.121,0.854c-0.424,2.818-1.446,6.188-3.903,6.188c-1.299,0-2.07-0.901-2.489-1.658
						c-0.639-1.228-1-2.619-1.288-3.827c-0.637-2.627-0.725-5.495-0.725-8.204c0-0.354-0.011-0.707-0.022-1.068
						s-0.024-0.73-0.024-1.113c0-0.385,0.047-0.777,0.096-1.192c0.035-0.298,0.07-0.597,0.089-0.895l0.009-0.105
						c0.089-1.081,0.18-2.198,0.312-3.237c0.052-0.296,0.052-0.602,0.052-0.896c0-0.831-0.207-1.449-0.635-1.888
						c-0.393-0.469-1.102-0.78-1.82-0.78c-0.574,0-1.079,0.229-1.357,0.613c-0.522,0.639-0.633,1.677-0.633,2.439v0.025l0.002,0.026
						c0.045,0.519,0.045,1.09,0.045,1.694c0,1.139-0.044,2.354-0.086,3.529l-0.006,0.156c0,0.429,0.024,0.829,0.048,1.216
						c0.021,0.355,0.044,0.705,0.044,1.042c0.023,0.488,0.035,0.96,0.047,1.431c0.012,0.482,0.023,0.964,0.047,1.432
						c0.047,1.726,0.274,3.53,0.466,4.908c0.216,1.313,0.599,2.777,1.141,4.362c0.49,1.54,1.149,2.835,1.955,3.839
						c1.234,1.45,2.896,2.241,4.688,2.241s3.531-0.832,4.77-2.285c1.977-2.322,2.5-5.59,2.962-8.474
						c0.349-2.05,0.519-4.205,0.519-6.583c0-0.335-0.012-0.656-0.023-0.978C705.789,187.255,705.777,186.949,705.777,186.631z"/>
				</g>
				<g>
					<path fill="#2960A7" d="M759.105,186.897c-0.048-2.298-0.099-4.356-0.231-6.419c-0.009-0.18-0.01-0.372-0.012-0.566
						c-0.006-0.806-0.013-1.72-0.568-2.476c-0.419-0.507-0.927-0.822-1.415-0.895c-0.097-0.01-0.16-0.013-0.225-0.013
						c-0.694,0-1.463,0.336-1.806,0.661l-0.023,0.022l-0.021,0.024c-0.312,0.366-0.469,0.864-0.469,1.48
						c0,0.501,0.107,1.036,0.202,1.51c0.031,0.156,0.062,0.307,0.086,0.445c0.392,1.945,0.539,3.86,0.64,6.142
						c0.046,1.012,0.094,2.058,0.094,3.081c0,0.635,0,1.291-0.046,1.922c-0.037,1.11-0.184,2.124-0.338,3.198
						c-0.041,0.283-0.082,0.567-0.121,0.854c-0.424,2.818-1.446,6.188-3.903,6.188c-1.299,0-2.07-0.901-2.489-1.658
						c-0.639-1.228-1-2.62-1.288-3.827c-0.637-2.627-0.725-5.495-0.725-8.204c0-0.354-0.011-0.707-0.022-1.068
						s-0.024-0.73-0.024-1.113c0-0.385,0.047-0.777,0.096-1.192c0.035-0.298,0.07-0.597,0.089-0.895l0.009-0.105
						c0.089-1.081,0.18-2.198,0.312-3.238c0.052-0.295,0.052-0.601,0.052-0.896c0-0.831-0.207-1.449-0.635-1.888
						c-0.393-0.469-1.102-0.78-1.82-0.78c-0.574,0-1.079,0.229-1.357,0.613c-0.522,0.639-0.633,1.677-0.633,2.439v0.025l0.002,0.026
						c0.045,0.519,0.045,1.09,0.045,1.694c0,1.139-0.044,2.354-0.086,3.529l-0.006,0.156c0,0.429,0.024,0.829,0.048,1.216
						c0.021,0.355,0.044,0.705,0.044,1.042c0.023,0.488,0.035,0.96,0.047,1.431c0.012,0.482,0.023,0.964,0.047,1.432
						c0.047,1.726,0.274,3.53,0.466,4.908c0.216,1.314,0.599,2.777,1.141,4.363c0.49,1.539,1.149,2.834,1.955,3.838
						c1.234,1.45,2.896,2.241,4.688,2.241s3.531-0.833,4.77-2.284c1.977-2.322,2.5-5.591,2.962-8.475
						c0.349-2.05,0.519-4.205,0.519-6.583c0-0.335-0.012-0.656-0.023-0.978C759.117,187.521,759.105,187.216,759.105,186.897z"/>
				</g>
				<g>
					<path fill="#2960A7" d="M733.124,176.812c-0.127,0-0.252,0.01-0.376,0.03l-0.027,0.004l-0.027,0.007
						c-0.146,0.038-0.87,0.251-1.129,0.803c-0.158,0.283-0.361,0.548-0.575,0.827l-1.506,2.064c-0.237,0.314-0.501,0.627-0.78,0.957
						c-0.28,0.333-0.571,0.677-0.839,1.031c-0.282,0.328-0.584,0.689-0.887,1.05c-0.641,0.765-1.304,1.557-1.992,2.295
						c-0.319,0.35-0.627,0.701-0.936,1.055c-0.456,0.521-0.928,1.062-1.422,1.575c-0.623,0.619-1.205,1.294-1.769,1.946
						c-0.04,0.047-0.081,0.094-0.121,0.141c-0.001-0.043-0.001-0.087-0.001-0.131l0.007-0.071c0.044-0.426,0.086-0.828,0.086-1.242
						c0-0.228,0-0.443-0.047-0.672c-0.003-0.145-0.014-0.296-0.024-0.447c-0.011-0.146-0.022-0.291-0.022-0.428
						c0-0.646,0.039-1.27,0.079-1.93c0.021-0.351,0.044-0.702,0.06-1.058c0-1.169,0-2.351,0.047-3.506
						c0.021-0.264,0.067-0.563,0.113-0.854c0.046-0.293,0.094-0.596,0.118-0.893c0.01-0.063,0.028-0.164,0.046-0.265
						c0.047-0.255,0.094-0.518,0.094-0.803c0-0.373-0.095-0.678-0.299-0.957c-0.404-0.572-1.134-0.892-2.048-0.892
						c-0.08,0-0.16,0.003-0.238,0.008h-0.002c-1.034,0-1.812,0.759-1.812,1.804c0,0.19,0,0.403,0.049,0.635
						c0.002,0.177,0.012,0.352,0.022,0.527c0.01,0.178,0.021,0.355,0.021,0.533c0.031,0.418,0.021,0.778,0.011,1.159
						c-0.006,0.202-0.011,0.405-0.011,0.612c0.02,0.564,0.054,1.101,0.087,1.636c0.052,0.821,0.101,1.597,0.101,2.396v1.283
						c0,0.651,0.044,1.247,0.145,1.933c0.038,0.334-0.008,0.716-0.051,1.085l-0.004,0.035v0.035c0,0.231,0.012,0.473,0.024,0.718
						c0.012,0.235,0.024,0.475,0.024,0.716c0.047,0.59,0.047,1.15,0.047,1.693v0.877c-0.295,0.305-0.557,0.683-0.557,1.234
						c0,0.317,0.099,0.772,0.554,1.187c0.003,0.042,0.003,0.097,0.003,0.134v0.449c0,0.353-0.012,0.713-0.023,1.074
						c-0.012,0.375-0.023,0.749-0.023,1.113v1.355c0,0.905,0,1.761-0.132,2.581l-0.007,0.047v0.048c0,0.081-0.02,0.174-0.036,0.271
						c-0.027,0.157-0.058,0.336-0.058,0.522c0,0.397,0.136,0.756,0.415,1.097c0.382,0.413,0.964,0.634,1.622,0.634
						c0.274,0,0.488-0.041,0.678-0.077l0.012-0.003l0.049-0.01c0.528-0.124,0.971-0.425,1.213-0.826
						c0.198-0.33,0.255-0.714,0.158-1.082c-0.074-0.265-0.083-0.548-0.092-0.848c-0.006-0.174-0.012-0.349-0.027-0.523l-0.278-3.723
						c-0.021-0.25-0.011-0.507,0-0.779c0.013-0.295,0.024-0.599,0-0.918c0.001-0.089-0.008-0.202-0.019-0.317
						c0.373,0.294,0.746,0.597,1.111,0.893l0.204,0.166l0.224,0.183c0.56,0.456,1.139,0.928,1.704,1.424l1.834,1.789
						c0.337,0.343,0.642,0.69,0.965,1.058c0.178,0.203,0.355,0.405,0.539,0.608l1.552,1.67l0.02,0.027
						c0.179,0.26,0.383,0.553,0.798,0.794l0.038,0.022l0.04,0.016c0.393,0.157,0.729,0.23,1.058,0.23h0.184h0.046l0.045-0.007
						c1.034-0.157,2.134-0.854,2.134-1.835c0-0.879-0.726-1.421-1.31-1.856c-0.119-0.089-0.238-0.177-0.349-0.267
						c-0.364-0.32-0.78-0.641-1.184-0.95c-0.257-0.197-0.515-0.396-0.767-0.6c-0.189-0.166-0.392-0.347-0.592-0.525
						c-0.422-0.376-0.858-0.766-1.31-1.13l-0.101-0.089c-1.185-1.036-2.41-2.108-3.521-3.192c-0.295-0.3-0.612-0.607-0.936-0.922
						c-0.146-0.143-0.295-0.286-0.443-0.432c0.387-0.503,0.752-1.008,1.121-1.521c0.396-0.535,0.812-1.096,1.266-1.614l0.292-0.319
						c0.268-0.291,0.544-0.591,0.796-0.913c1.223-1.565,2.629-3.14,3.87-4.528c0.351-0.399,0.704-0.794,1.06-1.191
						c0.587-0.657,1.194-1.336,1.777-2.026l1.37-1.442c0.099-0.104,0.197-0.2,0.29-0.29c0.412-0.405,0.802-0.788,0.802-1.367
						C735.438,177.561,734.219,176.812,733.124,176.812z"/>
				</g>
				<g>
					<path fill="#2960A7" d="M785.391,176.078c-1.337,0-1.945,0.995-1.945,1.92v0.048l0.007,0.046
						c0.09,0.564,0.136,1.142,0.136,1.717c0,0.352-0.016,0.703-0.03,1.055c-0.023,0.549-0.047,1.116-0.016,1.69l-0.001,1.021v0.041
						l0.005,0.041c0.024,0.174-0.015,0.544-0.034,0.722c-0.009,0.084-0.015,0.153-0.018,0.202c-0.035,0.332-0.024,0.993-0.007,1.66
						c0.003,0.099,0.005,0.171,0.005,0.199c0,0.102,0.014,0.244,0.034,0.419c0.027,0.232,0.062,0.521,0.062,0.86
						c0,0.027-0.001,0.053-0.001,0.076h-0.142c0,5.027-0.036,6.037-0.062,6.773c-0.016,0.416-0.027,0.757-0.03,1.617
						c-0.218-0.336-0.507-0.738-0.733-1.053c-0.106-0.149-0.199-0.277-0.261-0.367c-0.438-0.717-0.562-0.94-0.652-1.104
						c-0.153-0.279-0.218-0.395-1.424-2.238l-0.693-1.087c-0.961-1.68-1.185-2.018-1.258-2.119c-0.558-0.925-0.66-1.069-0.751-1.196
						c-0.064-0.089-0.115-0.162-0.392-0.627c-0.171-0.291-0.337-0.585-0.494-0.864c-0.264-0.467-0.513-0.908-0.727-1.231
						c-0.091-0.149-0.219-0.316-0.348-0.483c-0.104-0.134-0.208-0.268-0.29-0.403l-0.5-0.887c-0.238-0.437-0.309-0.545-0.388-0.66
						c-0.06-0.085-0.132-0.19-0.581-1.023c-0.076-0.147-0.168-0.321-0.268-0.508c-0.183-0.341-0.39-0.729-0.598-1.164
						c-0.15-0.282-0.189-0.409-0.218-0.502c-0.031-0.101-0.074-0.239-0.191-0.379c-0.32-0.361-0.889-0.729-1.276-0.834
						c-0.141-0.031-0.264-0.044-0.392-0.044c-0.467,0-1.007,0.169-1.447,0.451c-0.559,0.358-0.865,0.835-0.865,1.341
						c0,0.365,0.147,0.679,0.304,0.908l0.119,0.938c0.018,0.173,0.036,0.321,0.052,0.445c0.02,0.149,0.035,0.253,0.035,0.347
						c0,0.092-0.007,0.172-0.015,0.269c-0.014,0.175-0.03,0.391-0.03,0.751v0.602v0.027l0.002,0.027
						c0.025,0.273,0.035,0.596,0.048,0.988c0.01,0.299,0.021,0.636,0.04,1.02c0.03,0.64,0.042,0.814,0.047,0.885l0.002,0.066v0.566
						c-0.04,1.097-0.015,1.82-0.004,2.13l0.004,0.13c-0.001,0.069-0.016,0.233-0.034,0.454c-0.053,0.616-0.14,1.646-0.104,2.438
						v1.216v0.059l0.011,0.059c0.007,0.075-0.002,0.124-0.013,0.218c-0.021,0.162-0.051,0.416-0.09,0.856
						c-0.072,0.924-0.083,1.559-0.095,2.23c-0.011,0.657-0.022,1.338-0.09,2.381l-0.094,2.134c-0.028,0.228-0.045,0.422-0.06,0.606
						c-0.03,0.379-0.055,0.679-0.195,1.162c-0.112,0.313-0.258,0.727-0.258,1.15c0,0.369,0.132,0.904,0.762,1.355
						c0.464,0.326,1.095,0.52,1.691,0.52c0.438,0,0.823-0.096,1.111-0.277c0.4-0.211,0.73-0.697,0.817-1.036
						c0.054-0.292,0.041-0.641,0.024-0.976l-0.006-0.116l0.026-0.35c0.021-0.294,0.021-0.294,0.021-0.741v-1.168l-0.096-4.462
						c-0.028-0.78-0.055-1.098-0.072-1.297c-0.009-0.107-0.016-0.173-0.016-0.274s0.017-0.254,0.046-0.576
						c0.022-0.235,0.052-0.553,0.089-0.989c0.033-0.423,0.005-0.814-0.02-1.16c-0.014-0.192-0.027-0.376-0.027-0.55v-1.207
						c0-0.045,0.004-0.078,0.009-0.134c0.017-0.209,0.053-0.642,0.087-2.188c0.031-1.256,0.063-1.604,0.079-1.771
						c0.009-0.096,0.013-0.153,0.013-0.24c0-0.14-0.017-0.371-0.038-0.634c-0.014-0.17-0.027-0.352-0.038-0.526
						c0.183,0.247,0.559,0.788,1.141,1.768c0.283,0.475,0.328,0.589,0.35,0.644c0.079,0.201,0.117,0.252,0.751,1.104
						c0.168,0.239,0.482,0.755,0.531,0.858l0.013,0.027l0.026,0.048c0.471,0.778,0.598,1.004,0.62,1.056
						c0.043,0.122,0.066,0.19,0.727,1.28c0.058,0.111,0.399,0.669,0.952,1.567c0.387,0.63,0.869,1.414,0.929,1.528
						c0.069,0.123,0.12,0.223,0.175,0.327c0.154,0.298,0.329,0.636,0.776,1.337c0.208,0.317,0.297,0.44,0.348,0.511
						c0.038,0.054,0.043,0.062,0.094,0.159l0.022,0.043l0.029,0.038c0.125,0.167,0.2,0.321,0.314,0.555
						c0.055,0.113,0.115,0.237,0.189,0.38c0.325,0.685,0.608,1.18,1.035,1.912c0.233,0.416,0.544,1.012,0.865,1.626l0.142,0.27
						l0.212,0.49c0.091,0.186,0.091,0.2,0.091,0.251c0,0.259,0,0.945,0.741,1.412c0.396,0.273,0.963,0.432,1.573,0.432
						c0.261,0,0.556,0,0.881-0.105c1.044-0.255,1.605-0.998,1.423-1.928c-0.128-0.482-0.223-0.629-0.485-0.969
						c-0.041-0.061-0.082-0.115-0.117-0.159l-0.039-0.501c0.002-0.207-0.025-0.847-0.052-1.421c-0.02-0.446-0.038-0.851-0.038-0.981
						v-1.922c0-2.567,0.028-3.19,0.04-3.456c0.005-0.097,0.007-0.159,0.007-0.237c0-0.172-0.01-0.326-0.022-0.492
						c-0.011-0.162-0.024-0.338-0.024-0.564v-0.412c0-0.277,0.046-0.937,0.09-1.414l0.002-0.027v-0.027v-1.244
						c0-0.247,0.044-0.529,0.085-0.803c0.02-0.129,0.039-0.254,0.054-0.372c0.036-0.302,0.024-0.692,0.014-1.071
						c-0.005-0.155-0.01-0.305-0.01-0.432v-1.359c0.027-0.237,0.054-0.43,0.079-0.613c0.061-0.437,0.117-0.849,0.149-1.658
						l0.02-0.437c0.02-0.464,0.026-0.637,0.212-2.271l0.184-1.383l0.005-0.039v-0.04v-1.279v-0.111l-0.04-0.104
						C787.38,176.387,786.295,176.078,785.391,176.078z"/>
				</g>
				<g>
					<path fill="#2960A7" d="M838.303,176.567c-0.266-0.202-0.622-0.3-1.09-0.3c-0.413,0-0.868,0.078-1.233,0.142
						c-0.127,0.021-0.238,0.041-0.324,0.052c-0.286,0.012-0.482,0.028-0.76,0.052c-0.348,0.029-0.826,0.069-1.893,0.133
						c-1.183,0.074-4.864,0.112-5.251,0.112c-4.118-0.038-4.786-0.119-5.631-0.223c-0.255-0.043-0.562-0.043-0.857-0.043
						c-0.521,0-1.265,0.051-1.743,0.49c-0.346,0.29-0.575,0.845-0.575,1.391c0,0.423,0.127,0.802,0.367,1.097
						c0.543,0.734,1.456,0.831,2.189,0.831c0.125,0,0.255-0.003,0.388-0.008c0.404-0.042,2.027-0.152,2.92-0.188h1.413h0.036
						l0.035-0.004l0.285-0.034c0.015,0.043,0.027,0.078,0.038,0.109c0.04,0.11,0.055,0.151,0.12,1.103l0.139,2.33l-0.001,1.809
						c-0.025,0.232,0.004,0.601,0.053,1.152c0.021,0.233,0.041,0.442,0.041,0.547l-0.048,0.635
						c-0.048,0.525-0.046,0.566-0.046,0.609v0.602c0.045,1.629,0.045,3.442,0.045,4.898v1.508c0,0.701-0.046,1.451-0.076,1.596
						c-0.056,0.225-0.107,0.56-0.107,1.455c0,0.601,0.021,1.2,0.034,1.582c0.006,0.165,0.011,0.287,0.011,0.344
						c0,0.171-0.048,0.854-0.083,1.354c-0.03,0.438-0.056,0.821-0.056,0.906c-0.04,0.617-0.122,0.87-0.341,1.549
						c-0.109,0.299-0.13,0.824,0.432,1.508c0.396,0.482,0.939,0.748,1.528,0.748c0.66,0,1.623-0.274,2.164-1.049
						c0.212-0.348,0.293-0.598,0.293-0.871c0-0.128-0.023-0.236-0.04-0.31c0.018-0.132,0.04-0.395,0.04-1.161
						c0-0.585-0.015-0.76-0.027-0.914c-0.01-0.121-0.02-0.234-0.02-0.592v-1.094v-0.026l-0.002-0.026l-0.094-1.057
						c-0.073-0.902-0.13-1.589-0.102-1.747c0.104-0.38,0.104-0.524,0.104-1.214v-1.545c0-2.18-0.045-3.759-0.075-4.804
						c-0.021-0.722-0.035-1.244-0.019-1.437c0.041-0.292,0.085-0.842,0.093-1.053c0.048-0.33,0.048-0.545,0.048-0.734
						c0-0.292-0.028-0.468-0.054-0.622c-0.021-0.132-0.038-0.235-0.038-0.433c0-0.309,0.029-1.047,0.063-1.903
						c0.026-0.657,0.055-1.383,0.075-2.037c0.017-0.445,0.036-1.082,0.044-1.792h2.323c0.454-0.02,0.946-0.037,1.413-0.037
						c0.503,0,0.89,0.021,1.15,0.062c0.353,0.094,0.896,0.163,1.284,0.163h0.139h0.025l0.024-0.002
						c0.622-0.052,1.27-0.495,1.587-0.906c0.27-0.385,0.402-0.764,0.402-1.121C839.064,177.467,838.685,176.822,838.303,176.567z"/>
				</g>
				<g>
					<path fill="#2960A7" d="M503.932,176.548l-0.039-0.135l-0.095-0.104c-0.351-0.383-0.799-0.57-1.37-0.57
						c-0.28,0-0.551,0.044-0.789,0.082c-0.12,0.01-0.395,0.041-0.684,0.074c-0.369,0.041-0.928,0.104-1.034,0.106h-0.026
						l-0.036,0.003c-0.595,0.065-1.37,0.146-2.101,0.189c-0.176,0.009-0.41,0.013-0.658,0.013c-0.698,0-1.36-0.029-1.492-0.049
						c-0.308-0.033-0.588-0.092-0.884-0.154c-0.385-0.081-0.782-0.165-1.21-0.188c-0.09-0.01-0.222-0.019-0.382-0.028
						c-0.356-0.021-0.847-0.052-1.61-0.155l-0.04-0.006h-0.04l-0.046-0.011c-0.137-0.024-0.343-0.062-0.604-0.062h-0.076
						c-0.254-0.051-0.494-0.078-0.713-0.078c-0.258,0-0.528,0.072-0.633,0.104c-0.844,0.27-1.266,0.968-1.266,2.079
						c0,0.274,0.029,0.54,0.055,0.774c0.02,0.172,0.039,0.331,0.039,0.47c0.022,0.45,0.033,0.859,0.044,1.27
						c0.013,0.438,0.024,0.876,0.048,1.325c0.143,1.829,0.232,4.703,0.232,5.431c0,0.488,0.023,0.956,0.047,1.408
						c0.022,0.456,0.045,0.888,0.045,1.344v1.281c0,0.462,0,0.898,0.05,1.38c0.042,0.318,0.042,0.627,0.042,0.954
						c0,0.333-0.012,0.667-0.022,1c-0.012,0.347-0.022,0.692-0.022,1.039c0,0.466,0.007,2.062,0.096,3.03
						c0.024,0.431-0.017,0.816-0.053,1.156c-0.023,0.227-0.043,0.426-0.043,0.597v1.584v0.789c0,0.245,0,0.477-0.038,0.688
						l-0.007,0.038l-0.002,0.039l-0.008,0.156c-0.033,0.657-0.07,1.403,0.434,1.934c0.342,0.36,0.854,0.536,1.566,0.536
						c0.72,0,1.402-0.27,1.783-0.703c0.272-0.311,0.394-0.703,0.341-1.106l-0.009-0.064l-0.021-0.062
						c-0.153-0.423-0.188-0.982-0.217-1.432c-0.009-0.135-0.018-0.263-0.027-0.378c-0.019-0.312-0.053-0.643-0.088-0.97
						c-0.049-0.463-0.096-0.898-0.096-1.315c0-0.114,0.011-0.228,0.021-0.343c0.013-0.148,0.024-0.297,0.024-0.444
						c0-0.393-0.043-0.782-0.091-1.146l-0.093-2.161l-0.047-0.908c0-0.069,0-0.195,0.043-0.535c0.049-0.418,0.049-1.044,0.049-1.279
						c0-0.143-0.004-0.283-0.012-0.423l0.322-0.027c-0.005,0-0.005,0-0.002,0c0.012,0,0.065-0.002,0.137-0.006
						c0.214-0.011,0.625-0.031,1.158-0.031h2.783c0.455,0,2.147,0.079,2.488,0.141c0.113,0.015,0.176,0.039,0.264,0.072
						c0.139,0.053,0.33,0.127,0.586,0.127c0.209,0,0.416-0.046,0.668-0.146c0.626-0.203,0.852-0.653,0.938-0.824
						c0.152-0.257,0.152-0.537,0.152-0.722c0-0.187,0-0.38-0.087-0.601c-0.187-0.501-0.565-0.891-1.093-1.114
						c-0.261-0.13-0.459-0.13-0.67-0.13c-0.154,0-0.389,0-0.814,0.087c-0.771,0.14-0.885,0.14-1.133,0.14H497.4
						c-1.09,0-1.23,0-1.606,0.037c-0.239-0.002-0.599-0.035-1.424-0.109c-0.503-0.046-1.179-0.107-2.113-0.188
						c-0.06-0.009-0.116-0.016-0.171-0.021v-1.39c0-0.22,0.006-0.438,0.011-0.66c0.011-0.464,0.021-0.944-0.012-1.447
						c-0.024-0.528-0.004-1.063,0.019-1.631c0.015-0.386,0.029-0.772,0.029-1.158c-0.041-1.856,0.025-2.825,0.089-3.313l0.056-0.346
						h1.852h0.04l0.039-0.006c0.517-0.068,1.469-0.107,2.612-0.107c0.556,0,1.186,0,1.817,0.037c0.215,0.013,0.427,0.018,0.64,0.018
						c0.204,0,0.408-0.004,0.612-0.009c0.197-0.004,0.395-0.007,0.593-0.007c0.313,0,0.628,0.018,0.941,0.035
						c0.336,0.02,0.671,0.039,1.004,0.039c0.885,0,1.677-0.594,1.843-1.381l0.031-0.146l-0.042-0.145L503.932,176.548z"/>
				</g>
				<g>
					<path fill="#2960A7" d="M624.923,182.23c0.036-0.435,0.067-0.81,0.067-1.404c0-0.529,0.028-1.037,0.079-1.467
						c0.032-0.007,0.126-0.027,0.474-0.05l1.307,0.002h0.038l0.038-0.006c0.232-0.029,1.869-0.105,2.102-0.105
						c0.114-0.007,0.256-0.008,0.441-0.008c0.759,0,2.252,0.032,3.343,0.056c0.702,0.016,1.272,0.028,1.456,0.028h1.1
						c0.264,0.047,0.729,0.074,0.986,0.074h0.23c0.931-0.06,1.713-0.938,1.713-1.88c0-0.991-0.842-1.738-1.96-1.738
						c-0.071,0-0.145,0.003-0.219,0.01l-2.79,0.262l-1.368,0.114c-0.662,0.056-0.885,0.074-1.081,0.074
						c-0.883,0-2.572-0.111-3.056-0.15c-0.445-0.041-0.618-0.082-0.771-0.117c-0.119-0.027-0.221-0.051-0.369-0.068
						c-0.387-0.074-0.927-0.115-1.565-0.116c-0.156-0.018-0.363-0.046-0.559-0.073c-0.34-0.047-0.51-0.069-0.62-0.076
						c-0.159-0.024-0.238-0.029-0.279-0.029h-0.194c0,0-0.001,0-0.002,0c-0.247-0.044-0.704-0.086-0.882-0.086
						c-0.997,0-1.666,1.07-1.666,2.069c0,0.083,0.004,0.146,0.013,0.253c0.016,0.194,0.048,0.599,0.081,1.91
						c0,0.076,0.005,0.139,0.017,0.264c0.02,0.203,0.06,0.624,0.122,1.936c0.026,0.317,0.037,0.687,0.049,1.08
						c0.012,0.353,0.022,0.723,0.044,1.078c0.042,1.131,0.093,2.691,0.093,3.618v0.062l0.013,0.062
						c0.012,0.055,0.022,0.101,0.034,0.145c0.026,0.107,0.045,0.178,0.045,0.521v0.453c0,0.274-0.012,0.559-0.022,0.843
						c-0.012,0.3-0.022,0.601-0.022,0.892l0.094,2.173c0,0.22,0.025,0.557,0.052,0.882c0.019,0.244,0.038,0.471,0.038,0.602
						c0,0.152-0.031,0.556-0.055,0.851c-0.02,0.254-0.035,0.473-0.035,0.542c0,0.062,0.01,0.182,0.026,0.339
						c0.025,0.243,0.063,0.61,0.063,0.979v2.299c-0.031,0.403-0.022,0.563-0.008,0.728c0.004,0.039,0.008,0.077,0.008,0.138
						c0,0.146,0,0.345-0.043,0.726c-0.11,1.122-0.107,1.406-0.101,2.027c0.002,0.176,0.005,0.381,0.005,0.644
						c0,0.657,0.055,0.826,0.078,0.898c0.218,0.901,1.268,1.325,2.207,1.325c0.059,0,0.113-0.002,0.164-0.006l0.061-0.004
						l0.059-0.017c0.127-0.035,0.438-0.052,0.953-0.052c0.361,0,0.77,0,1.308,0.033l7.21,0.114c0.783,0.038,1.35,0.038,1.725,0.038
						c0.72,0,1.028-0.046,1.236-0.09c1.101-0.207,1.82-0.896,1.82-1.753c0-0.897-0.784-1.657-1.713-1.657
						c-0.207,0-0.496,0.042-0.752,0.078c-0.119,0.017-0.223,0.033-0.277,0.036l-0.046,0.003l-0.065,0.01l-0.072,0.016
						c-0.204,0.044-0.628,0.136-1.259,0.199c-0.704,0.071-5.938,0.113-6.796,0.113c-0.4-0.023-0.812-0.085-1.143-0.135
						c-0.142-0.021-0.266-0.04-0.364-0.052l-0.343-0.04c-0.008-0.042-0.017-0.08-0.025-0.114c-0.029-0.128-0.055-0.226-0.076-0.31
						c-0.042-0.166-0.066-0.262-0.092-0.481v-0.944c0.019-0.178,0-0.426-0.039-0.906c-0.042-0.515-0.1-1.219-0.1-1.958l-0.094-2.14
						c0-0.072-0.013-0.186-0.028-0.298c-0.008-0.056-0.019-0.112-0.019-0.162c0-0.31,0.038-0.627,0.065-0.858
						c0.019-0.16,0.03-0.283,0.03-0.349c0-0.104-0.021-0.289-0.076-0.72c-0.03-0.242-0.062-0.484-0.066-0.57
						c-0.005-0.079-0.01-0.153-0.014-0.224c0.09-0.008,0.202-0.018,0.342-0.028c-0.005,0-0.006,0-0.002,0
						c0.011,0,0.063-0.002,0.135-0.006c0.213-0.011,0.625-0.031,1.16-0.031h2.783c0.455,0,2.148,0.079,2.492,0.141
						c0.112,0.015,0.17,0.037,0.258,0.07c0.14,0.055,0.33,0.129,0.59,0.129c0.207,0,0.414-0.046,0.666-0.146
						c0.626-0.201,0.852-0.652,0.938-0.824c0.152-0.257,0.152-0.537,0.152-0.722s0-0.376-0.082-0.592
						c-0.192-0.511-0.571-0.899-1.096-1.122c-0.26-0.131-0.46-0.131-0.672-0.131c-0.152,0-0.384,0-0.812,0.086
						c-0.771,0.141-0.885,0.141-1.135,0.141h-0.465c-1.088,0-1.229,0-1.603,0.037c-0.24-0.002-0.6-0.035-1.423-0.109
						c-0.502-0.046-1.179-0.107-2.114-0.188c-0.027-0.004-0.054-0.008-0.08-0.011c0.02-0.111,0.028-0.258,0.028-0.606
						c0-0.313-0.005-0.478-0.012-0.695c-0.014-0.407-0.035-1.022-0.035-3.336v-2.146L624.923,182.23z"/>
				</g>
				<g>
					<path fill="#2960A7" d="M812.772,176.551l-0.04-0.14l-0.099-0.106c-0.355-0.38-0.803-0.564-1.366-0.564
						c-0.282,0-0.553,0.043-0.791,0.081c-0.124,0.011-0.404,0.042-0.699,0.075c-0.363,0.041-0.913,0.103-1.019,0.105h-0.026
						l-0.036,0.003c-0.595,0.065-1.37,0.146-2.101,0.189c-0.176,0.009-0.409,0.013-0.657,0.013c-0.697,0-1.361-0.029-1.494-0.049
						c-0.307-0.033-0.587-0.092-0.883-0.154c-0.385-0.081-0.782-0.165-1.209-0.189c-0.091-0.009-0.224-0.018-0.383-0.027
						c-0.357-0.021-0.848-0.052-1.612-0.155l-0.04-0.005h-0.04l-0.039-0.011c-0.129-0.023-0.345-0.062-0.611-0.062h-0.074
						c-0.255-0.053-0.494-0.078-0.713-0.078c-0.27,0-0.555,0.079-0.636,0.104c-0.84,0.269-1.261,0.967-1.261,2.078
						c0,0.273,0.028,0.538,0.053,0.772c0.019,0.172,0.037,0.332,0.037,0.472c0.025,0.479,0.038,0.915,0.05,1.353
						c0.012,0.409,0.022,0.82,0.044,1.241c0.135,1.753,0.232,4.607,0.232,5.432c0,0.488,0.023,0.956,0.046,1.408
						c0.023,0.456,0.046,0.888,0.046,1.344v1.281c0,0.462,0,0.898,0.05,1.381c0.044,0.318,0.044,0.627,0.044,0.953
						c0,0.333-0.012,0.666-0.023,0.999c-0.012,0.347-0.023,0.693-0.023,1.04c0,0.466,0.007,2.062,0.096,3.029
						c0.024,0.432-0.017,0.816-0.053,1.156c-0.023,0.229-0.043,0.427-0.043,0.598v1.584v0.789c0,0.245,0,0.477-0.038,0.688
						l-0.007,0.039l-0.002,0.039l-0.008,0.159c-0.033,0.656-0.071,1.401,0.433,1.932c0.342,0.359,0.854,0.534,1.565,0.534
						c0.72,0,1.403-0.269,1.783-0.702c0.272-0.311,0.394-0.703,0.341-1.106l-0.008-0.064l-0.022-0.062
						c-0.153-0.423-0.188-0.981-0.217-1.432c-0.009-0.135-0.017-0.263-0.027-0.378c-0.017-0.318-0.052-0.656-0.087-0.992
						c-0.048-0.454-0.093-0.883-0.093-1.293c0-0.114,0.011-0.229,0.02-0.345c0.013-0.147,0.023-0.295,0.023-0.442
						c0-0.435-0.052-0.858-0.093-1.149l-0.093-2.157l-0.045-0.906c0-0.072,0-0.199,0.041-0.54c0.049-0.415,0.049-1.041,0.049-1.276
						c0-0.143-0.004-0.283-0.011-0.423l0.321-0.028c-0.005,0.001-0.005,0.001-0.002,0.001c0.012,0,0.065-0.002,0.137-0.006
						c0.214-0.011,0.625-0.032,1.162-0.032h2.781c0.454,0,2.148,0.08,2.493,0.142c0.111,0.015,0.169,0.037,0.258,0.071
						c0.139,0.054,0.328,0.127,0.587,0.127c0.21,0,0.417-0.045,0.667-0.146c0.55-0.177,0.793-0.537,0.927-0.805
						c0.166-0.287,0.166-0.559,0.166-0.74c0-0.187,0-0.38-0.087-0.6c-0.189-0.504-0.568-0.892-1.092-1.114
						c-0.258-0.13-0.46-0.13-0.673-0.13c-0.152,0-0.384,0-0.813,0.086c-0.771,0.141-0.885,0.141-1.136,0.141h-0.463
						c-1.088,0-1.228,0-1.604,0.037c-0.241-0.003-0.603-0.036-1.431-0.111c-0.502-0.046-1.177-0.107-2.106-0.188
						c-0.06-0.009-0.116-0.016-0.171-0.021v-1.39c0-0.22,0.005-0.439,0.01-0.66c0.011-0.464,0.021-0.943-0.011-1.446
						c-0.026-0.533-0.006-1.071,0.017-1.642c0.015-0.383,0.029-0.766,0.029-1.148c-0.04-1.868,0.026-2.832,0.089-3.313l0.057-0.347
						h1.854h0.04l0.039-0.005c0.514-0.068,1.464-0.108,2.608-0.108c0.559,0,1.19,0,1.819,0.038c0.214,0.013,0.427,0.017,0.639,0.017
						c0.205,0,0.41-0.004,0.614-0.008c0.196-0.004,0.394-0.008,0.59-0.008c0.313,0,0.627,0.019,0.94,0.036
						c0.336,0.02,0.672,0.038,1.009,0.038c0.873,0,1.681-0.608,1.838-1.385l0.029-0.144l-0.04-0.14L812.772,176.551z"/>
				</g>
			</g>
			<g>
				<g>
					<path fill="#CF081C" d="M110.73,229.213c-8.088-3.742-15.658-8.709-22.404-14.83l-36.092,36.092
						c11.58,10.889,24.789,19.564,38.969,25.865L110.73,229.213z"/>
				</g>
				<g>
					<path fill="#F3991D" d="M64.561,179.023c-3.154-8.625-4.896-17.539-5.297-26.441H8.242c0.43,15.48,3.432,31.025,9.168,45.979
						L64.561,179.023z"/>
				</g>
				<g>
					<path fill="#0F802E" d="M71.949,194.467c-1.592-2.639-3.018-5.332-4.305-8.062l-47.146,19.537
						c2.273,5.045,4.854,10.016,7.781,14.869c5.32,8.82,11.473,16.836,18.287,24.021l36.088-36.088
						C78.689,204.432,75.088,199.674,71.949,194.467z"/>
				</g>
				<g>
					<g>
						<path fill="#2960A7" d="M263.738,185.359c5.273,0,9.162,0.959,11.674,2.879c2.506,1.916,4.664,5.742,6.473,11.473
							l12.02,38.137c0.258,0.787,0.713,2.426,1.357,4.924c0.646,2.494,1.486,5.848,2.521,10.053
							c0.828-4.021,1.514-7.107,2.057-9.254c0.541-2.152,1.07-3.99,1.588-5.516l12.408-39.037c1.551-4.992,3.646-8.469,6.283-10.434
							c2.635-1.963,6.459-2.949,11.475-2.949h13.496c5.48,0,9.656,1.217,12.523,3.643c2.867,2.428,4.305,5.951,4.305,10.572v75.371
							c0,4.992-1.332,8.771-3.994,11.338c-2.664,2.566-6.582,3.848-11.75,3.848c-5.48,0-9.705-1.271-12.678-3.814
							c-2.973-2.541-4.459-6.193-4.459-10.955V238.75c0-0.23,0.062-2.324,0.193-6.275c0.127-3.953,0.221-7.824,0.271-11.615
							c-0.982,4.07-1.863,7.605-2.637,10.609c-0.775,3.006-1.475,5.525-2.094,7.557l-11.943,42.297
							c-0.93,3.238-2.574,5.559-4.926,6.969c-2.354,1.408-5.777,2.115-10.273,2.115c-4.498,0-7.859-0.67-10.082-2.012
							c-2.225-1.34-3.801-3.65-4.729-6.934l-12.023-41.256c-0.619-2.033-1.256-4.414-1.9-7.143
							c-0.646-2.727-1.562-6.793-2.752-12.203c0.104,1.48,0.18,3.006,0.232,4.576c0.051,1.574,0.076,3.654,0.076,6.24
							c0,1.666-0.025,3.398-0.076,5.203c-0.053,1.801-0.076,2.748-0.076,2.84v35.918c0,4.762-1.488,8.414-4.459,10.955
							c-2.975,2.543-7.201,3.814-12.682,3.814c-5.17,0-9.086-1.281-11.748-3.848c-2.664-2.566-3.994-6.346-3.994-11.338v-75.646
							c0-4.621,1.434-8.148,4.307-10.574c2.867-2.428,7.043-3.641,12.521-3.641H263.738"/>
					</g>
				</g>
				<g>
					<g>
						<path fill="#2960A7" d="M153.051,288.443c-0.666-1.156-1.266-2.396-1.795-3.717l-19.293-48.748
							c-4.699-0.879-9.326-2.117-13.83-3.73l-19.529,47.131c15.893,6.004,32.807,9.121,49.867,9.117v0.039
							C150.004,288.531,151.529,288.496,153.051,288.443z"/>
					</g>
				</g>
				<g>
					<g>
						<path fill="#2960A7" d="M231.061,181.543C231.193,181.426,230.928,181.654,231.061,181.543
							c1.484-1.258,3.156-2.338,4.998-3.227c3.994-1.928,8.785-2.957,14.186-2.957h13.494c7.6,0,13.404,1.613,17.748,4.934
							c0.904,0.691,1.76,1.488,2.578,2.379c2.781-11.033,4.266-22.576,4.246-34.465C288.174,70.965,225.227,8.234,147.982,8.367
							C72.117,8.5,10.256,69.232,8.203,144.582h51.029c2.031-47.264,41.07-85.131,88.84-85.213
							c49.119-0.086,89.152,39.807,89.238,88.928C237.332,160.109,235.236,171.215,231.061,181.543z"/>
					</g>
				</g>
				<g>
					<path fill="#2960A7" d="M207.475,211.777c4.701,0,8.566,1.225,11.592,3.674c3.025,2.451,4.537,5.57,4.537,9.359
						c0,1.02-0.115,2.07-0.348,3.158c-0.234,1.086-0.58,2.275-1.049,3.57l-18.301,49.508c-1.189,3.188-2.998,5.521-5.428,7
						c-2.432,1.479-5.637,2.219-9.617,2.219h-13.027c-4.035,0-7.268-0.727-9.693-2.182c-2.432-1.457-4.293-3.803-5.586-7.037
						l-19.541-49.371c-0.414-1.016-0.725-2.08-0.932-3.188c-0.207-1.111-0.311-2.242-0.311-3.398c0-3.836,1.537-6.967,4.615-9.396
						c3.074-2.426,7.043-3.639,11.904-3.639c3.721,0,6.746,0.938,9.072,2.809s4.16,4.863,5.508,8.979l11.479,35.084l10.777-34.943
						c1.291-4.068,3.127-7.121,5.506-9.156C201.01,212.795,203.957,211.777,207.475,211.777"/>
				</g>
			</g>
		</g>
	</g>
</g>
</svg>
