<?xml version="1.0" encoding="UTF-8" standalone="no"?>
<!DOCTYPE svg PUBLIC "-//W3C//DTD SVG 1.1//EN"
 "http://www.w3.org/Graphics/SVG/1.1/DTD/svg11.dtd">
<!-- Generated by graphviz version 2.40.1 (20161225.0304)
 -->
<!-- Title: G Pages: 1 -->
<svg width="788pt" height="230pt"
 viewBox="0.00 0.00 787.50 230.00" xmlns="http://www.w3.org/2000/svg" xmlns:xlink="http://www.w3.org/1999/xlink">
<g id="graph0" class="graph" transform="scale(1 1) rotate(0) translate(4 226)">
<title>G</title>
<polygon fill="#ffffff" stroke="transparent" points="-4,4 -4,-226 783.5,-226 783.5,4 -4,4"/>
<!-- P1 -->
<g id="node1" class="node">
<title>P1</title>
<polygon fill="none" stroke="#000000" points="142.5,-182 142.5,-218 231.5,-218 231.5,-182 142.5,-182"/>
<text text-anchor="start" x="153" y="-208.1" font-family="Bitstream Vera Sans" text-decoration="underline" font-size="8.00" fill="#000000">platz1: Spielfeld</text>
<polyline fill="none" stroke="#000000" points="142.5,-200 231.5,-200 "/>
<text text-anchor="start" x="150.5" y="-189.1" font-family="Bitstream Vera Sans" font-size="8.00" fill="#000000">name = &quot;Platz 1&quot;</text>
</g>
<!-- P2 -->
<g id="node2" class="node">
<title>P2</title>
<polygon fill="none" stroke="#000000" points="690.5,-182 690.5,-218 779.5,-218 779.5,-182 690.5,-182"/>
<text text-anchor="start" x="701" y="-208.1" font-family="Bitstream Vera Sans" text-decoration="underline" font-size="8.00" fill="#000000">platz2: Spielfeld</text>
<polyline fill="none" stroke="#000000" points="690.5,-200 779.5,-200 "/>
<text text-anchor="start" x="698.5" y="-189.1" font-family="Bitstream Vera Sans" font-size="8.00" fill="#000000">name = &quot;Platz 2&quot;</text>
</g>
<!-- TA -->
<g id="node3" class="node">
<title>TA</title>
<polygon fill="none" stroke="#000000" points="406,-178.5 406,-221.5 526,-221.5 526,-178.5 406,-178.5"/>
<text text-anchor="start" x="424" y="-212.1" font-family="Bitstream Vera Sans" text-decoration="underline" font-size="8.00" fill="#000000">aTeam: Mannschaft</text>
<polyline fill="none" stroke="#000000" points="406,-204.5 526,-204.5 "/>
<text text-anchor="start" x="427" y="-194.1" font-family="Bitstream Vera Sans" font-size="8.00" fill="#000000">name = &quot;A&#45;Team&quot;</text>
<text text-anchor="start" x="414" y="-185.1" font-family="Bitstream Vera Sans" font-size="8.00" fill="#000000">trikotfarbe = &quot;rot &#45; blau&quot;</text>
</g>
<!-- TS -->
<g id="node4" class="node">
<title>TS</title>
<polygon fill="none" stroke="#000000" points="250,-178.5 250,-221.5 388,-221.5 388,-178.5 250,-178.5"/>
<text text-anchor="start" x="258" y="-212.1" font-family="Bitstream Vera Sans" text-decoration="underline" font-size="8.00" fill="#000000">teamSandsturm: Mannschaft</text>
<polyline fill="none" stroke="#000000" points="250,-204.5 388,-204.5 "/>
<text text-anchor="start" x="273.5" y="-194.1" font-family="Bitstream Vera Sans" font-size="8.00" fill="#000000">name = &quot;Sandsturm&quot;</text>
<text text-anchor="start" x="267.5" y="-185.1" font-family="Bitstream Vera Sans" font-size="8.00" fill="#000000">trikotfarbe = &quot;sandgelb&quot;</text>
</g>
<!-- TB -->
<g id="node5" class="node">
<title>TB</title>
<polygon fill="none" stroke="#000000" points="544,-178.5 544,-221.5 672,-221.5 672,-178.5 544,-178.5"/>
<text text-anchor="start" x="552" y="-212.1" font-family="Bitstream Vera Sans" text-decoration="underline" font-size="8.00" fill="#000000">dieBallhelden: Mannschaft</text>
<polyline fill="none" stroke="#000000" points="544,-204.5 672,-204.5 "/>
<text text-anchor="start" x="555" y="-194.1" font-family="Bitstream Vera Sans" font-size="8.00" fill="#000000">name = &quot;Die Ballhelden&quot;</text>
<text text-anchor="start" x="565.5" y="-185.1" font-family="Bitstream Vera Sans" font-size="8.00" fill="#000000">trikotfarbe = &quot;weiß&quot;</text>
</g>
<!-- S3 -->
<g id="node6" class="node">
<title>S3</title>
<polygon fill="none" stroke="#000000" points="0,-.5 0,-43.5 94,-43.5 94,-.5 0,-.5"/>
<text text-anchor="start" x="8" y="-34.1" font-family="Bitstream Vera Sans" text-decoration="underline" font-size="8.00" fill="#000000">spielASsatz1: Satz</text>
<polyline fill="none" stroke="#000000" points="0,-26.5 94,-26.5 "/>
<text text-anchor="start" x="18" y="-16.1" font-family="Bitstream Vera Sans" font-size="8.00" fill="#000000">punkteA = 14</text>
<text text-anchor="start" x="18" y="-7.1" font-family="Bitstream Vera Sans" font-size="8.00" fill="#000000">punkteB = 21</text>
</g>
<!-- SAS -->
<g id="node7" class="node">
<title>SAS</title>
<polygon fill="none" stroke="#000000" points="169,-89.5 169,-132.5 261,-132.5 261,-89.5 169,-89.5"/>
<text text-anchor="start" x="186" y="-123.1" font-family="Bitstream Vera Sans" text-decoration="underline" font-size="8.00" fill="#000000">spielAS: Spiel</text>
<polyline fill="none" stroke="#000000" points="169,-115.5 261,-115.5 "/>
<text text-anchor="start" x="177.5" y="-105.1" font-family="Bitstream Vera Sans" font-size="8.00" fill="#000000">start = 12:15 Uhr</text>
<text text-anchor="start" x="177" y="-96.1" font-family="Bitstream Vera Sans" font-size="8.00" fill="#000000">ende = 13:50 Uhr</text>
</g>
<!-- S3&#45;&gt;SAS -->
<g id="edge10" class="edge">
<title>S3&#45;&gt;SAS</title>
<path fill="none" stroke="#000000" d="M87.6681,-43.5444C110.4896,-55.6344 139.1874,-70.8373 163.5589,-83.7485"/>
<polygon fill="none" stroke="#000000" points="163.8116,-83.8823 170.9861,-83.1565 174.4156,-89.4999 167.2411,-90.2258 163.8116,-83.8823"/>
<text text-anchor="middle" x="151.5" y="-64.6" font-family="Bitstream Vera Sans" font-size="8.00" fill="#000000">satz[0]</text>
</g>
<!-- SAS&#45;&gt;P1 -->
<g id="edge3" class="edge">
<title>SAS&#45;&gt;P1</title>
<path fill="none" stroke="#000000" d="M200.3601,-132.6522C197.0987,-138.3971 194.0149,-144.7479 192,-151 189.9,-157.5162 188.6245,-164.7492 187.8632,-171.6134"/>
<polygon fill="#000000" stroke="#000000" points="187.0454,-181.9402 183.3489,-171.6162 187.4401,-176.9558 187.8349,-171.9714 187.8349,-171.9714 187.8349,-171.9714 187.4401,-176.9558 192.3209,-172.3267 187.0454,-181.9402 187.0454,-181.9402"/>
<text text-anchor="middle" x="202.5" y="-153.6" font-family="Bitstream Vera Sans" font-size="8.00" fill="#000000">platz</text>
</g>
<!-- SAS&#45;&gt;TA -->
<g id="edge1" class="edge">
<title>SAS&#45;&gt;TA</title>
<path fill="none" stroke="#000000" d="M261.0795,-129.924C276.6762,-136.456 294.1533,-143.9148 310,-151 318.5301,-154.8139 320.2244,-156.791 329,-160 355.7236,-169.7722 365.2695,-169.4175 396.0654,-177.8521"/>
<polygon fill="#000000" stroke="#000000" points="405.8434,-180.625 394.995,-182.2259 401.0331,-179.2608 396.2227,-177.8967 396.2227,-177.8967 396.2227,-177.8967 401.0331,-179.2608 397.4505,-173.5674 405.8434,-180.625 405.8434,-180.625"/>
<text text-anchor="middle" x="343" y="-153.6" font-family="Bitstream Vera Sans" font-size="8.00" fill="#000000">teamA</text>
</g>
<!-- SAS&#45;&gt;TS -->
<g id="edge2" class="edge">
<title>SAS&#45;&gt;TS</title>
<path fill="none" stroke="#000000" d="M221.1542,-132.9491C224.6142,-142.1817 229.7334,-152.4983 237,-160 241.6648,-164.8157 247.0288,-169.1325 252.7332,-172.9837"/>
<polygon fill="#000000" stroke="#000000" points="261.2926,-178.2968 250.4231,-176.8462 257.0445,-175.6598 252.7964,-173.0229 252.7964,-173.0229 252.7964,-173.0229 257.0445,-175.6598 255.1696,-169.1995 261.2926,-178.2968 261.2926,-178.2968"/>
<text text-anchor="middle" x="251" y="-153.6" font-family="Bitstream Vera Sans" font-size="8.00" fill="#000000">teamB</text>
</g>
<!-- S4 -->
<g id="node8" class="node">
<title>S4</title>
<polygon fill="none" stroke="#000000" points="112,-.5 112,-43.5 206,-43.5 206,-.5 112,-.5"/>
<text text-anchor="start" x="120" y="-34.1" font-family="Bitstream Vera Sans" text-decoration="underline" font-size="8.00" fill="#000000">spielASsatz2: Satz</text>
<polyline fill="none" stroke="#000000" points="112,-26.5 206,-26.5 "/>
<text text-anchor="start" x="130" y="-16.1" font-family="Bitstream Vera Sans" font-size="8.00" fill="#000000">punkteA = 25</text>
<text text-anchor="start" x="130" y="-7.1" font-family="Bitstream Vera Sans" font-size="8.00" fill="#000000">punkteB = 23</text>
</g>
<!-- S4&#45;&gt;SAS -->
<g id="edge11" class="edge">
<title>S4&#45;&gt;SAS</title>
<path fill="none" stroke="#000000" d="M172.556,-43.5444C179.2475,-54.179 187.4545,-67.2223 194.8625,-78.9957"/>
<polygon fill="none" stroke="#000000" points="194.9839,-79.1888 201.5649,-82.1369 201.3747,-89.3455 194.7937,-86.3974 194.9839,-79.1888"/>
<text text-anchor="middle" x="202.5" y="-64.6" font-family="Bitstream Vera Sans" font-size="8.00" fill="#000000">satz[1]</text>
</g>
<!-- S5 -->
<g id="node9" class="node">
<title>S5</title>
<polygon fill="none" stroke="#000000" points="224,-.5 224,-43.5 318,-43.5 318,-.5 224,-.5"/>
<text text-anchor="start" x="232" y="-34.1" font-family="Bitstream Vera Sans" text-decoration="underline" font-size="8.00" fill="#000000">spielASsatz3: Satz</text>
<polyline fill="none" stroke="#000000" points="224,-26.5 318,-26.5 "/>
<text text-anchor="start" x="242" y="-16.1" font-family="Bitstream Vera Sans" font-size="8.00" fill="#000000">punkteA = 14</text>
<text text-anchor="start" x="242" y="-7.1" font-family="Bitstream Vera Sans" font-size="8.00" fill="#000000">punkteB = 16</text>
</g>
<!-- S5&#45;&gt;SAS -->
<g id="edge12" class="edge">
<title>S5&#45;&gt;SAS</title>
<path fill="none" stroke="#000000" d="M257.444,-43.5444C250.7525,-54.179 242.5455,-67.2223 235.1375,-78.9957"/>
<polygon fill="none" stroke="#000000" points="235.0161,-79.1888 235.2063,-86.3974 228.6253,-89.3455 228.4351,-82.1369 235.0161,-79.1888"/>
<text text-anchor="middle" x="258.5" y="-64.6" font-family="Bitstream Vera Sans" font-size="8.00" fill="#000000">satz[2]</text>
</g>
<!-- SAB -->
<g id="node10" class="node">
<title>SAB</title>
<polygon fill="none" stroke="#000000" points="562,-89.5 562,-132.5 654,-132.5 654,-89.5 562,-89.5"/>
<text text-anchor="start" x="579" y="-123.1" font-family="Bitstream Vera Sans" text-decoration="underline" font-size="8.00" fill="#000000">spielAB: Spiel</text>
<polyline fill="none" stroke="#000000" points="562,-115.5 654,-115.5 "/>
<text text-anchor="start" x="570.5" y="-105.1" font-family="Bitstream Vera Sans" font-size="8.00" fill="#000000">start = 14:15 Uhr</text>
<text text-anchor="start" x="570" y="-96.1" font-family="Bitstream Vera Sans" font-size="8.00" fill="#000000">ende = 15:20 Uhr</text>
</g>
<!-- SAB&#45;&gt;P2 -->
<g id="edge6" class="edge">
<title>SAB&#45;&gt;P2</title>
<path fill="none" stroke="#000000" d="M638.7432,-132.5444C657.5436,-145.7195 681.6195,-162.5916 700.9894,-176.1658"/>
<polygon fill="#000000" stroke="#000000" points="709.2471,-181.9527 698.4752,-179.8989 705.1524,-179.0832 701.0578,-176.2137 701.0578,-176.2137 701.0578,-176.2137 705.1524,-179.0832 703.6403,-172.5285 709.2471,-181.9527 709.2471,-181.9527"/>
<text text-anchor="middle" x="685.5" y="-153.6" font-family="Bitstream Vera Sans" font-size="8.00" fill="#000000">platz</text>
</g>
<!-- SAB&#45;&gt;TA -->
<g id="edge4" class="edge">
<title>SAB&#45;&gt;TA</title>
<path fill="none" stroke="#000000" d="M573.6258,-132.5444C554.2342,-144.6983 529.8232,-159.9982 509.1536,-172.953"/>
<polygon fill="#000000" stroke="#000000" points="500.5499,-178.3455 506.6333,-169.2218 504.7865,-175.6901 509.0231,-173.0348 509.0231,-173.0348 509.0231,-173.0348 504.7865,-175.6901 511.413,-176.8477 500.5499,-178.3455 500.5499,-178.3455"/>
<text text-anchor="middle" x="555" y="-153.6" font-family="Bitstream Vera Sans" font-size="8.00" fill="#000000">teamA</text>
</g>
<!-- SAB&#45;&gt;TB -->
<g id="edge5" class="edge">
<title>SAB&#45;&gt;TB</title>
<path fill="none" stroke="#000000" d="M608,-132.5444C608,-143.179 608,-156.2223 608,-167.9957"/>
<polygon fill="#000000" stroke="#000000" points="608,-178.3455 603.5001,-168.3455 608,-173.3455 608.0001,-168.3455 608.0001,-168.3455 608.0001,-168.3455 608,-173.3455 612.5001,-168.3456 608,-178.3455 608,-178.3455"/>
<text text-anchor="middle" x="622" y="-153.6" font-family="Bitstream Vera Sans" font-size="8.00" fill="#000000">teamB</text>
</g>
<!-- S1 -->
<g id="node11" class="node">
<title>S1</title>
<polygon fill="none" stroke="#000000" points="673.5,-.5 673.5,-43.5 768.5,-43.5 768.5,-.5 673.5,-.5"/>
<text text-anchor="start" x="681.5" y="-34.1" font-family="Bitstream Vera Sans" text-decoration="underline" font-size="8.00" fill="#000000">spielABsatz1: Satz</text>
<polyline fill="none" stroke="#000000" points="673.5,-26.5 768.5,-26.5 "/>
<text text-anchor="start" x="692" y="-16.1" font-family="Bitstream Vera Sans" font-size="8.00" fill="#000000">punkteA = 21</text>
<text text-anchor="start" x="692" y="-7.1" font-family="Bitstream Vera Sans" font-size="8.00" fill="#000000">punkteB = 17</text>
</g>
<!-- S1&#45;&gt;SAB -->
<g id="edge13" class="edge">
<title>S1&#45;&gt;SAB</title>
<path fill="none" stroke="#000000" d="M693.6459,-43.5444C679.0412,-55.0472 660.8587,-69.3679 645.0086,-81.8516"/>
<polygon fill="none" stroke="#000000" points="644.9211,-81.9206 642.6825,-88.7754 635.4939,-89.3455 637.7325,-82.4907 644.9211,-81.9206"/>
<text text-anchor="middle" x="681.5" y="-64.6" font-family="Bitstream Vera Sans" font-size="8.00" fill="#000000">satz[0]</text>
</g>
<!-- S2 -->
<g id="node12" class="node">
<title>S2</title>
<polygon fill="none" stroke="#000000" points="560.5,-.5 560.5,-43.5 655.5,-43.5 655.5,-.5 560.5,-.5"/>
<text text-anchor="start" x="568.5" y="-34.1" font-family="Bitstream Vera Sans" text-decoration="underline" font-size="8.00" fill="#000000">spielABsatz2: Satz</text>
<polyline fill="none" stroke="#000000" points="560.5,-26.5 655.5,-26.5 "/>
<text text-anchor="start" x="579" y="-16.1" font-family="Bitstream Vera Sans" font-size="8.00" fill="#000000">punkteA = 21</text>
<text text-anchor="start" x="579" y="-7.1" font-family="Bitstream Vera Sans" font-size="8.00" fill="#000000">punkteB = 11</text>
</g>
<!-- S2&#45;&gt;SAB -->
<g id="edge14" class="edge">
<title>S2&#45;&gt;SAB</title>
<path fill="none" stroke="#000000" d="M608,-43.5444C608,-53.6365 608,-65.8977 608,-77.1843"/>
<polygon fill="none" stroke="#000000" points="608.0001,-77.3455 612,-83.3455 608,-89.3455 604,-83.3455 608.0001,-77.3455"/>
<text text-anchor="middle" x="622.5" y="-64.6" font-family="Bitstream Vera Sans" font-size="8.00" fill="#000000">satz[1]</text>
</g>
<!-- SBS -->
<g id="node13" class="node">
<title>SBS</title>
<polygon fill="none" stroke="#000000" points="337,-89.5 337,-132.5 429,-132.5 429,-89.5 337,-89.5"/>
<text text-anchor="start" x="354" y="-123.1" font-family="Bitstream Vera Sans" text-decoration="underline" font-size="8.00" fill="#000000">spielBS: Spiel</text>
<polyline fill="none" stroke="#000000" points="337,-115.5 429,-115.5 "/>
<text text-anchor="start" x="345.5" y="-105.1" font-family="Bitstream Vera Sans" font-size="8.00" fill="#000000">start = 16:15 Uhr</text>
<text text-anchor="start" x="345" y="-96.1" font-family="Bitstream Vera Sans" font-size="8.00" fill="#000000">ende = 17:10 Uhr</text>
</g>
<!-- SBS&#45;&gt;P1 -->
<g id="edge9" class="edge">
<title>SBS&#45;&gt;P1</title>
<path fill="none" stroke="#000000" d="M336.919,-130.1155C321.6074,-136.5982 304.5109,-143.9785 289,-151 270.5769,-159.3397 250.4779,-168.8952 233.0294,-177.3403"/>
<polygon fill="#000000" stroke="#000000" points="223.636,-181.903 230.6649,-173.486 228.1335,-179.7184 232.631,-177.5337 232.631,-177.5337 232.631,-177.5337 228.1335,-179.7184 234.5972,-181.5815 223.636,-181.903 223.636,-181.903"/>
<text text-anchor="middle" x="299.5" y="-153.6" font-family="Bitstream Vera Sans" font-size="8.00" fill="#000000">platz</text>
</g>
<!-- SBS&#45;&gt;TS -->
<g id="edge7" class="edge">
<title>SBS&#45;&gt;TS</title>
<path fill="none" stroke="#000000" d="M375.2764,-132.9528C371.6425,-141.774 366.8179,-151.7794 361,-160 358.3769,-163.7064 355.3747,-167.3481 352.2084,-170.833"/>
<polygon fill="#000000" stroke="#000000" points="345.0981,-178.1757 348.8219,-167.8614 348.5764,-174.5838 352.0546,-170.9919 352.0546,-170.9919 352.0546,-170.9919 348.5764,-174.5838 355.2873,-174.1223 345.0981,-178.1757 345.0981,-178.1757"/>
<text text-anchor="middle" x="380" y="-153.6" font-family="Bitstream Vera Sans" font-size="8.00" fill="#000000">teamA</text>
</g>
<!-- SBS&#45;&gt;TB -->
<g id="edge8" class="edge">
<title>SBS&#45;&gt;TB</title>
<path fill="none" stroke="#000000" d="M429.2214,-130.8826C450.6638,-139.971 476.5432,-150.749 500,-160 512.4506,-164.9104 525.7741,-169.9876 538.6626,-174.8088"/>
<polygon fill="#000000" stroke="#000000" points="548.4122,-178.4386 537.4705,-179.1666 543.7264,-176.694 539.0406,-174.9494 539.0406,-174.9494 539.0406,-174.9494 543.7264,-176.694 540.6107,-170.7322 548.4122,-178.4386 548.4122,-178.4386"/>
<text text-anchor="middle" x="514" y="-153.6" font-family="Bitstream Vera Sans" font-size="8.00" fill="#000000">teamB</text>
</g>
<!-- S6 -->
<g id="node14" class="node">
<title>S6</title>
<polygon fill="none" stroke="#000000" points="448,-.5 448,-43.5 542,-43.5 542,-.5 448,-.5"/>
<text text-anchor="start" x="456" y="-34.1" font-family="Bitstream Vera Sans" text-decoration="underline" font-size="8.00" fill="#000000">spielBSsatz1: Satz</text>
<polyline fill="none" stroke="#000000" points="448,-26.5 542,-26.5 "/>
<text text-anchor="start" x="468.5" y="-16.1" font-family="Bitstream Vera Sans" font-size="8.00" fill="#000000">punkteA = 6</text>
<text text-anchor="start" x="466" y="-7.1" font-family="Bitstream Vera Sans" font-size="8.00" fill="#000000">punkteB = 21</text>
</g>
<!-- S6&#45;&gt;SBS -->
<g id="edge15" class="edge">
<title>S6&#45;&gt;SBS</title>
<path fill="none" stroke="#000000" d="M467.8879,-43.5444C453.4125,-55.0472 435.3909,-69.3679 419.6811,-81.8516"/>
<polygon fill="none" stroke="#000000" points="419.6455,-81.8799 417.4366,-88.7443 410.2506,-89.3455 412.4595,-82.481 419.6455,-81.8799"/>
<text text-anchor="middle" x="456.5" y="-64.6" font-family="Bitstream Vera Sans" font-size="8.00" fill="#000000">satz[0]</text>
</g>
<!-- S7 -->
<g id="node15" class="node">
<title>S7</title>
<polygon fill="none" stroke="#000000" points="336,-.5 336,-43.5 430,-43.5 430,-.5 336,-.5"/>
<text text-anchor="start" x="344" y="-34.1" font-family="Bitstream Vera Sans" text-decoration="underline" font-size="8.00" fill="#000000">spielBSsatz2: Satz</text>
<polyline fill="none" stroke="#000000" points="336,-26.5 430,-26.5 "/>
<text text-anchor="start" x="354" y="-16.1" font-family="Bitstream Vera Sans" font-size="8.00" fill="#000000">punkteA = 19</text>
<text text-anchor="start" x="354" y="-7.1" font-family="Bitstream Vera Sans" font-size="8.00" fill="#000000">punkteB = 21</text>
</g>
<!-- S7&#45;&gt;SBS -->
<g id="edge16" class="edge">
<title>S7&#45;&gt;SBS</title>
<path fill="none" stroke="#000000" d="M383,-43.5444C383,-53.6365 383,-65.8977 383,-77.1843"/>
<polygon fill="none" stroke="#000000" points="383.0001,-77.3455 387,-83.3455 383,-89.3455 379,-83.3455 383.0001,-77.3455"/>
<text text-anchor="middle" x="397.5" y="-64.6" font-family="Bitstream Vera Sans" font-size="8.00" fill="#000000">satz[1]</text>
</g>
</g>
</svg>
