<?xml version="1.0" encoding="UTF-8" standalone="no"?><svg xmlns="http://www.w3.org/2000/svg" xmlns:xlink="http://www.w3.org/1999/xlink" contentScriptType="application/ecmascript" contentStyleType="text/css" height="325px" preserveAspectRatio="none" style="width:354px;height:325px;" version="1.1" viewBox="0 0 354 325" width="354px" zoomAndPan="magnify"><defs><filter height="300%" id="f1l0q660kmspuo" width="300%" x="-1" y="-1"><feGaussianBlur result="blurOut" stdDeviation="2.0"/><feColorMatrix in="blurOut" result="blurOut2" type="matrix" values="0 0 0 0 0 0 0 0 0 0 0 0 0 0 0 0 0 0 .4 0"/><feOffset dx="4.0" dy="4.0" in="blurOut2" result="blurOut3"/><feBlend in="SourceGraphic" in2="blurOut3" mode="normal"/></filter></defs><g><!--class switch1--><rect fill="#FEFECE" filter="url(#f1l0q660kmspuo)" height="112.0234" id="switch1" style="stroke: #A80036; stroke-width: 1.5;" width="117" x="181" y="8"/><ellipse cx="216.25" cy="24" fill="#ADD1B2" rx="11" ry="11" style="stroke: #A80036; stroke-width: 1.0;"/><path d="M219.2188,29.6406 Q218.6406,29.9375 218,30.0859 Q217.3594,30.2344 216.6563,30.2344 Q214.1563,30.2344 212.8359,28.5859 Q211.5156,26.9375 211.5156,23.8125 Q211.5156,20.6875 212.8359,19.0313 Q214.1563,17.375 216.6563,17.375 Q217.3594,17.375 218.0078,17.5313 Q218.6563,17.6875 219.2188,17.9844 L219.2188,20.7031 Q218.5938,20.125 218,19.8516 Q217.4063,19.5781 216.7813,19.5781 Q215.4375,19.5781 214.75,20.6484 Q214.0625,21.7188 214.0625,23.8125 Q214.0625,25.9063 214.75,26.9766 Q215.4375,28.0469 216.7813,28.0469 Q217.4063,28.0469 218,27.7734 Q218.5938,27.5 219.2188,26.9219 L219.2188,29.6406 Z "/><text fill="#000000" font-family="sans-serif" font-size="12" lengthAdjust="spacingAndGlyphs" textLength="40" x="234.75" y="28.1543">Switch</text><line style="stroke: #A80036; stroke-width: 1.5;" x1="182" x2="297" y1="40" y2="40"/><text fill="#000000" font-family="sans-serif" font-size="11" lengthAdjust="spacingAndGlyphs" textLength="105" x="187" y="54.2104">state: State = OFF</text><line style="stroke: #A80036; stroke-width: 1.5;" x1="182" x2="297" y1="60.8047" y2="60.8047"/><text fill="#000000" font-family="sans-serif" font-size="11" lengthAdjust="spacingAndGlyphs" textLength="45" x="187" y="75.0151">Switch()</text><text fill="#000000" font-family="sans-serif" font-size="11" lengthAdjust="spacingAndGlyphs" textLength="41" x="187" y="87.8198">press()</text><text fill="#000000" font-family="sans-serif" font-size="11" lengthAdjust="spacingAndGlyphs" textLength="83" x="187" y="100.6245">connect(Lamp)</text><text fill="#000000" font-family="sans-serif" font-size="11" lengthAdjust="spacingAndGlyphs" textLength="100" x="187" y="113.4292">disconnect(Lamp)</text><!--class Color--><rect fill="#FEFECE" filter="url(#f1l0q660kmspuo)" height="117.9609" id="Color" style="stroke: #A80036; stroke-width: 1.5;" width="75" x="6" y="197"/><ellipse cx="21" cy="215.9688" fill="#ADD1B2" rx="11" ry="11" style="stroke: #A80036; stroke-width: 1.0;"/><path d="M23.9688,221.6094 Q23.3906,221.9063 22.75,222.0547 Q22.1094,222.2031 21.4063,222.2031 Q18.9063,222.2031 17.5859,220.5547 Q16.2656,218.9063 16.2656,215.7813 Q16.2656,212.6563 17.5859,211 Q18.9063,209.3438 21.4063,209.3438 Q22.1094,209.3438 22.7578,209.5 Q23.4063,209.6563 23.9688,209.9531 L23.9688,212.6719 Q23.3438,212.0938 22.75,211.8203 Q22.1563,211.5469 21.5313,211.5469 Q20.1875,211.5469 19.5,212.6172 Q18.8125,213.6875 18.8125,215.7813 Q18.8125,217.875 19.5,218.9453 Q20.1875,220.0156 21.5313,220.0156 Q22.1563,220.0156 22.75,219.7422 Q23.3438,219.4688 23.9688,218.8906 L23.9688,221.6094 Z "/><text fill="#000000" font-family="sans-serif" font-size="12" font-style="italic" lengthAdjust="spacingAndGlyphs" textLength="47" x="33" y="213.1387">«enum»</text><text fill="#000000" font-family="sans-serif" font-size="12" lengthAdjust="spacingAndGlyphs" textLength="32" x="40.5" y="227.1074">Color</text><line style="stroke: #A80036; stroke-width: 1.5;" x1="7" x2="80" y1="234.9375" y2="234.9375"/><text fill="#000000" font-family="sans-serif" font-size="11" lengthAdjust="spacingAndGlyphs" textLength="22" x="12" y="249.1479">RED</text><text fill="#000000" font-family="sans-serif" font-size="11" lengthAdjust="spacingAndGlyphs" textLength="29" x="12" y="261.9526">BLUE</text><text fill="#000000" font-family="sans-serif" font-size="11" lengthAdjust="spacingAndGlyphs" textLength="38" x="12" y="274.7573">GREEN</text><text fill="#000000" font-family="sans-serif" font-size="11" lengthAdjust="spacingAndGlyphs" textLength="34" x="12" y="287.562">WHITE</text><text fill="#000000" font-family="sans-serif" font-size="11" lengthAdjust="spacingAndGlyphs" textLength="44" x="12" y="300.3667">YELLOW</text><line style="stroke: #A80036; stroke-width: 1.5;" x1="7" x2="80" y1="306.9609" y2="306.9609"/><!--class lamp1--><rect fill="#FEFECE" filter="url(#f1l0q660kmspuo)" height="99.2188" id="lamp1" style="stroke: #A80036; stroke-width: 1.5;" width="117" x="116" y="206.5"/><ellipse cx="154.4" cy="222.5" fill="#ADD1B2" rx="11" ry="11" style="stroke: #A80036; stroke-width: 1.0;"/><path d="M157.3688,228.1406 Q156.7906,228.4375 156.15,228.5859 Q155.5094,228.7344 154.8063,228.7344 Q152.3063,228.7344 150.9859,227.0859 Q149.6656,225.4375 149.6656,222.3125 Q149.6656,219.1875 150.9859,217.5313 Q152.3063,215.875 154.8063,215.875 Q155.5094,215.875 156.1578,216.0313 Q156.8063,216.1875 157.3688,216.4844 L157.3688,219.2031 Q156.7438,218.625 156.15,218.3516 Q155.5563,218.0781 154.9313,218.0781 Q153.5875,218.0781 152.9,219.1484 Q152.2125,220.2188 152.2125,222.3125 Q152.2125,224.4063 152.9,225.4766 Q153.5875,226.5469 154.9313,226.5469 Q155.5563,226.5469 156.15,226.2734 Q156.7438,226 157.3688,225.4219 L157.3688,228.1406 Z "/><text fill="#000000" font-family="sans-serif" font-size="12" lengthAdjust="spacingAndGlyphs" textLength="33" x="173.6" y="226.6543">Lamp</text><line style="stroke: #A80036; stroke-width: 1.5;" x1="117" x2="232" y1="238.5" y2="238.5"/><text fill="#000000" font-family="sans-serif" font-size="11" lengthAdjust="spacingAndGlyphs" textLength="105" x="122" y="252.7104">state: State = OFF</text><line style="stroke: #A80036; stroke-width: 1.5;" x1="117" x2="232" y1="259.3047" y2="259.3047"/><text fill="#000000" font-family="sans-serif" font-size="11" lengthAdjust="spacingAndGlyphs" textLength="69" x="122" y="273.5151">Lamp(Color)</text><text fill="#000000" font-family="sans-serif" font-size="11" lengthAdjust="spacingAndGlyphs" textLength="47" x="122" y="286.3198">turnOn()</text><text fill="#000000" font-family="sans-serif" font-size="11" lengthAdjust="spacingAndGlyphs" textLength="48" x="122" y="299.1245">turnOff()</text><!--class State--><rect fill="#FEFECE" filter="url(#f1l0q660kmspuo)" height="79.5469" id="State" style="stroke: #A80036; stroke-width: 1.5;" width="75" x="268" y="216"/><ellipse cx="283" cy="234.9688" fill="#ADD1B2" rx="11" ry="11" style="stroke: #A80036; stroke-width: 1.0;"/><path d="M285.9688,240.6094 Q285.3906,240.9063 284.75,241.0547 Q284.1094,241.2031 283.4063,241.2031 Q280.9063,241.2031 279.5859,239.5547 Q278.2656,237.9063 278.2656,234.7813 Q278.2656,231.6563 279.5859,230 Q280.9063,228.3438 283.4063,228.3438 Q284.1094,228.3438 284.7578,228.5 Q285.4063,228.6563 285.9688,228.9531 L285.9688,231.6719 Q285.3438,231.0938 284.75,230.8203 Q284.1563,230.5469 283.5313,230.5469 Q282.1875,230.5469 281.5,231.6172 Q280.8125,232.6875 280.8125,234.7813 Q280.8125,236.875 281.5,237.9453 Q282.1875,239.0156 283.5313,239.0156 Q284.1563,239.0156 284.75,238.7422 Q285.3438,238.4688 285.9688,237.8906 L285.9688,240.6094 Z "/><text fill="#000000" font-family="sans-serif" font-size="12" font-style="italic" lengthAdjust="spacingAndGlyphs" textLength="47" x="295" y="232.1387">«enum»</text><text fill="#000000" font-family="sans-serif" font-size="12" lengthAdjust="spacingAndGlyphs" textLength="34" x="301.5" y="246.1074">State</text><line style="stroke: #A80036; stroke-width: 1.5;" x1="269" x2="342" y1="253.9375" y2="253.9375"/><text fill="#000000" font-family="sans-serif" font-size="11" lengthAdjust="spacingAndGlyphs" textLength="17" x="274" y="268.1479">ON</text><text fill="#000000" font-family="sans-serif" font-size="11" lengthAdjust="spacingAndGlyphs" textLength="21" x="274" y="280.9526">OFF</text><line style="stroke: #A80036; stroke-width: 1.5;" x1="269" x2="342" y1="287.5469" y2="287.5469"/><!--link switch1 to lamp1--><path d="M220.5246,120.0505 C211.8475,145.6813 201.6049,175.9363 192.9878,201.3899 " fill="none" id="switch1-lamp1" style="stroke: #A80036; stroke-width: 1.0;"/><polygon fill="#A80036" points="191.287,206.4138,197.9619,199.1718,192.8904,201.6779,190.3844,196.6064,191.287,206.4138" style="stroke: #A80036; stroke-width: 1.0;"/><text fill="#000000" font-family="sans-serif" font-size="13" lengthAdjust="spacingAndGlyphs" textLength="51" x="209.5" y="163.0669">controls</text><text fill="#000000" font-family="sans-serif" font-size="13" lengthAdjust="spacingAndGlyphs" textLength="8" x="201.0684" y="140.2668">1</text><text fill="#000000" font-family="sans-serif" font-size="13" lengthAdjust="spacingAndGlyphs" textLength="7" x="186.1555" y="195.4469">*</text><!--link switch1 to State--><path d="M259.254,120.4145 C262.6841,130.2712 266.2061,140.4308 269.5,150 C276.3518,169.9052 283.8503,191.9426 290.2216,210.7444 " fill="none" id="switch1-State" style="stroke: #A80036; stroke-width: 1.0;"/><polygon fill="#A80036" points="291.9873,215.9572,292.8884,206.1497,290.3832,211.2215,285.3113,208.7163,291.9873,215.9572" style="stroke: #A80036; stroke-width: 1.0;"/><!--link lamp1 to State--><path d="M233.0918,256 C242.967,256 252.8423,256 262.7176,256 " fill="none" id="lamp1-State" style="stroke: #A80036; stroke-width: 1.0;"/><polygon fill="#A80036" points="267.8817,256,258.8817,252,262.8817,256,258.8817,260,267.8817,256" style="stroke: #A80036; stroke-width: 1.0;"/><!--link Color to lamp1--><path d="M86.2556,256 C96.0928,256 105.93,256 115.7673,256 " fill="none" id="Color-lamp1" style="stroke: #A80036; stroke-width: 1.0;"/><polygon fill="#A80036" points="81.1113,256,90.1113,260,86.1113,256,90.1113,252,81.1113,256" style="stroke: #A80036; stroke-width: 1.0;"/><!--
@startuml
class "Switch" as switch1 {
  state: State = OFF
  Switch()
  press()
  connect(Lamp)
  disconnect(Lamp)
}

class "Color" << enum >> {
  RED
  BLUE
  GREEN
  WHITE
  YELLOW
}

class "Lamp" as lamp1 {
  state: State = OFF
  Lamp(Color)
  turnOn()
  turnOff()
}

class "State" << enum >> {
  ON
  OFF
}

switch1 "1  " - -> "*" lamp1 : controls
switch1 -> State
lamp1 -> State
Color <- lamp1
@enduml

PlantUML version 1.2018.01(Sun Jan 28 19:08:22 CET 2018)
(APACHE source distribution)
Java Runtime: Java(TM) SE Runtime Environment
JVM: Java HotSpot(TM) 64-Bit Server VM
Java Version: 10.0.1+10
Operating System: Linux
OS Version: 4.18.1-arch1-1-ARCH
Default Encoding: UTF-8
Language: de
Country: DE
--></g></svg>