<?xml version="1.0" encoding="UTF-8" standalone="no"?><svg xmlns="http://www.w3.org/2000/svg" xmlns:xlink="http://www.w3.org/1999/xlink" contentScriptType="application/ecmascript" contentStyleType="text/css" height="325px" preserveAspectRatio="none" style="width:352px;height:325px;" version="1.1" viewBox="0 0 352 325" width="352px" zoomAndPan="magnify"><defs><filter height="300%" id="f1l0q660kmspuo" width="300%" x="-1" y="-1"><feGaussianBlur result="blurOut" stdDeviation="2.0"/><feColorMatrix in="blurOut" result="blurOut2" type="matrix" values="0 0 0 0 0 0 0 0 0 0 0 0 0 0 0 0 0 0 .4 0"/><feOffset dx="4.0" dy="4.0" in="blurOut2" result="blurOut3"/><feBlend in="SourceGraphic" in2="blurOut3" mode="normal"/></filter></defs><g><!--class switch1--><rect fill="#FEFECE" filter="url(#f1l0q660kmspuo)" height="112.0234" id="switch1" style="stroke: #A80036; stroke-width: 1.5;" width="114" x="181.5" y="8"/><ellipse cx="215.4" cy="24" fill="#ADD1B2" rx="11" ry="11" style="stroke: #A80036; stroke-width: 1.0;"/><path d="M218.3688,29.6406 Q217.7906,29.9375 217.15,30.0859 Q216.5094,30.2344 215.8063,30.2344 Q213.3063,30.2344 211.9859,28.5859 Q210.6656,26.9375 210.6656,23.8125 Q210.6656,20.6875 211.9859,19.0313 Q213.3063,17.375 215.8063,17.375 Q216.5094,17.375 217.1578,17.5313 Q217.8063,17.6875 218.3688,17.9844 L218.3688,20.7031 Q217.7438,20.125 217.15,19.8516 Q216.5563,19.5781 215.9313,19.5781 Q214.5875,19.5781 213.9,20.6484 Q213.2125,21.7188 213.2125,23.8125 Q213.2125,25.9063 213.9,26.9766 Q214.5875,28.0469 215.9313,28.0469 Q216.5563,28.0469 217.15,27.7734 Q217.7438,27.5 218.3688,26.9219 L218.3688,29.6406 Z "/><text fill="#000000" font-family="sans-serif" font-size="12" lengthAdjust="spacingAndGlyphs" textLength="40" x="233.6" y="28.1543">Switch</text><line style="stroke: #A80036; stroke-width: 1.5;" x1="182.5" x2="294.5" y1="40" y2="40"/><text fill="#000000" font-family="sans-serif" font-size="11" lengthAdjust="spacingAndGlyphs" textLength="102" x="187.5" y="54.2104">state: State = OFF</text><line style="stroke: #A80036; stroke-width: 1.5;" x1="182.5" x2="294.5" y1="60.8047" y2="60.8047"/><text fill="#000000" font-family="sans-serif" font-size="11" lengthAdjust="spacingAndGlyphs" textLength="45" x="187.5" y="75.0151">Switch()</text><text fill="#000000" font-family="sans-serif" font-size="11" lengthAdjust="spacingAndGlyphs" textLength="41" x="187.5" y="87.8198">press()</text><text fill="#000000" font-family="sans-serif" font-size="11" lengthAdjust="spacingAndGlyphs" textLength="83" x="187.5" y="100.6245">connect(Lamp)</text><text fill="#000000" font-family="sans-serif" font-size="11" lengthAdjust="spacingAndGlyphs" textLength="100" x="187.5" y="113.4292">disconnect(Lamp)</text><!--class Color--><rect fill="#FEFECE" filter="url(#f1l0q660kmspuo)" height="117.9609" id="Color" style="stroke: #A80036; stroke-width: 1.5;" width="75" x="6" y="197"/><ellipse cx="21" cy="215.9688" fill="#ADD1B2" rx="11" ry="11" style="stroke: #A80036; stroke-width: 1.0;"/><path d="M23.9688,221.6094 Q23.3906,221.9063 22.75,222.0547 Q22.1094,222.2031 21.4063,222.2031 Q18.9063,222.2031 17.5859,220.5547 Q16.2656,218.9063 16.2656,215.7813 Q16.2656,212.6563 17.5859,211 Q18.9063,209.3438 21.4063,209.3438 Q22.1094,209.3438 22.7578,209.5 Q23.4063,209.6563 23.9688,209.9531 L23.9688,212.6719 Q23.3438,212.0938 22.75,211.8203 Q22.1563,211.5469 21.5313,211.5469 Q20.1875,211.5469 19.5,212.6172 Q18.8125,213.6875 18.8125,215.7813 Q18.8125,217.875 19.5,218.9453 Q20.1875,220.0156 21.5313,220.0156 Q22.1563,220.0156 22.75,219.7422 Q23.3438,219.4688 23.9688,218.8906 L23.9688,221.6094 Z "/><text fill="#000000" font-family="sans-serif" font-size="12" font-style="italic" lengthAdjust="spacingAndGlyphs" textLength="47" x="33" y="213.1387">«enum»</text><text fill="#000000" font-family="sans-serif" font-size="12" lengthAdjust="spacingAndGlyphs" textLength="32" x="40.5" y="227.1074">Color</text><line style="stroke: #A80036; stroke-width: 1.5;" x1="7" x2="80" y1="234.9375" y2="234.9375"/><text fill="#000000" font-family="sans-serif" font-size="11" lengthAdjust="spacingAndGlyphs" textLength="22" x="12" y="249.1479">RED</text><text fill="#000000" font-family="sans-serif" font-size="11" lengthAdjust="spacingAndGlyphs" textLength="29" x="12" y="261.9526">BLUE</text><text fill="#000000" font-family="sans-serif" font-size="11" lengthAdjust="spacingAndGlyphs" textLength="38" x="12" y="274.7573">GREEN</text><text fill="#000000" font-family="sans-serif" font-size="11" lengthAdjust="spacingAndGlyphs" textLength="34" x="12" y="287.562">WHITE</text><text fill="#000000" font-family="sans-serif" font-size="11" lengthAdjust="spacingAndGlyphs" textLength="44" x="12" y="300.3667">YELLOW</text><line style="stroke: #A80036; stroke-width: 1.5;" x1="7" x2="80" y1="306.9609" y2="306.9609"/><!--class lamp1--><rect fill="#FEFECE" filter="url(#f1l0q660kmspuo)" height="99.2188" id="lamp1" style="stroke: #A80036; stroke-width: 1.5;" width="114" x="116.5" y="206.5"/><ellipse cx="153.55" cy="222.5" fill="#ADD1B2" rx="11" ry="11" style="stroke: #A80036; stroke-width: 1.0;"/><path d="M156.5188,228.1406 Q155.9406,228.4375 155.3,228.5859 Q154.6594,228.7344 153.9563,228.7344 Q151.4563,228.7344 150.1359,227.0859 Q148.8156,225.4375 148.8156,222.3125 Q148.8156,219.1875 150.1359,217.5313 Q151.4563,215.875 153.9563,215.875 Q154.6594,215.875 155.3078,216.0313 Q155.9563,216.1875 156.5188,216.4844 L156.5188,219.2031 Q155.8938,218.625 155.3,218.3516 Q154.7063,218.0781 154.0813,218.0781 Q152.7375,218.0781 152.05,219.1484 Q151.3625,220.2188 151.3625,222.3125 Q151.3625,224.4063 152.05,225.4766 Q152.7375,226.5469 154.0813,226.5469 Q154.7063,226.5469 155.3,226.2734 Q155.8938,226 156.5188,225.4219 L156.5188,228.1406 Z "/><text fill="#000000" font-family="sans-serif" font-size="12" lengthAdjust="spacingAndGlyphs" textLength="33" x="172.45" y="226.6543">Lamp</text><line style="stroke: #A80036; stroke-width: 1.5;" x1="117.5" x2="229.5" y1="238.5" y2="238.5"/><text fill="#000000" font-family="sans-serif" font-size="11" lengthAdjust="spacingAndGlyphs" textLength="102" x="122.5" y="252.7104">state: State = OFF</text><line style="stroke: #A80036; stroke-width: 1.5;" x1="117.5" x2="229.5" y1="259.3047" y2="259.3047"/><text fill="#000000" font-family="sans-serif" font-size="11" lengthAdjust="spacingAndGlyphs" textLength="69" x="122.5" y="273.5151">Lamp(Color)</text><text fill="#000000" font-family="sans-serif" font-size="11" lengthAdjust="spacingAndGlyphs" textLength="47" x="122.5" y="286.3198">turnOn()</text><text fill="#000000" font-family="sans-serif" font-size="11" lengthAdjust="spacingAndGlyphs" textLength="48" x="122.5" y="299.1245">turnOff()</text><!--class State--><rect fill="#FEFECE" filter="url(#f1l0q660kmspuo)" height="79.5469" id="State" style="stroke: #A80036; stroke-width: 1.5;" width="75" x="266" y="216"/><ellipse cx="281" cy="234.9688" fill="#ADD1B2" rx="11" ry="11" style="stroke: #A80036; stroke-width: 1.0;"/><path d="M283.9688,240.6094 Q283.3906,240.9063 282.75,241.0547 Q282.1094,241.2031 281.4063,241.2031 Q278.9063,241.2031 277.5859,239.5547 Q276.2656,237.9063 276.2656,234.7813 Q276.2656,231.6563 277.5859,230 Q278.9063,228.3438 281.4063,228.3438 Q282.1094,228.3438 282.7578,228.5 Q283.4063,228.6563 283.9688,228.9531 L283.9688,231.6719 Q283.3438,231.0938 282.75,230.8203 Q282.1563,230.5469 281.5313,230.5469 Q280.1875,230.5469 279.5,231.6172 Q278.8125,232.6875 278.8125,234.7813 Q278.8125,236.875 279.5,237.9453 Q280.1875,239.0156 281.5313,239.0156 Q282.1563,239.0156 282.75,238.7422 Q283.3438,238.4688 283.9688,237.8906 L283.9688,240.6094 Z "/><text fill="#000000" font-family="sans-serif" font-size="12" font-style="italic" lengthAdjust="spacingAndGlyphs" textLength="47" x="293" y="232.1387">«enum»</text><text fill="#000000" font-family="sans-serif" font-size="12" lengthAdjust="spacingAndGlyphs" textLength="34" x="299.5" y="246.1074">State</text><line style="stroke: #A80036; stroke-width: 1.5;" x1="267" x2="340" y1="253.9375" y2="253.9375"/><text fill="#000000" font-family="sans-serif" font-size="11" lengthAdjust="spacingAndGlyphs" textLength="17" x="272" y="268.1479">ON</text><text fill="#000000" font-family="sans-serif" font-size="11" lengthAdjust="spacingAndGlyphs" textLength="21" x="272" y="280.9526">OFF</text><line style="stroke: #A80036; stroke-width: 1.5;" x1="267" x2="340" y1="287.5469" y2="287.5469"/><!--link switch1 to lamp1--><path d="M217.8685,120.3367 C214.3484,130.202 210.7739,140.3847 207.5,150 C201.8548,166.5797 195.9456,184.7047 190.6668,201.203 " fill="none" id="switch1-lamp1" style="stroke: #A80036; stroke-width: 1.0;"/><polygon fill="#A80036" points="189.0497,206.2675,195.5977,198.9106,190.5705,201.5044,187.9767,196.4773,189.0497,206.2675" style="stroke: #A80036; stroke-width: 1.0;"/><text fill="#000000" font-family="sans-serif" font-size="13" lengthAdjust="spacingAndGlyphs" textLength="51" x="208.5" y="163.0669">controls</text><text fill="#000000" font-family="sans-serif" font-size="13" lengthAdjust="spacingAndGlyphs" textLength="8" x="198.379" y="140.1904">1</text><text fill="#000000" font-family="sans-serif" font-size="13" lengthAdjust="spacingAndGlyphs" textLength="7" x="183.7442" y="195.28">*</text><!--link switch1 to State--><path d="M257.4754,120.0505 C267.247,148.9141 279.0038,183.642 288.1889,210.7733 " fill="none" id="switch1-State" style="stroke: #A80036; stroke-width: 1.0;"/><polygon fill="#A80036" points="289.8729,215.7478,290.7754,205.9404,288.2694,211.0119,283.198,208.5059,289.8729,215.7478" style="stroke: #A80036; stroke-width: 1.0;"/><!--link lamp1 to State--><path d="M230.6289,256 C240.6481,256 250.6673,256 260.6865,256 " fill="none" id="lamp1-State" style="stroke: #A80036; stroke-width: 1.0;"/><polygon fill="#A80036" points="265.9258,256,256.9258,252,260.9258,256,256.9258,260,265.9258,256" style="stroke: #A80036; stroke-width: 1.0;"/><!--link Color to lamp1--><path d="M86.3299,256 C96.3727,256 106.4155,256 116.4584,256 " fill="none" id="Color-lamp1" style="stroke: #A80036; stroke-width: 1.0;"/><polygon fill="#A80036" points="81.0781,256,90.0781,260,86.0781,256,90.0781,252,81.0781,256" style="stroke: #A80036; stroke-width: 1.0;"/><!--
@startuml
class "Switch" as switch1 {
  state: State = OFF
  Switch()
  press()
  connect(Lamp)
  disconnect(Lamp)
}

class "Color" << enum >> {
  RED
  BLUE
  GREEN
  WHITE
  YELLOW
}

class "Lamp" as lamp1 {
  state: State = OFF
  Lamp(Color)
  turnOn()
  turnOff()
}

class "State" << enum >> {
  ON
  OFF
}

switch1 "1  " - -> "*" lamp1 : controls
switch1 -> State
lamp1 -> State
Color <- lamp1
@enduml

PlantUML version 1.2018.01(Sun Jan 28 19:08:22 CET 2018)
(APACHE source distribution)
Java Runtime: OpenJDK Runtime Environment
JVM: OpenJDK 64-Bit Server VM
Java Version: 1.8.0_172-b11
Operating System: Linux
OS Version: 4.16.10-1-ARCH
Default Encoding: UTF-8
Language: de
Country: DE
--></g></svg>