<?xml version="1.0" encoding="UTF-8" standalone="no"?><svg xmlns="http://www.w3.org/2000/svg" xmlns:xlink="http://www.w3.org/1999/xlink" contentScriptType="application/ecmascript" contentStyleType="text/css" height="256px" preserveAspectRatio="none" style="width:507px;height:256px;" version="1.1" viewBox="0 0 507 256" width="507px" zoomAndPan="magnify"><defs><filter height="300%" id="fl39xr2y012ho" width="300%" x="-1" y="-1"><feGaussianBlur result="blurOut" stdDeviation="2.0"/><feColorMatrix in="blurOut" result="blurOut2" type="matrix" values="0 0 0 0 0 0 0 0 0 0 0 0 0 0 0 0 0 0 .4 0"/><feOffset dx="4.0" dy="4.0" in="blurOut2" result="blurOut3"/><feBlend in="SourceGraphic" in2="blurOut3" mode="normal"/></filter></defs><g><!--class switch1--><rect fill="#FEFECE" filter="url(#fl39xr2y012ho)" height="73.6094" id="switch1" style="stroke: #A80036; stroke-width: 1.5;" width="79" x="62" y="8"/><ellipse cx="80.15" cy="24" fill="#ADD1B2" rx="11" ry="11" style="stroke: #A80036; stroke-width: 1.0;"/><path d="M83.1188,29.6406 Q82.5406,29.9375 81.9,30.0859 Q81.2594,30.2344 80.5563,30.2344 Q78.0563,30.2344 76.7359,28.5859 Q75.4156,26.9375 75.4156,23.8125 Q75.4156,20.6875 76.7359,19.0313 Q78.0563,17.375 80.5563,17.375 Q81.2594,17.375 81.9078,17.5313 Q82.5563,17.6875 83.1188,17.9844 L83.1188,20.7031 Q82.4938,20.125 81.9,19.8516 Q81.3063,19.5781 80.6813,19.5781 Q79.3375,19.5781 78.65,20.6484 Q77.9625,21.7188 77.9625,23.8125 Q77.9625,25.9063 78.65,26.9766 Q79.3375,28.0469 80.6813,28.0469 Q81.3063,28.0469 81.9,27.7734 Q82.4938,27.5 83.1188,26.9219 L83.1188,29.6406 Z "/><text fill="#000000" font-family="sans-serif" font-size="12" lengthAdjust="spacingAndGlyphs" textLength="40" x="94.85" y="28.1543">Switch</text><line style="stroke: #A80036; stroke-width: 1.5;" x1="63" x2="140" y1="40" y2="40"/><text fill="#000000" font-family="sans-serif" font-size="11" lengthAdjust="spacingAndGlyphs" textLength="67" x="68" y="54.2104">state: State</text><line style="stroke: #A80036; stroke-width: 1.5;" x1="63" x2="140" y1="60.8047" y2="60.8047"/><text fill="#000000" font-family="sans-serif" font-size="11" lengthAdjust="spacingAndGlyphs" textLength="41" x="68" y="75.0151">press()</text><!--class lamp1--><rect fill="#FEFECE" filter="url(#fl39xr2y012ho)" height="86.4141" id="lamp1" style="stroke: #A80036; stroke-width: 1.5;" width="79" x="6" y="159"/><ellipse cx="27.3" cy="175" fill="#ADD1B2" rx="11" ry="11" style="stroke: #A80036; stroke-width: 1.0;"/><path d="M30.2688,180.6406 Q29.6906,180.9375 29.05,181.0859 Q28.4094,181.2344 27.7063,181.2344 Q25.2063,181.2344 23.8859,179.5859 Q22.5656,177.9375 22.5656,174.8125 Q22.5656,171.6875 23.8859,170.0313 Q25.2063,168.375 27.7063,168.375 Q28.4094,168.375 29.0578,168.5313 Q29.7063,168.6875 30.2688,168.9844 L30.2688,171.7031 Q29.6438,171.125 29.05,170.8516 Q28.4563,170.5781 27.8313,170.5781 Q26.4875,170.5781 25.8,171.6484 Q25.1125,172.7188 25.1125,174.8125 Q25.1125,176.9063 25.8,177.9766 Q26.4875,179.0469 27.8313,179.0469 Q28.4563,179.0469 29.05,178.7734 Q29.6438,178.5 30.2688,177.9219 L30.2688,180.6406 Z "/><text fill="#000000" font-family="sans-serif" font-size="12" lengthAdjust="spacingAndGlyphs" textLength="33" x="42.7" y="179.1543">Lamp</text><line style="stroke: #A80036; stroke-width: 1.5;" x1="7" x2="84" y1="191" y2="191"/><text fill="#000000" font-family="sans-serif" font-size="11" lengthAdjust="spacingAndGlyphs" textLength="67" x="12" y="205.2104">state: State</text><line style="stroke: #A80036; stroke-width: 1.5;" x1="7" x2="84" y1="211.8047" y2="211.8047"/><text fill="#000000" font-family="sans-serif" font-size="11" lengthAdjust="spacingAndGlyphs" textLength="47" x="12" y="226.0151">turnOn()</text><text fill="#000000" font-family="sans-serif" font-size="11" lengthAdjust="spacingAndGlyphs" textLength="48" x="12" y="238.8198">turnOff()</text><!--class State--><rect fill="#FEFECE" filter="url(#fl39xr2y012ho)" height="53.9375" id="State" style="stroke: #A80036; stroke-width: 1.5;" width="75" x="120" y="175"/><ellipse cx="135" cy="193.9688" fill="#ADD1B2" rx="11" ry="11" style="stroke: #A80036; stroke-width: 1.0;"/><path d="M137.9688,199.6094 Q137.3906,199.9063 136.75,200.0547 Q136.1094,200.2031 135.4063,200.2031 Q132.9063,200.2031 131.5859,198.5547 Q130.2656,196.9063 130.2656,193.7813 Q130.2656,190.6563 131.5859,189 Q132.9063,187.3438 135.4063,187.3438 Q136.1094,187.3438 136.7578,187.5 Q137.4063,187.6563 137.9688,187.9531 L137.9688,190.6719 Q137.3438,190.0938 136.75,189.8203 Q136.1563,189.5469 135.5313,189.5469 Q134.1875,189.5469 133.5,190.6172 Q132.8125,191.6875 132.8125,193.7813 Q132.8125,195.875 133.5,196.9453 Q134.1875,198.0156 135.5313,198.0156 Q136.1563,198.0156 136.75,197.7422 Q137.3438,197.4688 137.9688,196.8906 L137.9688,199.6094 Z "/><text fill="#000000" font-family="sans-serif" font-size="12" font-style="italic" lengthAdjust="spacingAndGlyphs" textLength="47" x="147" y="191.1387">«enum»</text><text fill="#000000" font-family="sans-serif" font-size="12" lengthAdjust="spacingAndGlyphs" textLength="34" x="153.5" y="205.1074">State</text><line style="stroke: #A80036; stroke-width: 1.5;" x1="121" x2="194" y1="212.9375" y2="212.9375"/><line style="stroke: #A80036; stroke-width: 1.5;" x1="121" x2="194" y1="220.9375" y2="220.9375"/><path d="M230,174.5 L230,198 L195.1367,202 L230,206 L230,229.8984 A0,0 0 0 0 230,229.8984 L495,229.8984 A0,0 0 0 0 495,229.8984 L495,184.5 L485,174.5 L230,174.5 A0,0 0 0 0 230,174.5 " fill="#FBFB77" filter="url(#fl39xr2y012ho)" style="stroke: #A80036; stroke-width: 1.0;"/><path d="M485,174.5 L485,184.5 L495,184.5 L485,174.5 " fill="#FBFB77" style="stroke: #A80036; stroke-width: 1.0;"/><text fill="#000000" font-family="sans-serif" font-size="13" lengthAdjust="spacingAndGlyphs" textLength="157" x="236" y="191.5669">Eine Enumeration wird in</text><text fill="#000000" font-family="sans-serif" font-size="13" lengthAdjust="spacingAndGlyphs" textLength="213" x="236" y="206.6997">Klassendiagrammen mit «enum»</text><text fill="#000000" font-family="sans-serif" font-size="13" lengthAdjust="spacingAndGlyphs" textLength="244" x="236" y="221.8325">als besondere Klasse gekennzeichnet.</text><!--link switch1 to lamp1--><path d="M78.3394,82.3339 C73.2118,91.7585 68.208,102.0375 64.5,112 C59.5885,125.1961 55.8063,139.9785 52.9582,153.6891 " fill="none" id="switch1-lamp1" style="stroke: #A80036; stroke-width: 1.0;"/><polygon fill="#A80036" points="51.9508,158.687,57.6503,150.6549,52.9388,153.7856,49.8081,149.0741,51.9508,158.687" style="stroke: #A80036; stroke-width: 1.0;"/><text fill="#000000" font-family="sans-serif" font-size="13" lengthAdjust="spacingAndGlyphs" textLength="51" x="65.5" y="125.0669">controls</text><text fill="#000000" font-family="sans-serif" font-size="13" lengthAdjust="spacingAndGlyphs" textLength="8" x="66.0107" y="101.5879">1</text><text fill="#000000" font-family="sans-serif" font-size="13" lengthAdjust="spacingAndGlyphs" textLength="7" x="45.4026" y="147.9516">*</text><!--link switch1 to State--><path d="M114.7712,82.2068 C124.2924,108.9001 136.9899,144.4986 146.064,169.9382 " fill="none" id="switch1-State" style="stroke: #A80036; stroke-width: 1.0;"/><polygon fill="#A80036" points="147.8284,174.8851,148.5722,165.0644,146.1486,170.1757,141.0372,167.7521,147.8284,174.8851" style="stroke: #A80036; stroke-width: 1.0;"/><!--link lamp1 to State--><path d="M85.3125,202 C95.1577,202 105.0028,202 114.848,202 " fill="none" id="lamp1-State" style="stroke: #A80036; stroke-width: 1.0;"/><polygon fill="#A80036" points="119.9963,202,110.9963,198,114.9963,202,110.9963,206,119.9963,202" style="stroke: #A80036; stroke-width: 1.0;"/><!--
@startuml
class "Switch" as switch1 {
  state: State
  press()
}

class "Lamp" as lamp1 {
  state: State
  turnOn()
  turnOff()
}

class "State" << enum >>
note right
  Eine Enumeration wird in
  Klassendiagrammen mit «enum»
  als besondere Klasse gekennzeichnet.
end note


switch1 "1" - -> "*" lamp1 : controls
switch1 -> State
lamp1 -> State
@enduml

PlantUML version 1.2018.01(Sun Jan 28 19:08:22 CET 2018)
(APACHE source distribution)
Java Runtime: Java(TM) SE Runtime Environment
JVM: Java HotSpot(TM) 64-Bit Server VM
Java Version: 10.0.1+10
Operating System: Linux
OS Version: 4.18.1-arch1-1-ARCH
Default Encoding: UTF-8
Language: de
Country: DE
--></g></svg>