<?xml version="1.0" encoding="UTF-8" standalone="no"?><svg xmlns="http://www.w3.org/2000/svg" xmlns:xlink="http://www.w3.org/1999/xlink" contentScriptType="application/ecmascript" contentStyleType="text/css" height="256px" preserveAspectRatio="none" style="width:506px;height:256px;" version="1.1" viewBox="0 0 506 256" width="506px" zoomAndPan="magnify"><defs><filter height="300%" id="fl39xr2y012ho" width="300%" x="-1" y="-1"><feGaussianBlur result="blurOut" stdDeviation="2.0"/><feColorMatrix in="blurOut" result="blurOut2" type="matrix" values="0 0 0 0 0 0 0 0 0 0 0 0 0 0 0 0 0 0 .4 0"/><feOffset dx="4.0" dy="4.0" in="blurOut2" result="blurOut3"/><feBlend in="SourceGraphic" in2="blurOut3" mode="normal"/></filter></defs><g><!--class switch1--><rect fill="#FEFECE" filter="url(#fl39xr2y012ho)" height="73.6094" id="switch1" style="stroke: #A80036; stroke-width: 1.5;" width="78" x="62" y="8"/><ellipse cx="79.7" cy="24" fill="#ADD1B2" rx="11" ry="11" style="stroke: #A80036; stroke-width: 1.0;"/><path d="M82.6688,29.6406 Q82.0906,29.9375 81.45,30.0859 Q80.8094,30.2344 80.1063,30.2344 Q77.6063,30.2344 76.2859,28.5859 Q74.9656,26.9375 74.9656,23.8125 Q74.9656,20.6875 76.2859,19.0313 Q77.6063,17.375 80.1063,17.375 Q80.8094,17.375 81.4578,17.5313 Q82.1063,17.6875 82.6688,17.9844 L82.6688,20.7031 Q82.0438,20.125 81.45,19.8516 Q80.8563,19.5781 80.2313,19.5781 Q78.8875,19.5781 78.2,20.6484 Q77.5125,21.7188 77.5125,23.8125 Q77.5125,25.9063 78.2,26.9766 Q78.8875,28.0469 80.2313,28.0469 Q80.8563,28.0469 81.45,27.7734 Q82.0438,27.5 82.6688,26.9219 L82.6688,29.6406 Z "/><text fill="#000000" font-family="sans-serif" font-size="12" lengthAdjust="spacingAndGlyphs" textLength="40" x="94.3" y="28.1543">Switch</text><line style="stroke: #A80036; stroke-width: 1.5;" x1="63" x2="139" y1="40" y2="40"/><text fill="#000000" font-family="sans-serif" font-size="11" lengthAdjust="spacingAndGlyphs" textLength="66" x="68" y="54.2104">state: State</text><line style="stroke: #A80036; stroke-width: 1.5;" x1="63" x2="139" y1="60.8047" y2="60.8047"/><text fill="#000000" font-family="sans-serif" font-size="11" lengthAdjust="spacingAndGlyphs" textLength="41" x="68" y="75.0151">press()</text><!--class lamp1--><rect fill="#FEFECE" filter="url(#fl39xr2y012ho)" height="86.4141" id="lamp1" style="stroke: #A80036; stroke-width: 1.5;" width="78" x="6" y="159"/><ellipse cx="26.85" cy="175" fill="#ADD1B2" rx="11" ry="11" style="stroke: #A80036; stroke-width: 1.0;"/><path d="M29.8188,180.6406 Q29.2406,180.9375 28.6,181.0859 Q27.9594,181.2344 27.2563,181.2344 Q24.7563,181.2344 23.4359,179.5859 Q22.1156,177.9375 22.1156,174.8125 Q22.1156,171.6875 23.4359,170.0313 Q24.7563,168.375 27.2563,168.375 Q27.9594,168.375 28.6078,168.5313 Q29.2563,168.6875 29.8188,168.9844 L29.8188,171.7031 Q29.1938,171.125 28.6,170.8516 Q28.0063,170.5781 27.3813,170.5781 Q26.0375,170.5781 25.35,171.6484 Q24.6625,172.7188 24.6625,174.8125 Q24.6625,176.9063 25.35,177.9766 Q26.0375,179.0469 27.3813,179.0469 Q28.0063,179.0469 28.6,178.7734 Q29.1938,178.5 29.8188,177.9219 L29.8188,180.6406 Z "/><text fill="#000000" font-family="sans-serif" font-size="12" lengthAdjust="spacingAndGlyphs" textLength="33" x="42.15" y="179.1543">Lamp</text><line style="stroke: #A80036; stroke-width: 1.5;" x1="7" x2="83" y1="191" y2="191"/><text fill="#000000" font-family="sans-serif" font-size="11" lengthAdjust="spacingAndGlyphs" textLength="66" x="12" y="205.2104">state: State</text><line style="stroke: #A80036; stroke-width: 1.5;" x1="7" x2="83" y1="211.8047" y2="211.8047"/><text fill="#000000" font-family="sans-serif" font-size="11" lengthAdjust="spacingAndGlyphs" textLength="47" x="12" y="226.0151">turnOn()</text><text fill="#000000" font-family="sans-serif" font-size="11" lengthAdjust="spacingAndGlyphs" textLength="48" x="12" y="238.8198">turnOff()</text><!--class State--><rect fill="#FEFECE" filter="url(#fl39xr2y012ho)" height="53.9375" id="State" style="stroke: #A80036; stroke-width: 1.5;" width="75" x="119.5" y="175"/><ellipse cx="134.5" cy="193.9688" fill="#ADD1B2" rx="11" ry="11" style="stroke: #A80036; stroke-width: 1.0;"/><path d="M137.4688,199.6094 Q136.8906,199.9063 136.25,200.0547 Q135.6094,200.2031 134.9063,200.2031 Q132.4063,200.2031 131.0859,198.5547 Q129.7656,196.9063 129.7656,193.7813 Q129.7656,190.6563 131.0859,189 Q132.4063,187.3438 134.9063,187.3438 Q135.6094,187.3438 136.2578,187.5 Q136.9063,187.6563 137.4688,187.9531 L137.4688,190.6719 Q136.8438,190.0938 136.25,189.8203 Q135.6563,189.5469 135.0313,189.5469 Q133.6875,189.5469 133,190.6172 Q132.3125,191.6875 132.3125,193.7813 Q132.3125,195.875 133,196.9453 Q133.6875,198.0156 135.0313,198.0156 Q135.6563,198.0156 136.25,197.7422 Q136.8438,197.4688 137.4688,196.8906 L137.4688,199.6094 Z "/><text fill="#000000" font-family="sans-serif" font-size="12" font-style="italic" lengthAdjust="spacingAndGlyphs" textLength="47" x="146.5" y="191.1387">«enum»</text><text fill="#000000" font-family="sans-serif" font-size="12" lengthAdjust="spacingAndGlyphs" textLength="34" x="153" y="205.1074">State</text><line style="stroke: #A80036; stroke-width: 1.5;" x1="120.5" x2="193.5" y1="212.9375" y2="212.9375"/><line style="stroke: #A80036; stroke-width: 1.5;" x1="120.5" x2="193.5" y1="220.9375" y2="220.9375"/><path d="M229.5,174.5 L229.5,198 L194.6367,202 L229.5,206 L229.5,229.8984 A0,0 0 0 0 229.5,229.8984 L494.5,229.8984 A0,0 0 0 0 494.5,229.8984 L494.5,184.5 L484.5,174.5 L229.5,174.5 A0,0 0 0 0 229.5,174.5 " fill="#FBFB77" filter="url(#fl39xr2y012ho)" style="stroke: #A80036; stroke-width: 1.0;"/><path d="M484.5,174.5 L484.5,184.5 L494.5,184.5 L484.5,174.5 " fill="#FBFB77" style="stroke: #A80036; stroke-width: 1.0;"/><text fill="#000000" font-family="sans-serif" font-size="13" lengthAdjust="spacingAndGlyphs" textLength="157" x="235.5" y="191.5669">Eine Enumeration wird in</text><text fill="#000000" font-family="sans-serif" font-size="13" lengthAdjust="spacingAndGlyphs" textLength="213" x="235.5" y="206.6997">Klassendiagrammen mit «enum»</text><text fill="#000000" font-family="sans-serif" font-size="13" lengthAdjust="spacingAndGlyphs" textLength="244" x="235.5" y="221.8325">als besondere Klasse gekennzeichnet.</text><!--link switch1 to lamp1--><path d="M77.8394,82.3339 C72.7118,91.7585 67.708,102.0375 64,112 C59.0885,125.1961 55.3063,139.9785 52.4582,153.6891 " fill="none" id="switch1-lamp1" style="stroke: #A80036; stroke-width: 1.0;"/><polygon fill="#A80036" points="51.4508,158.687,57.1503,150.6549,52.4388,153.7856,49.3081,149.0741,51.4508,158.687" style="stroke: #A80036; stroke-width: 1.0;"/><text fill="#000000" font-family="sans-serif" font-size="13" lengthAdjust="spacingAndGlyphs" textLength="51" x="65" y="125.0669">controls</text><text fill="#000000" font-family="sans-serif" font-size="13" lengthAdjust="spacingAndGlyphs" textLength="8" x="65.5107" y="101.5879">1</text><text fill="#000000" font-family="sans-serif" font-size="13" lengthAdjust="spacingAndGlyphs" textLength="7" x="44.9026" y="147.9516">*</text><!--link switch1 to State--><path d="M114.2712,82.2068 C123.7924,108.9001 136.4899,144.4986 145.564,169.9382 " fill="none" id="switch1-State" style="stroke: #A80036; stroke-width: 1.0;"/><polygon fill="#A80036" points="147.3284,174.8851,148.0722,165.0644,145.6486,170.1757,140.5372,167.7521,147.3284,174.8851" style="stroke: #A80036; stroke-width: 1.0;"/><!--link lamp1 to State--><path d="M84.375,202 C94.2798,202 104.1846,202 114.0895,202 " fill="none" id="lamp1-State" style="stroke: #A80036; stroke-width: 1.0;"/><polygon fill="#A80036" points="119.269,202,110.269,198,114.269,202,110.269,206,119.269,202" style="stroke: #A80036; stroke-width: 1.0;"/><!--
@startuml
class "Switch" as switch1 {
  state: State
  press()
}

class "Lamp" as lamp1 {
  state: State
  turnOn()
  turnOff()
}

class "State" << enum >>
note right
  Eine Enumeration wird in
  Klassendiagrammen mit «enum»
  als besondere Klasse gekennzeichnet.
end note


switch1 "1" - -> "*" lamp1 : controls
switch1 -> State
lamp1 -> State
@enduml

PlantUML version 1.2018.01(Sun Jan 28 19:08:22 CET 2018)
(APACHE source distribution)
Java Runtime: OpenJDK Runtime Environment
JVM: OpenJDK 64-Bit Server VM
Java Version: 1.8.0_172-b11
Operating System: Linux
OS Version: 4.16.10-1-ARCH
Default Encoding: UTF-8
Language: de
Country: DE
--></g></svg>