<?xml version="1.0" encoding="UTF-8" standalone="no"?><svg xmlns="http://www.w3.org/2000/svg" xmlns:xlink="http://www.w3.org/1999/xlink" contentScriptType="application/ecmascript" contentStyleType="text/css" height="359px" preserveAspectRatio="none" style="width:326px;height:359px;" version="1.1" viewBox="0 0 326 359" width="326px" zoomAndPan="magnify"><defs><filter height="300%" id="fsn2gvdthr80n" width="300%" x="-1" y="-1"><feGaussianBlur result="blurOut" stdDeviation="2.0"/><feColorMatrix in="blurOut" result="blurOut2" type="matrix" values="0 0 0 0 0 0 0 0 0 0 0 0 0 0 0 0 0 0 .4 0"/><feOffset dx="4.0" dy="4.0" in="blurOut2" result="blurOut3"/><feBlend in="SourceGraphic" in2="blurOut3" mode="normal"/></filter></defs><g><!--class State--><rect fill="#FEFECE" filter="url(#fsn2gvdthr80n)" height="53.9375" id="State" style="stroke: #A80036; stroke-width: 1.5;" width="75" x="238.0993" y="271.5"/><ellipse cx="253.0993" cy="290.4688" fill="#ADD1B2" rx="11" ry="11" style="stroke: #A80036; stroke-width: 1.0;"/><path d="M256.068,296.1094 Q255.4899,296.4063 254.8493,296.5547 Q254.2087,296.7031 253.5056,296.7031 Q251.0056,296.7031 249.6852,295.0547 Q248.3649,293.4063 248.3649,290.2813 Q248.3649,287.1563 249.6852,285.5 Q251.0056,283.8438 253.5056,283.8438 Q254.2087,283.8438 254.8571,284 Q255.5056,284.1563 256.068,284.4531 L256.068,287.1719 Q255.4431,286.5938 254.8493,286.3203 Q254.2556,286.0469 253.6306,286.0469 Q252.2868,286.0469 251.5993,287.1172 Q250.9118,288.1875 250.9118,290.2813 Q250.9118,292.375 251.5993,293.4453 Q252.2868,294.5156 253.6306,294.5156 Q254.2556,294.5156 254.8493,294.2422 Q255.4431,293.9688 256.068,293.3906 L256.068,296.1094 Z "/><text fill="#000000" font-family="sans-serif" font-size="12" font-style="italic" lengthAdjust="spacingAndGlyphs" textLength="47" x="265.0993" y="287.6387">«enum»</text><text fill="#000000" font-family="sans-serif" font-size="12" lengthAdjust="spacingAndGlyphs" textLength="34" x="271.5993" y="301.6074">State</text><line style="stroke: #A80036; stroke-width: 1.5;" x1="239.0993" x2="312.0993" y1="309.4375" y2="309.4375"/><line style="stroke: #A80036; stroke-width: 1.5;" x1="239.0993" x2="312.0993" y1="317.4375" y2="317.4375"/><!--class switch1--><rect fill="#FEFECE" filter="url(#fsn2gvdthr80n)" height="112.0234" id="switch1" style="stroke: #A80036; stroke-width: 1.5;" width="117" x="110.0993" y="8"/><ellipse cx="145.3493" cy="24" fill="#ADD1B2" rx="11" ry="11" style="stroke: #A80036; stroke-width: 1.0;"/><path d="M148.3181,29.6406 Q147.7399,29.9375 147.0993,30.0859 Q146.4587,30.2344 145.7556,30.2344 Q143.2556,30.2344 141.9352,28.5859 Q140.6149,26.9375 140.6149,23.8125 Q140.6149,20.6875 141.9352,19.0313 Q143.2556,17.375 145.7556,17.375 Q146.4587,17.375 147.1071,17.5313 Q147.7556,17.6875 148.3181,17.9844 L148.3181,20.7031 Q147.6931,20.125 147.0993,19.8516 Q146.5056,19.5781 145.8806,19.5781 Q144.5368,19.5781 143.8493,20.6484 Q143.1618,21.7188 143.1618,23.8125 Q143.1618,25.9063 143.8493,26.9766 Q144.5368,28.0469 145.8806,28.0469 Q146.5056,28.0469 147.0993,27.7734 Q147.6931,27.5 148.3181,26.9219 L148.3181,29.6406 Z "/><text fill="#000000" font-family="sans-serif" font-size="12" lengthAdjust="spacingAndGlyphs" textLength="40" x="163.8493" y="28.1543">Switch</text><line style="stroke: #A80036; stroke-width: 1.5;" x1="111.0993" x2="226.0993" y1="40" y2="40"/><text fill="#000000" font-family="sans-serif" font-size="11" lengthAdjust="spacingAndGlyphs" textLength="105" x="116.0993" y="54.2104">state: State = OFF</text><line style="stroke: #A80036; stroke-width: 1.5;" x1="111.0993" x2="226.0993" y1="60.8047" y2="60.8047"/><text fill="#000000" font-family="sans-serif" font-size="11" lengthAdjust="spacingAndGlyphs" textLength="45" x="116.0993" y="75.0151">Switch()</text><text fill="#000000" font-family="sans-serif" font-size="11" lengthAdjust="spacingAndGlyphs" textLength="41" x="116.0993" y="87.8198">press()</text><text fill="#000000" font-family="sans-serif" font-size="11" lengthAdjust="spacingAndGlyphs" textLength="83" x="116.0993" y="100.6245">connect(Lamp)</text><text fill="#000000" font-family="sans-serif" font-size="11" lengthAdjust="spacingAndGlyphs" textLength="100" x="116.0993" y="113.4292">disconnect(Lamp)</text><!--class lamp1--><rect fill="#FEFECE" filter="url(#fsn2gvdthr80n)" height="99.2188" id="lamp1" style="stroke: #A80036; stroke-width: 1.5;" width="117" x="44.0993" y="249"/><ellipse cx="82.4993" cy="265" fill="#ADD1B2" rx="11" ry="11" style="stroke: #A80036; stroke-width: 1.0;"/><path d="M85.4681,270.6406 Q84.8899,270.9375 84.2493,271.0859 Q83.6087,271.2344 82.9056,271.2344 Q80.4056,271.2344 79.0852,269.5859 Q77.7649,267.9375 77.7649,264.8125 Q77.7649,261.6875 79.0852,260.0313 Q80.4056,258.375 82.9056,258.375 Q83.6087,258.375 84.2571,258.5313 Q84.9056,258.6875 85.4681,258.9844 L85.4681,261.7031 Q84.8431,261.125 84.2493,260.8516 Q83.6556,260.5781 83.0306,260.5781 Q81.6868,260.5781 80.9993,261.6484 Q80.3118,262.7188 80.3118,264.8125 Q80.3118,266.9063 80.9993,267.9766 Q81.6868,269.0469 83.0306,269.0469 Q83.6556,269.0469 84.2493,268.7734 Q84.8431,268.5 85.4681,267.9219 L85.4681,270.6406 Z "/><text fill="#000000" font-family="sans-serif" font-size="12" lengthAdjust="spacingAndGlyphs" textLength="33" x="101.6993" y="269.1543">Lamp</text><line style="stroke: #A80036; stroke-width: 1.5;" x1="45.0993" x2="160.0993" y1="281" y2="281"/><text fill="#000000" font-family="sans-serif" font-size="11" lengthAdjust="spacingAndGlyphs" textLength="105" x="50.0993" y="295.2104">state: State = OFF</text><line style="stroke: #A80036; stroke-width: 1.5;" x1="45.0993" x2="160.0993" y1="301.8047" y2="301.8047"/><text fill="#000000" font-family="sans-serif" font-size="11" lengthAdjust="spacingAndGlyphs" textLength="39" x="50.0993" y="316.0151">Lamp()</text><text fill="#000000" font-family="sans-serif" font-size="11" lengthAdjust="spacingAndGlyphs" textLength="47" x="50.0993" y="328.8198">turnOn()</text><text fill="#000000" font-family="sans-serif" font-size="11" lengthAdjust="spacingAndGlyphs" textLength="48" x="50.0993" y="341.6245">turnOff()</text><!--link switch1 to State--><path d="M227.3507,88.188 C253.2158,102.1498 280.998,122.4784 295.5993,150 C314.9837,186.5371 302.5754,234.9707 290.3883,266.4302 " fill="none" id="switch1-State" style="stroke: #A80036; stroke-width: 1.0;"/><polygon fill="#A80036" points="288.4391,271.3291,295.4829,264.4455,290.2876,266.6833,288.0497,261.4879,288.4391,271.3291" style="stroke: #A80036; stroke-width: 1.0;"/><!--link lamp1 to State--><path d="M161.3923,298.5 C185.1326,298.5 208.8728,298.5 232.6131,298.5 " fill="none" id="lamp1-State" style="stroke: #A80036; stroke-width: 1.0;"/><polygon fill="#A80036" points="237.679,298.5,228.679,294.5,232.679,298.5,228.679,302.5,237.679,298.5" style="stroke: #A80036; stroke-width: 1.0;"/><!--link switch1 to lamp1--><path d="M109.9674,80.7988 C76.2422,93.8081 36.6849,115.5582 16.5993,150 C1.1504,176.4911 4.3099,190.9035 16.5993,219 C22.1146,231.6093 30.7256,243.1085 40.4097,253.2031 " fill="none" id="switch1-lamp1" style="stroke: #A80036; stroke-width: 1.0;"/><polygon fill="#A80036" points="44.0223,256.8581,40.5403,247.6453,40.5074,253.3021,34.8506,253.2691,44.0223,256.8581" style="stroke: #A80036; stroke-width: 1.0;"/><text fill="#000000" font-family="sans-serif" font-size="13" lengthAdjust="spacingAndGlyphs" textLength="51" x="17.5993" y="189.1997">controls</text><path d="M74.5993,155 L74.5993,210 L282.5993,210 L282.5993,165 L272.5993,155 L74.5993,155 " fill="#FBFB77" filter="url(#fsn2gvdthr80n)" style="stroke: #A80036; stroke-width: 1.0;"/><path d="M272.5993,155 L272.5993,165 L282.5993,165 L272.5993,155 " fill="#FBFB77" style="stroke: #A80036; stroke-width: 1.0;"/><text fill="#000000" font-family="sans-serif" font-size="13" lengthAdjust="spacingAndGlyphs" textLength="172" x="80.5993" y="172.0669">Der Schalter kann jetzt nur</text><text fill="#000000" font-family="sans-serif" font-size="13" lengthAdjust="spacingAndGlyphs" textLength="187" x="80.5993" y="187.1997">noch eine Lampe verwenden,</text><text fill="#000000" font-family="sans-serif" font-size="13" lengthAdjust="spacingAndGlyphs" textLength="148" x="80.5993" y="202.3325">eine 1-zu-1-Beziehung.</text><text fill="#000000" font-family="sans-serif" font-size="13" lengthAdjust="spacingAndGlyphs" textLength="8" x="93.9427" y="79.0641">1</text><text fill="#000000" font-family="sans-serif" font-size="13" lengthAdjust="spacingAndGlyphs" textLength="8" x="28.0046" y="247.6232">1</text><!--
@startuml
class "State" << enum >>

class "Switch" as switch1 {
  state: State = OFF
  Switch()
  press()
  connect(Lamp)
  disconnect(Lamp)
}

class "Lamp" as lamp1 {
  state: State = OFF
  Lamp()
  turnOn()
  turnOff()
}

switch1 -> State
lamp1 -> State

switch1 "1" - -> "1" lamp1 : controls
note right on link
  Der Schalter kann jetzt nur
  noch eine Lampe verwenden,
  eine 1-zu-1-Beziehung.
end note
@enduml

PlantUML version 1.2018.01(Sun Jan 28 19:08:22 CET 2018)
(APACHE source distribution)
Java Runtime: Java(TM) SE Runtime Environment
JVM: Java HotSpot(TM) 64-Bit Server VM
Java Version: 10.0.1+10
Operating System: Linux
OS Version: 4.18.1-arch1-1-ARCH
Default Encoding: UTF-8
Language: de
Country: DE
--></g></svg>