<?xml version="1.0" encoding="UTF-8" standalone="no"?><svg xmlns="http://www.w3.org/2000/svg" xmlns:xlink="http://www.w3.org/1999/xlink" contentScriptType="application/ecmascript" contentStyleType="text/css" height="366px" preserveAspectRatio="none" style="width:644px;height:366px;" version="1.1" viewBox="0 0 644 366" width="644px" zoomAndPan="magnify"><defs><filter height="300%" id="f1anj88f0ft3ug" width="300%" x="-1" y="-1"><feGaussianBlur result="blurOut" stdDeviation="2.0"/><feColorMatrix in="blurOut" result="blurOut2" type="matrix" values="0 0 0 0 0 0 0 0 0 0 0 0 0 0 0 0 0 0 .4 0"/><feOffset dx="4.0" dy="4.0" in="blurOut2" result="blurOut3"/><feBlend in="SourceGraphic" in2="blurOut3" mode="normal"/></filter></defs><g><line style="stroke: #A80036; stroke-width: 1.0; stroke-dasharray: 5.0,5.0;" x1="43" x2="43" y1="86.2969" y2="278.8281"/><line style="stroke: #A80036; stroke-width: 1.0; stroke-dasharray: 5.0,5.0;" x1="161" x2="161" y1="86.2969" y2="278.8281"/><line style="stroke: #A80036; stroke-width: 1.0; stroke-dasharray: 5.0,5.0;" x1="307" x2="307" y1="86.2969" y2="278.8281"/><line style="stroke: #A80036; stroke-width: 1.0; stroke-dasharray: 5.0,5.0;" x1="441" x2="441" y1="86.2969" y2="278.8281"/><line style="stroke: #A80036; stroke-width: 1.0; stroke-dasharray: 5.0,5.0;" x1="575" x2="575" y1="86.2969" y2="278.8281"/><text fill="#000000" font-family="sans-serif" font-size="14" lengthAdjust="spacingAndGlyphs" textLength="64" x="8" y="82.9951">Benutzer</text><ellipse cx="43" cy="13" fill="#FEFECE" filter="url(#f1anj88f0ft3ug)" rx="8" ry="8" style="stroke: #A80036; stroke-width: 2.0;"/><path d="M43,21 L43,48 M30,29 L56,29 M43,48 L30,63 M43,48 L56,63 " fill="none" filter="url(#f1anj88f0ft3ug)" style="stroke: #A80036; stroke-width: 2.0;"/><text fill="#000000" font-family="sans-serif" font-size="14" lengthAdjust="spacingAndGlyphs" textLength="64" x="8" y="290.8232">Benutzer</text><ellipse cx="43" cy="304.125" fill="#FEFECE" filter="url(#f1anj88f0ft3ug)" rx="8" ry="8" style="stroke: #A80036; stroke-width: 2.0;"/><path d="M43,312.125 L43,339.125 M30,320.125 L56,320.125 M43,339.125 L30,354.125 M43,339.125 L56,354.125 " fill="none" filter="url(#f1anj88f0ft3ug)" style="stroke: #A80036; stroke-width: 2.0;"/><rect fill="#FEFECE" filter="url(#f1anj88f0ft3ug)" height="30.2969" style="stroke: #A80036; stroke-width: 1.5;" width="143" x="88" y="51"/><text fill="#000000" font-family="sans-serif" font-size="14" lengthAdjust="spacingAndGlyphs" textLength="129" x="95" y="70.9951">schalter1: Schalter</text><rect fill="#FEFECE" filter="url(#f1anj88f0ft3ug)" height="30.2969" style="stroke: #A80036; stroke-width: 1.5;" width="143" x="88" y="277.8281"/><text fill="#000000" font-family="sans-serif" font-size="14" lengthAdjust="spacingAndGlyphs" textLength="129" x="95" y="297.8232">schalter1: Schalter</text><rect fill="#FEFECE" filter="url(#f1anj88f0ft3ug)" height="30.2969" style="stroke: #A80036; stroke-width: 1.5;" width="120" x="245" y="51"/><text fill="#000000" font-family="sans-serif" font-size="14" lengthAdjust="spacingAndGlyphs" textLength="106" x="252" y="70.9951">lampe1: Lampe</text><rect fill="#FEFECE" filter="url(#f1anj88f0ft3ug)" height="30.2969" style="stroke: #A80036; stroke-width: 1.5;" width="120" x="245" y="277.8281"/><text fill="#000000" font-family="sans-serif" font-size="14" lengthAdjust="spacingAndGlyphs" textLength="106" x="252" y="297.8232">lampe1: Lampe</text><rect fill="#FEFECE" filter="url(#f1anj88f0ft3ug)" height="30.2969" style="stroke: #A80036; stroke-width: 1.5;" width="120" x="379" y="51"/><text fill="#000000" font-family="sans-serif" font-size="14" lengthAdjust="spacingAndGlyphs" textLength="106" x="386" y="70.9951">lampe2: Lampe</text><rect fill="#FEFECE" filter="url(#f1anj88f0ft3ug)" height="30.2969" style="stroke: #A80036; stroke-width: 1.5;" width="120" x="379" y="277.8281"/><text fill="#000000" font-family="sans-serif" font-size="14" lengthAdjust="spacingAndGlyphs" textLength="106" x="386" y="297.8232">lampe2: Lampe</text><rect fill="#FEFECE" filter="url(#f1anj88f0ft3ug)" height="30.2969" style="stroke: #A80036; stroke-width: 1.5;" width="120" x="513" y="51"/><text fill="#000000" font-family="sans-serif" font-size="14" lengthAdjust="spacingAndGlyphs" textLength="106" x="520" y="70.9951">lampe3: Lampe</text><rect fill="#FEFECE" filter="url(#f1anj88f0ft3ug)" height="30.2969" style="stroke: #A80036; stroke-width: 1.5;" width="120" x="513" y="277.8281"/><text fill="#000000" font-family="sans-serif" font-size="14" lengthAdjust="spacingAndGlyphs" textLength="106" x="520" y="297.8232">lampe3: Lampe</text><polygon fill="#A80036" points="149.5,113.2969,159.5,117.2969,149.5,121.2969,153.5,117.2969" style="stroke: #A80036; stroke-width: 1.0;"/><line style="stroke: #A80036; stroke-width: 1.0;" x1="43" x2="155.5" y1="117.2969" y2="117.2969"/><text fill="#000000" font-family="sans-serif" font-size="13" lengthAdjust="spacingAndGlyphs" textLength="61" x="50" y="112.3638">drücken()</text><polygon fill="#A80036" points="295,142.4297,305,146.4297,295,150.4297,299,146.4297" style="stroke: #A80036; stroke-width: 1.0;"/><line style="stroke: #A80036; stroke-width: 1.0;" x1="161.5" x2="301" y1="146.4297" y2="146.4297"/><text fill="#000000" font-family="sans-serif" font-size="13" lengthAdjust="spacingAndGlyphs" textLength="83" x="168.5" y="141.4966">einschalten()</text><polygon fill="#A80036" points="172.5,156.5625,162.5,160.5625,172.5,164.5625,168.5,160.5625" style="stroke: #A80036; stroke-width: 1.0;"/><line style="stroke: #A80036; stroke-width: 1.0; stroke-dasharray: 2.0,2.0;" x1="166.5" x2="306" y1="160.5625" y2="160.5625"/><polygon fill="#A80036" points="429,185.5625,439,189.5625,429,193.5625,433,189.5625" style="stroke: #A80036; stroke-width: 1.0;"/><line style="stroke: #A80036; stroke-width: 1.0;" x1="161.5" x2="435" y1="189.5625" y2="189.5625"/><text fill="#000000" font-family="sans-serif" font-size="13" lengthAdjust="spacingAndGlyphs" textLength="83" x="168.5" y="184.6294">einschalten()</text><polygon fill="#A80036" points="172.5,199.6953,162.5,203.6953,172.5,207.6953,168.5,203.6953" style="stroke: #A80036; stroke-width: 1.0;"/><line style="stroke: #A80036; stroke-width: 1.0; stroke-dasharray: 2.0,2.0;" x1="166.5" x2="440" y1="203.6953" y2="203.6953"/><polygon fill="#A80036" points="563,228.6953,573,232.6953,563,236.6953,567,232.6953" style="stroke: #A80036; stroke-width: 1.0;"/><line style="stroke: #A80036; stroke-width: 1.0;" x1="161.5" x2="569" y1="232.6953" y2="232.6953"/><text fill="#000000" font-family="sans-serif" font-size="13" lengthAdjust="spacingAndGlyphs" textLength="83" x="168.5" y="227.7622">einschalten()</text><polygon fill="#A80036" points="172.5,242.8281,162.5,246.8281,172.5,250.8281,168.5,246.8281" style="stroke: #A80036; stroke-width: 1.0;"/><line style="stroke: #A80036; stroke-width: 1.0; stroke-dasharray: 2.0,2.0;" x1="166.5" x2="574" y1="246.8281" y2="246.8281"/><polygon fill="#A80036" points="54,256.8281,44,260.8281,54,264.8281,50,260.8281" style="stroke: #A80036; stroke-width: 1.0;"/><line style="stroke: #A80036; stroke-width: 1.0; stroke-dasharray: 2.0,2.0;" x1="48" x2="160.5" y1="260.8281" y2="260.8281"/><!--
@startuml
actor Benutzer

Benutzer -> "schalter1: Schalter" as schalter1: drücken()

schalter1 -> "lampe1: Lampe" as lampe1: einschalten()
lampe1 - -> schalter1

schalter1 -> "lampe2: Lampe" as lampe2: einschalten()
lampe2 - -> schalter1

schalter1 -> "lampe3: Lampe" as lampe3: einschalten()
lampe3 - -> schalter1

schalter1 - -> Benutzer
@enduml

PlantUML version 1.2018.01(Sun Jan 28 19:08:22 CET 2018)
(APACHE source distribution)
Java Runtime: Java(TM) SE Runtime Environment
JVM: Java HotSpot(TM) 64-Bit Server VM
Java Version: 10.0.1+10
Operating System: Linux
OS Version: 4.18.1-arch1-1-ARCH
Default Encoding: UTF-8
Language: de
Country: DE
--></g></svg>