<?xml version="1.0" encoding="UTF-8" standalone="no"?><svg xmlns="http://www.w3.org/2000/svg" xmlns:xlink="http://www.w3.org/1999/xlink" contentScriptType="application/ecmascript" contentStyleType="text/css" height="104px" preserveAspectRatio="none" style="width:1042px;height:104px;" version="1.1" viewBox="0 0 1042 104" width="1042px" zoomAndPan="magnify"><defs><filter height="300%" id="f9bfc7ittneg" width="300%" x="-1" y="-1"><feGaussianBlur result="blurOut" stdDeviation="2.0"/><feColorMatrix in="blurOut" result="blurOut2" type="matrix" values="0 0 0 0 0 0 0 0 0 0 0 0 0 0 0 0 0 0 .4 0"/><feOffset dx="4.0" dy="4.0" in="blurOut2" result="blurOut3"/><feBlend in="SourceGraphic" in2="blurOut3" mode="normal"/></filter></defs><g><rect fill="#FEFECE" filter="url(#f9bfc7ittneg)" height="37.6094" style="stroke: #A80036; stroke-width: 1.5;" width="133" x="320" y="41.5"/><text fill="#000000" font-family="sans-serif" font-size="12" lengthAdjust="spacingAndGlyphs" text-decoration="underline" textLength="119" x="327" y="54.6387">schalter1: Schalter</text><line style="stroke: #000000; stroke-width: 1.0;" x1="327" x2="446" y1="56.6387" y2="56.6387"/><line style="stroke: #A80036; stroke-width: 1.5;" x1="321" x2="452" y1="59.4688" y2="59.4688"/><text fill="#000000" font-family="sans-serif" font-size="10" lengthAdjust="spacingAndGlyphs" textLength="74" x="326" y="72.751">zustand = AUS</text><rect fill="#FEFECE" filter="url(#f9bfc7ittneg)" height="37.6094" style="stroke: #A80036; stroke-width: 1.5;" width="109" x="6" y="41.5"/><text fill="#000000" font-family="sans-serif" font-size="12" lengthAdjust="spacingAndGlyphs" text-decoration="underline" textLength="95" x="13" y="54.6387">lampe1: Lampe</text><line style="stroke: #000000; stroke-width: 1.0;" x1="13" x2="108" y1="56.6387" y2="56.6387"/><line style="stroke: #A80036; stroke-width: 1.5;" x1="7" x2="114" y1="59.4688" y2="59.4688"/><text fill="#000000" font-family="sans-serif" font-size="10" lengthAdjust="spacingAndGlyphs" textLength="74" x="12" y="72.751">zustand = AUS</text><rect fill="#FEFECE" filter="url(#f9bfc7ittneg)" height="37.6094" style="stroke: #A80036; stroke-width: 1.5;" width="109" x="541" y="41.5"/><text fill="#000000" font-family="sans-serif" font-size="12" lengthAdjust="spacingAndGlyphs" text-decoration="underline" textLength="95" x="548" y="54.6387">lampe2: Lampe</text><line style="stroke: #000000; stroke-width: 1.0;" x1="548" x2="643" y1="56.6387" y2="56.6387"/><line style="stroke: #A80036; stroke-width: 1.5;" x1="542" x2="649" y1="59.4688" y2="59.4688"/><text fill="#000000" font-family="sans-serif" font-size="10" lengthAdjust="spacingAndGlyphs" textLength="74" x="547" y="72.751">zustand = AUS</text><rect fill="#FEFECE" filter="url(#f9bfc7ittneg)" height="37.6094" style="stroke: #A80036; stroke-width: 1.5;" width="109" x="685" y="41.5"/><text fill="#000000" font-family="sans-serif" font-size="12" lengthAdjust="spacingAndGlyphs" text-decoration="underline" textLength="95" x="692" y="54.6387">lampe3: Lampe</text><line style="stroke: #000000; stroke-width: 1.0;" x1="692" x2="787" y1="56.6387" y2="56.6387"/><line style="stroke: #A80036; stroke-width: 1.5;" x1="686" x2="793" y1="59.4688" y2="59.4688"/><text fill="#000000" font-family="sans-serif" font-size="10" lengthAdjust="spacingAndGlyphs" textLength="74" x="691" y="72.751">zustand = AUS</text><path d="M829,29 L829,56.5 L794.0508,60.5 L829,64.5 L829,92.3984 A0,0 0 0 0 829,92.3984 L1030,92.3984 A0,0 0 0 0 1030,92.3984 L1030,39 L1020,29 L829,29 A0,0 0 0 0 829,29 " fill="#FBFB77" filter="url(#f9bfc7ittneg)" style="stroke: #A80036; stroke-width: 1.0;"/><path d="M1020,29 L1020,39 L1030,39 L1020,29 " fill="#FBFB77" style="stroke: #A80036; stroke-width: 1.0;"/><text fill="#000000" font-family="sans-serif" font-size="13" lengthAdjust="spacingAndGlyphs" text-decoration="underline" textLength="131" x="835" y="46.0669">Objektname : Klasse</text><line style="stroke: #000000; stroke-width: 1.0;" x1="835" x2="966" y1="48.0669" y2="48.0669"/><text fill="#000000" font-family="sans-serif" font-size="13" lengthAdjust="spacingAndGlyphs" textLength="0" x="839" y="61.1997"/><line style="stroke: #A80036; stroke-width: 1.0;" x1="830" x2="1029" y1="64.2656" y2="64.2656"/><text fill="#000000" font-family="sans-serif" font-size="13" lengthAdjust="spacingAndGlyphs" textLength="180" x="835" y="80.3325">Attribut = Wert der Attributs</text><!--link lampe1 to schalter1--><path d="M120.0996,60.5 C176.5712,60.5 261.2449,60.5 319.9101,60.5 " fill="none" id="lampe1-schalter1" style="stroke: #A80036; stroke-width: 1.0;"/><polygon fill="#A80036" points="115.0651,60.5,124.0651,64.5,120.0651,60.5,124.0651,56.5,115.0651,60.5" style="stroke: #A80036; stroke-width: 1.0;"/><path d="M137.5,6.5 L137.5,31.5 L293.5,31.5 L293.5,16.5 L283.5,6.5 L137.5,6.5 " fill="#FBFB77" filter="url(#f9bfc7ittneg)" style="stroke: #A80036; stroke-width: 1.0;"/><path d="M283.5,6.5 L283.5,16.5 L293.5,16.5 L283.5,6.5 " fill="#FBFB77" style="stroke: #A80036; stroke-width: 1.0;"/><text fill="#000000" font-family="sans-serif" font-size="13" lengthAdjust="spacingAndGlyphs" textLength="135" x="143.5" y="23.5669">Name der Beziehung</text><text fill="#000000" font-family="sans-serif" font-size="13" lengthAdjust="spacingAndGlyphs" textLength="51" x="192" y="53.6997">schaltet</text><!--link schalter1 to lampe3--><path d="M431.1574,41.4066 C483.8643,21.448 573.9618,-4.5743 650,14 C670.0573,18.8995 690.6255,29.1507 706.9787,38.7842 " fill="none" id="schalter1-lampe3" style="stroke: #A80036; stroke-width: 1.0;"/><polygon fill="#A80036" points="711.4755,41.48,705.8132,33.4216,707.1871,38.909,701.6997,40.283,711.4755,41.48" style="stroke: #A80036; stroke-width: 1.0;"/><text fill="#000000" font-family="sans-serif" font-size="13" lengthAdjust="spacingAndGlyphs" textLength="51" x="644.0836" y="30.5053">schaltet</text><!--link schalter1 to lampe2--><path d="M453.2035,60.5 C479.7468,60.5 510.0501,60.5 535.8514,60.5 " fill="none" id="schalter1-lampe2" style="stroke: #A80036; stroke-width: 1.0;"/><polygon fill="#A80036" points="540.9491,60.5,531.9491,56.5,535.9491,60.5,531.9491,64.5,540.9491,60.5" style="stroke: #A80036; stroke-width: 1.0;"/><text fill="#000000" font-family="sans-serif" font-size="13" lengthAdjust="spacingAndGlyphs" textLength="51" x="471.5" y="53.5669">schaltet</text><!--
@startuml
object "<u>schalter1: Schalter</u>" as schalter1 {
  zustand = AUS
}

object "<u>lampe1: Lampe</u>" as lampe1 {
  zustand = AUS
}

object "<u>lampe2: Lampe</u>" as lampe2 {
  zustand = AUS
}

object "<u>lampe3: Lampe</u>" as lampe3 {
  zustand = AUS
}
note right
  <u>Objektname : Klasse</u>

  - -
  Attribut = Wert der Attributs
end note

lampe1 <- schalter1 : schaltet
note top on link
  Name der Beziehung
end note

schalter1 -> "schaltet" lampe3

schalter1 -> lampe2 : schaltet
@enduml

PlantUML version 1.2018.01(Sun Jan 28 19:08:22 CET 2018)
(APACHE source distribution)
Java Runtime: OpenJDK Runtime Environment
JVM: OpenJDK 64-Bit Server VM
Java Version: 1.8.0_172-b11
Operating System: Linux
OS Version: 4.16.10-1-ARCH
Default Encoding: UTF-8
Language: de
Country: DE
--></g></svg>